M48
;Layer_Color=9474304
;FILE_FORMAT=4:4
METRIC,LZ
;TYPE=PLATED
T1F00S00C0.3048
T4F00S00C1.0000
T5F00S00C1.0200
T6F00S00C1.0201
%
T01
X00009906Y00017018
X0000762Y0003429
X0001016Y0006985
X0002413
X00074186Y00080536
X00082346Y00072376
X00083255Y00089068
X0009144Y0008128
X00137422Y00112768
X00136144Y00127508
X00181991Y00066421
X0019174Y0007617
X00195961Y00052451
X0018923Y0003937
X0026416Y000762
X00307848Y00073976
X00324384Y00073976
X00315881Y00057492
X00318684Y00045009
X00301198Y00041248
X0034873Y0006735
X0034925Y0007874
X0037592Y0008255
Y0006985
X00361474Y00114266
X00348774
X00336074
X00323374
Y00126966
X00336074
Y00139441
X00348774
Y00126966
X00361474
Y00139666
X00323374
X00289496Y00108204
X00426782Y00137098
X0044704Y0012573
X00500126Y00103886
X0045085Y000381
X00437696Y00041352
X00437322Y00034005
X00423671Y00028444
X0041697Y00031802
X0041783Y00038862
X00423442Y0001123
X00519938Y0006985
X0053594Y0008001
X0056007
X00579372Y00087249
X005588Y0012319
X0054737
X0053086
X0054737Y00061223
X00545338Y00156718
X0056007Y0015621
X00577342Y0016256
X0053975Y0019812
X0051562Y0019177
X0051181Y0022352
X0055372Y0021717
X0057658Y0026162
Y0026924
X0058166Y0030099
X0059309
X00587739Y00313657
X00575039
X00562339
X00549639
X00536939
X00524239
X00511539
X00517889Y00326443
X00530589
X00543289
X00555989
X00568689
X00581389
X0059309
X0056896Y0030099
X0055626
X0054356
X0053086
X0051816
X0050546
X0049276
X0048006
X0046736
X0045466
X00441689Y00300957
X00428989
X00416289
X00403589
X00390889
X00378189
X00365489
X00358826Y0029845
Y00306187
X0035885Y00313684
X00345948Y00313657
Y0030607
Y0029718
Y00288257
Y0028067
Y0027178
Y00262857
Y0025527
X00345553Y0024511
Y0023749
X00333739Y00237457
X00321039
X00308339
X0030226Y0022479
X0031496
X0032766
X00340089Y00224757
X00345449Y0022098
Y00212057
X00345449Y00205733
X00345948Y0019812
Y0019177
X00342708Y0018669
X00358826Y00192185
Y0019939
X00359165Y0020701
Y0021336
Y0022098
Y002286
X00359269Y0023749
Y00244902
X00358826Y0025527
Y0026289
Y0027178
Y00281153
Y00288665
X00371839Y00288257
X00384539
X00397239
X00409939
X00422639
X00435339
X00448039
X00441689Y00275557
X00428989
X00416289
X00403589
X00390889
X00378189
X00365489
X00371839Y00262857
X00384539
X00397239
X00409939
X00422639
X00435339
X00448039
X00441689Y00250157
X00428989
X00416289
X00403589
X00390889
X00378189
X00365489
X00371839Y00237457
X00384539
X00397239
X00409939
X00422639
X00435339
X00448039
X0043942Y0022479
X0042672
X0041402
X0040132
X0038862
X00378189Y00224757
X00365489
X00340089Y00250157
X00327389
X00314689
X00301989
X00308339Y00262857
X00321039
X00333739
X00327389Y00275557
X00314689
X00301989
X00308339Y00288257
X00321039
X00333739
X00340089Y00300957
X00327389
X00314689
X00302209
X00289424Y0030607
Y0031877
Y0033401
Y0034671
Y0035941
Y0037211
Y00386792
Y00399492
Y00412192
Y00424892
X00302209Y00427957
Y00419498
Y00411038
Y00402579
Y00394119
Y00385659
Y003772
Y0036874
Y00360281
Y00351821
Y00343362
Y00334902
Y00326443
X00311404
X00318008
X0032639
X0033528
X00343662
X00361442Y00326357
X00370066Y00326443
X00378189Y00326443
X00390889
X00403589
X00416289
X00428989
X00441689
X00454389
X00467089
X00479789
X00492489
X00505189
X00498839Y00313657
X00486139
X00473439
X00460739
X00448039
X00435339
X00422639
X00409939
X00397239
X00384539
X00371839
X00333739
X00321039
X00308339
X002794Y0031242
Y0032512
X0027559Y00337108
Y00349808
Y00362508
Y00375208
Y0038989
Y0040259
Y0042799
X0021844Y0037465
X002159Y0036322
X0015871Y00358114
Y0035151
Y00344906
X00152106Y0035151
X00165314
X0016891Y0040894
X0014478Y0030988
X0014732Y0029337
X0014986Y0027686
X00232848Y00272218
X0022987Y0022098
X0021463
X002794Y0022225
Y0023495
X00289424Y0024003
Y0022733
Y0026543
Y0029337
X002794Y0029972
X00340089Y00275557
X0030861Y00205542
X0031115Y0019177
X0028702Y0017653
X00323374Y00152366
X00336074Y00152304
X00348774
X00361474Y00152366
X00389128Y00150368
X00390652Y0018923
X0039624Y0019939
X00415798Y0018288
X0044958Y00168666
Y0016129
Y0014732
X004699Y0015621
X0046228Y00202184
X00140393Y0014491
X0010287Y0016637
X00095468Y00178852
X00081587Y00184381
X00083999Y00167461
X0004572Y0019685
X00025146Y00196596
X00051409Y00295132
X0009525Y0028829
X0008763Y0035306
Y0037465
X00102154Y00409008
X00106842Y00425149
X0001016Y004191
X00009445Y00381149
T04
X0028067Y0025293
Y0027793
X00056696Y00252222
X00031696
T05
X00478028Y00040894
X00503428
X00528828
X00574066Y0006341
X0057305Y0013961
T06
X0021565Y0004445
Y0006985
X0024663
Y0004445
X0019914Y0010668
Y0013208
X00505964Y00143764
Y00169164
X0004293Y0031242
Y0033782
X0003429Y0036957
Y0039497
M30
