G04*
G04 #@! TF.GenerationSoftware,Altium Limited,Altium Designer,22.9.1 (49)*
G04*
G04 Layer_Color=65535*
%FSLAX44Y44*%
%MOMM*%
G71*
G04*
G04 #@! TF.SameCoordinates,777D21A2-CDB7-466F-AFFE-F37339BB67B1*
G04*
G04*
G04 #@! TF.FilePolarity,Positive*
G04*
G01*
G75*
%ADD10C,0.1000*%
%ADD11C,0.1524*%
%ADD12C,0.2000*%
%ADD13C,0.2500*%
%ADD14C,0.1270*%
%ADD15C,0.0254*%
%ADD16C,0.1999*%
%ADD17C,0.2540*%
G36*
X573337Y387040D02*
X584425Y387092D01*
X584735Y386886D01*
X584786Y385699D01*
X584993Y385596D01*
X585251Y385338D01*
X585354Y385132D01*
X585715Y384874D01*
X585921Y384565D01*
X586127Y384462D01*
X586334Y384152D01*
X586540Y384049D01*
X586695Y383894D01*
X586798Y383688D01*
X587210Y383379D01*
X587313Y383172D01*
X587726Y382863D01*
X587829Y382657D01*
X588242Y382347D01*
X588345Y382141D01*
X588654Y381935D01*
X588758Y381728D01*
X589119Y381470D01*
X589325Y381161D01*
X589531Y381058D01*
X589686Y380903D01*
X589789Y380697D01*
X590150Y380439D01*
X590356Y380130D01*
X590563Y380026D01*
X590717Y379872D01*
X590821Y379665D01*
X591130Y379459D01*
X591233Y379253D01*
X591594Y378995D01*
X591800Y378685D01*
X592007Y378582D01*
X592161Y378428D01*
X592265Y378221D01*
X592626Y377963D01*
X592832Y377654D01*
X593038Y377551D01*
X593193Y377396D01*
X593296Y377190D01*
X593605Y376983D01*
X593709Y376777D01*
X594121Y376468D01*
X594018Y344595D01*
X593863Y344441D01*
X592522Y344544D01*
X589376Y344492D01*
X588809Y344544D01*
X588654Y344389D01*
X588706Y344028D01*
X588912Y343925D01*
X589325Y343512D01*
X589531Y343409D01*
X589789Y343048D01*
X589944Y342893D01*
X590098Y342842D01*
X590202Y342636D01*
X590356Y342481D01*
X590563Y342378D01*
X590821Y342017D01*
X591027Y341914D01*
X591130Y341707D01*
X591388Y341450D01*
X591543Y341398D01*
X591646Y341192D01*
X591903Y340934D01*
X592058Y340882D01*
X592161Y340676D01*
X592419Y340418D01*
X592574Y340367D01*
X592677Y340160D01*
X592935Y339902D01*
X593090Y339851D01*
X593193Y339644D01*
X593348Y339490D01*
X593502Y339438D01*
X593605Y339232D01*
X593863Y338974D01*
X594018Y338922D01*
X594121Y338510D01*
X594018Y333662D01*
X582723Y333610D01*
X582156Y334075D01*
X576896Y339335D01*
X576792Y339541D01*
X576638Y339696D01*
X576277Y339644D01*
X576174Y339232D01*
X576225Y338458D01*
X576174Y334384D01*
X576277Y334075D01*
X576174Y333765D01*
X576019Y333610D01*
X550954Y333713D01*
X547189Y337478D01*
X547086Y337685D01*
X546931Y337839D01*
X546622Y337736D01*
X546519Y333817D01*
X546313Y333610D01*
X534863Y333713D01*
X534554Y334126D01*
X534348Y334229D01*
X534038Y334642D01*
X533832Y334745D01*
X533522Y335158D01*
X533316Y335261D01*
X533007Y335673D01*
X532852Y335725D01*
X532749Y335931D01*
X532594Y336086D01*
X532388Y336189D01*
X532130Y336550D01*
X531821Y336756D01*
X531717Y336963D01*
X531563Y337117D01*
X531356Y337220D01*
X531099Y337581D01*
X530789Y337788D01*
X530686Y337994D01*
X530531Y338149D01*
X530377Y338200D01*
X530273Y338407D01*
X530119Y338561D01*
X529912Y338665D01*
X529655Y339025D01*
X529345Y339232D01*
X529242Y339438D01*
X529087Y339593D01*
X528881Y339696D01*
X528623Y340057D01*
X528314Y340263D01*
X528210Y340470D01*
X528056Y340624D01*
X527901Y340676D01*
X527798Y340882D01*
X527643Y341037D01*
X527437Y341140D01*
X527179Y341501D01*
X526870Y341707D01*
X526766Y341914D01*
X526612Y342068D01*
X526405Y342172D01*
X526199Y342481D01*
X525735Y342533D01*
X523259Y342429D01*
X523053Y342223D01*
X523156Y341192D01*
X523053Y333765D01*
X522589Y333610D01*
X511552Y333713D01*
X505363Y339902D01*
X505106Y339851D01*
X505157Y334023D01*
X505054Y333713D01*
X504641Y333610D01*
X487416Y333713D01*
X487003Y334126D01*
X486797Y334229D01*
X485972Y335054D01*
X485766Y335158D01*
X485250Y335673D01*
X485043Y335776D01*
X484631Y336189D01*
X484425Y336292D01*
X484012Y336705D01*
X483857Y336756D01*
X483754Y336963D01*
X483393Y337220D01*
X482568Y338046D01*
X482362Y338149D01*
X482104Y338510D01*
X481794Y338716D01*
X481691Y338922D01*
X481537Y339077D01*
X481330Y339180D01*
X481175Y339335D01*
X481124Y339490D01*
X480918Y339593D01*
X477926Y342584D01*
X477772Y342636D01*
X477668Y342842D01*
X477050Y343255D01*
X476173Y344131D01*
X475967Y344234D01*
X475760Y344441D01*
X475503Y344389D01*
X475399Y344080D01*
X475503Y343770D01*
X475399Y333765D01*
X475245Y333610D01*
X464002Y333713D01*
X457813Y339902D01*
X457607Y339799D01*
X457503Y333713D01*
X457194Y333610D01*
X443785Y333713D01*
X443372Y334126D01*
X443166Y334229D01*
X442856Y334539D01*
X442650Y334642D01*
X442238Y335054D01*
X442031Y335158D01*
X441619Y335570D01*
X441413Y335673D01*
X441000Y336086D01*
X440794Y336189D01*
X440536Y336550D01*
X440175Y336808D01*
X440072Y337014D01*
X439865Y337117D01*
X438318Y338665D01*
X438163Y338716D01*
X438060Y338922D01*
X437699Y339180D01*
X437287Y339593D01*
X437080Y339696D01*
X436668Y340109D01*
X436461Y340212D01*
X433780Y342893D01*
X433573Y342997D01*
X432954Y343616D01*
X432800Y343667D01*
X432697Y343873D01*
X432542Y344028D01*
X432336Y344131D01*
X432129Y344441D01*
X431820Y344338D01*
X431768Y343770D01*
X431871Y343564D01*
X431768Y343255D01*
X431820Y333920D01*
X431614Y333610D01*
X420267Y333713D01*
X416502Y337478D01*
X416399Y337685D01*
X416142Y337839D01*
X415884Y337685D01*
X415780Y333765D01*
X415626Y333610D01*
X404176Y333713D01*
X403919Y334075D01*
X403609Y334281D01*
X403506Y334487D01*
X403351Y334642D01*
X403145Y334745D01*
X402887Y335106D01*
X402578Y335312D01*
X402475Y335519D01*
X402114Y335776D01*
X401907Y336086D01*
X401701Y336189D01*
X401443Y336550D01*
X401134Y336756D01*
X401031Y336963D01*
X400876Y337117D01*
X400670Y337220D01*
X400412Y337581D01*
X400102Y337788D01*
X399999Y337994D01*
X399638Y338252D01*
X399432Y338561D01*
X399226Y338665D01*
X398968Y339025D01*
X398658Y339232D01*
X398555Y339438D01*
X398400Y339593D01*
X398194Y339696D01*
X397936Y340057D01*
X397627Y340263D01*
X397524Y340470D01*
X397163Y340728D01*
X396956Y341037D01*
X396750Y341140D01*
X396492Y341501D01*
X396183Y341707D01*
X396079Y341914D01*
X395925Y342068D01*
X395718Y342172D01*
X395512Y342481D01*
X395306Y342584D01*
X394893Y342997D01*
X393759Y343100D01*
X393604Y343255D01*
X393501Y344183D01*
X393346Y344338D01*
X392727Y344234D01*
X392469Y343977D01*
X392366Y343564D01*
X392418Y333920D01*
X392315Y333713D01*
X391902Y333610D01*
X380865Y333713D01*
X374677Y339902D01*
X374419Y339851D01*
X374316Y333662D01*
X356935Y333610D01*
X356368Y334075D01*
X356007Y334332D01*
X355285Y335054D01*
X355079Y335158D01*
X354666Y335570D01*
X354460Y335673D01*
X354047Y336086D01*
X353841Y336189D01*
X353428Y336602D01*
X353222Y336705D01*
X353067Y336859D01*
X353016Y337014D01*
X352809Y337117D01*
X352655Y337272D01*
X352603Y337324D01*
X351778Y338149D01*
X351623Y338200D01*
X351520Y338407D01*
X351365Y338561D01*
X351159Y338665D01*
X350901Y339025D01*
X350540Y339283D01*
X350437Y339490D01*
X350231Y339593D01*
X349302Y340521D01*
X349096Y340624D01*
X348838Y340985D01*
X348632Y341088D01*
X348529Y341295D01*
X348374Y341450D01*
X348168Y341553D01*
X347910Y341914D01*
X347601Y342120D01*
X347497Y342326D01*
X347343Y342481D01*
X347136Y342584D01*
X346724Y342997D01*
X346517Y343100D01*
X346002Y343616D01*
X345796Y343719D01*
X345692Y343925D01*
X345486Y344028D01*
X344455Y345060D01*
X344248Y345163D01*
X343423Y345988D01*
X343217Y346091D01*
X342959Y346452D01*
X342649Y346658D01*
X342546Y346865D01*
X342185Y347122D01*
X340948Y348360D01*
X340741Y348464D01*
X339813Y349392D01*
X339607Y349495D01*
X339091Y350011D01*
X338885Y350114D01*
X338730Y350578D01*
X338627Y350991D01*
X338730Y351300D01*
X338678Y368474D01*
X338782Y368886D01*
X339607Y369712D01*
X339813Y369815D01*
X340329Y370331D01*
X340535Y370434D01*
X340741Y370743D01*
X340948Y370846D01*
X341876Y371775D01*
X342082Y371878D01*
X342289Y372187D01*
X342495Y372290D01*
X342649Y372445D01*
X342753Y372651D01*
X343114Y372909D01*
X343939Y373734D01*
X344145Y373838D01*
X344558Y374250D01*
X344712Y374302D01*
X344816Y374508D01*
X345434Y375024D01*
X345589Y375178D01*
X345796Y375282D01*
X346621Y376107D01*
X347033Y376210D01*
X364878Y376107D01*
X365032Y375952D01*
X365135Y375024D01*
X365858Y374095D01*
X370035Y369918D01*
X370293Y369969D01*
X370344Y370227D01*
X370293Y375849D01*
X370551Y376210D01*
X398503Y376107D01*
X399432Y375178D01*
X399638Y375075D01*
X400566Y374147D01*
X400773Y374044D01*
X401598Y373219D01*
X401804Y373116D01*
X402320Y372600D01*
X402475Y372548D01*
X402578Y372342D01*
X403197Y371826D01*
X403351Y371671D01*
X403506Y371620D01*
X403609Y371414D01*
X403764Y371259D01*
X403970Y371156D01*
X404125Y371001D01*
X404228Y370795D01*
X404589Y370537D01*
X405414Y369712D01*
X405569Y369660D01*
X405672Y369454D01*
X405827Y369299D01*
X406033Y369196D01*
X406497Y368732D01*
X406600Y367907D01*
X406755Y367752D01*
X406962Y367649D01*
X407219Y367288D01*
X407529Y367081D01*
X407632Y366875D01*
X407787Y366720D01*
X407993Y366617D01*
X408199Y366308D01*
X408405Y366205D01*
X408560Y366050D01*
X408663Y365844D01*
X409231Y365276D01*
X409540Y365379D01*
X409643Y375797D01*
X409850Y376107D01*
X410262Y376210D01*
X413150Y376313D01*
X413202Y376468D01*
X413047Y376726D01*
X412841Y376829D01*
X411087Y378582D01*
X410365Y378685D01*
X409850Y378789D01*
X409592Y379253D01*
X409695Y384823D01*
X409953Y385080D01*
X422330Y384977D01*
X422485Y384410D01*
X422382Y384101D01*
X422691Y383585D01*
X422898Y383379D01*
X423001Y383172D01*
X423362Y382914D01*
X423465Y382708D01*
X423671Y382605D01*
X423929Y382347D01*
X423981Y382192D01*
X424187Y382089D01*
X424445Y381831D01*
X424496Y381677D01*
X424703Y381574D01*
X424857Y381419D01*
X424961Y381213D01*
X425322Y380955D01*
X425528Y380748D01*
X425734Y380852D01*
X425786Y381213D01*
X425683Y381522D01*
X425786Y384926D01*
X425941Y385080D01*
X438318Y384977D01*
X438473Y384513D01*
X438679Y383585D01*
X445951Y376313D01*
X446363Y376210D01*
X448014Y376107D01*
X448169Y375952D01*
X448272Y374921D01*
X448581Y374611D01*
X448684Y374405D01*
X452862Y370227D01*
X453068Y370124D01*
X453274Y369918D01*
X453429Y369969D01*
X453532Y376055D01*
X453687Y376210D01*
X456884Y376313D01*
X456936Y376468D01*
X454822Y378582D01*
X454203Y378685D01*
X453893Y378582D01*
X453429Y378943D01*
X453532Y384926D01*
X453687Y385080D01*
X465961Y384977D01*
X466116Y384823D01*
X466219Y383997D01*
X466632Y383275D01*
X475348Y374560D01*
X475863Y374663D01*
X476018Y374817D01*
X476121Y375024D01*
X476276Y375178D01*
X476482Y375282D01*
X477308Y376107D01*
X477720Y376210D01*
X495564Y376107D01*
X495719Y375952D01*
X495874Y374972D01*
X496029Y374817D01*
X496338Y374302D01*
X500722Y369918D01*
X500980Y369969D01*
X501083Y376055D01*
X501238Y376210D01*
X529190Y376107D01*
X530119Y375178D01*
X530325Y375075D01*
X531253Y374147D01*
X531460Y374044D01*
X531975Y373528D01*
X532130Y373476D01*
X532182Y373322D01*
X532388Y373219D01*
X532904Y372703D01*
X533110Y372600D01*
X534038Y371671D01*
X534193Y371620D01*
X534296Y371414D01*
X534451Y371259D01*
X534657Y371156D01*
X534812Y371001D01*
X534863Y370846D01*
X535070Y370743D01*
X536101Y369712D01*
X536307Y369608D01*
X537184Y368732D01*
X537287Y367907D01*
X537442Y367752D01*
X537648Y367649D01*
X537958Y367236D01*
X538164Y367133D01*
X538474Y366720D01*
X538680Y366617D01*
X538886Y366308D01*
X539092Y366205D01*
X539247Y366050D01*
X539350Y365844D01*
X539918Y365276D01*
X540279Y365328D01*
X540382Y375849D01*
X540743Y376210D01*
X553017Y376107D01*
X553172Y375540D01*
X553069Y375127D01*
X553533Y374560D01*
X553791Y374199D01*
X553997Y374095D01*
X554100Y373889D01*
X554255Y373734D01*
X554461Y373631D01*
X554719Y373270D01*
X555029Y373064D01*
X555132Y372858D01*
X555286Y372703D01*
X555493Y372600D01*
X555751Y372239D01*
X556060Y372033D01*
X556163Y371826D01*
X556318Y371671D01*
X556473Y371620D01*
X556576Y371414D01*
X556730Y371259D01*
X556937Y371156D01*
X557195Y370795D01*
X557504Y370588D01*
X557607Y370382D01*
X557762Y370227D01*
X557968Y370124D01*
X558226Y369763D01*
X558432Y369660D01*
X558536Y369454D01*
X558793Y369196D01*
X558948Y369144D01*
X559051Y368938D01*
X559206Y368783D01*
X559412Y368680D01*
X559670Y368319D01*
X559980Y368113D01*
X560083Y367907D01*
X560238Y367752D01*
X560444Y367649D01*
X560702Y367288D01*
X561011Y367081D01*
X561114Y366875D01*
X561269Y366720D01*
X561424Y366669D01*
X561527Y366463D01*
X561682Y366308D01*
X561888Y366205D01*
X562146Y365844D01*
X562455Y365637D01*
X562558Y365225D01*
X562455Y364915D01*
X562558Y355013D01*
X563022Y354859D01*
X566529Y354755D01*
X566787Y354497D01*
X566890Y354085D01*
X566994Y353363D01*
X567200Y353157D01*
X567303Y352950D01*
X567458Y352796D01*
X567664Y352692D01*
X567922Y352332D01*
X568231Y352125D01*
X568335Y351919D01*
X568489Y351764D01*
X568695Y351661D01*
X568953Y351300D01*
X569263Y351094D01*
X569366Y350887D01*
X569727Y350630D01*
X569933Y350320D01*
X570140Y350217D01*
X570397Y349856D01*
X570707Y349650D01*
X570810Y349443D01*
X571119Y349237D01*
X571223Y349031D01*
X571584Y348670D01*
X571842Y348825D01*
X571945Y349031D01*
X572099Y349289D01*
X572821Y349495D01*
X573543Y349392D01*
X576586Y349443D01*
X577154Y349392D01*
X577411Y349547D01*
X577308Y349959D01*
X576947Y350217D01*
X573647Y353518D01*
X573440Y353621D01*
X573234Y353827D01*
X572821Y353930D01*
X572512Y353827D01*
X571996Y354137D01*
X571842Y354601D01*
X571945Y386782D01*
X572202Y387040D01*
X573028Y387144D01*
X573337Y387040D01*
D02*
G37*
G36*
X534130Y185867D02*
X534067Y186119D01*
X534099Y186529D01*
X534256Y186560D01*
X534382Y186434D01*
X534445Y186182D01*
X534571Y185363D01*
X534634Y185174D01*
X534540Y185079D01*
X534351Y185142D01*
X534256Y185489D01*
X534130Y185804D01*
Y185867D01*
D02*
G37*
G36*
X589407Y396621D02*
X485013D01*
Y426339D01*
X589407D01*
Y396621D01*
D02*
G37*
G36*
X269138Y18322D02*
X269487Y18300D01*
X269922Y18257D01*
X270423Y18192D01*
X270989Y18126D01*
X270618Y16189D01*
X270597D01*
X270532Y16211D01*
X270423Y16233D01*
X270292Y16254D01*
X269987Y16276D01*
X269683Y16298D01*
X269530D01*
X269443Y16276D01*
X269225Y16233D01*
X269138Y16189D01*
X269051Y16145D01*
X269030Y16124D01*
X268964Y16037D01*
X268877Y15884D01*
X268790Y15667D01*
Y15623D01*
Y15580D01*
Y15514D01*
X268768Y15405D01*
Y15297D01*
Y15144D01*
Y14948D01*
X270314D01*
Y12597D01*
X268768D01*
Y6546D01*
X265547D01*
Y12597D01*
X264349D01*
Y14948D01*
X265547D01*
Y15318D01*
Y15340D01*
Y15405D01*
Y15514D01*
X265568Y15667D01*
Y15819D01*
X265590Y16015D01*
X265655Y16450D01*
Y16472D01*
X265677Y16559D01*
X265699Y16668D01*
X265742Y16798D01*
X265873Y17125D01*
X266069Y17452D01*
X266091Y17473D01*
X266134Y17517D01*
X266200Y17582D01*
X266287Y17669D01*
X266417Y17778D01*
X266548Y17887D01*
X266722Y17996D01*
X266918Y18083D01*
X266940Y18105D01*
X267027Y18126D01*
X267157Y18170D01*
X267332Y18213D01*
X267549Y18257D01*
X267832Y18300D01*
X268159Y18344D01*
X268877D01*
X269138Y18322D01*
D02*
G37*
G36*
X262826D02*
X263174Y18300D01*
X263609Y18257D01*
X264110Y18192D01*
X264676Y18126D01*
X264306Y16189D01*
X264284D01*
X264219Y16211D01*
X264110Y16233D01*
X263979Y16254D01*
X263675Y16276D01*
X263370Y16298D01*
X263218D01*
X263130Y16276D01*
X262913Y16233D01*
X262826Y16189D01*
X262739Y16145D01*
X262717Y16124D01*
X262652Y16037D01*
X262564Y15884D01*
X262477Y15667D01*
Y15623D01*
Y15580D01*
Y15514D01*
X262456Y15405D01*
Y15297D01*
Y15144D01*
Y14948D01*
X264001D01*
Y12597D01*
X262456D01*
Y6546D01*
X259234D01*
Y12597D01*
X258037D01*
Y14948D01*
X259234D01*
Y15318D01*
Y15340D01*
Y15405D01*
Y15514D01*
X259256Y15667D01*
Y15819D01*
X259277Y16015D01*
X259343Y16450D01*
Y16472D01*
X259365Y16559D01*
X259386Y16668D01*
X259430Y16798D01*
X259561Y17125D01*
X259756Y17452D01*
X259778Y17473D01*
X259822Y17517D01*
X259887Y17582D01*
X259974Y17669D01*
X260105Y17778D01*
X260235Y17887D01*
X260409Y17996D01*
X260605Y18083D01*
X260627Y18105D01*
X260714Y18126D01*
X260845Y18170D01*
X261019Y18213D01*
X261237Y18257D01*
X261520Y18300D01*
X261846Y18344D01*
X262564D01*
X262826Y18322D01*
D02*
G37*
G36*
X210888Y15950D02*
X207666D01*
Y18148D01*
X210888D01*
Y15950D01*
D02*
G37*
G36*
X234484Y18322D02*
X234680D01*
X234876Y18300D01*
X235115Y18279D01*
X235376Y18235D01*
X235921Y18148D01*
X236487Y17996D01*
X237031Y17800D01*
X237292Y17669D01*
X237510Y17517D01*
X237532D01*
X237553Y17473D01*
X237706Y17364D01*
X237901Y17169D01*
X238119Y16886D01*
X238380Y16516D01*
X238489Y16298D01*
X238598Y16058D01*
X238707Y15797D01*
X238794Y15514D01*
X238859Y15209D01*
X238925Y14883D01*
X235551Y14687D01*
Y14731D01*
X235529Y14818D01*
X235485Y14948D01*
X235420Y15122D01*
X235333Y15318D01*
X235246Y15493D01*
X235115Y15667D01*
X234963Y15819D01*
X234941Y15841D01*
X234876Y15884D01*
X234789Y15928D01*
X234658Y16015D01*
X234484Y16080D01*
X234266Y16124D01*
X234027Y16167D01*
X233766Y16189D01*
X233657D01*
X233548Y16167D01*
X233417Y16145D01*
X233091Y16080D01*
X232938Y15993D01*
X232808Y15906D01*
X232786Y15884D01*
X232764Y15862D01*
X232656Y15732D01*
X232547Y15536D01*
X232525Y15405D01*
X232503Y15275D01*
Y15253D01*
Y15231D01*
X232547Y15101D01*
X232612Y14948D01*
X232677Y14861D01*
X232764Y14774D01*
X232786D01*
X232830Y14731D01*
X232895Y14687D01*
X233004Y14622D01*
X233178Y14556D01*
X233374Y14491D01*
X233635Y14404D01*
X233962Y14339D01*
X233983D01*
X234070Y14317D01*
X234179Y14295D01*
X234353Y14252D01*
X234549Y14208D01*
X234767Y14143D01*
X235006Y14099D01*
X235268Y14034D01*
X235812Y13860D01*
X236378Y13707D01*
X236900Y13512D01*
X237140Y13425D01*
X237336Y13316D01*
X237357D01*
X237379Y13294D01*
X237510Y13229D01*
X237684Y13120D01*
X237901Y12967D01*
X238141Y12772D01*
X238402Y12554D01*
X238620Y12314D01*
X238816Y12031D01*
X238838Y11988D01*
X238881Y11901D01*
X238968Y11748D01*
X239055Y11531D01*
X239142Y11270D01*
X239229Y10986D01*
X239273Y10660D01*
X239295Y10312D01*
Y10290D01*
Y10268D01*
Y10203D01*
Y10116D01*
X239273Y9920D01*
X239208Y9637D01*
X239142Y9310D01*
X239034Y8962D01*
X238881Y8614D01*
X238663Y8244D01*
X238642Y8200D01*
X238555Y8091D01*
X238402Y7917D01*
X238228Y7721D01*
X237967Y7482D01*
X237684Y7243D01*
X237336Y7025D01*
X236944Y6829D01*
X236922D01*
X236900Y6807D01*
X236835Y6785D01*
X236748Y6764D01*
X236639Y6720D01*
X236508Y6676D01*
X236182Y6589D01*
X235768Y6502D01*
X235289Y6415D01*
X234745Y6372D01*
X234136Y6350D01*
X233853D01*
X233657Y6372D01*
X233417Y6393D01*
X233134Y6415D01*
X232830Y6437D01*
X232503Y6502D01*
X231828Y6633D01*
X231154Y6829D01*
X230827Y6959D01*
X230522Y7112D01*
X230261Y7286D01*
X230022Y7482D01*
X230000Y7504D01*
X229978Y7526D01*
X229913Y7591D01*
X229847Y7678D01*
X229760Y7808D01*
X229652Y7939D01*
X229543Y8091D01*
X229434Y8266D01*
X229216Y8679D01*
X229020Y9180D01*
X228846Y9746D01*
X228803Y10050D01*
X228759Y10377D01*
X232177Y10595D01*
Y10551D01*
X232198Y10464D01*
X232220Y10312D01*
X232264Y10138D01*
X232416Y9724D01*
X232503Y9506D01*
X232612Y9332D01*
X232634Y9310D01*
X232721Y9223D01*
X232851Y9115D01*
X233025Y8984D01*
X233243Y8853D01*
X233526Y8745D01*
X233831Y8657D01*
X234201Y8636D01*
X234332D01*
X234462Y8657D01*
X234636Y8679D01*
X234832Y8723D01*
X235028Y8788D01*
X235202Y8875D01*
X235376Y8984D01*
X235398Y9006D01*
X235442Y9049D01*
X235507Y9136D01*
X235594Y9223D01*
X235746Y9485D01*
X235790Y9637D01*
X235812Y9811D01*
Y9833D01*
Y9898D01*
X235790Y9985D01*
X235768Y10094D01*
X235703Y10203D01*
X235638Y10355D01*
X235529Y10486D01*
X235398Y10617D01*
X235376Y10638D01*
X235311Y10682D01*
X235202Y10747D01*
X235028Y10834D01*
X234789Y10943D01*
X234462Y11052D01*
X234266Y11117D01*
X234070Y11183D01*
X233831Y11226D01*
X233570Y11291D01*
X233548D01*
X233461Y11313D01*
X233352Y11357D01*
X233178Y11400D01*
X232982Y11444D01*
X232764Y11509D01*
X232525Y11596D01*
X232264Y11683D01*
X231698Y11879D01*
X231154Y12119D01*
X230631Y12401D01*
X230392Y12554D01*
X230196Y12706D01*
X230152Y12750D01*
X230043Y12859D01*
X229869Y13054D01*
X229695Y13316D01*
X229521Y13642D01*
X229347Y14012D01*
X229238Y14469D01*
X229216Y14687D01*
X229194Y14948D01*
Y14992D01*
Y15101D01*
X229216Y15275D01*
X229260Y15493D01*
X229325Y15754D01*
X229412Y16037D01*
X229521Y16320D01*
X229695Y16624D01*
X229717Y16668D01*
X229804Y16755D01*
X229913Y16907D01*
X230087Y17082D01*
X230305Y17277D01*
X230588Y17495D01*
X230892Y17713D01*
X231262Y17887D01*
X231284D01*
X231306Y17909D01*
X231371Y17931D01*
X231458Y17952D01*
X231567Y17996D01*
X231698Y18039D01*
X231850Y18083D01*
X232003Y18126D01*
X232416Y18192D01*
X232917Y18279D01*
X233483Y18322D01*
X234114Y18344D01*
X234332D01*
X234484Y18322D01*
D02*
G37*
G36*
X219203Y15122D02*
X219442Y15101D01*
X219747Y15035D01*
X220074Y14948D01*
X220422Y14796D01*
X220770Y14600D01*
X221075Y14339D01*
X221119Y14295D01*
X221206Y14186D01*
X221315Y13990D01*
X221467Y13729D01*
X221597Y13381D01*
X221728Y12967D01*
X221815Y12467D01*
X221837Y11879D01*
Y6546D01*
X218594D01*
Y11161D01*
Y11204D01*
Y11291D01*
X218572Y11422D01*
X218550Y11596D01*
X218463Y11966D01*
X218398Y12140D01*
X218289Y12271D01*
X218267Y12293D01*
X218245Y12336D01*
X218180Y12380D01*
X218093Y12445D01*
X217962Y12510D01*
X217832Y12576D01*
X217679Y12597D01*
X217483Y12619D01*
X217396D01*
X217287Y12597D01*
X217135Y12554D01*
X216983Y12510D01*
X216830Y12423D01*
X216678Y12314D01*
X216526Y12162D01*
X216504Y12140D01*
X216482Y12075D01*
X216417Y11966D01*
X216351Y11792D01*
X216286Y11574D01*
X216243Y11313D01*
X216199Y10965D01*
X216177Y10573D01*
Y6546D01*
X212956D01*
Y14948D01*
X215938D01*
Y13577D01*
X215960Y13620D01*
X216047Y13707D01*
X216177Y13860D01*
X216351Y14034D01*
X216569Y14230D01*
X216787Y14426D01*
X217026Y14622D01*
X217287Y14774D01*
X217309Y14796D01*
X217418Y14839D01*
X217570Y14883D01*
X217766Y14970D01*
X218006Y15035D01*
X218289Y15079D01*
X218615Y15122D01*
X218985Y15144D01*
X219116D01*
X219203Y15122D01*
D02*
G37*
G36*
X194649Y6546D02*
X191710D01*
Y15384D01*
X189446Y6546D01*
X186791D01*
X184549Y15384D01*
Y6546D01*
X181610D01*
Y18148D01*
X186334D01*
X188119Y11074D01*
X189925Y18148D01*
X194649D01*
Y6546D01*
D02*
G37*
G36*
X256927D02*
X253901D01*
Y7896D01*
X253879Y7852D01*
X253792Y7765D01*
X253661Y7613D01*
X253487Y7438D01*
X253270Y7221D01*
X253030Y7025D01*
X252791Y6851D01*
X252530Y6698D01*
X252508Y6676D01*
X252399Y6655D01*
X252268Y6589D01*
X252072Y6524D01*
X251833Y6459D01*
X251528Y6415D01*
X251223Y6372D01*
X250853Y6350D01*
X250723D01*
X250636Y6372D01*
X250396Y6393D01*
X250091Y6459D01*
X249765Y6546D01*
X249417Y6676D01*
X249068Y6872D01*
X248764Y7134D01*
X248742Y7177D01*
X248655Y7286D01*
X248524Y7482D01*
X248394Y7743D01*
X248263Y8091D01*
X248132Y8505D01*
X248045Y9006D01*
X248024Y9593D01*
Y14948D01*
X251267D01*
Y10312D01*
Y10268D01*
Y10181D01*
X251289Y10050D01*
X251311Y9876D01*
X251398Y9506D01*
X251463Y9354D01*
X251550Y9202D01*
X251572Y9180D01*
X251615Y9158D01*
X251681Y9093D01*
X251768Y9049D01*
X251877Y8984D01*
X252029Y8919D01*
X252203Y8897D01*
X252377Y8875D01*
X252486D01*
X252573Y8897D01*
X252725Y8940D01*
X252878Y8984D01*
X253030Y9049D01*
X253183Y9158D01*
X253335Y9310D01*
X253357Y9332D01*
X253400Y9398D01*
X253444Y9506D01*
X253531Y9681D01*
X253596Y9898D01*
X253640Y10159D01*
X253683Y10508D01*
X253705Y10899D01*
Y14948D01*
X256927D01*
Y6546D01*
D02*
G37*
G36*
X210888D02*
X207666D01*
Y14948D01*
X210888D01*
Y6546D01*
D02*
G37*
G36*
X201767Y15122D02*
X202137Y15101D01*
X202529Y15079D01*
X202899Y15035D01*
X203247Y14970D01*
X203291D01*
X203400Y14948D01*
X203552Y14905D01*
X203770Y14839D01*
X204009Y14731D01*
X204249Y14622D01*
X204488Y14469D01*
X204727Y14295D01*
X204749Y14274D01*
X204793Y14230D01*
X204880Y14143D01*
X204967Y14034D01*
X205076Y13903D01*
X205184Y13729D01*
X205293Y13533D01*
X205380Y13294D01*
X205402Y13272D01*
X205424Y13185D01*
X205467Y13054D01*
X205511Y12902D01*
X205555Y12706D01*
X205576Y12488D01*
X205620Y12271D01*
Y12031D01*
Y8331D01*
Y8309D01*
Y8222D01*
Y8113D01*
Y7983D01*
X205642Y7678D01*
X205663Y7526D01*
X205685Y7395D01*
Y7373D01*
X205707Y7330D01*
X205729Y7264D01*
X205751Y7177D01*
X205794Y7047D01*
X205859Y6894D01*
X206012Y6546D01*
X202986D01*
Y6568D01*
X202964Y6589D01*
X202899Y6720D01*
X202812Y6872D01*
X202747Y7025D01*
Y7068D01*
X202703Y7155D01*
X202681Y7330D01*
X202638Y7547D01*
X202616Y7526D01*
X202529Y7460D01*
X202398Y7351D01*
X202246Y7221D01*
X202050Y7090D01*
X201832Y6938D01*
X201615Y6807D01*
X201375Y6698D01*
X201332Y6676D01*
X201223Y6655D01*
X201049Y6589D01*
X200809Y6524D01*
X200526Y6459D01*
X200178Y6415D01*
X199808Y6372D01*
X199394Y6350D01*
X199242D01*
X199155Y6372D01*
X199024D01*
X198872Y6393D01*
X198545Y6437D01*
X198175Y6524D01*
X197805Y6655D01*
X197435Y6807D01*
X197109Y7047D01*
X197087Y7068D01*
X197000Y7177D01*
X196869Y7330D01*
X196739Y7526D01*
X196586Y7765D01*
X196477Y8070D01*
X196390Y8396D01*
X196347Y8766D01*
Y8788D01*
Y8810D01*
Y8919D01*
X196369Y9093D01*
X196412Y9332D01*
X196477Y9572D01*
X196586Y9833D01*
X196717Y10094D01*
X196891Y10333D01*
X196913Y10355D01*
X197000Y10442D01*
X197152Y10551D01*
X197370Y10682D01*
X197653Y10834D01*
X198001Y10986D01*
X198437Y11117D01*
X198698Y11183D01*
X198959Y11248D01*
X198981D01*
X199046Y11270D01*
X199133Y11291D01*
X199264Y11313D01*
X199394Y11335D01*
X199568Y11378D01*
X199939Y11444D01*
X200330Y11531D01*
X200722Y11618D01*
X201070Y11705D01*
X201201Y11748D01*
X201310Y11770D01*
X201332D01*
X201397Y11792D01*
X201506Y11836D01*
X201658Y11879D01*
X201832Y11944D01*
X202028Y12010D01*
X202464Y12162D01*
Y12184D01*
Y12249D01*
X202442Y12358D01*
Y12488D01*
X202355Y12750D01*
X202289Y12880D01*
X202202Y12989D01*
Y13011D01*
X202159Y13033D01*
X202094Y13076D01*
X202006Y13120D01*
X201898Y13163D01*
X201745Y13185D01*
X201571Y13229D01*
X201223D01*
X201092Y13207D01*
X200918D01*
X200526Y13120D01*
X200352Y13054D01*
X200178Y12967D01*
X200156D01*
X200134Y12924D01*
X200069Y12880D01*
X200004Y12793D01*
X199939Y12706D01*
X199851Y12576D01*
X199764Y12423D01*
X199699Y12227D01*
X196608Y12554D01*
Y12597D01*
X196630Y12684D01*
X196673Y12837D01*
X196717Y13011D01*
X196869Y13425D01*
X196978Y13642D01*
X197087Y13816D01*
X197109Y13838D01*
X197152Y13903D01*
X197239Y13990D01*
X197348Y14099D01*
X197479Y14208D01*
X197631Y14361D01*
X197827Y14491D01*
X198045Y14622D01*
X198067Y14643D01*
X198132Y14665D01*
X198219Y14709D01*
X198349Y14752D01*
X198524Y14818D01*
X198741Y14883D01*
X198981Y14948D01*
X199242Y14992D01*
X199286D01*
X199373Y15014D01*
X199547Y15035D01*
X199743Y15079D01*
X200004Y15101D01*
X200287Y15122D01*
X200613Y15144D01*
X201441D01*
X201767Y15122D01*
D02*
G37*
G36*
X244758Y14948D02*
X246522D01*
Y12597D01*
X244758D01*
Y9615D01*
Y9593D01*
Y9528D01*
Y9441D01*
X244780Y9332D01*
X244802Y9093D01*
X244824Y8984D01*
X244846Y8897D01*
X244889Y8853D01*
X244976Y8766D01*
X245150Y8679D01*
X245281Y8657D01*
X245411Y8636D01*
X245477D01*
X245564Y8657D01*
X245673D01*
X245803Y8679D01*
X245977Y8723D01*
X246173Y8766D01*
X246413Y8831D01*
X246652Y6611D01*
X246609D01*
X246543Y6589D01*
X246456Y6568D01*
X246217Y6524D01*
X245934Y6481D01*
X245586Y6437D01*
X245194Y6393D01*
X244802Y6372D01*
X244410Y6350D01*
X244214D01*
X243997Y6372D01*
X243735Y6393D01*
X243452Y6415D01*
X243169Y6481D01*
X242886Y6546D01*
X242647Y6655D01*
X242625Y6676D01*
X242560Y6720D01*
X242451Y6785D01*
X242320Y6894D01*
X242190Y7025D01*
X242059Y7177D01*
X241907Y7373D01*
X241798Y7591D01*
Y7613D01*
X241754Y7721D01*
X241711Y7874D01*
X241667Y8091D01*
X241624Y8353D01*
X241580Y8723D01*
X241558Y9136D01*
X241537Y9615D01*
Y12597D01*
X240340D01*
Y14948D01*
X241537D01*
Y16472D01*
X244758Y18148D01*
Y14948D01*
D02*
G37*
G36*
X151931Y243466D02*
X152127D01*
X152322Y243445D01*
X152562Y243423D01*
X152823Y243379D01*
X153367Y243292D01*
X153933Y243140D01*
X154477Y242944D01*
X154739Y242813D01*
X154956Y242661D01*
X154978D01*
X155000Y242617D01*
X155152Y242509D01*
X155348Y242313D01*
X155566Y242030D01*
X155827Y241660D01*
X155936Y241442D01*
X156045Y241203D01*
X156154Y240941D01*
X156241Y240658D01*
X156306Y240354D01*
X156371Y240027D01*
X152997Y239831D01*
Y239875D01*
X152976Y239962D01*
X152932Y240092D01*
X152867Y240266D01*
X152780Y240462D01*
X152692Y240637D01*
X152562Y240811D01*
X152409Y240963D01*
X152388Y240985D01*
X152322Y241028D01*
X152235Y241072D01*
X152105Y241159D01*
X151931Y241224D01*
X151713Y241268D01*
X151474Y241311D01*
X151212Y241333D01*
X151103D01*
X150995Y241311D01*
X150864Y241290D01*
X150538Y241224D01*
X150385Y241137D01*
X150254Y241050D01*
X150233Y241028D01*
X150211Y241007D01*
X150102Y240876D01*
X149993Y240680D01*
X149972Y240550D01*
X149950Y240419D01*
Y240397D01*
Y240375D01*
X149993Y240245D01*
X150059Y240092D01*
X150124Y240005D01*
X150211Y239918D01*
X150233D01*
X150276Y239875D01*
X150342Y239831D01*
X150450Y239766D01*
X150625Y239701D01*
X150821Y239635D01*
X151082Y239548D01*
X151408Y239483D01*
X151430D01*
X151517Y239461D01*
X151626Y239439D01*
X151800Y239396D01*
X151996Y239352D01*
X152214Y239287D01*
X152453Y239243D01*
X152714Y239178D01*
X153258Y239004D01*
X153824Y238852D01*
X154347Y238656D01*
X154586Y238569D01*
X154782Y238460D01*
X154804D01*
X154826Y238438D01*
X154956Y238373D01*
X155131Y238264D01*
X155348Y238111D01*
X155588Y237916D01*
X155849Y237698D01*
X156067Y237458D01*
X156262Y237176D01*
X156284Y237132D01*
X156328Y237045D01*
X156415Y236893D01*
X156502Y236675D01*
X156589Y236414D01*
X156676Y236131D01*
X156720Y235804D01*
X156741Y235456D01*
Y235434D01*
Y235412D01*
Y235347D01*
Y235260D01*
X156720Y235064D01*
X156654Y234781D01*
X156589Y234454D01*
X156480Y234106D01*
X156328Y233758D01*
X156110Y233388D01*
X156088Y233344D01*
X156001Y233235D01*
X155849Y233061D01*
X155675Y232865D01*
X155414Y232626D01*
X155131Y232387D01*
X154782Y232169D01*
X154390Y231973D01*
X154369D01*
X154347Y231951D01*
X154282Y231929D01*
X154194Y231908D01*
X154086Y231864D01*
X153955Y231821D01*
X153629Y231733D01*
X153215Y231646D01*
X152736Y231559D01*
X152192Y231516D01*
X151582Y231494D01*
X151299D01*
X151103Y231516D01*
X150864Y231538D01*
X150581Y231559D01*
X150276Y231581D01*
X149950Y231646D01*
X149275Y231777D01*
X148600Y231973D01*
X148274Y232104D01*
X147969Y232256D01*
X147708Y232430D01*
X147468Y232626D01*
X147446Y232648D01*
X147425Y232670D01*
X147359Y232735D01*
X147294Y232822D01*
X147207Y232952D01*
X147098Y233083D01*
X146989Y233235D01*
X146881Y233410D01*
X146663Y233823D01*
X146467Y234324D01*
X146293Y234890D01*
X146249Y235195D01*
X146206Y235521D01*
X149623Y235739D01*
Y235695D01*
X149645Y235608D01*
X149667Y235456D01*
X149710Y235282D01*
X149863Y234868D01*
X149950Y234650D01*
X150059Y234476D01*
X150080Y234454D01*
X150167Y234367D01*
X150298Y234259D01*
X150472Y234128D01*
X150690Y233997D01*
X150973Y233888D01*
X151278Y233801D01*
X151648Y233780D01*
X151778D01*
X151909Y233801D01*
X152083Y233823D01*
X152279Y233867D01*
X152475Y233932D01*
X152649Y234019D01*
X152823Y234128D01*
X152845Y234150D01*
X152888Y234193D01*
X152954Y234280D01*
X153041Y234367D01*
X153193Y234629D01*
X153237Y234781D01*
X153258Y234955D01*
Y234977D01*
Y235042D01*
X153237Y235129D01*
X153215Y235238D01*
X153150Y235347D01*
X153084Y235499D01*
X152976Y235630D01*
X152845Y235761D01*
X152823Y235782D01*
X152758Y235826D01*
X152649Y235891D01*
X152475Y235978D01*
X152235Y236087D01*
X151909Y236196D01*
X151713Y236261D01*
X151517Y236327D01*
X151278Y236370D01*
X151016Y236435D01*
X150995D01*
X150907Y236457D01*
X150799Y236501D01*
X150625Y236544D01*
X150429Y236588D01*
X150211Y236653D01*
X149972Y236740D01*
X149710Y236827D01*
X149144Y237023D01*
X148600Y237262D01*
X148078Y237546D01*
X147838Y237698D01*
X147642Y237850D01*
X147599Y237894D01*
X147490Y238003D01*
X147316Y238199D01*
X147142Y238460D01*
X146967Y238786D01*
X146793Y239156D01*
X146685Y239613D01*
X146663Y239831D01*
X146641Y240092D01*
Y240136D01*
Y240245D01*
X146663Y240419D01*
X146706Y240637D01*
X146772Y240898D01*
X146859Y241181D01*
X146967Y241464D01*
X147142Y241768D01*
X147163Y241812D01*
X147250Y241899D01*
X147359Y242052D01*
X147534Y242226D01*
X147751Y242421D01*
X148034Y242639D01*
X148339Y242857D01*
X148709Y243031D01*
X148731D01*
X148752Y243053D01*
X148818Y243074D01*
X148905Y243096D01*
X149014Y243140D01*
X149144Y243183D01*
X149297Y243227D01*
X149449Y243270D01*
X149863Y243336D01*
X150363Y243423D01*
X150929Y243466D01*
X151561Y243488D01*
X151778D01*
X151931Y243466D01*
D02*
G37*
G36*
X185975Y240266D02*
X186106Y240245D01*
X186280Y240223D01*
X186650Y240136D01*
X187086Y239962D01*
X187303Y239875D01*
X187521Y239744D01*
X187717Y239592D01*
X187934Y239418D01*
X188130Y239222D01*
X188305Y238982D01*
X188326Y238960D01*
X188348Y238917D01*
X188392Y238852D01*
X188457Y238743D01*
X188522Y238634D01*
X188609Y238482D01*
X188696Y238307D01*
X188783Y238111D01*
X188871Y237894D01*
X188936Y237633D01*
X189088Y237110D01*
X189197Y236479D01*
X189241Y236152D01*
Y235804D01*
Y235782D01*
Y235717D01*
Y235608D01*
X189219Y235456D01*
Y235282D01*
X189197Y235086D01*
X189153Y234846D01*
X189110Y234607D01*
X189001Y234084D01*
X188805Y233562D01*
X188566Y233040D01*
X188392Y232800D01*
X188218Y232582D01*
X188196Y232561D01*
X188174Y232539D01*
X188109Y232474D01*
X188043Y232408D01*
X187826Y232234D01*
X187521Y232038D01*
X187151Y231842D01*
X186716Y231668D01*
X186215Y231538D01*
X185954Y231516D01*
X185671Y231494D01*
X185540D01*
X185410Y231516D01*
X185235D01*
X185018Y231559D01*
X184800Y231603D01*
X184561Y231646D01*
X184321Y231733D01*
X184299Y231755D01*
X184212Y231777D01*
X184103Y231842D01*
X183951Y231929D01*
X183799Y232038D01*
X183603Y232169D01*
X183407Y232321D01*
X183233Y232495D01*
Y228490D01*
X179967D01*
Y240092D01*
X182993D01*
Y238830D01*
X183015Y238873D01*
X183102Y238960D01*
X183211Y239091D01*
X183363Y239265D01*
X183538Y239439D01*
X183733Y239613D01*
X183929Y239766D01*
X184125Y239896D01*
X184169Y239918D01*
X184256Y239962D01*
X184408Y240027D01*
X184582Y240092D01*
X184822Y240158D01*
X185083Y240223D01*
X185388Y240266D01*
X185693Y240288D01*
X185867D01*
X185975Y240266D01*
D02*
G37*
G36*
X175157D02*
X175287Y240245D01*
X175462Y240223D01*
X175832Y240136D01*
X176267Y239962D01*
X176485Y239875D01*
X176702Y239744D01*
X176898Y239592D01*
X177116Y239418D01*
X177312Y239222D01*
X177486Y238982D01*
X177508Y238960D01*
X177530Y238917D01*
X177573Y238852D01*
X177638Y238743D01*
X177704Y238634D01*
X177791Y238482D01*
X177878Y238307D01*
X177965Y238111D01*
X178052Y237894D01*
X178117Y237633D01*
X178270Y237110D01*
X178379Y236479D01*
X178422Y236152D01*
Y235804D01*
Y235782D01*
Y235717D01*
Y235608D01*
X178400Y235456D01*
Y235282D01*
X178379Y235086D01*
X178335Y234846D01*
X178291Y234607D01*
X178183Y234084D01*
X177987Y233562D01*
X177747Y233040D01*
X177573Y232800D01*
X177399Y232582D01*
X177377Y232561D01*
X177355Y232539D01*
X177290Y232474D01*
X177225Y232408D01*
X177007Y232234D01*
X176702Y232038D01*
X176332Y231842D01*
X175897Y231668D01*
X175396Y231538D01*
X175135Y231516D01*
X174852Y231494D01*
X174722D01*
X174591Y231516D01*
X174417D01*
X174199Y231559D01*
X173981Y231603D01*
X173742Y231646D01*
X173503Y231733D01*
X173481Y231755D01*
X173394Y231777D01*
X173285Y231842D01*
X173132Y231929D01*
X172980Y232038D01*
X172784Y232169D01*
X172588Y232321D01*
X172414Y232495D01*
Y228490D01*
X169149D01*
Y240092D01*
X172175D01*
Y238830D01*
X172196Y238873D01*
X172283Y238960D01*
X172392Y239091D01*
X172545Y239265D01*
X172719Y239439D01*
X172915Y239613D01*
X173111Y239766D01*
X173307Y239896D01*
X173350Y239918D01*
X173437Y239962D01*
X173590Y240027D01*
X173764Y240092D01*
X174003Y240158D01*
X174264Y240223D01*
X174569Y240266D01*
X174874Y240288D01*
X175048D01*
X175157Y240266D01*
D02*
G37*
G36*
X139392D02*
X139566Y240223D01*
X139806Y240179D01*
X140067Y240092D01*
X140372Y239984D01*
X140677Y239831D01*
X139675Y237546D01*
X139654Y237567D01*
X139588Y237589D01*
X139479Y237633D01*
X139349Y237676D01*
X139044Y237741D01*
X138892Y237785D01*
X138652D01*
X138543Y237763D01*
X138413Y237720D01*
X138239Y237654D01*
X138086Y237567D01*
X137934Y237437D01*
X137781Y237262D01*
X137760Y237219D01*
X137716Y237110D01*
X137673Y237023D01*
X137629Y236914D01*
X137586Y236784D01*
X137542Y236631D01*
X137499Y236457D01*
X137455Y236261D01*
X137411Y236043D01*
X137368Y235782D01*
X137346Y235499D01*
X137324Y235195D01*
X137303Y234868D01*
Y234498D01*
Y231690D01*
X134059D01*
Y240092D01*
X137063D01*
Y238699D01*
X137085Y238743D01*
X137128Y238852D01*
X137216Y239004D01*
X137346Y239200D01*
X137629Y239613D01*
X137781Y239788D01*
X137956Y239940D01*
X137977Y239962D01*
X138043Y240005D01*
X138152Y240049D01*
X138282Y240114D01*
X138456Y240179D01*
X138652Y240245D01*
X138870Y240266D01*
X139109Y240288D01*
X139240D01*
X139392Y240266D01*
D02*
G37*
G36*
X119170Y231690D02*
X116297D01*
X114599Y236740D01*
X112944Y231690D01*
X110071D01*
X106958Y240092D01*
X110071D01*
X111421Y234803D01*
X113140Y240092D01*
X116035D01*
X117799Y234803D01*
X119170Y240092D01*
X122283D01*
X119170Y231690D01*
D02*
G37*
G36*
X201822Y231124D02*
Y231102D01*
X201801Y231059D01*
X201757Y230972D01*
X201714Y230885D01*
X201605Y230602D01*
X201452Y230275D01*
X201278Y229927D01*
X201082Y229600D01*
X200865Y229274D01*
X200756Y229143D01*
X200647Y229034D01*
X200603Y229013D01*
X200495Y228925D01*
X200299Y228795D01*
X200016Y228664D01*
X199667Y228512D01*
X199232Y228403D01*
X198710Y228316D01*
X198100Y228272D01*
X197969D01*
X197795Y228294D01*
X197578D01*
X197273Y228316D01*
X196903Y228360D01*
X196467Y228403D01*
X195945Y228468D01*
X195706Y230732D01*
X195727D01*
X195814Y230689D01*
X195967Y230667D01*
X196141Y230623D01*
X196381Y230580D01*
X196642Y230536D01*
X196925Y230515D01*
X197229Y230493D01*
X197338D01*
X197425Y230515D01*
X197578Y230536D01*
X197882Y230623D01*
X198035Y230689D01*
X198165Y230776D01*
X198187Y230798D01*
X198231Y230819D01*
X198296Y230885D01*
X198361Y230993D01*
X198470Y231124D01*
X198557Y231276D01*
X198666Y231472D01*
X198753Y231690D01*
X195227Y240092D01*
X198622D01*
X200364Y234498D01*
X201975Y240092D01*
X205153D01*
X201822Y231124D01*
D02*
G37*
G36*
X167190Y231690D02*
X164164D01*
Y233040D01*
X164142Y232996D01*
X164055Y232909D01*
X163925Y232757D01*
X163750Y232582D01*
X163533Y232365D01*
X163293Y232169D01*
X163054Y231995D01*
X162793Y231842D01*
X162771Y231821D01*
X162662Y231799D01*
X162532Y231733D01*
X162336Y231668D01*
X162096Y231603D01*
X161791Y231559D01*
X161487Y231516D01*
X161117Y231494D01*
X160986D01*
X160899Y231516D01*
X160660Y231538D01*
X160355Y231603D01*
X160028Y231690D01*
X159680Y231821D01*
X159332Y232017D01*
X159027Y232278D01*
X159005Y232321D01*
X158918Y232430D01*
X158787Y232626D01*
X158657Y232887D01*
X158526Y233235D01*
X158396Y233649D01*
X158309Y234150D01*
X158287Y234737D01*
Y240092D01*
X161530D01*
Y235456D01*
Y235412D01*
Y235325D01*
X161552Y235195D01*
X161574Y235021D01*
X161661Y234650D01*
X161726Y234498D01*
X161813Y234346D01*
X161835Y234324D01*
X161879Y234302D01*
X161944Y234237D01*
X162031Y234193D01*
X162140Y234128D01*
X162292Y234063D01*
X162466Y234041D01*
X162640Y234019D01*
X162749D01*
X162836Y234041D01*
X162989Y234084D01*
X163141Y234128D01*
X163293Y234193D01*
X163446Y234302D01*
X163598Y234454D01*
X163620Y234476D01*
X163664Y234542D01*
X163707Y234650D01*
X163794Y234825D01*
X163859Y235042D01*
X163903Y235303D01*
X163946Y235652D01*
X163968Y236043D01*
Y240092D01*
X167190D01*
Y231690D01*
D02*
G37*
G36*
X194117D02*
X190895D01*
Y243292D01*
X194117D01*
Y231690D01*
D02*
G37*
G36*
X91852Y243270D02*
X92004D01*
X92200Y243249D01*
X92613Y243183D01*
X93092Y243074D01*
X93571Y242900D01*
X94028Y242661D01*
X94246Y242530D01*
X94442Y242356D01*
X94464D01*
X94485Y242313D01*
X94594Y242182D01*
X94747Y241964D01*
X94943Y241681D01*
X95117Y241311D01*
X95269Y240854D01*
X95378Y240332D01*
X95421Y240027D01*
Y239722D01*
Y239701D01*
Y239635D01*
Y239548D01*
X95400Y239439D01*
Y239287D01*
X95356Y239113D01*
X95291Y238721D01*
X95160Y238286D01*
X94964Y237829D01*
X94855Y237589D01*
X94703Y237371D01*
X94551Y237176D01*
X94355Y236980D01*
X94333D01*
X94311Y236936D01*
X94246Y236893D01*
X94159Y236827D01*
X94050Y236762D01*
X93919Y236675D01*
X93745Y236588D01*
X93571Y236501D01*
X93354Y236392D01*
X93114Y236305D01*
X92853Y236218D01*
X92548Y236152D01*
X92243Y236087D01*
X91895Y236043D01*
X91525Y236022D01*
X91133Y236000D01*
X89196D01*
Y231690D01*
X85582D01*
Y243292D01*
X91721D01*
X91852Y243270D01*
D02*
G37*
G36*
X128008Y240266D02*
X128182D01*
X128596Y240223D01*
X129031Y240158D01*
X129510Y240049D01*
X129989Y239918D01*
X130402Y239722D01*
X130424D01*
X130446Y239701D01*
X130576Y239613D01*
X130772Y239505D01*
X130990Y239331D01*
X131251Y239091D01*
X131512Y238830D01*
X131774Y238503D01*
X131991Y238133D01*
Y238111D01*
X132013Y238090D01*
X132035Y238024D01*
X132078Y237937D01*
X132122Y237850D01*
X132165Y237720D01*
X132274Y237415D01*
X132383Y237023D01*
X132470Y236566D01*
X132535Y236022D01*
X132557Y235434D01*
Y235086D01*
X126092D01*
Y235042D01*
X126114Y234955D01*
X126136Y234825D01*
X126179Y234650D01*
X126310Y234259D01*
X126397Y234084D01*
X126506Y233932D01*
X126528Y233910D01*
X126593Y233845D01*
X126702Y233758D01*
X126832Y233671D01*
X127007Y233562D01*
X127224Y233475D01*
X127464Y233410D01*
X127725Y233388D01*
X127812D01*
X127899Y233410D01*
X128030D01*
X128313Y233475D01*
X128639Y233606D01*
X128661D01*
X128683Y233627D01*
X128813Y233736D01*
X128987Y233910D01*
X129096Y234019D01*
X129205Y234150D01*
X132383Y233867D01*
Y233845D01*
X132340Y233801D01*
X132318Y233736D01*
X132253Y233649D01*
X132100Y233431D01*
X131882Y233148D01*
X131621Y232865D01*
X131316Y232561D01*
X130968Y232278D01*
X130598Y232038D01*
X130576D01*
X130555Y232017D01*
X130489Y231995D01*
X130402Y231951D01*
X130293Y231908D01*
X130185Y231864D01*
X130032Y231821D01*
X129858Y231777D01*
X129640Y231712D01*
X129423Y231668D01*
X129183Y231625D01*
X128922Y231581D01*
X128334Y231516D01*
X127660Y231494D01*
X127376D01*
X127246Y231516D01*
X127072D01*
X126702Y231559D01*
X126266Y231603D01*
X125831Y231690D01*
X125396Y231799D01*
X125004Y231951D01*
X124960Y231973D01*
X124852Y232038D01*
X124677Y232147D01*
X124438Y232321D01*
X124198Y232539D01*
X123937Y232778D01*
X123654Y233105D01*
X123415Y233453D01*
Y233475D01*
X123393Y233497D01*
X123350Y233562D01*
X123328Y233627D01*
X123219Y233845D01*
X123110Y234150D01*
X123001Y234498D01*
X122892Y234912D01*
X122827Y235369D01*
X122805Y235869D01*
Y235891D01*
Y235956D01*
Y236065D01*
X122827Y236196D01*
X122849Y236370D01*
X122871Y236544D01*
X122914Y236762D01*
X122958Y237001D01*
X123110Y237502D01*
X123219Y237763D01*
X123350Y238046D01*
X123480Y238307D01*
X123654Y238569D01*
X123850Y238808D01*
X124068Y239048D01*
X124090Y239069D01*
X124133Y239091D01*
X124198Y239156D01*
X124307Y239243D01*
X124438Y239331D01*
X124590Y239439D01*
X124764Y239548D01*
X124982Y239679D01*
X125222Y239788D01*
X125483Y239896D01*
X125766Y240005D01*
X126070Y240092D01*
X126397Y240179D01*
X126767Y240245D01*
X127137Y240266D01*
X127551Y240288D01*
X127855D01*
X128008Y240266D01*
D02*
G37*
G36*
X101908D02*
X102126Y240245D01*
X102365Y240201D01*
X102626Y240158D01*
X102909Y240114D01*
X103541Y239918D01*
X103846Y239809D01*
X104172Y239657D01*
X104477Y239505D01*
X104782Y239287D01*
X105043Y239069D01*
X105304Y238808D01*
X105326Y238786D01*
X105347Y238764D01*
X105391Y238699D01*
X105478Y238590D01*
X105543Y238482D01*
X105631Y238351D01*
X105739Y238177D01*
X105826Y238003D01*
X106022Y237589D01*
X106196Y237088D01*
X106305Y236522D01*
X106327Y236239D01*
X106349Y235913D01*
Y235891D01*
Y235826D01*
Y235717D01*
X106327Y235586D01*
X106305Y235412D01*
X106284Y235238D01*
X106240Y235021D01*
X106196Y234781D01*
X106022Y234280D01*
X105935Y233997D01*
X105805Y233736D01*
X105652Y233475D01*
X105478Y233214D01*
X105282Y232952D01*
X105043Y232713D01*
X105021Y232691D01*
X104978Y232670D01*
X104912Y232604D01*
X104803Y232517D01*
X104673Y232430D01*
X104520Y232321D01*
X104324Y232212D01*
X104129Y232104D01*
X103889Y231995D01*
X103606Y231886D01*
X103323Y231777D01*
X102997Y231690D01*
X102670Y231603D01*
X102300Y231538D01*
X101908Y231516D01*
X101495Y231494D01*
X101299D01*
X101168Y231516D01*
X100994D01*
X100798Y231559D01*
X100559Y231581D01*
X100319Y231625D01*
X99818Y231755D01*
X99274Y231929D01*
X98730Y232191D01*
X98469Y232343D01*
X98229Y232517D01*
X98208Y232539D01*
X98164Y232582D01*
X98099Y232648D01*
X97990Y232757D01*
X97881Y232865D01*
X97751Y233018D01*
X97620Y233214D01*
X97468Y233410D01*
X97337Y233627D01*
X97185Y233888D01*
X97054Y234150D01*
X96945Y234454D01*
X96836Y234781D01*
X96771Y235107D01*
X96728Y235478D01*
X96706Y235848D01*
Y235869D01*
Y235935D01*
Y236043D01*
X96728Y236174D01*
X96749Y236327D01*
X96771Y236522D01*
X96814Y236740D01*
X96858Y236980D01*
X97010Y237480D01*
X97119Y237741D01*
X97250Y238003D01*
X97402Y238264D01*
X97576Y238525D01*
X97772Y238786D01*
X97990Y239026D01*
X98012Y239048D01*
X98055Y239091D01*
X98121Y239135D01*
X98229Y239222D01*
X98360Y239309D01*
X98512Y239418D01*
X98708Y239548D01*
X98926Y239657D01*
X99165Y239766D01*
X99427Y239896D01*
X99710Y240005D01*
X100014Y240092D01*
X100363Y240179D01*
X100711Y240245D01*
X101103Y240266D01*
X101495Y240288D01*
X101734D01*
X101908Y240266D01*
D02*
G37*
G36*
X562459Y8341D02*
X558760D01*
Y9545D01*
X562459D01*
Y8341D01*
D02*
G37*
G36*
X542748D02*
X539050D01*
Y9545D01*
X542748D01*
Y8341D01*
D02*
G37*
G36*
X494090Y5412D02*
X492958D01*
X490275Y12489D01*
X491537D01*
X493060Y8240D01*
Y8225D01*
X493074Y8211D01*
X493103Y8124D01*
X493147Y7979D01*
X493205Y7805D01*
X493277Y7587D01*
X493350Y7355D01*
X493437Y7094D01*
X493509Y6819D01*
X493524Y6848D01*
X493539Y6920D01*
X493582Y7036D01*
X493625Y7196D01*
X493684Y7399D01*
X493770Y7631D01*
X493858Y7892D01*
X493959Y8167D01*
X495526Y12489D01*
X496758D01*
X494090Y5412D01*
D02*
G37*
G36*
X589667Y15187D02*
X589783Y15172D01*
X589928Y15158D01*
X590073Y15144D01*
X590247Y15100D01*
X590595Y15013D01*
X590972Y14868D01*
X591146Y14781D01*
X591320Y14679D01*
X591494Y14563D01*
X591654Y14418D01*
X591669Y14404D01*
X591683Y14389D01*
X591726Y14346D01*
X591785Y14273D01*
X591842Y14201D01*
X591915Y14114D01*
X591988Y13998D01*
X592075Y13882D01*
X592220Y13606D01*
X592350Y13273D01*
X592408Y13098D01*
X592452Y12895D01*
X592466Y12707D01*
X592481Y12489D01*
Y12460D01*
Y12388D01*
X592466Y12272D01*
X592452Y12127D01*
X592423Y11938D01*
X592379Y11750D01*
X592321Y11547D01*
X592234Y11329D01*
X592220Y11300D01*
X592191Y11228D01*
X592133Y11126D01*
X592046Y10981D01*
X591930Y10792D01*
X591799Y10589D01*
X591625Y10372D01*
X591436Y10140D01*
X591407Y10111D01*
X591335Y10024D01*
X591277Y9966D01*
X591190Y9879D01*
X591103Y9792D01*
X591001Y9690D01*
X590885Y9574D01*
X590740Y9444D01*
X590595Y9313D01*
X590421Y9154D01*
X590247Y8994D01*
X590044Y8820D01*
X589827Y8632D01*
X589594Y8428D01*
X589580Y8414D01*
X589551Y8385D01*
X589493Y8341D01*
X589421Y8283D01*
X589246Y8124D01*
X589014Y7935D01*
X588782Y7732D01*
X588565Y7529D01*
X588362Y7341D01*
X588289Y7268D01*
X588217Y7196D01*
X588202Y7181D01*
X588173Y7138D01*
X588115Y7080D01*
X588043Y6993D01*
X587956Y6906D01*
X587869Y6790D01*
X587709Y6557D01*
X592495D01*
Y5412D01*
X586041D01*
Y5426D01*
Y5484D01*
Y5571D01*
X586056Y5673D01*
X586070Y5803D01*
X586085Y5934D01*
X586128Y6093D01*
X586172Y6238D01*
Y6253D01*
X586186Y6267D01*
X586215Y6354D01*
X586273Y6485D01*
X586360Y6644D01*
X586476Y6848D01*
X586607Y7065D01*
X586766Y7297D01*
X586955Y7529D01*
Y7544D01*
X586984Y7558D01*
X587056Y7645D01*
X587187Y7776D01*
X587361Y7950D01*
X587579Y8167D01*
X587854Y8428D01*
X588173Y8704D01*
X588536Y9008D01*
X588550Y9023D01*
X588608Y9067D01*
X588681Y9139D01*
X588797Y9226D01*
X588927Y9328D01*
X589072Y9458D01*
X589392Y9763D01*
X589754Y10082D01*
X590102Y10430D01*
X590276Y10604D01*
X590421Y10763D01*
X590566Y10923D01*
X590682Y11068D01*
Y11083D01*
X590711Y11097D01*
X590740Y11141D01*
X590769Y11199D01*
X590856Y11344D01*
X590972Y11532D01*
X591074Y11764D01*
X591161Y12011D01*
X591219Y12257D01*
X591248Y12518D01*
Y12533D01*
Y12547D01*
X591233Y12634D01*
X591219Y12765D01*
X591190Y12939D01*
X591117Y13127D01*
X591030Y13331D01*
X590900Y13534D01*
X590726Y13722D01*
X590697Y13737D01*
X590639Y13795D01*
X590523Y13882D01*
X590378Y13969D01*
X590175Y14056D01*
X589957Y14143D01*
X589696Y14201D01*
X589406Y14215D01*
X589319D01*
X589261Y14201D01*
X589101Y14186D01*
X588913Y14143D01*
X588681Y14085D01*
X588449Y13983D01*
X588217Y13853D01*
X588014Y13679D01*
X587999Y13650D01*
X587941Y13577D01*
X587854Y13461D01*
X587767Y13302D01*
X587666Y13098D01*
X587593Y12852D01*
X587535Y12562D01*
X587506Y12243D01*
X586273Y12373D01*
Y12388D01*
Y12431D01*
X586288Y12504D01*
X586302Y12605D01*
X586331Y12721D01*
X586360Y12852D01*
X586433Y13156D01*
X586549Y13490D01*
X586723Y13838D01*
X586824Y14012D01*
X586940Y14172D01*
X587071Y14331D01*
X587216Y14476D01*
X587230Y14491D01*
X587259Y14505D01*
X587303Y14549D01*
X587361Y14592D01*
X587448Y14650D01*
X587550Y14708D01*
X587666Y14766D01*
X587811Y14839D01*
X587956Y14911D01*
X588115Y14969D01*
X588304Y15028D01*
X588507Y15086D01*
X588710Y15129D01*
X588942Y15172D01*
X589174Y15187D01*
X589435Y15201D01*
X589566D01*
X589667Y15187D01*
D02*
G37*
G36*
X582082D02*
X582198Y15172D01*
X582343Y15158D01*
X582488Y15144D01*
X582662Y15100D01*
X583010Y15013D01*
X583387Y14868D01*
X583561Y14781D01*
X583735Y14679D01*
X583909Y14563D01*
X584069Y14418D01*
X584083Y14404D01*
X584098Y14389D01*
X584141Y14346D01*
X584199Y14273D01*
X584257Y14201D01*
X584330Y14114D01*
X584402Y13998D01*
X584489Y13882D01*
X584634Y13606D01*
X584765Y13273D01*
X584823Y13098D01*
X584866Y12895D01*
X584881Y12707D01*
X584895Y12489D01*
Y12460D01*
Y12388D01*
X584881Y12272D01*
X584866Y12127D01*
X584837Y11938D01*
X584794Y11750D01*
X584736Y11547D01*
X584649Y11329D01*
X584634Y11300D01*
X584605Y11228D01*
X584547Y11126D01*
X584460Y10981D01*
X584344Y10792D01*
X584214Y10589D01*
X584040Y10372D01*
X583851Y10140D01*
X583822Y10111D01*
X583750Y10024D01*
X583692Y9966D01*
X583605Y9879D01*
X583518Y9792D01*
X583416Y9690D01*
X583300Y9574D01*
X583155Y9444D01*
X583010Y9313D01*
X582836Y9154D01*
X582662Y8994D01*
X582459Y8820D01*
X582241Y8632D01*
X582009Y8428D01*
X581995Y8414D01*
X581966Y8385D01*
X581908Y8341D01*
X581835Y8283D01*
X581661Y8124D01*
X581429Y7935D01*
X581197Y7732D01*
X580979Y7529D01*
X580776Y7341D01*
X580704Y7268D01*
X580631Y7196D01*
X580617Y7181D01*
X580588Y7138D01*
X580530Y7080D01*
X580457Y6993D01*
X580370Y6906D01*
X580283Y6790D01*
X580124Y6557D01*
X584910D01*
Y5412D01*
X578456D01*
Y5426D01*
Y5484D01*
Y5571D01*
X578470Y5673D01*
X578485Y5803D01*
X578499Y5934D01*
X578543Y6093D01*
X578586Y6238D01*
Y6253D01*
X578601Y6267D01*
X578630Y6354D01*
X578688Y6485D01*
X578775Y6644D01*
X578891Y6848D01*
X579021Y7065D01*
X579181Y7297D01*
X579370Y7529D01*
Y7544D01*
X579399Y7558D01*
X579471Y7645D01*
X579602Y7776D01*
X579776Y7950D01*
X579993Y8167D01*
X580269Y8428D01*
X580588Y8704D01*
X580951Y9008D01*
X580965Y9023D01*
X581023Y9067D01*
X581096Y9139D01*
X581212Y9226D01*
X581342Y9328D01*
X581487Y9458D01*
X581806Y9763D01*
X582169Y10082D01*
X582517Y10430D01*
X582691Y10604D01*
X582836Y10763D01*
X582981Y10923D01*
X583097Y11068D01*
Y11083D01*
X583126Y11097D01*
X583155Y11141D01*
X583184Y11199D01*
X583271Y11344D01*
X583387Y11532D01*
X583489Y11764D01*
X583576Y12011D01*
X583634Y12257D01*
X583663Y12518D01*
Y12533D01*
Y12547D01*
X583648Y12634D01*
X583634Y12765D01*
X583605Y12939D01*
X583532Y13127D01*
X583445Y13331D01*
X583315Y13534D01*
X583140Y13722D01*
X583111Y13737D01*
X583054Y13795D01*
X582937Y13882D01*
X582792Y13969D01*
X582589Y14056D01*
X582372Y14143D01*
X582111Y14201D01*
X581821Y14215D01*
X581734D01*
X581676Y14201D01*
X581516Y14186D01*
X581328Y14143D01*
X581096Y14085D01*
X580863Y13983D01*
X580631Y13853D01*
X580428Y13679D01*
X580414Y13650D01*
X580356Y13577D01*
X580269Y13461D01*
X580182Y13302D01*
X580080Y13098D01*
X580008Y12852D01*
X579950Y12562D01*
X579921Y12243D01*
X578688Y12373D01*
Y12388D01*
Y12431D01*
X578702Y12504D01*
X578717Y12605D01*
X578746Y12721D01*
X578775Y12852D01*
X578848Y13156D01*
X578964Y13490D01*
X579138Y13838D01*
X579239Y14012D01*
X579355Y14172D01*
X579486Y14331D01*
X579631Y14476D01*
X579645Y14491D01*
X579674Y14505D01*
X579718Y14549D01*
X579776Y14592D01*
X579863Y14650D01*
X579964Y14708D01*
X580080Y14766D01*
X580225Y14839D01*
X580370Y14911D01*
X580530Y14969D01*
X580718Y15028D01*
X580922Y15086D01*
X581124Y15129D01*
X581357Y15172D01*
X581589Y15187D01*
X581850Y15201D01*
X581980D01*
X582082Y15187D01*
D02*
G37*
G36*
X566911D02*
X567027Y15172D01*
X567172Y15158D01*
X567317Y15144D01*
X567491Y15100D01*
X567839Y15013D01*
X568217Y14868D01*
X568391Y14781D01*
X568565Y14679D01*
X568739Y14563D01*
X568898Y14418D01*
X568913Y14404D01*
X568927Y14389D01*
X568971Y14346D01*
X569029Y14273D01*
X569087Y14201D01*
X569159Y14114D01*
X569232Y13998D01*
X569319Y13882D01*
X569464Y13606D01*
X569594Y13273D01*
X569652Y13098D01*
X569696Y12895D01*
X569710Y12707D01*
X569725Y12489D01*
Y12460D01*
Y12388D01*
X569710Y12272D01*
X569696Y12127D01*
X569667Y11938D01*
X569623Y11750D01*
X569565Y11547D01*
X569478Y11329D01*
X569464Y11300D01*
X569435Y11228D01*
X569377Y11126D01*
X569290Y10981D01*
X569174Y10792D01*
X569043Y10589D01*
X568869Y10372D01*
X568681Y10140D01*
X568652Y10111D01*
X568579Y10024D01*
X568521Y9966D01*
X568434Y9879D01*
X568347Y9792D01*
X568246Y9690D01*
X568130Y9574D01*
X567984Y9444D01*
X567839Y9313D01*
X567665Y9154D01*
X567491Y8994D01*
X567288Y8820D01*
X567071Y8632D01*
X566839Y8428D01*
X566824Y8414D01*
X566795Y8385D01*
X566737Y8341D01*
X566665Y8283D01*
X566491Y8124D01*
X566259Y7935D01*
X566026Y7732D01*
X565809Y7529D01*
X565606Y7341D01*
X565533Y7268D01*
X565461Y7196D01*
X565446Y7181D01*
X565417Y7138D01*
X565359Y7080D01*
X565287Y6993D01*
X565200Y6906D01*
X565113Y6790D01*
X564953Y6557D01*
X569739D01*
Y5412D01*
X563285D01*
Y5426D01*
Y5484D01*
Y5571D01*
X563300Y5673D01*
X563314Y5803D01*
X563329Y5934D01*
X563372Y6093D01*
X563416Y6238D01*
Y6253D01*
X563430Y6267D01*
X563459Y6354D01*
X563517Y6485D01*
X563604Y6644D01*
X563720Y6848D01*
X563851Y7065D01*
X564011Y7297D01*
X564199Y7529D01*
Y7544D01*
X564228Y7558D01*
X564301Y7645D01*
X564431Y7776D01*
X564605Y7950D01*
X564823Y8167D01*
X565098Y8428D01*
X565417Y8704D01*
X565780Y9008D01*
X565794Y9023D01*
X565852Y9067D01*
X565925Y9139D01*
X566041Y9226D01*
X566171Y9328D01*
X566316Y9458D01*
X566636Y9763D01*
X566998Y10082D01*
X567346Y10430D01*
X567520Y10604D01*
X567665Y10763D01*
X567810Y10923D01*
X567926Y11068D01*
Y11083D01*
X567955Y11097D01*
X567984Y11141D01*
X568013Y11199D01*
X568101Y11344D01*
X568217Y11532D01*
X568318Y11764D01*
X568405Y12011D01*
X568463Y12257D01*
X568492Y12518D01*
Y12533D01*
Y12547D01*
X568478Y12634D01*
X568463Y12765D01*
X568434Y12939D01*
X568362Y13127D01*
X568274Y13331D01*
X568144Y13534D01*
X567970Y13722D01*
X567941Y13737D01*
X567883Y13795D01*
X567767Y13882D01*
X567622Y13969D01*
X567419Y14056D01*
X567201Y14143D01*
X566940Y14201D01*
X566650Y14215D01*
X566563D01*
X566505Y14201D01*
X566346Y14186D01*
X566157Y14143D01*
X565925Y14085D01*
X565693Y13983D01*
X565461Y13853D01*
X565258Y13679D01*
X565243Y13650D01*
X565185Y13577D01*
X565098Y13461D01*
X565011Y13302D01*
X564910Y13098D01*
X564837Y12852D01*
X564779Y12562D01*
X564750Y12243D01*
X563517Y12373D01*
Y12388D01*
Y12431D01*
X563532Y12504D01*
X563546Y12605D01*
X563575Y12721D01*
X563604Y12852D01*
X563677Y13156D01*
X563793Y13490D01*
X563967Y13838D01*
X564068Y14012D01*
X564184Y14172D01*
X564315Y14331D01*
X564460Y14476D01*
X564475Y14491D01*
X564504Y14505D01*
X564547Y14549D01*
X564605Y14592D01*
X564692Y14650D01*
X564794Y14708D01*
X564910Y14766D01*
X565055Y14839D01*
X565200Y14911D01*
X565359Y14969D01*
X565548Y15028D01*
X565751Y15086D01*
X565954Y15129D01*
X566186Y15172D01*
X566418Y15187D01*
X566679Y15201D01*
X566810D01*
X566911Y15187D01*
D02*
G37*
G36*
X557716Y14114D02*
X557701Y14099D01*
X557673Y14070D01*
X557629Y14012D01*
X557556Y13925D01*
X557469Y13838D01*
X557368Y13708D01*
X557252Y13563D01*
X557136Y13403D01*
X556991Y13229D01*
X556846Y13026D01*
X556701Y12808D01*
X556541Y12576D01*
X556367Y12315D01*
X556208Y12054D01*
X556034Y11764D01*
X555860Y11460D01*
X555845Y11445D01*
X555816Y11387D01*
X555773Y11300D01*
X555715Y11184D01*
X555628Y11025D01*
X555541Y10850D01*
X555439Y10647D01*
X555337Y10430D01*
X555221Y10183D01*
X555105Y9922D01*
X554989Y9647D01*
X554873Y9342D01*
X554641Y8733D01*
X554438Y8095D01*
Y8080D01*
X554424Y8037D01*
X554409Y7979D01*
X554380Y7877D01*
X554351Y7761D01*
X554322Y7631D01*
X554279Y7471D01*
X554250Y7297D01*
X554206Y7109D01*
X554163Y6906D01*
X554090Y6441D01*
X554032Y5948D01*
X553989Y5412D01*
X552756D01*
Y5426D01*
Y5470D01*
Y5528D01*
X552770Y5615D01*
Y5731D01*
X552785Y5861D01*
X552799Y6021D01*
X552814Y6195D01*
X552843Y6383D01*
X552872Y6586D01*
X552915Y6819D01*
X552959Y7065D01*
X553002Y7326D01*
X553060Y7602D01*
X553205Y8182D01*
Y8196D01*
X553220Y8254D01*
X553249Y8341D01*
X553293Y8457D01*
X553336Y8602D01*
X553380Y8777D01*
X553452Y8979D01*
X553525Y9197D01*
X553612Y9429D01*
X553699Y9676D01*
X553916Y10198D01*
X554163Y10763D01*
X554438Y11329D01*
X554453Y11344D01*
X554482Y11402D01*
X554525Y11474D01*
X554583Y11590D01*
X554656Y11721D01*
X554743Y11866D01*
X554844Y12040D01*
X554960Y12228D01*
X555221Y12620D01*
X555512Y13055D01*
X555845Y13490D01*
X556179Y13896D01*
X551393D01*
Y15042D01*
X557716D01*
Y14114D01*
D02*
G37*
G36*
X548245Y5412D02*
X547042D01*
Y13026D01*
X547027Y13011D01*
X546969Y12953D01*
X546867Y12881D01*
X546737Y12765D01*
X546577Y12649D01*
X546374Y12504D01*
X546142Y12359D01*
X545896Y12199D01*
X545881D01*
X545867Y12185D01*
X545780Y12127D01*
X545649Y12054D01*
X545475Y11967D01*
X545287Y11866D01*
X545084Y11779D01*
X544866Y11677D01*
X544649Y11590D01*
Y12750D01*
X544663D01*
X544692Y12765D01*
X544750Y12794D01*
X544823Y12837D01*
X544910Y12881D01*
X545011Y12939D01*
X545243Y13069D01*
X545519Y13229D01*
X545809Y13418D01*
X546099Y13635D01*
X546389Y13882D01*
X546403Y13896D01*
X546418Y13911D01*
X546519Y13998D01*
X546650Y14128D01*
X546810Y14302D01*
X546983Y14505D01*
X547158Y14723D01*
X547332Y14955D01*
X547462Y15201D01*
X548245D01*
Y5412D01*
D02*
G37*
G36*
X528535D02*
X527331D01*
Y13026D01*
X527317Y13011D01*
X527259Y12953D01*
X527157Y12881D01*
X527027Y12765D01*
X526867Y12649D01*
X526664Y12504D01*
X526432Y12359D01*
X526186Y12199D01*
X526171D01*
X526157Y12185D01*
X526070Y12127D01*
X525939Y12054D01*
X525765Y11967D01*
X525577Y11866D01*
X525373Y11779D01*
X525156Y11677D01*
X524938Y11590D01*
Y12750D01*
X524953D01*
X524982Y12765D01*
X525040Y12794D01*
X525112Y12837D01*
X525199Y12881D01*
X525301Y12939D01*
X525533Y13069D01*
X525808Y13229D01*
X526099Y13418D01*
X526389Y13635D01*
X526679Y13882D01*
X526693Y13896D01*
X526708Y13911D01*
X526809Y13998D01*
X526940Y14128D01*
X527099Y14302D01*
X527273Y14505D01*
X527447Y14723D01*
X527621Y14955D01*
X527752Y15201D01*
X528535D01*
Y5412D01*
D02*
G37*
G36*
X517164D02*
X515961D01*
Y13026D01*
X515946Y13011D01*
X515888Y12953D01*
X515787Y12881D01*
X515656Y12765D01*
X515497Y12649D01*
X515294Y12504D01*
X515061Y12359D01*
X514815Y12199D01*
X514800D01*
X514786Y12185D01*
X514699Y12127D01*
X514568Y12054D01*
X514394Y11967D01*
X514206Y11866D01*
X514003Y11779D01*
X513785Y11677D01*
X513568Y11590D01*
Y12750D01*
X513582D01*
X513611Y12765D01*
X513669Y12794D01*
X513742Y12837D01*
X513829Y12881D01*
X513930Y12939D01*
X514162Y13069D01*
X514438Y13229D01*
X514728Y13418D01*
X515018Y13635D01*
X515308Y13882D01*
X515323Y13896D01*
X515337Y13911D01*
X515439Y13998D01*
X515569Y14128D01*
X515729Y14302D01*
X515903Y14505D01*
X516077Y14723D01*
X516251Y14955D01*
X516381Y15201D01*
X517164D01*
Y5412D01*
D02*
G37*
G36*
X510899D02*
X509536Y5412D01*
Y6775D01*
X510899Y6775D01*
Y5412D01*
D02*
G37*
G36*
X505794Y5412D02*
X504590D01*
Y13026D01*
X504576Y13011D01*
X504518Y12953D01*
X504416Y12881D01*
X504286Y12765D01*
X504126Y12649D01*
X503923Y12504D01*
X503691Y12359D01*
X503444Y12199D01*
X503430D01*
X503415Y12185D01*
X503328Y12127D01*
X503198Y12054D01*
X503024Y11967D01*
X502835Y11866D01*
X502632Y11779D01*
X502415Y11677D01*
X502197Y11590D01*
Y12750D01*
X502211D01*
X502240Y12765D01*
X502299Y12794D01*
X502371Y12837D01*
X502458Y12881D01*
X502560Y12939D01*
X502792Y13069D01*
X503067Y13229D01*
X503357Y13418D01*
X503647Y13635D01*
X503937Y13882D01*
X503952Y13896D01*
X503966Y13911D01*
X504068Y13998D01*
X504198Y14128D01*
X504358Y14302D01*
X504532Y14505D01*
X504706Y14723D01*
X504880Y14955D01*
X505011Y15201D01*
X505794D01*
Y5412D01*
D02*
G37*
G36*
X478397Y15158D02*
X478527D01*
X478817Y15144D01*
X479137Y15100D01*
X479456Y15056D01*
X479775Y14984D01*
X479920Y14940D01*
X480050Y14897D01*
X480065D01*
X480079Y14882D01*
X480166Y14853D01*
X480282Y14781D01*
X480442Y14679D01*
X480616Y14549D01*
X480804Y14389D01*
X480979Y14201D01*
X481138Y13969D01*
X481153Y13940D01*
X481211Y13853D01*
X481269Y13722D01*
X481356Y13534D01*
X481428Y13316D01*
X481501Y13069D01*
X481544Y12794D01*
X481559Y12504D01*
Y12489D01*
Y12460D01*
Y12402D01*
X481544Y12330D01*
Y12243D01*
X481530Y12141D01*
X481472Y11895D01*
X481399Y11619D01*
X481269Y11329D01*
X481109Y11025D01*
X480993Y10879D01*
X480877Y10749D01*
X480863Y10734D01*
X480848Y10720D01*
X480804Y10676D01*
X480746Y10633D01*
X480674Y10575D01*
X480587Y10517D01*
X480485Y10444D01*
X480369Y10372D01*
X480224Y10299D01*
X480079Y10212D01*
X479905Y10140D01*
X479717Y10067D01*
X479514Y10009D01*
X479296Y9937D01*
X479064Y9893D01*
X478803Y9850D01*
X478832Y9835D01*
X478890Y9806D01*
X478977Y9763D01*
X479093Y9690D01*
X479354Y9545D01*
X479470Y9444D01*
X479586Y9357D01*
X479615Y9328D01*
X479688Y9270D01*
X479789Y9154D01*
X479934Y8994D01*
X480094Y8806D01*
X480268Y8588D01*
X480456Y8341D01*
X480645Y8066D01*
X482342Y5412D01*
X480732D01*
X479441Y7428D01*
Y7442D01*
X479412Y7471D01*
X479383Y7515D01*
X479340Y7573D01*
X479238Y7732D01*
X479108Y7935D01*
X478963Y8153D01*
X478803Y8370D01*
X478643Y8588D01*
X478498Y8777D01*
X478484Y8791D01*
X478440Y8849D01*
X478368Y8936D01*
X478281Y9038D01*
X478078Y9255D01*
X477962Y9342D01*
X477846Y9429D01*
X477831Y9444D01*
X477802Y9458D01*
X477744Y9487D01*
X477657Y9531D01*
X477469Y9618D01*
X477251Y9690D01*
X477237D01*
X477208Y9705D01*
X477150D01*
X477077Y9719D01*
X476976Y9734D01*
X476860D01*
X476715Y9748D01*
X475047D01*
Y5412D01*
X473756D01*
Y15172D01*
X478295D01*
X478397Y15158D01*
D02*
G37*
G36*
X463894Y5412D02*
X462603D01*
Y15172D01*
X463894D01*
Y5412D01*
D02*
G37*
G36*
X450362Y12634D02*
X450565Y12620D01*
X450812Y12591D01*
X451058Y12562D01*
X451290Y12504D01*
X451522Y12431D01*
X451551Y12417D01*
X451609Y12388D01*
X451711Y12344D01*
X451841Y12286D01*
X451972Y12199D01*
X452117Y12112D01*
X452233Y12011D01*
X452349Y11895D01*
X452363Y11880D01*
X452392Y11837D01*
X452436Y11764D01*
X452494Y11677D01*
X452566Y11561D01*
X452624Y11416D01*
X452682Y11257D01*
X452726Y11083D01*
Y11068D01*
X452740Y11025D01*
X452755Y10938D01*
X452769Y10836D01*
Y10676D01*
X452784Y10488D01*
X452798Y10256D01*
Y9980D01*
Y8370D01*
Y8356D01*
Y8298D01*
Y8211D01*
Y8109D01*
Y7964D01*
Y7819D01*
X452813Y7486D01*
Y7123D01*
X452827Y6775D01*
X452842Y6615D01*
Y6470D01*
X452856Y6354D01*
X452871Y6253D01*
Y6238D01*
X452886Y6180D01*
X452900Y6093D01*
X452929Y5992D01*
X452972Y5861D01*
X453031Y5716D01*
X453161Y5412D01*
X451914D01*
X451899Y5426D01*
X451885Y5484D01*
X451856Y5557D01*
X451812Y5658D01*
X451769Y5789D01*
X451740Y5948D01*
X451711Y6108D01*
X451682Y6296D01*
X451653Y6267D01*
X451566Y6209D01*
X451435Y6108D01*
X451276Y5977D01*
X451073Y5847D01*
X450855Y5716D01*
X450623Y5586D01*
X450391Y5484D01*
X450362Y5470D01*
X450289Y5455D01*
X450159Y5412D01*
X449999Y5368D01*
X449796Y5325D01*
X449579Y5296D01*
X449332Y5267D01*
X449071Y5252D01*
X448955D01*
X448882Y5267D01*
X448781D01*
X448665Y5281D01*
X448404Y5325D01*
X448114Y5397D01*
X447824Y5484D01*
X447534Y5629D01*
X447273Y5818D01*
X447244Y5847D01*
X447171Y5919D01*
X447070Y6050D01*
X446968Y6209D01*
X446852Y6427D01*
X446750Y6673D01*
X446678Y6949D01*
X446664Y7109D01*
X446649Y7268D01*
Y7297D01*
Y7355D01*
X446664Y7457D01*
X446678Y7587D01*
X446707Y7732D01*
X446750Y7892D01*
X446809Y8066D01*
X446881Y8225D01*
X446896Y8240D01*
X446925Y8298D01*
X446968Y8370D01*
X447041Y8472D01*
X447128Y8588D01*
X447244Y8704D01*
X447360Y8806D01*
X447490Y8907D01*
X447505Y8921D01*
X447563Y8950D01*
X447635Y8994D01*
X447751Y9052D01*
X447882Y9125D01*
X448027Y9183D01*
X448186Y9255D01*
X448360Y9313D01*
X448375D01*
X448433Y9328D01*
X448520Y9342D01*
X448636Y9371D01*
X448781Y9400D01*
X448969Y9429D01*
X449187Y9458D01*
X449434Y9487D01*
X449448D01*
X449492Y9502D01*
X449579D01*
X449680Y9516D01*
X449796Y9531D01*
X449927Y9560D01*
X450086Y9574D01*
X450246Y9603D01*
X450608Y9661D01*
X450956Y9734D01*
X451290Y9821D01*
X451450Y9864D01*
X451580Y9908D01*
Y9922D01*
Y9951D01*
X451595Y10038D01*
Y10140D01*
Y10183D01*
Y10212D01*
Y10227D01*
Y10241D01*
Y10328D01*
X451580Y10459D01*
X451551Y10618D01*
X451508Y10792D01*
X451450Y10967D01*
X451363Y11112D01*
X451247Y11242D01*
X451232Y11257D01*
X451160Y11315D01*
X451058Y11373D01*
X450899Y11460D01*
X450710Y11532D01*
X450463Y11605D01*
X450188Y11648D01*
X449869Y11663D01*
X449738D01*
X449579Y11648D01*
X449405Y11619D01*
X449202Y11590D01*
X448984Y11532D01*
X448796Y11460D01*
X448621Y11358D01*
X448607Y11344D01*
X448549Y11300D01*
X448476Y11228D01*
X448389Y11126D01*
X448302Y10981D01*
X448201Y10792D01*
X448114Y10575D01*
X448027Y10314D01*
X446852Y10473D01*
Y10488D01*
X446866Y10502D01*
X446881Y10604D01*
X446925Y10734D01*
X446983Y10908D01*
X447055Y11097D01*
X447142Y11300D01*
X447244Y11489D01*
X447374Y11677D01*
X447389Y11692D01*
X447447Y11750D01*
X447519Y11837D01*
X447650Y11938D01*
X447795Y12054D01*
X447969Y12170D01*
X448186Y12286D01*
X448433Y12388D01*
X448447D01*
X448462Y12402D01*
X448505Y12417D01*
X448563Y12431D01*
X448708Y12475D01*
X448897Y12518D01*
X449129Y12562D01*
X449405Y12605D01*
X449709Y12634D01*
X450043Y12649D01*
X450188D01*
X450362Y12634D01*
D02*
G37*
G36*
X445880Y14027D02*
X442661D01*
Y5412D01*
X441370D01*
Y14027D01*
X438150D01*
Y15172D01*
X445880D01*
Y14027D01*
D02*
G37*
G36*
X467418Y12489D02*
X468622D01*
Y11561D01*
X467418D01*
Y7413D01*
Y7399D01*
Y7326D01*
Y7239D01*
X467432Y7138D01*
X467447Y6920D01*
X467461Y6819D01*
X467476Y6746D01*
X467490Y6717D01*
X467519Y6659D01*
X467592Y6586D01*
X467679Y6514D01*
X467708Y6499D01*
X467780Y6485D01*
X467911Y6456D01*
X468085Y6441D01*
X468230D01*
X468303Y6456D01*
X468404D01*
X468622Y6485D01*
X468781Y5426D01*
X468752D01*
X468694Y5412D01*
X468593Y5397D01*
X468477Y5383D01*
X468332Y5354D01*
X468186Y5339D01*
X467868Y5325D01*
X467766D01*
X467635Y5339D01*
X467490Y5354D01*
X467331Y5368D01*
X467171Y5412D01*
X466997Y5455D01*
X466852Y5528D01*
X466838Y5542D01*
X466794Y5571D01*
X466736Y5615D01*
X466664Y5673D01*
X466577Y5745D01*
X466504Y5847D01*
X466417Y5948D01*
X466359Y6064D01*
Y6079D01*
X466330Y6137D01*
X466316Y6224D01*
X466287Y6369D01*
X466258Y6557D01*
X466243Y6673D01*
Y6804D01*
X466229Y6949D01*
X466214Y7109D01*
Y7297D01*
Y7486D01*
Y11561D01*
X465329D01*
Y12489D01*
X466214D01*
Y14230D01*
X467418Y14955D01*
Y12489D01*
D02*
G37*
G36*
X574482Y15187D02*
X574670Y15158D01*
X574888Y15129D01*
X575120Y15071D01*
X575352Y14984D01*
X575584Y14882D01*
X575613Y14868D01*
X575686Y14824D01*
X575787Y14752D01*
X575932Y14650D01*
X576077Y14520D01*
X576251Y14360D01*
X576411Y14186D01*
X576556Y13969D01*
X576570Y13940D01*
X576614Y13867D01*
X576687Y13737D01*
X576773Y13563D01*
X576875Y13360D01*
X576977Y13113D01*
X577078Y12823D01*
X577165Y12518D01*
Y12504D01*
X577180Y12475D01*
X577194Y12431D01*
X577209Y12359D01*
X577223Y12272D01*
X577238Y12170D01*
X577267Y12054D01*
X577281Y11909D01*
X577310Y11750D01*
X577325Y11576D01*
X577339Y11387D01*
X577368Y11184D01*
X577383Y10967D01*
Y10734D01*
X577397Y10473D01*
Y10212D01*
Y10198D01*
Y10140D01*
Y10053D01*
Y9922D01*
X577383Y9777D01*
Y9618D01*
X577368Y9429D01*
X577354Y9226D01*
X577310Y8791D01*
X577238Y8327D01*
X577151Y7863D01*
X577093Y7645D01*
X577035Y7442D01*
Y7428D01*
X577020Y7399D01*
X576991Y7341D01*
X576977Y7268D01*
X576933Y7181D01*
X576889Y7080D01*
X576773Y6848D01*
X576628Y6586D01*
X576440Y6311D01*
X576222Y6050D01*
X575976Y5818D01*
X575961D01*
X575947Y5789D01*
X575903Y5760D01*
X575845Y5731D01*
X575700Y5644D01*
X575497Y5542D01*
X575236Y5426D01*
X574932Y5339D01*
X574598Y5281D01*
X574206Y5252D01*
X574076D01*
X573974Y5267D01*
X573858Y5281D01*
X573713Y5310D01*
X573568Y5339D01*
X573409Y5383D01*
X573235Y5426D01*
X573046Y5499D01*
X572858Y5571D01*
X572683Y5673D01*
X572495Y5789D01*
X572321Y5919D01*
X572147Y6079D01*
X571987Y6253D01*
X571973Y6267D01*
X571944Y6311D01*
X571900Y6383D01*
X571842Y6485D01*
X571770Y6615D01*
X571683Y6790D01*
X571596Y6978D01*
X571509Y7210D01*
X571422Y7471D01*
X571335Y7761D01*
X571248Y8080D01*
X571175Y8443D01*
X571117Y8834D01*
X571074Y9255D01*
X571045Y9719D01*
X571030Y10212D01*
Y10227D01*
Y10285D01*
Y10372D01*
Y10502D01*
X571045Y10647D01*
Y10821D01*
X571059Y11010D01*
X571074Y11213D01*
X571117Y11648D01*
X571175Y12112D01*
X571262Y12576D01*
X571320Y12794D01*
X571378Y12997D01*
Y13011D01*
X571393Y13040D01*
X571422Y13098D01*
X571451Y13171D01*
X571480Y13258D01*
X571523Y13360D01*
X571654Y13592D01*
X571799Y13853D01*
X571973Y14128D01*
X572190Y14389D01*
X572437Y14621D01*
X572452D01*
X572466Y14650D01*
X572509Y14679D01*
X572567Y14708D01*
X572640Y14752D01*
X572713Y14810D01*
X572930Y14911D01*
X573177Y15013D01*
X573481Y15115D01*
X573829Y15172D01*
X574206Y15201D01*
X574337D01*
X574482Y15187D01*
D02*
G37*
G36*
X535062D02*
X535250Y15158D01*
X535468Y15129D01*
X535700Y15071D01*
X535932Y14984D01*
X536164Y14882D01*
X536193Y14868D01*
X536265Y14824D01*
X536367Y14752D01*
X536512Y14650D01*
X536657Y14520D01*
X536831Y14360D01*
X536991Y14186D01*
X537136Y13969D01*
X537150Y13940D01*
X537194Y13867D01*
X537266Y13737D01*
X537353Y13563D01*
X537455Y13360D01*
X537556Y13113D01*
X537658Y12823D01*
X537745Y12518D01*
Y12504D01*
X537759Y12475D01*
X537774Y12431D01*
X537788Y12359D01*
X537803Y12272D01*
X537817Y12170D01*
X537846Y12054D01*
X537861Y11909D01*
X537890Y11750D01*
X537904Y11576D01*
X537919Y11387D01*
X537948Y11184D01*
X537962Y10967D01*
Y10734D01*
X537977Y10473D01*
Y10212D01*
Y10198D01*
Y10140D01*
Y10053D01*
Y9922D01*
X537962Y9777D01*
Y9618D01*
X537948Y9429D01*
X537933Y9226D01*
X537890Y8791D01*
X537817Y8327D01*
X537730Y7863D01*
X537672Y7645D01*
X537614Y7442D01*
Y7428D01*
X537600Y7399D01*
X537571Y7341D01*
X537556Y7268D01*
X537513Y7181D01*
X537469Y7080D01*
X537353Y6848D01*
X537208Y6586D01*
X537020Y6311D01*
X536802Y6050D01*
X536556Y5818D01*
X536541D01*
X536527Y5789D01*
X536483Y5760D01*
X536425Y5731D01*
X536280Y5644D01*
X536077Y5542D01*
X535816Y5426D01*
X535511Y5339D01*
X535178Y5281D01*
X534786Y5252D01*
X534656D01*
X534554Y5267D01*
X534438Y5281D01*
X534293Y5310D01*
X534148Y5339D01*
X533988Y5383D01*
X533814Y5426D01*
X533626Y5499D01*
X533437Y5571D01*
X533263Y5673D01*
X533075Y5789D01*
X532901Y5919D01*
X532727Y6079D01*
X532567Y6253D01*
X532553Y6267D01*
X532524Y6311D01*
X532480Y6383D01*
X532422Y6485D01*
X532350Y6615D01*
X532263Y6790D01*
X532175Y6978D01*
X532089Y7210D01*
X532001Y7471D01*
X531914Y7761D01*
X531828Y8080D01*
X531755Y8443D01*
X531697Y8834D01*
X531653Y9255D01*
X531624Y9719D01*
X531610Y10212D01*
Y10227D01*
Y10285D01*
Y10372D01*
Y10502D01*
X531624Y10647D01*
Y10821D01*
X531639Y11010D01*
X531653Y11213D01*
X531697Y11648D01*
X531755Y12112D01*
X531842Y12576D01*
X531900Y12794D01*
X531958Y12997D01*
Y13011D01*
X531973Y13040D01*
X532001Y13098D01*
X532030Y13171D01*
X532060Y13258D01*
X532103Y13360D01*
X532234Y13592D01*
X532379Y13853D01*
X532553Y14128D01*
X532770Y14389D01*
X533017Y14621D01*
X533031D01*
X533046Y14650D01*
X533089Y14679D01*
X533147Y14708D01*
X533220Y14752D01*
X533292Y14810D01*
X533510Y14911D01*
X533756Y15013D01*
X534061Y15115D01*
X534409Y15172D01*
X534786Y15201D01*
X534917D01*
X535062Y15187D01*
D02*
G37*
G36*
X486548Y12634D02*
X486678Y12620D01*
X486809Y12591D01*
X486968Y12562D01*
X487142Y12533D01*
X487505Y12417D01*
X487694Y12330D01*
X487897Y12243D01*
X488085Y12127D01*
X488274Y11996D01*
X488462Y11851D01*
X488636Y11677D01*
X488651Y11663D01*
X488680Y11634D01*
X488723Y11576D01*
X488781Y11503D01*
X488854Y11402D01*
X488926Y11286D01*
X489013Y11141D01*
X489100Y10981D01*
X489173Y10792D01*
X489260Y10589D01*
X489333Y10372D01*
X489405Y10125D01*
X489463Y9864D01*
X489506Y9589D01*
X489535Y9284D01*
X489550Y8965D01*
Y8950D01*
Y8878D01*
Y8777D01*
X489535Y8646D01*
X484256D01*
Y8631D01*
Y8588D01*
X484271Y8530D01*
Y8457D01*
X484285Y8356D01*
X484300Y8240D01*
X484358Y7979D01*
X484445Y7689D01*
X484561Y7399D01*
X484706Y7109D01*
X484909Y6848D01*
X484938Y6819D01*
X485010Y6746D01*
X485141Y6659D01*
X485315Y6543D01*
X485533Y6427D01*
X485779Y6340D01*
X486069Y6267D01*
X486388Y6238D01*
X486504D01*
X486620Y6253D01*
X486780Y6282D01*
X486954Y6325D01*
X487142Y6383D01*
X487331Y6456D01*
X487520Y6572D01*
X487534Y6586D01*
X487592Y6644D01*
X487679Y6717D01*
X487795Y6848D01*
X487911Y6992D01*
X488042Y7196D01*
X488158Y7428D01*
X488274Y7689D01*
X489506Y7529D01*
Y7515D01*
X489492Y7486D01*
X489478Y7428D01*
X489449Y7355D01*
X489420Y7254D01*
X489376Y7152D01*
X489260Y6906D01*
X489115Y6644D01*
X488926Y6354D01*
X488694Y6093D01*
X488419Y5847D01*
X488404D01*
X488390Y5818D01*
X488332Y5789D01*
X488274Y5760D01*
X488201Y5716D01*
X488100Y5658D01*
X487998Y5600D01*
X487868Y5557D01*
X487578Y5441D01*
X487229Y5339D01*
X486823Y5281D01*
X486388Y5252D01*
X486243D01*
X486127Y5267D01*
X485997Y5281D01*
X485852Y5296D01*
X485678Y5325D01*
X485504Y5368D01*
X485112Y5484D01*
X484894Y5557D01*
X484691Y5644D01*
X484488Y5760D01*
X484285Y5890D01*
X484097Y6035D01*
X483923Y6195D01*
X483908Y6209D01*
X483879Y6238D01*
X483836Y6296D01*
X483778Y6369D01*
X483720Y6470D01*
X483633Y6586D01*
X483560Y6732D01*
X483473Y6891D01*
X483386Y7065D01*
X483314Y7268D01*
X483227Y7486D01*
X483169Y7732D01*
X483111Y7993D01*
X483067Y8269D01*
X483038Y8559D01*
X483023Y8878D01*
Y8892D01*
Y8950D01*
Y9052D01*
X483038Y9168D01*
X483052Y9328D01*
X483067Y9502D01*
X483096Y9690D01*
X483139Y9908D01*
X483241Y10343D01*
X483328Y10575D01*
X483415Y10807D01*
X483517Y11039D01*
X483633Y11257D01*
X483778Y11474D01*
X483937Y11663D01*
X483952Y11677D01*
X483981Y11706D01*
X484039Y11750D01*
X484097Y11822D01*
X484198Y11895D01*
X484300Y11982D01*
X484430Y12069D01*
X484575Y12156D01*
X484735Y12243D01*
X484924Y12344D01*
X485112Y12417D01*
X485330Y12489D01*
X485547Y12562D01*
X485794Y12605D01*
X486055Y12634D01*
X486316Y12649D01*
X486446D01*
X486548Y12634D01*
D02*
G37*
G36*
X457439D02*
X457556Y12620D01*
X457672Y12591D01*
X457962Y12518D01*
X458121Y12460D01*
X458281Y12402D01*
X458455Y12315D01*
X458629Y12214D01*
X458803Y12098D01*
X458977Y11953D01*
X459136Y11808D01*
X459296Y11619D01*
Y12489D01*
X460398D01*
Y6369D01*
Y6354D01*
Y6296D01*
Y6209D01*
Y6108D01*
X460384Y5963D01*
Y5818D01*
X460369Y5644D01*
X460355Y5470D01*
X460311Y5078D01*
X460253Y4701D01*
X460224Y4512D01*
X460181Y4338D01*
X460123Y4193D01*
X460065Y4048D01*
Y4034D01*
X460050Y4019D01*
X460007Y3932D01*
X459920Y3802D01*
X459804Y3657D01*
X459659Y3468D01*
X459470Y3294D01*
X459252Y3106D01*
X458991Y2946D01*
X458977D01*
X458962Y2932D01*
X458919Y2903D01*
X458861Y2888D01*
X458788Y2859D01*
X458701Y2816D01*
X458498Y2743D01*
X458237Y2670D01*
X457933Y2598D01*
X457585Y2555D01*
X457207Y2540D01*
X457091D01*
X457004Y2555D01*
X456888D01*
X456772Y2569D01*
X456482Y2612D01*
X456149Y2685D01*
X455815Y2787D01*
X455482Y2932D01*
X455163Y3120D01*
X455148D01*
X455134Y3149D01*
X455047Y3222D01*
X454916Y3352D01*
X454771Y3541D01*
X454640Y3787D01*
X454510Y4077D01*
X454437Y4425D01*
X454408Y4614D01*
Y4817D01*
X455569Y4658D01*
Y4629D01*
X455583Y4570D01*
X455612Y4469D01*
X455641Y4353D01*
X455699Y4237D01*
X455772Y4106D01*
X455859Y3976D01*
X455975Y3874D01*
X455989Y3860D01*
X456062Y3816D01*
X456163Y3758D01*
X456294Y3700D01*
X456468Y3642D01*
X456685Y3584D01*
X456917Y3541D01*
X457193Y3526D01*
X457338D01*
X457483Y3541D01*
X457672Y3570D01*
X457875Y3613D01*
X458092Y3671D01*
X458295Y3758D01*
X458484Y3874D01*
X458498Y3889D01*
X458556Y3932D01*
X458629Y4005D01*
X458730Y4121D01*
X458832Y4251D01*
X458933Y4411D01*
X459020Y4600D01*
X459093Y4803D01*
Y4817D01*
X459107Y4875D01*
X459122Y4977D01*
X459136Y5136D01*
X459151Y5223D01*
X459165Y5339D01*
Y5470D01*
X459180Y5600D01*
Y5760D01*
Y5934D01*
Y6122D01*
Y6340D01*
X459165Y6325D01*
X459151Y6296D01*
X459107Y6253D01*
X459035Y6195D01*
X458962Y6122D01*
X458875Y6050D01*
X458759Y5963D01*
X458643Y5876D01*
X458353Y5702D01*
X458020Y5557D01*
X457846Y5499D01*
X457643Y5455D01*
X457439Y5426D01*
X457222Y5412D01*
X457164D01*
X457077Y5426D01*
X456990D01*
X456859Y5441D01*
X456714Y5470D01*
X456569Y5499D01*
X456395Y5542D01*
X456221Y5600D01*
X456033Y5673D01*
X455844Y5745D01*
X455656Y5847D01*
X455467Y5977D01*
X455293Y6108D01*
X455119Y6267D01*
X454959Y6456D01*
X454945Y6470D01*
X454930Y6499D01*
X454887Y6557D01*
X454829Y6644D01*
X454771Y6746D01*
X454713Y6862D01*
X454640Y7007D01*
X454568Y7167D01*
X454481Y7341D01*
X454408Y7544D01*
X454350Y7747D01*
X454292Y7964D01*
X454191Y8457D01*
X454176Y8704D01*
X454162Y8979D01*
Y8994D01*
Y9023D01*
Y9081D01*
Y9154D01*
X454176Y9241D01*
Y9342D01*
X454205Y9589D01*
X454249Y9879D01*
X454321Y10198D01*
X454408Y10531D01*
X454524Y10850D01*
Y10865D01*
X454539Y10894D01*
X454568Y10938D01*
X454597Y10996D01*
X454684Y11141D01*
X454800Y11344D01*
X454959Y11547D01*
X455134Y11764D01*
X455351Y11982D01*
X455598Y12170D01*
X455612D01*
X455627Y12185D01*
X455670Y12214D01*
X455728Y12243D01*
X455873Y12315D01*
X456062Y12417D01*
X456308Y12504D01*
X456584Y12576D01*
X456903Y12634D01*
X457237Y12649D01*
X457352D01*
X457439Y12634D01*
D02*
G37*
%LPC*%
G36*
X411087Y384049D02*
X410830Y383894D01*
X410933Y379872D01*
X411087Y379717D01*
X412016D01*
X421247Y379768D01*
X421350Y380181D01*
X421247Y383997D01*
X411087Y384049D01*
D02*
G37*
G36*
X500412Y355065D02*
X500103Y354962D01*
X495925Y355013D01*
X495616Y354807D01*
X495719Y354188D01*
X495822Y353879D01*
X495925Y353466D01*
X496390Y352899D01*
X500567Y348721D01*
X500670Y348515D01*
X500722Y348464D01*
X500928Y348567D01*
X500980Y354807D01*
X500825Y354962D01*
X500412Y355065D01*
D02*
G37*
G36*
X452862D02*
X452552Y354962D01*
X452346Y355065D01*
X452037Y354962D01*
X449148D01*
X448427Y355065D01*
X448065Y354807D01*
X448169Y353775D01*
X448478Y353260D01*
X448839Y352796D01*
X448994Y352744D01*
X449097Y352538D01*
X449355Y352280D01*
X449510Y352228D01*
X449613Y352022D01*
X449870Y351764D01*
X450025Y351713D01*
X450128Y351506D01*
X450799Y350836D01*
X450954Y350784D01*
X451057Y350578D01*
X451315Y350320D01*
X451469Y350269D01*
X451572Y350062D01*
X451830Y349804D01*
X451985Y349753D01*
X452088Y349547D01*
X452759Y348876D01*
X452965Y348773D01*
X453171Y348567D01*
X453429Y348618D01*
X453326Y354910D01*
X452862Y355065D01*
D02*
G37*
G36*
X369725D02*
X369416Y354962D01*
X369158Y355013D01*
X365703Y354962D01*
X365393Y355065D01*
X364929Y354807D01*
X365187Y353518D01*
X365342Y353363D01*
X365445Y353157D01*
X365961Y352641D01*
X366064Y352435D01*
X366425Y352177D01*
X366631Y351867D01*
X366837Y351764D01*
X366992Y351609D01*
X367044Y351455D01*
X367250Y351352D01*
X367405Y351197D01*
X367508Y350991D01*
X367869Y350733D01*
X368075Y350423D01*
X368282Y350320D01*
X368436Y350165D01*
X368539Y349959D01*
X368900Y349701D01*
X368952Y349547D01*
X369003Y349495D01*
X369210Y349392D01*
X369365Y349237D01*
X369468Y349031D01*
X369829Y348773D01*
X370035Y348464D01*
X370241Y348567D01*
X370293Y354807D01*
X370138Y354962D01*
X369725Y355065D01*
D02*
G37*
G36*
X583446Y386112D02*
X582414Y386009D01*
X576432D01*
X573131Y385906D01*
X572976Y385648D01*
X573079Y385338D01*
X573028Y355271D01*
X573234Y354962D01*
X583497Y354910D01*
X583703Y355116D01*
X583600Y385957D01*
X583446Y386112D01*
D02*
G37*
G36*
X454718Y384049D02*
X454564Y383894D01*
X454667Y379768D01*
X464724Y379717D01*
X464878Y379872D01*
X464981Y380284D01*
Y382863D01*
Y382966D01*
X464878Y383997D01*
X454718Y384049D01*
D02*
G37*
G36*
X583549Y348360D02*
X580867D01*
X573131Y348257D01*
X572976Y348102D01*
X573079Y347690D01*
X573028Y344338D01*
X573131Y344131D01*
X573543Y344028D01*
X583652Y344131D01*
X583703Y348206D01*
X583549Y348360D01*
D02*
G37*
G36*
X541877Y375178D02*
X541516Y374921D01*
X541619Y344183D01*
X541774Y344028D01*
X565704Y344131D01*
X565859Y344492D01*
X565756Y344802D01*
X565704Y353724D01*
X552295Y353827D01*
X552037Y354085D01*
Y361615D01*
Y361718D01*
X551934Y375127D01*
X541877Y375178D01*
D02*
G37*
G36*
X502269D02*
X502114Y375024D01*
X502011Y374611D01*
Y361408D01*
Y361305D01*
X502114Y344183D01*
X502269Y344028D01*
X512481Y344131D01*
X512635Y344286D01*
X512584Y344957D01*
X512687Y352589D01*
X512790Y352796D01*
X513512Y353002D01*
X513821Y352899D01*
X525013Y352950D01*
X525374Y352692D01*
X525477Y344131D01*
X525787Y344028D01*
X536101Y344131D01*
X536153Y368010D01*
X535946Y368216D01*
X535843Y368422D01*
X535482Y368783D01*
X535276Y368886D01*
X535070Y369196D01*
X534863Y369299D01*
X533419Y370743D01*
X533213Y370846D01*
X533007Y371156D01*
X532800Y371259D01*
X531872Y372187D01*
X531666Y372290D01*
X531150Y372806D01*
X530944Y372909D01*
X530119Y373734D01*
X529912Y373838D01*
X529500Y374250D01*
X529345Y374302D01*
X529242Y374508D01*
X529087Y374663D01*
X528881Y374766D01*
X528726Y374921D01*
X528623Y375127D01*
X502269Y375178D01*
D02*
G37*
G36*
X478030D02*
X477514Y374663D01*
X477308Y374560D01*
X476482Y373734D01*
X476276Y373631D01*
X475554Y372909D01*
X475348Y372806D01*
X474626Y372084D01*
X474471Y372033D01*
X474368Y371826D01*
X474213Y371671D01*
X474007Y371568D01*
X472666Y370227D01*
X472460Y370124D01*
X472202Y369763D01*
X471841Y369505D01*
X471119Y368783D01*
X470912Y368680D01*
X470551Y368319D01*
X470448Y367907D01*
X470551Y350887D01*
X471428Y350011D01*
X471634Y349907D01*
X472150Y349392D01*
X472305Y349340D01*
X472408Y349134D01*
X472563Y348979D01*
X472769Y348876D01*
X472924Y348721D01*
X473027Y348515D01*
X473388Y348257D01*
X474626Y347019D01*
X474832Y346916D01*
X475760Y345988D01*
X475967Y345885D01*
X476482Y345369D01*
X476689Y345266D01*
X477514Y344441D01*
X477720Y344338D01*
X478030Y344028D01*
X492264D01*
X494533Y344131D01*
X494688Y344595D01*
X494585Y344905D01*
X494636Y353105D01*
X494533Y353518D01*
X494430Y353724D01*
X481330Y353827D01*
X481072Y354085D01*
X481175Y365225D01*
X481330Y365379D01*
X481743Y365483D01*
X494533Y365586D01*
X494636Y366205D01*
X494688Y366359D01*
X494585Y366669D01*
X494636Y374766D01*
X494482Y375127D01*
X478030Y375178D01*
D02*
G37*
G36*
X464724D02*
X454615Y375075D01*
X454564Y344183D01*
X454718Y344028D01*
X464827Y344131D01*
X464981Y344286D01*
Y352435D01*
Y352538D01*
X464878Y375024D01*
X464724Y375178D01*
D02*
G37*
G36*
X426972Y384049D02*
X426817Y383894D01*
Y351713D01*
Y351609D01*
X426920Y350784D01*
X427694Y350011D01*
X427900Y349907D01*
X428519Y349289D01*
X428674Y349237D01*
X428777Y349031D01*
X429138Y348773D01*
X429448Y348464D01*
X429654Y348360D01*
X431098Y346916D01*
X431304Y346813D01*
X431510Y346504D01*
X431717Y346400D01*
X432645Y345472D01*
X432851Y345369D01*
X432954Y345163D01*
X433161Y345060D01*
X433780Y344441D01*
X433986Y344338D01*
X434192Y344131D01*
X434605Y344028D01*
X446982Y344131D01*
X447137Y344286D01*
X447034Y353569D01*
X446879Y353724D01*
X437596Y353827D01*
X437338Y353982D01*
X437235Y354394D01*
X437338Y365122D01*
X437596Y365379D01*
X438318Y365483D01*
X446982Y365586D01*
X447137Y366153D01*
X447034Y375024D01*
X446879Y375178D01*
X437493Y375282D01*
X437338Y375436D01*
X437235Y376158D01*
X437132Y383997D01*
X426972Y384049D01*
D02*
G37*
G36*
X420886Y375178D02*
X410984Y375075D01*
X410830Y374921D01*
X410933Y344183D01*
X411087Y344028D01*
X421299Y344131D01*
X421350Y354807D01*
Y354910D01*
X421299Y375075D01*
X420886Y375178D01*
D02*
G37*
G36*
X371582D02*
X371427Y375024D01*
X371324Y374611D01*
X371427Y360274D01*
X371324Y348412D01*
X371427Y348102D01*
X371376Y344338D01*
X371582Y344028D01*
X381794Y344131D01*
X381897Y354240D01*
X382155Y354497D01*
X382258Y354704D01*
X382722Y354859D01*
X394481Y354755D01*
X394739Y354188D01*
X394687Y344338D01*
X394893Y344028D01*
X399741D01*
X405311Y344131D01*
X405466Y344286D01*
X405363Y357179D01*
X405208Y357334D01*
X401598Y357437D01*
X401546Y358108D01*
X402836Y359397D01*
X403042Y359500D01*
X403455Y359913D01*
X403661Y360016D01*
X403764Y360222D01*
X403970Y360325D01*
X404383Y360738D01*
X404589Y360841D01*
X405105Y361357D01*
X405311Y361460D01*
X405466Y361924D01*
X405363Y368113D01*
X405156Y368319D01*
X405053Y368526D01*
X404795Y368783D01*
X404589Y368886D01*
X404383Y369196D01*
X404176Y369299D01*
X402733Y370743D01*
X402526Y370846D01*
X402320Y371156D01*
X402114Y371259D01*
X401495Y371878D01*
X401288Y371981D01*
X400566Y372703D01*
X400360Y372806D01*
X399844Y373322D01*
X399690Y373373D01*
X399586Y373580D01*
X398968Y374095D01*
X398813Y374250D01*
X398607Y374353D01*
X398400Y374663D01*
X398194Y374766D01*
X398039Y374921D01*
X397936Y375127D01*
X371582Y375178D01*
D02*
G37*
G36*
X363743D02*
X347239Y375075D01*
X346827Y374663D01*
X346621Y374560D01*
X346208Y374147D01*
X346053Y374095D01*
X345950Y373889D01*
X345331Y373373D01*
X345074Y373116D01*
X344867Y373012D01*
X344042Y372187D01*
X343836Y372084D01*
X343681Y371929D01*
X343629Y371775D01*
X343423Y371671D01*
X341979Y370227D01*
X341773Y370124D01*
X341515Y369763D01*
X341154Y369505D01*
X340844Y369196D01*
X340638Y369093D01*
X340535Y368886D01*
X340329Y368783D01*
X339761Y368216D01*
X339710Y367752D01*
X339761Y357489D01*
Y357386D01*
X339710Y351352D01*
X339813Y350939D01*
X340071Y350681D01*
X340122Y350526D01*
X340329Y350423D01*
X340844Y349907D01*
X341051Y349804D01*
X341876Y348979D01*
X342082Y348876D01*
X342237Y348721D01*
X342340Y348515D01*
X342701Y348257D01*
X343939Y347019D01*
X344145Y346916D01*
X345074Y345988D01*
X345280Y345885D01*
X346208Y344957D01*
X346414Y344853D01*
X346827Y344441D01*
X347033Y344338D01*
X347343Y344028D01*
X363846Y344131D01*
X364001Y344595D01*
X363898Y345008D01*
X364001Y345317D01*
X363949Y352589D01*
X364001Y353157D01*
X363898Y353466D01*
X363795Y353672D01*
X350643Y353827D01*
X350386Y354085D01*
X350282Y354394D01*
X350386Y354704D01*
X350334Y364967D01*
X350592Y365328D01*
X350746Y365483D01*
X363846Y365586D01*
X363949Y365998D01*
X364001Y366566D01*
X363898Y366772D01*
X364001Y367081D01*
X363949Y374353D01*
X364001Y374817D01*
X363743Y375178D01*
D02*
G37*
G36*
X564050Y420960D02*
X552426D01*
Y418478D01*
X556779D01*
Y406310D01*
X559740D01*
Y418478D01*
X564050D01*
Y420960D01*
D02*
G37*
G36*
X550641D02*
X547680D01*
Y406310D01*
X550641D01*
Y420960D01*
D02*
G37*
G36*
X528329Y417150D02*
X527654D01*
X527306Y417129D01*
X526957Y417085D01*
X526653Y417042D01*
X526391Y416976D01*
X526130Y416911D01*
X525891Y416846D01*
X525673Y416781D01*
X525499Y416693D01*
X525346Y416628D01*
X525194Y416563D01*
X525085Y416519D01*
X524998Y416454D01*
X524933Y416432D01*
X524911Y416389D01*
X524889D01*
X524519Y416084D01*
X524215Y415714D01*
X523975Y415344D01*
X523779Y414974D01*
X523627Y414626D01*
X523562Y414495D01*
X523518Y414364D01*
X523475Y414255D01*
X523453Y414168D01*
X523431Y414125D01*
Y414103D01*
X525956Y413646D01*
X526065Y413907D01*
X526174Y414125D01*
X526283Y414299D01*
X526391Y414451D01*
X526479Y414560D01*
X526566Y414626D01*
X526609Y414669D01*
X526631Y414691D01*
X526805Y414800D01*
X526979Y414865D01*
X527371Y414952D01*
X527545Y414974D01*
X527676Y414995D01*
X527806D01*
X528198Y414974D01*
X528503Y414952D01*
X528786Y414887D01*
X528982Y414821D01*
X529134Y414756D01*
X529243Y414712D01*
X529308Y414669D01*
X529330Y414647D01*
X529461Y414495D01*
X529570Y414321D01*
X529635Y414125D01*
X529700Y413929D01*
X529722Y413755D01*
X529744Y413602D01*
Y413515D01*
Y413472D01*
Y413211D01*
X529591Y413145D01*
X529417Y413080D01*
X529003Y412971D01*
X528546Y412840D01*
X528089Y412732D01*
X527676Y412645D01*
X527480Y412601D01*
X527327Y412579D01*
X527197Y412557D01*
X527088Y412536D01*
X527023Y412514D01*
X527001D01*
X526479Y412405D01*
X526043Y412296D01*
X525651Y412188D01*
X525325Y412079D01*
X525085Y411992D01*
X524911Y411926D01*
X524802Y411883D01*
X524759Y411861D01*
X524498Y411709D01*
X524258Y411534D01*
X524040Y411360D01*
X523866Y411186D01*
X523736Y411012D01*
X523649Y410881D01*
X523583Y410794D01*
X523562Y410773D01*
X523431Y410511D01*
X523322Y410228D01*
X523257Y409967D01*
X523191Y409728D01*
X523170Y409510D01*
X523148Y409336D01*
Y409184D01*
X523170Y408944D01*
X523191Y408705D01*
X523300Y408269D01*
X523453Y407877D01*
X523627Y407551D01*
X523779Y407290D01*
X523932Y407094D01*
X524040Y406985D01*
X524084Y406963D01*
Y406941D01*
X524454Y406658D01*
X524889Y406441D01*
X525303Y406288D01*
X525717Y406180D01*
X526087Y406114D01*
X526239Y406092D01*
X526391D01*
X526500Y406071D01*
X526653D01*
X527001Y406092D01*
X527327Y406136D01*
X527610Y406180D01*
X527872Y406245D01*
X528089Y406310D01*
X528263Y406376D01*
X528350Y406397D01*
X528394Y406419D01*
X528699Y406571D01*
X528982Y406724D01*
X529243Y406898D01*
X529482Y407072D01*
X529678Y407224D01*
X529809Y407355D01*
X529918Y407442D01*
X529940Y407464D01*
X529961Y407377D01*
X529983Y407268D01*
X530027Y407181D01*
Y407159D01*
Y407137D01*
X530092Y406941D01*
X530135Y406767D01*
X530179Y406637D01*
X530223Y406506D01*
X530266Y406419D01*
X530288Y406354D01*
X530310Y406332D01*
Y406310D01*
X533096D01*
X532965Y406593D01*
X532856Y406833D01*
X532769Y407072D01*
X532704Y407290D01*
X532660Y407464D01*
X532617Y407594D01*
X532595Y407682D01*
Y407703D01*
X532552Y407986D01*
X532530Y408313D01*
X532486Y408661D01*
Y409009D01*
X532465Y409314D01*
Y409554D01*
Y409662D01*
Y409728D01*
Y409771D01*
Y409793D01*
X532508Y413058D01*
Y413385D01*
X532486Y413689D01*
X532465Y413972D01*
X532443Y414212D01*
X532421Y414451D01*
X532378Y414647D01*
X532356Y414843D01*
X532312Y414995D01*
X532247Y415257D01*
X532182Y415431D01*
X532138Y415540D01*
X532116Y415561D01*
X531964Y415801D01*
X531746Y416040D01*
X531550Y416236D01*
X531333Y416389D01*
X531137Y416519D01*
X530963Y416606D01*
X530854Y416672D01*
X530832Y416693D01*
X530810D01*
X530636Y416781D01*
X530418Y416846D01*
X529983Y416955D01*
X529526Y417042D01*
X529069Y417085D01*
X528655Y417129D01*
X528481D01*
X528329Y417150D01*
D02*
G37*
G36*
X521994Y420960D02*
X510370D01*
Y418478D01*
X514724D01*
Y406310D01*
X517684D01*
Y418478D01*
X521994D01*
Y420960D01*
D02*
G37*
G36*
X539300Y417150D02*
X539104D01*
X538755Y417129D01*
X538407Y417085D01*
X538102Y417020D01*
X537798Y416933D01*
X537253Y416693D01*
X537014Y416585D01*
X536796Y416454D01*
X536579Y416302D01*
X536405Y416193D01*
X536252Y416062D01*
X536143Y415953D01*
X536035Y415866D01*
X535969Y415801D01*
X535926Y415757D01*
X535904Y415736D01*
X535686Y415453D01*
X535490Y415148D01*
X535316Y414843D01*
X535186Y414495D01*
X535055Y414168D01*
X534946Y413820D01*
X534794Y413167D01*
X534750Y412862D01*
X534707Y412579D01*
X534685Y412318D01*
X534663Y412100D01*
X534641Y411926D01*
Y411665D01*
X534663Y411273D01*
X534685Y410903D01*
X534794Y410207D01*
X534859Y409902D01*
X534946Y409597D01*
X535033Y409336D01*
X535120Y409096D01*
X535207Y408879D01*
X535294Y408683D01*
X535382Y408509D01*
X535447Y408378D01*
X535512Y408269D01*
X535556Y408182D01*
X535599Y408139D01*
Y408117D01*
X535839Y407790D01*
X536100Y407529D01*
X536383Y407290D01*
X536666Y407072D01*
X536949Y406898D01*
X537232Y406745D01*
X537515Y406637D01*
X537776Y406528D01*
X538015Y406463D01*
X538255Y406397D01*
X538473Y406376D01*
X538647Y406332D01*
X538799D01*
X538908Y406310D01*
X538995D01*
X539343Y406332D01*
X539692Y406376D01*
X539996Y406463D01*
X540301Y406571D01*
X540845Y406854D01*
X541085Y407007D01*
X541302Y407181D01*
X541498Y407333D01*
X541672Y407486D01*
X541825Y407638D01*
X541955Y407769D01*
X542043Y407877D01*
X542108Y407965D01*
X542151Y408008D01*
X542173Y408030D01*
Y406484D01*
Y406158D01*
X542151Y405897D01*
X542130Y405679D01*
X542108Y405505D01*
X542086Y405374D01*
X542064Y405265D01*
X542043Y405222D01*
Y405200D01*
X541955Y405026D01*
X541868Y404895D01*
X541781Y404765D01*
X541694Y404678D01*
X541607Y404590D01*
X541542Y404547D01*
X541498Y404525D01*
X541477Y404503D01*
X541259Y404395D01*
X540998Y404308D01*
X540715Y404242D01*
X540453Y404199D01*
X540192Y404177D01*
X539996Y404155D01*
X539822D01*
X539517Y404177D01*
X539278Y404199D01*
X539060Y404242D01*
X538864Y404308D01*
X538734Y404373D01*
X538647Y404416D01*
X538581Y404438D01*
X538560Y404460D01*
X538473Y404547D01*
X538386Y404678D01*
X538277Y404917D01*
X538255Y405048D01*
X538233Y405135D01*
X538211Y405200D01*
Y405222D01*
X535011Y405614D01*
X534990Y405483D01*
Y405374D01*
Y405309D01*
Y405287D01*
X535011Y405026D01*
X535033Y404786D01*
X535164Y404329D01*
X535338Y403916D01*
X535556Y403589D01*
X535773Y403306D01*
X535947Y403110D01*
X536078Y402980D01*
X536100Y402958D01*
X536122Y402936D01*
X536361Y402762D01*
X536600Y402631D01*
X536884Y402501D01*
X537188Y402392D01*
X537820Y402240D01*
X538451Y402109D01*
X538755Y402087D01*
X539017Y402044D01*
X539278Y402022D01*
X539496D01*
X539670Y402000D01*
X539931D01*
X540453Y402022D01*
X540910Y402044D01*
X541324Y402087D01*
X541651Y402152D01*
X541934Y402218D01*
X542130Y402261D01*
X542260Y402283D01*
X542304Y402305D01*
X542630Y402435D01*
X542935Y402566D01*
X543174Y402719D01*
X543392Y402849D01*
X543566Y402958D01*
X543675Y403067D01*
X543762Y403132D01*
X543784Y403154D01*
X543980Y403372D01*
X544154Y403611D01*
X544306Y403850D01*
X544437Y404090D01*
X544524Y404286D01*
X544589Y404460D01*
X544633Y404569D01*
X544655Y404612D01*
X544720Y404786D01*
X544763Y405004D01*
X544851Y405439D01*
X544894Y405897D01*
X544938Y406354D01*
X544959Y406767D01*
X544981Y406941D01*
Y416933D01*
X542347D01*
Y415409D01*
X542108Y415714D01*
X541847Y415975D01*
X541564Y416214D01*
X541302Y416410D01*
X541019Y416585D01*
X540758Y416737D01*
X540497Y416846D01*
X540236Y416933D01*
X540018Y416998D01*
X539800Y417063D01*
X539604Y417107D01*
X539430Y417129D01*
X539300Y417150D01*
D02*
G37*
%LPD*%
G36*
X529744Y410816D02*
Y410468D01*
X529722Y410185D01*
X529700Y409945D01*
X529678Y409771D01*
X529657Y409641D01*
X529635Y409532D01*
X529613Y409488D01*
Y409467D01*
X529548Y409271D01*
X529439Y409096D01*
X529330Y408922D01*
X529221Y408792D01*
X529134Y408683D01*
X529047Y408596D01*
X528982Y408552D01*
X528960Y408531D01*
X528699Y408378D01*
X528438Y408247D01*
X528198Y408160D01*
X527980Y408117D01*
X527785Y408073D01*
X527632Y408052D01*
X527502D01*
X527262Y408073D01*
X527044Y408117D01*
X526848Y408182D01*
X526696Y408269D01*
X526566Y408335D01*
X526479Y408400D01*
X526413Y408443D01*
X526391Y408465D01*
X526239Y408639D01*
X526130Y408814D01*
X526065Y408988D01*
X526021Y409140D01*
X525978Y409271D01*
X525956Y409401D01*
Y409467D01*
Y409488D01*
X525978Y409706D01*
X526043Y409880D01*
X526130Y410054D01*
X526239Y410207D01*
X526326Y410315D01*
X526413Y410402D01*
X526479Y410446D01*
X526500Y410468D01*
X526674Y410555D01*
X526892Y410642D01*
X527132Y410729D01*
X527393Y410794D01*
X527632Y410860D01*
X527828Y410903D01*
X527980Y410947D01*
X528024D01*
X528438Y411034D01*
X528786Y411121D01*
X529091Y411186D01*
X529330Y411251D01*
X529504Y411317D01*
X529635Y411339D01*
X529722Y411382D01*
X529744D01*
Y410816D01*
D02*
G37*
G36*
X540192Y414952D02*
X540519Y414865D01*
X540802Y414734D01*
X541063Y414604D01*
X541259Y414451D01*
X541389Y414321D01*
X541498Y414234D01*
X541520Y414190D01*
X541759Y413864D01*
X541934Y413472D01*
X542043Y413058D01*
X542130Y412666D01*
X542173Y412318D01*
X542195Y412166D01*
X542217Y412013D01*
Y411904D01*
Y411817D01*
Y411774D01*
Y411752D01*
X542195Y411186D01*
X542108Y410707D01*
X541999Y410294D01*
X541868Y409967D01*
X541716Y409706D01*
X541607Y409510D01*
X541520Y409401D01*
X541498Y409358D01*
X541215Y409096D01*
X540932Y408900D01*
X540649Y408770D01*
X540366Y408683D01*
X540127Y408618D01*
X539931Y408596D01*
X539800Y408574D01*
X539757D01*
X539408Y408618D01*
X539104Y408705D01*
X538821Y408814D01*
X538603Y408966D01*
X538407Y409096D01*
X538255Y409227D01*
X538168Y409314D01*
X538146Y409336D01*
X537928Y409662D01*
X537776Y410054D01*
X537667Y410468D01*
X537602Y410881D01*
X537558Y411230D01*
X537537Y411404D01*
X537515Y411534D01*
Y411665D01*
Y411752D01*
Y411796D01*
Y411817D01*
X537537Y412383D01*
X537624Y412862D01*
X537711Y413276D01*
X537841Y413624D01*
X537950Y413885D01*
X538059Y414059D01*
X538124Y414168D01*
X538146Y414212D01*
X538407Y414473D01*
X538690Y414669D01*
X538973Y414800D01*
X539234Y414908D01*
X539474Y414952D01*
X539648Y414974D01*
X539779Y414995D01*
X539822D01*
X540192Y414952D01*
D02*
G37*
%LPC*%
G36*
X202464Y10529D02*
X202442D01*
X202355Y10486D01*
X202202Y10442D01*
X202028Y10377D01*
X201832Y10312D01*
X201593Y10246D01*
X201070Y10094D01*
X201027Y10072D01*
X200918Y10050D01*
X200744Y10007D01*
X200548Y9942D01*
X200330Y9855D01*
X200134Y9768D01*
X199960Y9681D01*
X199830Y9593D01*
Y9572D01*
X199786Y9550D01*
X199699Y9419D01*
X199612Y9223D01*
X199590Y9115D01*
X199568Y8984D01*
Y8962D01*
Y8919D01*
X199590Y8853D01*
X199612Y8766D01*
X199677Y8570D01*
X199743Y8461D01*
X199830Y8374D01*
X199851D01*
X199873Y8331D01*
X199939Y8309D01*
X200026Y8266D01*
X200134Y8222D01*
X200265Y8178D01*
X200417Y8157D01*
X200592Y8135D01*
X200679D01*
X200787Y8157D01*
X200918Y8178D01*
X201245Y8244D01*
X201419Y8309D01*
X201593Y8396D01*
X201615Y8418D01*
X201680Y8440D01*
X201745Y8505D01*
X201854Y8570D01*
X202072Y8766D01*
X202181Y8897D01*
X202268Y9027D01*
Y9049D01*
X202289Y9093D01*
X202333Y9180D01*
X202376Y9289D01*
X202398Y9419D01*
X202442Y9593D01*
X202464Y9789D01*
Y10007D01*
Y10529D01*
D02*
G37*
G36*
X184648Y237916D02*
X184539D01*
X184430Y237894D01*
X184278Y237850D01*
X184125Y237785D01*
X183951Y237698D01*
X183777Y237589D01*
X183603Y237415D01*
X183581Y237393D01*
X183538Y237328D01*
X183472Y237197D01*
X183407Y237045D01*
X183320Y236827D01*
X183255Y236566D01*
X183211Y236239D01*
X183189Y235869D01*
Y235826D01*
Y235717D01*
X183211Y235521D01*
X183233Y235303D01*
X183298Y235064D01*
X183363Y234825D01*
X183472Y234585D01*
X183603Y234389D01*
X183624Y234367D01*
X183690Y234324D01*
X183777Y234237D01*
X183908Y234150D01*
X184060Y234063D01*
X184256Y233976D01*
X184452Y233932D01*
X184691Y233910D01*
X184778D01*
X184887Y233932D01*
X185018Y233976D01*
X185170Y234019D01*
X185322Y234106D01*
X185475Y234215D01*
X185627Y234367D01*
X185649Y234389D01*
X185693Y234454D01*
X185758Y234563D01*
X185823Y234737D01*
X185888Y234955D01*
X185954Y235216D01*
X185997Y235543D01*
X186019Y235935D01*
Y235956D01*
Y235978D01*
Y236109D01*
X185997Y236283D01*
X185975Y236501D01*
X185910Y236762D01*
X185845Y237001D01*
X185736Y237241D01*
X185605Y237437D01*
X185584Y237458D01*
X185540Y237502D01*
X185453Y237589D01*
X185344Y237676D01*
X185192Y237763D01*
X185039Y237850D01*
X184844Y237894D01*
X184648Y237916D01*
D02*
G37*
G36*
X173829D02*
X173720D01*
X173611Y237894D01*
X173459Y237850D01*
X173307Y237785D01*
X173132Y237698D01*
X172958Y237589D01*
X172784Y237415D01*
X172762Y237393D01*
X172719Y237328D01*
X172654Y237197D01*
X172588Y237045D01*
X172501Y236827D01*
X172436Y236566D01*
X172392Y236239D01*
X172371Y235869D01*
Y235826D01*
Y235717D01*
X172392Y235521D01*
X172414Y235303D01*
X172479Y235064D01*
X172545Y234825D01*
X172654Y234585D01*
X172784Y234389D01*
X172806Y234367D01*
X172871Y234324D01*
X172958Y234237D01*
X173089Y234150D01*
X173241Y234063D01*
X173437Y233976D01*
X173633Y233932D01*
X173873Y233910D01*
X173960D01*
X174069Y233932D01*
X174199Y233976D01*
X174351Y234019D01*
X174504Y234106D01*
X174656Y234215D01*
X174809Y234367D01*
X174830Y234389D01*
X174874Y234454D01*
X174939Y234563D01*
X175005Y234737D01*
X175070Y234955D01*
X175135Y235216D01*
X175179Y235543D01*
X175200Y235935D01*
Y235956D01*
Y235978D01*
Y236109D01*
X175179Y236283D01*
X175157Y236501D01*
X175091Y236762D01*
X175026Y237001D01*
X174917Y237241D01*
X174787Y237437D01*
X174765Y237458D01*
X174722Y237502D01*
X174634Y237589D01*
X174526Y237676D01*
X174373Y237763D01*
X174221Y237850D01*
X174025Y237894D01*
X173829Y237916D01*
D02*
G37*
G36*
X90197Y240941D02*
X89196D01*
Y238351D01*
X90241D01*
X90415Y238373D01*
X90632Y238395D01*
X90872Y238438D01*
X91111Y238503D01*
X91329Y238590D01*
X91503Y238699D01*
X91525Y238721D01*
X91568Y238764D01*
X91634Y238852D01*
X91721Y238960D01*
X91808Y239091D01*
X91873Y239243D01*
X91917Y239418D01*
X91939Y239613D01*
Y239635D01*
Y239701D01*
X91917Y239809D01*
X91895Y239940D01*
X91852Y240092D01*
X91786Y240245D01*
X91699Y240397D01*
X91568Y240550D01*
X91547Y240571D01*
X91503Y240615D01*
X91394Y240680D01*
X91264Y240745D01*
X91068Y240811D01*
X90828Y240876D01*
X90545Y240919D01*
X90197Y240941D01*
D02*
G37*
G36*
X127681Y238373D02*
X127551D01*
X127420Y238351D01*
X127246Y238307D01*
X127050Y238220D01*
X126854Y238111D01*
X126636Y237959D01*
X126462Y237763D01*
X126440Y237741D01*
X126419Y237698D01*
X126353Y237611D01*
X126310Y237480D01*
X126245Y237306D01*
X126179Y237132D01*
X126136Y236893D01*
X126092Y236631D01*
X129270D01*
Y236675D01*
X129249Y236784D01*
X129205Y236936D01*
X129162Y237132D01*
X129096Y237350D01*
X129009Y237567D01*
X128900Y237785D01*
X128748Y237959D01*
X128726Y237981D01*
X128683Y238024D01*
X128596Y238090D01*
X128465Y238177D01*
X128313Y238242D01*
X128138Y238307D01*
X127921Y238351D01*
X127681Y238373D01*
D02*
G37*
G36*
X101538Y238068D02*
X101429D01*
X101299Y238046D01*
X101125Y238003D01*
X100950Y237937D01*
X100754Y237829D01*
X100559Y237698D01*
X100385Y237524D01*
X100363Y237502D01*
X100319Y237415D01*
X100232Y237284D01*
X100167Y237110D01*
X100080Y236871D01*
X99993Y236588D01*
X99949Y236261D01*
X99927Y235869D01*
Y235848D01*
Y235826D01*
Y235695D01*
X99949Y235478D01*
X99993Y235238D01*
X100036Y234955D01*
X100101Y234694D01*
X100210Y234433D01*
X100363Y234193D01*
X100385Y234172D01*
X100450Y234106D01*
X100537Y234019D01*
X100689Y233932D01*
X100842Y233845D01*
X101038Y233758D01*
X101277Y233693D01*
X101516Y233671D01*
X101625D01*
X101756Y233693D01*
X101930Y233736D01*
X102104Y233801D01*
X102278Y233888D01*
X102474Y234019D01*
X102648Y234193D01*
X102670Y234215D01*
X102714Y234302D01*
X102801Y234411D01*
X102888Y234607D01*
X102953Y234846D01*
X103040Y235129D01*
X103084Y235478D01*
X103105Y235891D01*
Y235913D01*
Y235935D01*
Y236065D01*
X103084Y236261D01*
X103040Y236501D01*
X102997Y236762D01*
X102909Y237045D01*
X102801Y237306D01*
X102648Y237524D01*
X102626Y237546D01*
X102561Y237611D01*
X102474Y237698D01*
X102344Y237807D01*
X102169Y237894D01*
X101995Y237981D01*
X101778Y238046D01*
X101538Y238068D01*
D02*
G37*
G36*
X478136Y14099D02*
X475047D01*
Y10865D01*
X477962D01*
X478121Y10879D01*
X478324Y10894D01*
X478542Y10908D01*
X478774Y10938D01*
X478992Y10981D01*
X479195Y11039D01*
X479224Y11054D01*
X479282Y11068D01*
X479369Y11126D01*
X479485Y11184D01*
X479601Y11271D01*
X479731Y11358D01*
X479862Y11489D01*
X479963Y11619D01*
X479978Y11634D01*
X480007Y11692D01*
X480050Y11779D01*
X480094Y11880D01*
X480137Y12011D01*
X480181Y12170D01*
X480210Y12330D01*
X480224Y12504D01*
Y12518D01*
Y12533D01*
X480210Y12620D01*
X480195Y12750D01*
X480166Y12910D01*
X480094Y13084D01*
X480007Y13287D01*
X479891Y13476D01*
X479717Y13650D01*
X479688Y13664D01*
X479615Y13722D01*
X479499Y13795D01*
X479325Y13882D01*
X479108Y13954D01*
X478832Y14027D01*
X478513Y14085D01*
X478136Y14099D01*
D02*
G37*
G36*
X451580Y8965D02*
X451566D01*
X451551Y8950D01*
X451508Y8936D01*
X451450Y8921D01*
X451392Y8892D01*
X451305Y8863D01*
X451203Y8834D01*
X451087Y8806D01*
X450956Y8762D01*
X450812Y8733D01*
X450637Y8689D01*
X450463Y8660D01*
X450275Y8617D01*
X450072Y8573D01*
X449840Y8544D01*
X449608Y8501D01*
X449579D01*
X449492Y8486D01*
X449361Y8457D01*
X449202Y8428D01*
X448853Y8356D01*
X448694Y8312D01*
X448563Y8269D01*
X448549D01*
X448520Y8240D01*
X448462Y8211D01*
X448389Y8167D01*
X448230Y8051D01*
X448085Y7877D01*
Y7863D01*
X448056Y7834D01*
X448041Y7776D01*
X448012Y7703D01*
X447954Y7529D01*
X447940Y7428D01*
X447925Y7312D01*
Y7297D01*
Y7239D01*
X447940Y7138D01*
X447969Y7036D01*
X448012Y6906D01*
X448085Y6775D01*
X448172Y6644D01*
X448288Y6514D01*
X448302Y6499D01*
X448360Y6470D01*
X448433Y6412D01*
X448563Y6354D01*
X448708Y6296D01*
X448882Y6238D01*
X449100Y6209D01*
X449347Y6195D01*
X449463D01*
X449593Y6209D01*
X449767Y6238D01*
X449956Y6267D01*
X450159Y6311D01*
X450376Y6383D01*
X450579Y6485D01*
X450608Y6499D01*
X450666Y6543D01*
X450768Y6615D01*
X450884Y6702D01*
X451015Y6819D01*
X451160Y6963D01*
X451276Y7138D01*
X451392Y7326D01*
X451406Y7341D01*
X451421Y7399D01*
X451450Y7500D01*
X451493Y7631D01*
X451522Y7790D01*
X451551Y7993D01*
X451566Y8240D01*
X451580Y8515D01*
Y8965D01*
D02*
G37*
G36*
X574192Y14215D02*
X574119D01*
X574061Y14201D01*
X573902Y14172D01*
X573713Y14128D01*
X573510Y14041D01*
X573293Y13911D01*
X573177Y13838D01*
X573075Y13737D01*
X572974Y13635D01*
X572872Y13505D01*
Y13490D01*
X572843Y13461D01*
X572814Y13403D01*
X572771Y13331D01*
X572727Y13229D01*
X572683Y13098D01*
X572626Y12939D01*
X572567Y12765D01*
X572509Y12547D01*
X572452Y12315D01*
X572408Y12054D01*
X572365Y11750D01*
X572321Y11416D01*
X572292Y11054D01*
X572277Y10662D01*
X572263Y10227D01*
Y10198D01*
Y10125D01*
Y9995D01*
X572277Y9835D01*
Y9647D01*
X572292Y9429D01*
X572306Y9183D01*
X572336Y8921D01*
X572393Y8385D01*
X572495Y7863D01*
X572553Y7616D01*
X572626Y7384D01*
X572713Y7196D01*
X572814Y7022D01*
Y7007D01*
X572843Y6993D01*
X572916Y6906D01*
X573032Y6775D01*
X573206Y6630D01*
X573409Y6485D01*
X573641Y6354D01*
X573916Y6267D01*
X574061Y6253D01*
X574206Y6238D01*
X574293D01*
X574351Y6253D01*
X574496Y6282D01*
X574685Y6340D01*
X574917Y6427D01*
X575149Y6572D01*
X575265Y6659D01*
X575381Y6761D01*
X575497Y6891D01*
X575599Y7022D01*
Y7036D01*
X575628Y7065D01*
X575657Y7109D01*
X575686Y7181D01*
X575729Y7283D01*
X575773Y7399D01*
X575831Y7544D01*
X575889Y7718D01*
X575932Y7921D01*
X575990Y8153D01*
X576034Y8414D01*
X576077Y8704D01*
X576106Y9038D01*
X576135Y9400D01*
X576164Y9792D01*
Y10227D01*
Y10256D01*
Y10328D01*
Y10459D01*
X576150Y10618D01*
Y10807D01*
X576135Y11025D01*
X576121Y11271D01*
X576092Y11518D01*
X576034Y12054D01*
X575932Y12576D01*
X575860Y12823D01*
X575787Y13055D01*
X575700Y13243D01*
X575599Y13418D01*
Y13432D01*
X575570Y13447D01*
X575497Y13548D01*
X575381Y13664D01*
X575207Y13824D01*
X575004Y13969D01*
X574772Y14085D01*
X574496Y14186D01*
X574351Y14201D01*
X574192Y14215D01*
D02*
G37*
G36*
X534772D02*
X534699D01*
X534641Y14201D01*
X534482Y14172D01*
X534293Y14128D01*
X534090Y14041D01*
X533872Y13911D01*
X533756Y13838D01*
X533655Y13737D01*
X533553Y13635D01*
X533452Y13505D01*
Y13490D01*
X533423Y13461D01*
X533394Y13403D01*
X533350Y13331D01*
X533307Y13229D01*
X533263Y13098D01*
X533205Y12939D01*
X533147Y12765D01*
X533089Y12547D01*
X533031Y12315D01*
X532988Y12054D01*
X532944Y11750D01*
X532901Y11416D01*
X532872Y11054D01*
X532857Y10662D01*
X532843Y10227D01*
Y10198D01*
Y10125D01*
Y9995D01*
X532857Y9835D01*
Y9647D01*
X532872Y9429D01*
X532886Y9183D01*
X532915Y8921D01*
X532973Y8385D01*
X533075Y7863D01*
X533133Y7616D01*
X533205Y7384D01*
X533292Y7196D01*
X533394Y7022D01*
Y7007D01*
X533423Y6993D01*
X533495Y6906D01*
X533611Y6775D01*
X533785Y6630D01*
X533988Y6485D01*
X534221Y6354D01*
X534496Y6267D01*
X534641Y6253D01*
X534786Y6238D01*
X534873D01*
X534931Y6253D01*
X535076Y6282D01*
X535265Y6340D01*
X535497Y6427D01*
X535729Y6572D01*
X535845Y6659D01*
X535961Y6761D01*
X536077Y6891D01*
X536179Y7022D01*
Y7036D01*
X536208Y7065D01*
X536236Y7109D01*
X536265Y7181D01*
X536309Y7283D01*
X536353Y7399D01*
X536410Y7544D01*
X536469Y7718D01*
X536512Y7921D01*
X536570Y8153D01*
X536614Y8414D01*
X536657Y8704D01*
X536686Y9038D01*
X536715Y9400D01*
X536744Y9792D01*
Y10227D01*
Y10256D01*
Y10328D01*
Y10459D01*
X536730Y10618D01*
Y10807D01*
X536715Y11025D01*
X536701Y11271D01*
X536672Y11518D01*
X536614Y12054D01*
X536512Y12576D01*
X536440Y12823D01*
X536367Y13055D01*
X536280Y13243D01*
X536179Y13418D01*
Y13432D01*
X536149Y13447D01*
X536077Y13548D01*
X535961Y13664D01*
X535787Y13824D01*
X535584Y13969D01*
X535352Y14085D01*
X535076Y14186D01*
X534931Y14201D01*
X534772Y14215D01*
D02*
G37*
G36*
X486345Y11663D02*
X486258D01*
X486200Y11648D01*
X486055Y11634D01*
X485852Y11590D01*
X485634Y11532D01*
X485402Y11431D01*
X485155Y11286D01*
X484938Y11097D01*
X484909Y11068D01*
X484851Y10996D01*
X484764Y10879D01*
X484662Y10705D01*
X484546Y10502D01*
X484445Y10241D01*
X484372Y9951D01*
X484329Y9632D01*
X488288D01*
Y9647D01*
Y9676D01*
X488274Y9719D01*
Y9777D01*
X488245Y9937D01*
X488201Y10125D01*
X488143Y10343D01*
X488056Y10575D01*
X487955Y10778D01*
X487824Y10967D01*
Y10981D01*
X487795Y10996D01*
X487723Y11083D01*
X487592Y11184D01*
X487433Y11315D01*
X487215Y11445D01*
X486968Y11561D01*
X486678Y11634D01*
X486519Y11648D01*
X486345Y11663D01*
D02*
G37*
G36*
X457468D02*
X457251D01*
X457193Y11648D01*
X457048Y11634D01*
X456859Y11576D01*
X456642Y11503D01*
X456410Y11387D01*
X456178Y11228D01*
X456076Y11126D01*
X455960Y11010D01*
X455931Y10981D01*
X455902Y10938D01*
X455873Y10894D01*
X455830Y10821D01*
X455786Y10734D01*
X455728Y10633D01*
X455685Y10517D01*
X455627Y10386D01*
X455569Y10256D01*
X455525Y10096D01*
X455482Y9922D01*
X455453Y9719D01*
X455424Y9516D01*
X455395Y9299D01*
Y9067D01*
Y9052D01*
Y9008D01*
Y8936D01*
X455409Y8834D01*
Y8718D01*
X455424Y8588D01*
X455467Y8298D01*
X455525Y7964D01*
X455627Y7616D01*
X455757Y7312D01*
X455844Y7167D01*
X455946Y7036D01*
X455975Y7007D01*
X456047Y6934D01*
X456163Y6833D01*
X456337Y6717D01*
X456540Y6601D01*
X456772Y6499D01*
X457048Y6427D01*
X457193Y6412D01*
X457338Y6398D01*
X457425D01*
X457483Y6412D01*
X457628Y6427D01*
X457817Y6470D01*
X458034Y6557D01*
X458266Y6659D01*
X458498Y6819D01*
X458614Y6906D01*
X458716Y7022D01*
Y7036D01*
X458745Y7051D01*
X458774Y7094D01*
X458803Y7138D01*
X458846Y7210D01*
X458890Y7297D01*
X458948Y7399D01*
X459006Y7515D01*
X459049Y7645D01*
X459107Y7790D01*
X459151Y7950D01*
X459194Y8138D01*
X459223Y8327D01*
X459252Y8544D01*
X459282Y8777D01*
Y9023D01*
Y9038D01*
Y9081D01*
Y9154D01*
X459267Y9241D01*
Y9342D01*
X459252Y9473D01*
X459209Y9763D01*
X459136Y10082D01*
X459035Y10401D01*
X458890Y10720D01*
X458803Y10865D01*
X458701Y10996D01*
Y11010D01*
X458672Y11025D01*
X458600Y11097D01*
X458484Y11213D01*
X458324Y11329D01*
X458121Y11445D01*
X457889Y11561D01*
X457614Y11634D01*
X457468Y11663D01*
D02*
G37*
%LPD*%
D10*
X5160Y397130D02*
G03*
X5160Y397130I-500J0D01*
G01*
X237370Y357970D02*
G03*
X237370Y357970I-500J0D01*
G01*
X235620Y240680D02*
G03*
X235620Y240680I-500J0D01*
G01*
X39700Y282560D02*
G03*
X39700Y282560I-500J0D01*
G01*
X34960Y78120D02*
G03*
X34960Y78120I-500J0D01*
G01*
X20990D02*
G03*
X20990Y78120I-500J0D01*
G01*
X200980Y264160D02*
G03*
X200980Y264160I-9210J0D01*
G01*
X482412Y197358D02*
G03*
X482412Y197358I-9210J0D01*
G01*
X346888Y178767D02*
X350952D01*
X346888Y185371D02*
X350952D01*
X346620Y233183D02*
X350684D01*
X346620Y226579D02*
X350684D01*
X349122Y279654D02*
Y283718D01*
X355726Y279654D02*
Y283718D01*
X14682Y363422D02*
Y367486D01*
X4014Y363422D02*
Y367486D01*
X582168Y243840D02*
Y247904D01*
X571500Y243840D02*
Y247904D01*
X329692Y72262D02*
Y76326D01*
X319024Y72262D02*
Y76326D01*
X302514Y72262D02*
Y76326D01*
X313182Y72262D02*
Y76326D01*
X266446Y74168D02*
Y78232D01*
X277114Y74168D02*
Y78232D01*
X298450Y35560D02*
X302514D01*
X298450Y46228D02*
X302514D01*
X287782Y102870D02*
X291846D01*
X287782Y113538D02*
X291846D01*
X372618Y87884D02*
X376682D01*
X372618Y77216D02*
X376682D01*
X372618Y64516D02*
X376682D01*
X372618Y75184D02*
X376682D01*
Y203708D02*
X380746D01*
X376682Y193040D02*
X380746D01*
X371602Y188468D02*
X375666D01*
X371602Y177800D02*
X375666D01*
X320548Y194056D02*
X324612D01*
X320548Y204724D02*
X324612D01*
X324358Y181356D02*
X328422D01*
X324358Y192024D02*
X328422D01*
X151588Y307690D02*
X155652D01*
X151588Y297022D02*
X155652D01*
X151588Y322930D02*
X155652D01*
X151588Y312262D02*
X155652D01*
X198252Y333638D02*
X202316D01*
X198252Y344306D02*
X202316D01*
X179782Y392124D02*
Y396188D01*
X190450Y392124D02*
Y396188D01*
X345314Y76962D02*
X349378D01*
X345314Y66294D02*
X349378D01*
X510032Y74122D02*
X514096D01*
X510032Y84790D02*
X514096D01*
X472440Y140462D02*
Y144526D01*
X483108Y140462D02*
Y144526D01*
X559688Y92710D02*
X563752D01*
X559688Y82042D02*
X563752D01*
X558958Y168225D02*
X563022D01*
X558958Y157556D02*
X563022D01*
X51308Y200406D02*
X55372D01*
X51308Y211074D02*
X55372D01*
X22860Y28956D02*
X26924D01*
X22860Y39624D02*
X26924D01*
X345314Y90424D02*
X349378D01*
X345314Y79756D02*
X349378D01*
X10160Y406654D02*
Y408178D01*
Y402082D02*
Y403860D01*
X12700D02*
X13208Y403352D01*
X6858Y404622D02*
X7620Y403860D01*
X5334Y399542D02*
Y410972D01*
X14732Y399288D02*
Y410972D01*
X7366Y406654D02*
X13035D01*
X7366D02*
X10160Y403860D01*
X10241D02*
X13035Y406654D01*
X10160Y403860D02*
X12700D01*
X7620D02*
X10160D01*
X346034Y41829D02*
X349844D01*
X346034Y51989D02*
X349844D01*
X547289Y103546D02*
Y107356D01*
X557449Y103546D02*
Y107356D01*
X537804Y171369D02*
X541614D01*
X537804Y181529D02*
X541614D01*
X3149Y226000D02*
X5689D01*
X358875Y19585D02*
X363220Y15240D01*
X358875Y19585D02*
Y40781D01*
X360680Y66040D02*
X364490Y62230D01*
X360680Y66040D02*
Y90170D01*
X337140Y40769D02*
X358742D01*
X337816Y91457D02*
X359101D01*
X363220Y15240D02*
X386080D01*
X364490Y62230D02*
X386080D01*
X287973Y226060D02*
X304800D01*
Y331322D02*
Y430530D01*
Y226060D02*
Y331322D01*
X82550Y226060D02*
X287973Y226060D01*
D11*
X251314Y380568D02*
G03*
X251314Y380568I-762J0D01*
G01*
X132842Y151384D02*
G03*
X132842Y151384I-762J0D01*
G01*
X395604Y182294D02*
G03*
X395604Y182294I-762J0D01*
G01*
X222123Y291619D02*
Y305280D01*
X242697Y291619D02*
Y305280D01*
X78971Y342975D02*
X92632D01*
X78971Y363549D02*
X92632D01*
X195010Y385850D02*
X196810D01*
X267210D02*
X269010D01*
X195010D02*
Y403400D01*
X269010Y385850D02*
Y403400D01*
X141680Y87630D02*
Y151130D01*
X135180Y87630D02*
X141680D01*
X135180D02*
Y151130D01*
X141680D01*
X391794Y177468D02*
X399725D01*
X391794Y169848D02*
Y177468D01*
X422274Y169537D02*
Y177468D01*
X414654D02*
X422274D01*
X414343Y137844D02*
X422274D01*
Y145464D01*
X391794Y137787D02*
Y145718D01*
Y137787D02*
X399414D01*
X438977Y27236D02*
X430979D01*
Y31235D01*
X432312Y32567D01*
X434978D01*
X436311Y31235D01*
Y27236D01*
Y29902D02*
X438977Y32567D01*
Y40565D02*
Y35233D01*
X433645Y40565D01*
X432312D01*
X430979Y39232D01*
Y36566D01*
X432312Y35233D01*
Y43231D02*
X430979Y44563D01*
Y47229D01*
X432312Y48562D01*
X433645D01*
X434978Y47229D01*
Y45896D01*
Y47229D01*
X436311Y48562D01*
X437644D01*
X438977Y47229D01*
Y44563D01*
X437644Y43231D01*
X531771Y147927D02*
Y150593D01*
Y149260D01*
X525107D01*
X523774Y150593D01*
Y151926D01*
X525107Y153259D01*
X523774Y145261D02*
X531771D01*
Y141263D01*
X530438Y139930D01*
X527773D01*
X526440Y141263D01*
Y145261D01*
X523774Y133265D02*
X531771D01*
X527773Y137264D01*
Y131932D01*
X298896Y29774D02*
X297563Y31107D01*
X294897D01*
X293564Y29774D01*
Y24443D01*
X294897Y23110D01*
X297563D01*
X298896Y24443D01*
X306893Y31107D02*
X301561D01*
Y27109D01*
X304227Y28442D01*
X305560D01*
X306893Y27109D01*
Y24443D01*
X305560Y23110D01*
X302894D01*
X301561Y24443D01*
X290907Y205087D02*
X289574Y206420D01*
X286908D01*
X285575Y205087D01*
Y199755D01*
X286908Y198423D01*
X289574D01*
X290907Y199755D01*
X293573Y198423D02*
X296239D01*
X294906D01*
Y206420D01*
X293573Y205087D01*
X304236Y198423D02*
Y206420D01*
X300237Y202421D01*
X305569D01*
X168053Y254802D02*
X173384D01*
X170718D01*
Y246804D01*
X176050D02*
Y254802D01*
X180049D01*
X181382Y253469D01*
Y250803D01*
X180049Y249470D01*
X176050D01*
X189379Y254802D02*
X186713Y253469D01*
X184047Y250803D01*
Y248137D01*
X185380Y246804D01*
X188046D01*
X189379Y248137D01*
Y249470D01*
X188046Y250803D01*
X184047D01*
X88711Y134305D02*
X96709D01*
X92710D01*
Y139637D01*
X88711D01*
X96709D01*
Y147634D02*
Y142303D01*
X91377Y147634D01*
X90044D01*
X88711Y146302D01*
Y143636D01*
X90044Y142303D01*
X389576Y226249D02*
Y218251D01*
X394907D01*
X402905Y226249D02*
X397573D01*
Y222250D01*
X400239Y223583D01*
X401572D01*
X402905Y222250D01*
Y219584D01*
X401572Y218251D01*
X398906D01*
X397573Y219584D01*
X310835Y227519D02*
Y219521D01*
X316167D01*
X318833Y226186D02*
X320166Y227519D01*
X322832D01*
X324165Y226186D01*
Y224853D01*
X322832Y223520D01*
X324165Y222187D01*
Y220854D01*
X322832Y219521D01*
X320166D01*
X318833Y220854D01*
Y222187D01*
X320166Y223520D01*
X318833Y224853D01*
Y226186D01*
X320166Y223520D02*
X322832D01*
X345782Y195161D02*
X344449Y196493D01*
X341783D01*
X340450Y195161D01*
Y189829D01*
X341783Y188496D01*
X344449D01*
X345782Y189829D01*
X348447Y188496D02*
X351113D01*
X349781D01*
Y196493D01*
X348447Y195161D01*
X355112D02*
X356445Y196493D01*
X359111D01*
X360444Y195161D01*
Y189829D01*
X359111Y188496D01*
X356445D01*
X355112Y189829D01*
Y195161D01*
X346513Y219899D02*
Y211901D01*
X351844D01*
X359842D02*
X354510D01*
X359842Y217233D01*
Y218566D01*
X358509Y219899D01*
X355843D01*
X354510Y218566D01*
X346530Y243618D02*
X345197Y244951D01*
X342532D01*
X341199Y243618D01*
Y238286D01*
X342532Y236954D01*
X345197D01*
X346530Y238286D01*
X349196Y236954D02*
X351862D01*
X350529D01*
Y244951D01*
X349196Y243618D01*
X355861Y236954D02*
X358526D01*
X357194D01*
Y244951D01*
X355861Y243618D01*
X346059Y270304D02*
Y262307D01*
X351390D01*
X354056Y268971D02*
X355389Y270304D01*
X358055D01*
X359388Y268971D01*
Y267638D01*
X358055Y266306D01*
X356722D01*
X358055D01*
X359388Y264973D01*
Y263640D01*
X358055Y262307D01*
X355389D01*
X354056Y263640D01*
X350874Y295020D02*
X349541Y296353D01*
X346875D01*
X345542Y295020D01*
Y289688D01*
X346875Y288355D01*
X349541D01*
X350874Y289688D01*
X353540D02*
X354873Y288355D01*
X357538D01*
X358871Y289688D01*
Y295020D01*
X357538Y296353D01*
X354873D01*
X353540Y295020D01*
Y293687D01*
X354873Y292354D01*
X358871D01*
X45531Y365986D02*
Y363320D01*
Y364653D01*
X52196D01*
X53529Y363320D01*
Y361987D01*
X52196Y360654D01*
X53529Y368652D02*
X45531D01*
Y372651D01*
X46864Y373984D01*
X49530D01*
X50863Y372651D01*
Y368652D01*
X53529Y376649D02*
Y379315D01*
Y377982D01*
X45531D01*
X46864Y376649D01*
Y383314D02*
X45531Y384647D01*
Y387313D01*
X46864Y388646D01*
X52196D01*
X53529Y387313D01*
Y384647D01*
X52196Y383314D01*
X46864D01*
X18736Y415479D02*
Y407481D01*
X22734D01*
X24067Y408814D01*
Y414146D01*
X22734Y415479D01*
X18736D01*
X32064Y407481D02*
X26733D01*
X32064Y412813D01*
Y414146D01*
X30732Y415479D01*
X28066D01*
X26733Y414146D01*
X14926Y337631D02*
Y345629D01*
X18924D01*
X20257Y344296D01*
Y341630D01*
X18924Y340297D01*
X14926D01*
X17591D02*
X20257Y337631D01*
X28254Y345629D02*
X22923D01*
Y341630D01*
X25589Y342963D01*
X26922D01*
X28254Y341630D01*
Y338964D01*
X26922Y337631D01*
X24256D01*
X22923Y338964D01*
X16384Y379478D02*
X15051Y378145D01*
Y375480D01*
X16384Y374147D01*
X21716D01*
X23049Y375480D01*
Y378145D01*
X21716Y379478D01*
X16384Y382144D02*
X15051Y383477D01*
Y386143D01*
X16384Y387476D01*
X17717D01*
X19050Y386143D01*
Y384810D01*
Y386143D01*
X20383Y387476D01*
X21716D01*
X23049Y386143D01*
Y383477D01*
X21716Y382144D01*
X16384Y390142D02*
X15051Y391475D01*
Y394140D01*
X16384Y395473D01*
X21716D01*
X23049Y394140D01*
Y391475D01*
X21716Y390142D01*
X16384D01*
X65280Y341057D02*
X62615D01*
X63948D01*
Y334392D01*
X62615Y333059D01*
X61282D01*
X59949Y334392D01*
X67946Y333059D02*
Y341057D01*
X71945D01*
X73278Y339724D01*
Y337058D01*
X71945Y335725D01*
X67946D01*
X81275Y333059D02*
X75944D01*
X81275Y338391D01*
Y339724D01*
X79942Y341057D01*
X77277D01*
X75944Y339724D01*
X284228Y59879D02*
Y51881D01*
X289560D01*
X292226D02*
X294892D01*
X293559D01*
Y59879D01*
X292226Y58546D01*
X6036Y61149D02*
Y53151D01*
X10034D01*
X11367Y54484D01*
Y59816D01*
X10034Y61149D01*
X6036D01*
X14033D02*
X19365D01*
Y59816D01*
X14033Y54484D01*
Y53151D01*
X23816Y61149D02*
Y53151D01*
X27814D01*
X29147Y54484D01*
Y59816D01*
X27814Y61149D01*
X23816D01*
X37144D02*
X34479Y59816D01*
X31813Y57150D01*
Y54484D01*
X33146Y53151D01*
X35812D01*
X37144Y54484D01*
Y55817D01*
X35812Y57150D01*
X31813D01*
X39559Y300035D02*
X31561D01*
Y296036D01*
X32894Y294703D01*
X38226D01*
X39559Y296036D01*
Y300035D01*
Y286705D02*
Y292037D01*
X35560D01*
X36893Y289371D01*
Y288038D01*
X35560Y286705D01*
X32894D01*
X31561Y288038D01*
Y290704D01*
X32894Y292037D01*
X233869Y258125D02*
X225871D01*
Y254126D01*
X227204Y252793D01*
X232536D01*
X233869Y254126D01*
Y258125D01*
X225871Y246128D02*
X233869D01*
X229870Y250127D01*
Y244795D01*
X218125Y358329D02*
Y350331D01*
X222124D01*
X223457Y351664D01*
Y356996D01*
X222124Y358329D01*
X218125D01*
X226123Y356996D02*
X227456Y358329D01*
X230122D01*
X231455Y356996D01*
Y355663D01*
X230122Y354330D01*
X228789D01*
X230122D01*
X231455Y352997D01*
Y351664D01*
X230122Y350331D01*
X227456D01*
X226123Y351664D01*
X260161Y40388D02*
Y37723D01*
Y39056D01*
X266826D01*
X268159Y37723D01*
Y36390D01*
X266826Y35057D01*
X268159Y43054D02*
X260161D01*
Y47053D01*
X261494Y48386D01*
X264160D01*
X265493Y47053D01*
Y43054D01*
X260161Y56383D02*
Y51052D01*
X264160D01*
X262827Y53717D01*
Y55050D01*
X264160Y56383D01*
X266826D01*
X268159Y55050D01*
Y52385D01*
X266826Y51052D01*
X271465Y346899D02*
Y340234D01*
X272798Y338901D01*
X275464D01*
X276797Y340234D01*
Y346899D01*
X279463Y345566D02*
X280796Y346899D01*
X283462D01*
X284795Y345566D01*
Y344233D01*
X283462Y342900D01*
X282129D01*
X283462D01*
X284795Y341567D01*
Y340234D01*
X283462Y338901D01*
X280796D01*
X279463Y340234D01*
X444559Y116018D02*
Y124015D01*
X448557D01*
X449890Y122682D01*
Y120016D01*
X448557Y118684D01*
X444559D01*
X447224D02*
X449890Y116018D01*
X452556Y124015D02*
X457888D01*
Y122682D01*
X452556Y117351D01*
Y116018D01*
X546289Y141285D02*
X539624D01*
X538291Y139952D01*
Y137286D01*
X539624Y135953D01*
X546289D01*
X544956Y133287D02*
X546289Y131954D01*
Y129288D01*
X544956Y127956D01*
X543623D01*
X542290Y129288D01*
X540957Y127956D01*
X539624D01*
X538291Y129288D01*
Y131954D01*
X539624Y133287D01*
X540957D01*
X542290Y131954D01*
X543623Y133287D01*
X544956D01*
X542290Y131954D02*
Y129288D01*
X541209Y67625D02*
X534544D01*
X533211Y66292D01*
Y63626D01*
X534544Y62293D01*
X541209D01*
Y59627D02*
Y54296D01*
X539876D01*
X534544Y59627D01*
X533211D01*
X586551Y224023D02*
X594549D01*
Y220025D01*
X593216Y218692D01*
X590550D01*
X589217Y220025D01*
Y224023D01*
Y221357D02*
X586551Y218692D01*
Y210694D02*
Y216026D01*
X591883Y210694D01*
X593216D01*
X594549Y212027D01*
Y214693D01*
X593216Y216026D01*
X594549Y208028D02*
Y202697D01*
X593216D01*
X587884Y208028D01*
X586551D01*
X559839Y194921D02*
Y202919D01*
X563837D01*
X565170Y201586D01*
Y198920D01*
X563837Y197587D01*
X559839D01*
X562504D02*
X565170Y194921D01*
X573168D02*
X567836D01*
X573168Y200253D01*
Y201586D01*
X571835Y202919D01*
X569169D01*
X567836Y201586D01*
X581165Y202919D02*
X575833D01*
Y198920D01*
X578499Y200253D01*
X579832D01*
X581165Y198920D01*
Y196254D01*
X579832Y194921D01*
X577166D01*
X575833Y196254D01*
X368048Y47116D02*
X366716Y48449D01*
X364050D01*
X362717Y47116D01*
Y41784D01*
X364050Y40451D01*
X366716D01*
X368048Y41784D01*
X376046Y40451D02*
X370714D01*
X376046Y45783D01*
Y47116D01*
X374713Y48449D01*
X372047D01*
X370714Y47116D01*
X384043Y40451D02*
X378712D01*
X384043Y45783D01*
Y47116D01*
X382710Y48449D01*
X380045D01*
X378712Y47116D01*
X327024Y51497D02*
X328357Y52830D01*
Y55496D01*
X327024Y56828D01*
X321692D01*
X320359Y55496D01*
Y52830D01*
X321692Y51497D01*
X320359Y43499D02*
Y48831D01*
X325691Y43499D01*
X327024D01*
X328357Y44832D01*
Y47498D01*
X327024Y48831D01*
X486447Y200849D02*
X491779D01*
X489113D01*
Y192851D01*
X494445D02*
Y200849D01*
X498444D01*
X499776Y199516D01*
Y196850D01*
X498444Y195517D01*
X494445D01*
X502442Y192851D02*
X505108D01*
X503775D01*
Y200849D01*
X502442Y199516D01*
X509107Y192851D02*
X511773D01*
X510440D01*
Y200849D01*
X509107Y199516D01*
X464161Y60126D02*
Y68123D01*
X468160D01*
X469493Y66790D01*
Y64124D01*
X468160Y62792D01*
X464161D01*
X466827D02*
X469493Y60126D01*
X477491D02*
X472159D01*
X477491Y65457D01*
Y66790D01*
X476158Y68123D01*
X473492D01*
X472159Y66790D01*
X480156D02*
X481489Y68123D01*
X484155D01*
X485488Y66790D01*
Y61459D01*
X484155Y60126D01*
X481489D01*
X480156Y61459D01*
Y66790D01*
X291245Y189356D02*
X289912Y190689D01*
X287246D01*
X285913Y189356D01*
Y184024D01*
X287246Y182691D01*
X289912D01*
X291245Y184024D01*
X293911Y182691D02*
X296576D01*
X295244D01*
Y190689D01*
X293911Y189356D01*
X305907Y190689D02*
X300575D01*
Y186690D01*
X303241Y188023D01*
X304574D01*
X305907Y186690D01*
Y184024D01*
X304574Y182691D01*
X301908D01*
X300575Y184024D01*
X406945Y190059D02*
X405612Y191392D01*
X402946D01*
X401613Y190059D01*
Y184728D01*
X402946Y183395D01*
X405612D01*
X406945Y184728D01*
X409610Y183395D02*
X412276D01*
X410943D01*
Y191392D01*
X409610Y190059D01*
X416275D02*
X417608Y191392D01*
X420274D01*
X421607Y190059D01*
Y188726D01*
X420274Y187393D01*
X418941D01*
X420274D01*
X421607Y186061D01*
Y184728D01*
X420274Y183395D01*
X417608D01*
X416275Y184728D01*
X388555Y163890D02*
X380557Y158559D01*
X388555D02*
X380557Y163890D01*
Y150562D02*
Y155893D01*
X385889Y150562D01*
X387222D01*
X388555Y151894D01*
Y154560D01*
X387222Y155893D01*
X398612Y122710D02*
X403943Y114713D01*
Y122710D02*
X398612Y114713D01*
X406609D02*
X409275D01*
X407942D01*
Y122710D01*
X406609Y121377D01*
X474665Y228789D02*
Y222124D01*
X475998Y220791D01*
X478664D01*
X479997Y222124D01*
Y228789D01*
X482663Y222124D02*
X483996Y220791D01*
X486662D01*
X487994Y222124D01*
Y227456D01*
X486662Y228789D01*
X483996D01*
X482663Y227456D01*
Y226123D01*
X483996Y224790D01*
X487994D01*
X503569Y128309D02*
Y121645D01*
X504902Y120312D01*
X507568D01*
X508900Y121645D01*
Y128309D01*
X516898D02*
X514232Y126977D01*
X511566Y124311D01*
Y121645D01*
X512899Y120312D01*
X515565D01*
X516898Y121645D01*
Y122978D01*
X515565Y124311D01*
X511566D01*
X423056Y125717D02*
Y119053D01*
X424389Y117720D01*
X427055D01*
X428388Y119053D01*
Y125717D01*
X436385D02*
X431054D01*
Y121719D01*
X433719Y123052D01*
X435052D01*
X436385Y121719D01*
Y119053D01*
X435052Y117720D01*
X432387D01*
X431054Y119053D01*
X120336Y377379D02*
Y370714D01*
X121668Y369381D01*
X124334D01*
X125667Y370714D01*
Y377379D01*
X133665Y369381D02*
X128333D01*
X133665Y374713D01*
Y376046D01*
X132332Y377379D01*
X129666D01*
X128333Y376046D01*
X301886Y178412D02*
Y171747D01*
X303219Y170414D01*
X305885D01*
X307218Y171747D01*
Y178412D01*
X309883Y170414D02*
X312549D01*
X311216D01*
Y178412D01*
X309883Y177079D01*
X52198Y35054D02*
X50865Y33721D01*
Y31056D01*
X52198Y29723D01*
X53531D01*
X54864Y31056D01*
Y33721D01*
X56197Y35054D01*
X57530D01*
X58863Y33721D01*
Y31056D01*
X57530Y29723D01*
X50865Y37720D02*
X58863D01*
X56197Y40386D01*
X58863Y43052D01*
X50865D01*
X52198Y45718D02*
X50865Y47050D01*
Y49716D01*
X52198Y51049D01*
X53531D01*
X54864Y49716D01*
Y48383D01*
Y49716D01*
X56197Y51049D01*
X57530D01*
X58863Y49716D01*
Y47050D01*
X57530Y45718D01*
X145460Y43348D02*
X144106Y44703D01*
X141398D01*
X140043Y43348D01*
Y41994D01*
X141398Y40640D01*
X144106D01*
X145460Y39286D01*
Y37931D01*
X144106Y36577D01*
X141398D01*
X140043Y37931D01*
X148169Y36577D02*
Y44703D01*
X152232D01*
X153586Y43348D01*
Y40640D01*
X152232Y39286D01*
X148169D01*
X161711Y43348D02*
X160357Y44703D01*
X157648D01*
X156294Y43348D01*
Y41994D01*
X157648Y40640D01*
X160357D01*
X161711Y39286D01*
Y37931D01*
X160357Y36577D01*
X157648D01*
X156294Y37931D01*
X164420Y44703D02*
X169837D01*
X167128D01*
Y36577D01*
X28958Y97916D02*
X27626Y99249D01*
X24960D01*
X23627Y97916D01*
Y96583D01*
X24960Y95250D01*
X27626D01*
X28958Y93917D01*
Y92584D01*
X27626Y91251D01*
X24960D01*
X23627Y92584D01*
X31624Y99249D02*
Y91251D01*
X34290Y93917D01*
X36956Y91251D01*
Y99249D01*
X44953Y91251D02*
X39622D01*
X44953Y96583D01*
Y97916D01*
X43620Y99249D01*
X40954D01*
X39622Y97916D01*
X72221Y141650D02*
X70867Y140296D01*
Y137588D01*
X72221Y136234D01*
X73576D01*
X74930Y137588D01*
Y140296D01*
X76284Y141650D01*
X77639D01*
X78993Y140296D01*
Y137588D01*
X77639Y136234D01*
X78993Y144359D02*
X70867D01*
Y148421D01*
X72221Y149776D01*
X74930D01*
X76284Y148421D01*
Y144359D01*
X72221Y157901D02*
X70867Y156547D01*
Y153839D01*
X72221Y152484D01*
X73576D01*
X74930Y153839D01*
Y156547D01*
X76284Y157901D01*
X77639D01*
X78993Y156547D01*
Y153839D01*
X77639Y152484D01*
X70867Y160610D02*
Y166026D01*
Y163318D01*
X78993D01*
X552324Y257621D02*
X550991Y256288D01*
Y253623D01*
X552324Y252290D01*
X553657D01*
X554990Y253623D01*
Y256288D01*
X556323Y257621D01*
X557656D01*
X558989Y256288D01*
Y253623D01*
X557656Y252290D01*
X550991Y260287D02*
X558989D01*
X556323Y262953D01*
X558989Y265619D01*
X550991D01*
X558989Y268284D02*
Y270950D01*
Y269617D01*
X550991D01*
X552324Y268284D01*
X448990Y265599D02*
X447636Y266953D01*
X444928D01*
X443573Y265599D01*
Y264244D01*
X444928Y262890D01*
X447636D01*
X448990Y261536D01*
Y260182D01*
X447636Y258827D01*
X444928D01*
X443573Y260182D01*
X451699Y258827D02*
Y266953D01*
X455761D01*
X457116Y265599D01*
Y262890D01*
X455761Y261536D01*
X451699D01*
X465241Y265599D02*
X463887Y266953D01*
X461179D01*
X459824Y265599D01*
Y264244D01*
X461179Y262890D01*
X463887D01*
X465241Y261536D01*
Y260182D01*
X463887Y258827D01*
X461179D01*
X459824Y260182D01*
X467950Y266953D02*
X473367D01*
X470658D01*
Y258827D01*
X165165Y216657D02*
X173163D01*
Y212659D01*
X171830Y211326D01*
X169164D01*
X167831Y212659D01*
Y216657D01*
Y213991D02*
X165165Y211326D01*
X171830Y208660D02*
X173163Y207327D01*
Y204661D01*
X171830Y203328D01*
X170497D01*
X169164Y204661D01*
Y205994D01*
Y204661D01*
X167831Y203328D01*
X166498D01*
X165165Y204661D01*
Y207327D01*
X166498Y208660D01*
X165165Y196664D02*
X173163D01*
X169164Y200662D01*
Y195331D01*
X195391Y216403D02*
X203389D01*
Y212404D01*
X202056Y211072D01*
X199390D01*
X198057Y212404D01*
Y216403D01*
Y213737D02*
X195391Y211072D01*
X202056Y208406D02*
X203389Y207073D01*
Y204407D01*
X202056Y203074D01*
X200723D01*
X199390Y204407D01*
Y205740D01*
Y204407D01*
X198057Y203074D01*
X196724D01*
X195391Y204407D01*
Y207073D01*
X196724Y208406D01*
X202056Y200408D02*
X203389Y199076D01*
Y196410D01*
X202056Y195077D01*
X200723D01*
X199390Y196410D01*
Y197743D01*
Y196410D01*
X198057Y195077D01*
X196724D01*
X195391Y196410D01*
Y199076D01*
X196724Y200408D01*
X13905Y6355D02*
X5907D01*
Y10353D01*
X7240Y11686D01*
X9906D01*
X11239Y10353D01*
Y6355D01*
Y9021D02*
X13905Y11686D01*
X7240Y14352D02*
X5907Y15685D01*
Y18351D01*
X7240Y19684D01*
X8573D01*
X9906Y18351D01*
Y17018D01*
Y18351D01*
X11239Y19684D01*
X12572D01*
X13905Y18351D01*
Y15685D01*
X12572Y14352D01*
X13905Y27681D02*
Y22350D01*
X8573Y27681D01*
X7240D01*
X5907Y26348D01*
Y23682D01*
X7240Y22350D01*
X134431Y215070D02*
X142429D01*
Y211072D01*
X141096Y209739D01*
X138430D01*
X137097Y211072D01*
Y215070D01*
Y212404D02*
X134431Y209739D01*
X141096Y207073D02*
X142429Y205740D01*
Y203074D01*
X141096Y201741D01*
X139763D01*
X138430Y203074D01*
Y204407D01*
Y203074D01*
X137097Y201741D01*
X135764D01*
X134431Y203074D01*
Y205740D01*
X135764Y207073D01*
X134431Y199076D02*
Y196410D01*
Y197743D01*
X142429D01*
X141096Y199076D01*
X276914Y151451D02*
X268916D01*
Y155450D01*
X270249Y156783D01*
X272915D01*
X274248Y155450D01*
Y151451D01*
Y154117D02*
X276914Y156783D01*
X270249Y159449D02*
X268916Y160782D01*
Y163447D01*
X270249Y164780D01*
X271582D01*
X272915Y163447D01*
Y162115D01*
Y163447D01*
X274248Y164780D01*
X275581D01*
X276914Y163447D01*
Y160782D01*
X275581Y159449D01*
X270249Y167446D02*
X268916Y168779D01*
Y171445D01*
X270249Y172778D01*
X275581D01*
X276914Y171445D01*
Y168779D01*
X275581Y167446D01*
X270249D01*
X31561Y213863D02*
X39559D01*
Y209865D01*
X38226Y208532D01*
X35560D01*
X34227Y209865D01*
Y213863D01*
Y211197D02*
X31561Y208532D01*
Y200534D02*
Y205866D01*
X36893Y200534D01*
X38226D01*
X39559Y201867D01*
Y204533D01*
X38226Y205866D01*
X32894Y197868D02*
X31561Y196535D01*
Y193870D01*
X32894Y192537D01*
X38226D01*
X39559Y193870D01*
Y196535D01*
X38226Y197868D01*
X36893D01*
X35560Y196535D01*
Y192537D01*
X117413Y216149D02*
X125411D01*
Y212150D01*
X124078Y210818D01*
X121412D01*
X120079Y212150D01*
Y216149D01*
Y213483D02*
X117413Y210818D01*
Y202820D02*
Y208152D01*
X122745Y202820D01*
X124078D01*
X125411Y204153D01*
Y206819D01*
X124078Y208152D01*
Y200154D02*
X125411Y198822D01*
Y196156D01*
X124078Y194823D01*
X122745D01*
X121412Y196156D01*
X120079Y194823D01*
X118746D01*
X117413Y196156D01*
Y198822D01*
X118746Y200154D01*
X120079D01*
X121412Y198822D01*
X122745Y200154D01*
X124078D01*
X121412Y198822D02*
Y196156D01*
X532897Y195391D02*
Y203389D01*
X536895D01*
X538228Y202056D01*
Y199390D01*
X536895Y198057D01*
X532897D01*
X535563D02*
X538228Y195391D01*
X546226D02*
X540894D01*
X546226Y200723D01*
Y202056D01*
X544893Y203389D01*
X542227D01*
X540894Y202056D01*
X554223Y203389D02*
X551557Y202056D01*
X548892Y199390D01*
Y196724D01*
X550224Y195391D01*
X552890D01*
X554223Y196724D01*
Y198057D01*
X552890Y199390D01*
X548892D01*
X512577Y219521D02*
Y227519D01*
X516576D01*
X517908Y226186D01*
Y223520D01*
X516576Y222187D01*
X512577D01*
X515243D02*
X517908Y219521D01*
X525906D02*
X520574D01*
X525906Y224853D01*
Y226186D01*
X524573Y227519D01*
X521907D01*
X520574Y226186D01*
X532570Y219521D02*
Y227519D01*
X528572Y223520D01*
X533903D01*
X557027Y183961D02*
Y191959D01*
X561026D01*
X562358Y190626D01*
Y187960D01*
X561026Y186627D01*
X557027D01*
X559693D02*
X562358Y183961D01*
X570356D02*
X565024D01*
X570356Y189293D01*
Y190626D01*
X569023Y191959D01*
X566357D01*
X565024Y190626D01*
X578353Y183961D02*
X573022D01*
X578353Y189293D01*
Y190626D01*
X577020Y191959D01*
X574355D01*
X573022Y190626D01*
X560900Y114111D02*
Y122109D01*
X564898D01*
X566231Y120776D01*
Y118110D01*
X564898Y116777D01*
X560900D01*
X563565D02*
X566231Y114111D01*
X574229D02*
X568897D01*
X574229Y119443D01*
Y120776D01*
X572896Y122109D01*
X570230D01*
X568897Y120776D01*
X576894Y114111D02*
X579560D01*
X578227D01*
Y122109D01*
X576894Y120776D01*
X440350Y209177D02*
Y217174D01*
X444349D01*
X445682Y215841D01*
Y213175D01*
X444349Y211842D01*
X440350D01*
X443016D02*
X445682Y209177D01*
X448347D02*
X451013D01*
X449680D01*
Y217174D01*
X448347Y215841D01*
X455012Y210509D02*
X456345Y209177D01*
X459011D01*
X460344Y210509D01*
Y215841D01*
X459011Y217174D01*
X456345D01*
X455012Y215841D01*
Y214508D01*
X456345Y213175D01*
X460344D01*
X487179Y184167D02*
X495177D01*
Y180168D01*
X493844Y178835D01*
X491178D01*
X489845Y180168D01*
Y184167D01*
Y181501D02*
X487179Y178835D01*
Y176169D02*
Y173504D01*
Y174837D01*
X495177D01*
X493844Y176169D01*
Y169505D02*
X495177Y168172D01*
Y165506D01*
X493844Y164173D01*
X492511D01*
X491178Y165506D01*
X489845Y164173D01*
X488512D01*
X487179Y165506D01*
Y168172D01*
X488512Y169505D01*
X489845D01*
X491178Y168172D01*
X492511Y169505D01*
X493844D01*
X491178Y168172D02*
Y165506D01*
X96709Y383703D02*
X88711D01*
Y387702D01*
X90044Y389035D01*
X92710D01*
X94043Y387702D01*
Y383703D01*
Y386369D02*
X96709Y389035D01*
Y391701D02*
Y394366D01*
Y393034D01*
X88711D01*
X90044Y391701D01*
X88711Y403697D02*
Y398365D01*
X92710D01*
X91377Y401031D01*
Y402364D01*
X92710Y403697D01*
X95376D01*
X96709Y402364D01*
Y399698D01*
X95376Y398365D01*
X172605Y407781D02*
X164607D01*
Y411780D01*
X165940Y413113D01*
X168606D01*
X169939Y411780D01*
Y407781D01*
Y410447D02*
X172605Y413113D01*
Y415778D02*
Y418444D01*
Y417111D01*
X164607D01*
X165940Y415778D01*
X172605Y426442D02*
X164607D01*
X168606Y422443D01*
Y427775D01*
X68737Y372022D02*
X60739D01*
Y376021D01*
X62072Y377354D01*
X64738D01*
X66071Y376021D01*
Y372022D01*
Y374688D02*
X68737Y377354D01*
Y380020D02*
Y382685D01*
Y381353D01*
X60739D01*
X62072Y380020D01*
Y386684D02*
X60739Y388017D01*
Y390683D01*
X62072Y392016D01*
X63405D01*
X64738Y390683D01*
Y389350D01*
Y390683D01*
X66071Y392016D01*
X67404D01*
X68737Y390683D01*
Y388017D01*
X67404Y386684D01*
X123379Y407833D02*
X115381D01*
Y411832D01*
X116714Y413165D01*
X119380D01*
X120713Y411832D01*
Y407833D01*
Y410499D02*
X123379Y413165D01*
Y415831D02*
Y418496D01*
Y417164D01*
X115381D01*
X116714Y415831D01*
X123379Y427827D02*
Y422495D01*
X118047Y427827D01*
X116714D01*
X115381Y426494D01*
Y423828D01*
X116714Y422495D01*
X82776Y411291D02*
Y419289D01*
X86775D01*
X88108Y417956D01*
Y415290D01*
X86775Y413957D01*
X82776D01*
X85442D02*
X88108Y411291D01*
X90774D02*
X93439D01*
X92107D01*
Y419289D01*
X90774Y417956D01*
X97438Y411291D02*
X100104D01*
X98771D01*
Y419289D01*
X97438Y417956D01*
X60641Y396657D02*
X52643D01*
Y400656D01*
X53976Y401989D01*
X56642D01*
X57975Y400656D01*
Y396657D01*
Y399323D02*
X60641Y401989D01*
Y404655D02*
Y407320D01*
Y405988D01*
X52643D01*
X53976Y404655D01*
Y411319D02*
X52643Y412652D01*
Y415318D01*
X53976Y416651D01*
X59308D01*
X60641Y415318D01*
Y412652D01*
X59308Y411319D01*
X53976D01*
X139331Y407409D02*
X131333D01*
Y411408D01*
X132666Y412741D01*
X135332D01*
X136665Y411408D01*
Y407409D01*
Y410075D02*
X139331Y412741D01*
X137998Y415407D02*
X139331Y416740D01*
Y419406D01*
X137998Y420738D01*
X132666D01*
X131333Y419406D01*
Y416740D01*
X132666Y415407D01*
X133999D01*
X135332Y416740D01*
Y420738D01*
X156095Y407409D02*
X148097D01*
Y411408D01*
X149430Y412741D01*
X152096D01*
X153429Y411408D01*
Y407409D01*
Y410075D02*
X156095Y412741D01*
X149430Y415407D02*
X148097Y416740D01*
Y419406D01*
X149430Y420738D01*
X150763D01*
X152096Y419406D01*
X153429Y420738D01*
X154762D01*
X156095Y419406D01*
Y416740D01*
X154762Y415407D01*
X153429D01*
X152096Y416740D01*
X150763Y415407D01*
X149430D01*
X152096Y416740D02*
Y419406D01*
X53025Y283021D02*
Y291019D01*
X57024D01*
X58357Y289686D01*
Y287020D01*
X57024Y285687D01*
X53025D01*
X55691D02*
X58357Y283021D01*
X66354Y291019D02*
X63689Y289686D01*
X61023Y287020D01*
Y284354D01*
X62356Y283021D01*
X65022D01*
X66354Y284354D01*
Y285687D01*
X65022Y287020D01*
X61023D01*
X462473Y116143D02*
Y124141D01*
X466472D01*
X467805Y122808D01*
Y120142D01*
X466472Y118809D01*
X462473D01*
X465139D02*
X467805Y116143D01*
X474470D02*
Y124141D01*
X470471Y120142D01*
X475802D01*
X364175Y29021D02*
Y37019D01*
X368174D01*
X369507Y35686D01*
Y33020D01*
X368174Y31687D01*
X364175D01*
X366841D02*
X369507Y29021D01*
X372173Y35686D02*
X373506Y37019D01*
X376172D01*
X377505Y35686D01*
Y34353D01*
X376172Y33020D01*
X374839D01*
X376172D01*
X377505Y31687D01*
Y30354D01*
X376172Y29021D01*
X373506D01*
X372173Y30354D01*
X260337Y356460D02*
Y364457D01*
X264336D01*
X265669Y363124D01*
Y360459D01*
X264336Y359126D01*
X260337D01*
X263003D02*
X265669Y356460D01*
X273666D02*
X268335D01*
X273666Y361791D01*
Y363124D01*
X272334Y364457D01*
X269668D01*
X268335Y363124D01*
X572518Y298261D02*
Y306259D01*
X576517D01*
X577850Y304926D01*
Y302260D01*
X576517Y300927D01*
X572518D01*
X575184D02*
X577850Y298261D01*
X580516D02*
X583182D01*
X581849D01*
Y306259D01*
X580516Y304926D01*
X141548Y169099D02*
Y161101D01*
X146880D01*
X154877Y169099D02*
X149545D01*
Y161101D01*
X154877D01*
X149545Y165100D02*
X152211D01*
X157543Y169099D02*
Y161101D01*
X161542D01*
X162875Y162434D01*
Y167766D01*
X161542Y169099D01*
X157543D01*
X170872D02*
X165540D01*
Y165100D01*
X168206Y166433D01*
X169539D01*
X170872Y165100D01*
Y162434D01*
X169539Y161101D01*
X166873D01*
X165540Y162434D01*
X180918Y169099D02*
Y161101D01*
X186250D01*
X194247Y169099D02*
X188916D01*
Y161101D01*
X194247D01*
X188916Y165100D02*
X191581D01*
X196913Y169099D02*
Y161101D01*
X200912D01*
X202244Y162434D01*
Y167766D01*
X200912Y169099D01*
X196913D01*
X208909Y161101D02*
Y169099D01*
X204910Y165100D01*
X210242D01*
X18358Y429449D02*
Y421451D01*
X23690D01*
X31687Y429449D02*
X26356D01*
Y421451D01*
X31687D01*
X26356Y425450D02*
X29021D01*
X34353Y429449D02*
Y421451D01*
X38352D01*
X39685Y422784D01*
Y428116D01*
X38352Y429449D01*
X34353D01*
X42350Y428116D02*
X43683Y429449D01*
X46349D01*
X47682Y428116D01*
Y426783D01*
X46349Y425450D01*
X45016D01*
X46349D01*
X47682Y424117D01*
Y422784D01*
X46349Y421451D01*
X43683D01*
X42350Y422784D01*
X79821Y300298D02*
X87819D01*
Y305630D01*
X79821Y313627D02*
Y308295D01*
X87819D01*
Y313627D01*
X83820Y308295D02*
Y310961D01*
X79821Y316293D02*
X87819D01*
Y320292D01*
X86486Y321624D01*
X81154D01*
X79821Y320292D01*
Y316293D01*
X87819Y329622D02*
Y324290D01*
X82487Y329622D01*
X81154D01*
X79821Y328289D01*
Y325623D01*
X81154Y324290D01*
X529753Y190689D02*
Y182691D01*
X535085D01*
X537751D02*
X540416D01*
X539084D01*
Y190689D01*
X537751Y189356D01*
X544415D02*
X545748Y190689D01*
X548414D01*
X549747Y189356D01*
Y184024D01*
X548414Y182691D01*
X545748D01*
X544415Y184024D01*
Y189356D01*
X542207Y112985D02*
X534209D01*
Y107654D01*
X535542Y104988D02*
X534209Y103655D01*
Y100989D01*
X535542Y99656D01*
X540874D01*
X542207Y100989D01*
Y103655D01*
X540874Y104988D01*
X539541D01*
X538208Y103655D01*
Y99656D01*
X100015Y298639D02*
Y290641D01*
X105347D01*
X108013Y298639D02*
X113344D01*
Y297306D01*
X108013Y291974D01*
Y290641D01*
X206695Y330389D02*
Y322391D01*
X212027D01*
X220025Y330389D02*
X217359Y329056D01*
X214693Y326390D01*
Y323724D01*
X216026Y322391D01*
X218692D01*
X220025Y323724D01*
Y325057D01*
X218692Y326390D01*
X214693D01*
X365446Y25589D02*
Y17591D01*
X370777D01*
X377442D02*
Y25589D01*
X373443Y21590D01*
X378774D01*
X214441Y101889D02*
Y99223D01*
Y100556D01*
X221106D01*
X222439Y99223D01*
Y97890D01*
X221106Y96557D01*
X222439Y104555D02*
X214441D01*
Y108554D01*
X215774Y109886D01*
X218440D01*
X219773Y108554D01*
Y104555D01*
X222439Y112552D02*
Y115218D01*
Y113885D01*
X214441D01*
X215774Y112552D01*
X222439Y119217D02*
Y121883D01*
Y120550D01*
X214441D01*
X215774Y119217D01*
X194121Y61978D02*
Y59313D01*
Y60645D01*
X200786D01*
X202119Y59313D01*
Y57980D01*
X200786Y56647D01*
X202119Y64644D02*
X194121D01*
Y68643D01*
X195454Y69976D01*
X198120D01*
X199453Y68643D01*
Y64644D01*
X200786Y72642D02*
X202119Y73974D01*
Y76640D01*
X200786Y77973D01*
X195454D01*
X194121Y76640D01*
Y73974D01*
X195454Y72642D01*
X196787D01*
X198120Y73974D01*
Y77973D01*
X554738Y34479D02*
X552073D01*
X553405D01*
Y27814D01*
X552073Y26481D01*
X550740D01*
X549407Y27814D01*
X557404Y26481D02*
Y34479D01*
X561403D01*
X562736Y33146D01*
Y30480D01*
X561403Y29147D01*
X557404D01*
X565402Y33146D02*
X566735Y34479D01*
X569400D01*
X570733Y33146D01*
Y31813D01*
X569400Y30480D01*
X570733Y29147D01*
Y27814D01*
X569400Y26481D01*
X566735D01*
X565402Y27814D01*
Y29147D01*
X566735Y30480D01*
X565402Y31813D01*
Y33146D01*
X566735Y30480D02*
X569400D01*
X284228Y317689D02*
X281563D01*
X282896D01*
Y311024D01*
X281563Y309691D01*
X280230D01*
X278897Y311024D01*
X286894Y309691D02*
Y317689D01*
X290893D01*
X292226Y316356D01*
Y313690D01*
X290893Y312357D01*
X286894D01*
X294892Y316356D02*
X296224Y317689D01*
X298890D01*
X300223Y316356D01*
Y315023D01*
X298890Y313690D01*
X297557D01*
X298890D01*
X300223Y312357D01*
Y311024D01*
X298890Y309691D01*
X296224D01*
X294892Y311024D01*
X10773Y290584D02*
X8108D01*
X9440D01*
Y283919D01*
X8108Y282586D01*
X6775D01*
X5442Y283919D01*
X13439Y282586D02*
Y290584D01*
X17438D01*
X18771Y289251D01*
Y286585D01*
X17438Y285252D01*
X13439D01*
X21437Y282586D02*
X24102D01*
X22769D01*
Y290584D01*
X21437Y289251D01*
X189563Y370410D02*
X197561D01*
X193562D01*
Y375742D01*
X189563D01*
X197561D01*
Y378408D02*
Y381074D01*
Y379741D01*
X189563D01*
X190896Y378408D01*
X209298Y278319D02*
Y270321D01*
X213297D01*
X214630Y271654D01*
Y276986D01*
X213297Y278319D01*
X209298D01*
X217296Y270321D02*
X219962D01*
X218629D01*
Y278319D01*
X217296Y276986D01*
X368048Y58546D02*
X366716Y59879D01*
X364050D01*
X362717Y58546D01*
Y53214D01*
X364050Y51881D01*
X366716D01*
X368048Y53214D01*
X370714Y58546D02*
X372047Y59879D01*
X374713D01*
X376046Y58546D01*
Y57213D01*
X374713Y55880D01*
X373380D01*
X374713D01*
X376046Y54547D01*
Y53214D01*
X374713Y51881D01*
X372047D01*
X370714Y53214D01*
X384043Y51881D02*
X378712D01*
X384043Y57213D01*
Y58546D01*
X382710Y59879D01*
X380045D01*
X378712Y58546D01*
X18798Y47116D02*
X17465Y48449D01*
X14800D01*
X13467Y47116D01*
Y41784D01*
X14800Y40451D01*
X17465D01*
X18798Y41784D01*
X26796Y40451D02*
X21464D01*
X26796Y45783D01*
Y47116D01*
X25463Y48449D01*
X22797D01*
X21464Y47116D01*
X29462Y41784D02*
X30794Y40451D01*
X33460D01*
X34793Y41784D01*
Y47116D01*
X33460Y48449D01*
X30794D01*
X29462Y47116D01*
Y45783D01*
X30794Y44450D01*
X34793D01*
X75056Y210564D02*
X76389Y211896D01*
Y214562D01*
X75056Y215895D01*
X69724D01*
X68391Y214562D01*
Y211896D01*
X69724Y210564D01*
X68391Y202566D02*
Y207898D01*
X73723Y202566D01*
X75056D01*
X76389Y203899D01*
Y206565D01*
X75056Y207898D01*
Y199900D02*
X76389Y198568D01*
Y195902D01*
X75056Y194569D01*
X73723D01*
X72390Y195902D01*
X71057Y194569D01*
X69724D01*
X68391Y195902D01*
Y198568D01*
X69724Y199900D01*
X71057D01*
X72390Y198568D01*
X73723Y199900D01*
X75056D01*
X72390Y198568D02*
Y195902D01*
X530608Y165226D02*
X529276Y166559D01*
X526610D01*
X525277Y165226D01*
Y159894D01*
X526610Y158561D01*
X529276D01*
X530608Y159894D01*
X538606Y158561D02*
X533274D01*
X538606Y163893D01*
Y165226D01*
X537273Y166559D01*
X534607D01*
X533274Y165226D01*
X541272Y166559D02*
X546603D01*
Y165226D01*
X541272Y159894D01*
Y158561D01*
X530608Y91566D02*
X529276Y92899D01*
X526610D01*
X525277Y91566D01*
Y86234D01*
X526610Y84901D01*
X529276D01*
X530608Y86234D01*
X538606Y84901D02*
X533274D01*
X538606Y90233D01*
Y91566D01*
X537273Y92899D01*
X534607D01*
X533274Y91566D01*
X546603Y92899D02*
X543937Y91566D01*
X541272Y88900D01*
Y86234D01*
X542604Y84901D01*
X545270D01*
X546603Y86234D01*
Y87567D01*
X545270Y88900D01*
X541272D01*
X115648Y272746D02*
X114315Y271413D01*
Y268748D01*
X115648Y267415D01*
X120980D01*
X122313Y268748D01*
Y271413D01*
X120980Y272746D01*
X122313Y280744D02*
Y275412D01*
X116981Y280744D01*
X115648D01*
X114315Y279411D01*
Y276745D01*
X115648Y275412D01*
X114315Y288741D02*
Y283409D01*
X118314D01*
X116981Y286075D01*
Y287408D01*
X118314Y288741D01*
X120980D01*
X122313Y287408D01*
Y284742D01*
X120980Y283409D01*
X489838Y147064D02*
X491171Y148397D01*
Y151062D01*
X489838Y152395D01*
X484506D01*
X483173Y151062D01*
Y148397D01*
X484506Y147064D01*
X483173Y139066D02*
Y144398D01*
X488505Y139066D01*
X489838D01*
X491171Y140399D01*
Y143065D01*
X489838Y144398D01*
X483173Y132402D02*
X491171D01*
X487172Y136400D01*
Y131069D01*
X506971Y68289D02*
X505638Y69622D01*
X502972D01*
X501639Y68289D01*
Y62958D01*
X502972Y61625D01*
X505638D01*
X506971Y62958D01*
X514968Y61625D02*
X509637D01*
X514968Y66957D01*
Y68289D01*
X513635Y69622D01*
X510970D01*
X509637Y68289D01*
X517634D02*
X518967Y69622D01*
X521633D01*
X522966Y68289D01*
Y66957D01*
X521633Y65624D01*
X520300D01*
X521633D01*
X522966Y64291D01*
Y62958D01*
X521633Y61625D01*
X518967D01*
X517634Y62958D01*
X118948Y358531D02*
X120281Y359863D01*
Y362529D01*
X118948Y363862D01*
X113616D01*
X112283Y362529D01*
Y359863D01*
X113616Y358531D01*
X112283Y350533D02*
Y355865D01*
X117615Y350533D01*
X118948D01*
X120281Y351866D01*
Y354532D01*
X118948Y355865D01*
X112283Y347867D02*
Y345201D01*
Y346534D01*
X120281D01*
X118948Y347867D01*
X182140Y412852D02*
X180807Y411519D01*
Y408853D01*
X182140Y407520D01*
X187471D01*
X188804Y408853D01*
Y411519D01*
X187471Y412852D01*
X188804Y420849D02*
Y415518D01*
X183473Y420849D01*
X182140D01*
X180807Y419516D01*
Y416851D01*
X182140Y415518D01*
Y423515D02*
X180807Y424848D01*
Y427514D01*
X182140Y428847D01*
X187471D01*
X188804Y427514D01*
Y424848D01*
X187471Y423515D01*
X182140D01*
X235076Y339945D02*
X236409Y341278D01*
Y343944D01*
X235076Y345277D01*
X229744D01*
X228411Y343944D01*
Y341278D01*
X229744Y339945D01*
X228411Y337279D02*
Y334614D01*
Y335946D01*
X236409D01*
X235076Y337279D01*
X229744Y330615D02*
X228411Y329282D01*
Y326616D01*
X229744Y325283D01*
X235076D01*
X236409Y326616D01*
Y329282D01*
X235076Y330615D01*
X233743D01*
X232410Y329282D01*
Y325283D01*
X196395Y355287D02*
X195062Y356619D01*
X192396D01*
X191063Y355287D01*
Y349955D01*
X192396Y348622D01*
X195062D01*
X196395Y349955D01*
X199061Y348622D02*
X201727D01*
X200394D01*
Y356619D01*
X199061Y355287D01*
X205725D02*
X207058Y356619D01*
X209724D01*
X211057Y355287D01*
Y353954D01*
X209724Y352621D01*
X211057Y351288D01*
Y349955D01*
X209724Y348622D01*
X207058D01*
X205725Y349955D01*
Y351288D01*
X207058Y352621D01*
X205725Y353954D01*
Y355287D01*
X207058Y352621D02*
X209724D01*
X175082Y321097D02*
X176415Y322430D01*
Y325096D01*
X175082Y326429D01*
X169750D01*
X168417Y325096D01*
Y322430D01*
X169750Y321097D01*
X168417Y318431D02*
Y315765D01*
Y317098D01*
X176415D01*
X175082Y318431D01*
X176415Y311767D02*
Y306435D01*
X175082D01*
X169750Y311767D01*
X168417D01*
X130888Y299321D02*
X129555Y297988D01*
Y295322D01*
X130888Y293989D01*
X136220D01*
X137553Y295322D01*
Y297988D01*
X136220Y299321D01*
X137553Y301986D02*
Y304652D01*
Y303319D01*
X129555D01*
X130888Y301986D01*
X129555Y313983D02*
X130888Y311317D01*
X133554Y308651D01*
X136220D01*
X137553Y309984D01*
Y312650D01*
X136220Y313983D01*
X134887D01*
X133554Y312650D01*
Y308651D01*
X406723Y203555D02*
X405391Y204888D01*
X402725D01*
X401392Y203555D01*
Y198224D01*
X402725Y196891D01*
X405391D01*
X406723Y198224D01*
X409389Y196891D02*
X412055D01*
X410722D01*
Y204888D01*
X409389Y203555D01*
X421385Y196891D02*
X416054D01*
X421385Y202222D01*
Y203555D01*
X420052Y204888D01*
X417387D01*
X416054Y203555D01*
X396343Y72516D02*
X395010Y73849D01*
X392344D01*
X391011Y72516D01*
Y67184D01*
X392344Y65851D01*
X395010D01*
X396343Y67184D01*
X399009Y72516D02*
X400342Y73849D01*
X403007D01*
X404340Y72516D01*
Y71183D01*
X403007Y69850D01*
X404340Y68517D01*
Y67184D01*
X403007Y65851D01*
X400342D01*
X399009Y67184D01*
Y68517D01*
X400342Y69850D01*
X399009Y71183D01*
Y72516D01*
X400342Y69850D02*
X403007D01*
X396343Y85315D02*
X395010Y86648D01*
X392344D01*
X391011Y85315D01*
Y79983D01*
X392344Y78650D01*
X395010D01*
X396343Y79983D01*
X399009Y86648D02*
X404340D01*
Y85315D01*
X399009Y79983D01*
Y78650D01*
X288227Y124078D02*
X286894Y125411D01*
X284228D01*
X282896Y124078D01*
Y118746D01*
X284228Y117413D01*
X286894D01*
X288227Y118746D01*
X296224Y125411D02*
X293559Y124078D01*
X290893Y121412D01*
Y118746D01*
X292226Y117413D01*
X294892D01*
X296224Y118746D01*
Y120079D01*
X294892Y121412D01*
X290893D01*
X274192Y98997D02*
X275525Y100330D01*
Y102996D01*
X274192Y104328D01*
X268860D01*
X267527Y102996D01*
Y100330D01*
X268860Y98997D01*
X267527Y92332D02*
X275525D01*
X271526Y96331D01*
Y90999D01*
X310768Y96837D02*
X312101Y98170D01*
Y100836D01*
X310768Y102169D01*
X305436D01*
X304103Y100836D01*
Y98170D01*
X305436Y96837D01*
X310768Y94171D02*
X312101Y92838D01*
Y90172D01*
X310768Y88840D01*
X309435D01*
X308102Y90172D01*
Y91505D01*
Y90172D01*
X306769Y88840D01*
X305436D01*
X304103Y90172D01*
Y92838D01*
X305436Y94171D01*
X593216Y246380D02*
X594549Y247713D01*
Y250379D01*
X593216Y251712D01*
X587884D01*
X586551Y250379D01*
Y247713D01*
X587884Y246380D01*
X586551Y243714D02*
Y241048D01*
Y242381D01*
X594549D01*
X593216Y243714D01*
X336643Y382911D02*
X331311D01*
X328645Y385577D01*
X331311Y388243D01*
X336643D01*
X332644D01*
Y382911D01*
X336643Y390908D02*
X328645D01*
X336643Y396240D01*
X328645D01*
Y398906D02*
Y404237D01*
Y401572D01*
X336643D01*
Y406903D02*
Y409569D01*
Y408236D01*
X328645D01*
X329978Y406903D01*
D12*
X32696Y281972D02*
G03*
X32696Y281972I-1000J0D01*
G01*
X311420Y277930D02*
G03*
X311420Y277930I-1000J0D01*
G01*
X15340Y314040D02*
Y326040D01*
X27840Y314040D02*
Y326040D01*
X280048Y74359D02*
Y79359D01*
X300048Y74359D02*
Y79359D01*
X146310Y265070D02*
X153310D01*
X146310Y290070D02*
X153310D01*
X462788Y48260D02*
Y54790D01*
Y54864D02*
X469318D01*
X536268Y26924D02*
X542798D01*
Y33454D01*
X109178Y304194D02*
X110178D01*
X109178Y330194D02*
X110178D01*
X369524Y165316D02*
X374424D01*
Y160416D02*
Y165316D01*
X310424D02*
X315324D01*
X310424Y160416D02*
Y165316D01*
Y101316D02*
Y106216D01*
Y101316D02*
X315324D01*
X369524D02*
X374424D01*
Y106216D01*
X173910Y371260D02*
X178460D01*
Y366710D02*
Y371260D01*
X138960D02*
X143510D01*
X138960Y366710D02*
Y371260D01*
Y331760D02*
Y336310D01*
Y331760D02*
X143510D01*
X173910D02*
X178460D01*
Y336310D01*
X255920Y344860D02*
X265920D01*
Y337860D02*
Y344860D01*
X255920Y314860D02*
X265920D01*
Y321860D01*
X433758Y184404D02*
X438658D01*
X458396D02*
X463296D01*
X433758Y131064D02*
X438658D01*
X458396D02*
X463296D01*
X487352Y91648D02*
X492252D01*
X506480Y115520D02*
X511380D01*
X506398Y91652D02*
X511298D01*
X487430Y115520D02*
X492330D01*
X579194Y48768D02*
X585724D01*
Y55298D01*
X548132Y71486D02*
Y77978D01*
X554680D01*
X578178Y124968D02*
X584708D01*
Y131498D01*
X547116Y147686D02*
Y154178D01*
X553664D01*
X499118Y209686D02*
X500118D01*
X499118Y226686D02*
X500118D01*
Y209686D02*
Y226686D01*
X499118Y209686D02*
Y226686D01*
D13*
X448020Y285390D02*
G03*
X448020Y285390I-1250J0D01*
G01*
X59564Y199914D02*
G03*
X59564Y199914I-1250J0D01*
G01*
X40604Y64156D02*
G03*
X40604Y64156I-1250J0D01*
G01*
X382174Y102816D02*
G03*
X382174Y102816I-1250J0D01*
G01*
X186210Y333260D02*
G03*
X186210Y333260I-1250J0D01*
G01*
X250170Y349860D02*
G03*
X250170Y349860I-1250J0D01*
G01*
X473690Y137668D02*
G03*
X473690Y137668I-1250J0D01*
G01*
X482072Y111206D02*
G03*
X482072Y111206I-1250J0D01*
G01*
X554686Y46025D02*
G03*
X554686Y46025I-1250J0D01*
G01*
X553670Y122225D02*
G03*
X553670Y122225I-1250J0D01*
G01*
X516616Y212090D02*
G03*
X516616Y212090I-1250J0D01*
G01*
X583692Y280616D02*
Y285442D01*
X569976Y280616D02*
Y285442D01*
X242062Y358394D02*
Y363220D01*
X255778Y358394D02*
Y363220D01*
X344424Y66548D02*
X349250D01*
X344424Y52832D02*
X349250D01*
X459486Y101300D02*
Y106126D01*
X473202Y101300D02*
Y106126D01*
X76454Y281178D02*
X81280D01*
X76454Y294894D02*
X81280D01*
X444619Y101175D02*
Y106001D01*
X458335Y101175D02*
Y106001D01*
X158954Y391214D02*
Y396040D01*
X145238Y391214D02*
Y396040D01*
X142190Y391214D02*
Y396040D01*
X128474Y391214D02*
Y396040D01*
X72644Y411988D02*
X77470D01*
X72644Y398272D02*
X77470D01*
X89866Y418138D02*
X94692D01*
X125680Y391214D02*
Y396040D01*
X111964Y391214D02*
Y396040D01*
X87884Y379476D02*
Y384302D01*
X74168Y379476D02*
Y384302D01*
X161748Y391362D02*
Y396188D01*
X175464Y391362D02*
Y396188D01*
X95454Y391468D02*
Y396294D01*
X109170Y391468D02*
Y396294D01*
X470916Y171958D02*
Y176784D01*
X484632Y171958D02*
Y176784D01*
X447548Y203962D02*
X452374D01*
X447548Y190246D02*
X452374D01*
X480568Y86314D02*
X485394D01*
X480568Y72598D02*
X485394D01*
X567690Y96012D02*
X572516D01*
X567690Y109728D02*
X572516D01*
X563880Y169672D02*
X568706D01*
X563880Y183388D02*
X568706D01*
X457708Y36322D02*
Y41148D01*
X443992Y36322D02*
Y41148D01*
X519684Y203962D02*
Y208788D01*
X533400Y203962D02*
Y208788D01*
X554482Y212344D02*
Y217170D01*
X568198Y212344D02*
Y217170D01*
X551688Y212344D02*
Y217170D01*
X537972Y212344D02*
Y217170D01*
X584436Y212560D02*
Y217386D01*
X570720Y212560D02*
Y217386D01*
X114808Y179324D02*
Y184150D01*
X128524Y179324D02*
Y184150D01*
X14986Y199644D02*
X19812D01*
X14986Y213360D02*
X19812D01*
X282194Y159766D02*
Y164592D01*
X295910Y159766D02*
Y164592D01*
X131318Y179324D02*
Y184150D01*
X145034Y179324D02*
Y184150D01*
X24384Y23622D02*
X29210D01*
X24384Y9906D02*
X29210D01*
X205486Y178562D02*
Y183388D01*
X191770Y178562D02*
Y183388D01*
X175514Y178816D02*
Y183642D01*
X161798Y178816D02*
Y183642D01*
D14*
X526770Y262890D02*
G03*
X526770Y262890I-17500J0D01*
G01*
X53314Y137414D02*
G03*
X53314Y137414I-17500J0D01*
G01*
X119354Y41656D02*
G03*
X119354Y41656I-17500J0D01*
G01*
X211328Y246382D02*
X214630Y249684D01*
X217932Y246382D01*
X211328D02*
X217932D01*
X211328Y249684D02*
X217932D01*
X7196Y218222D02*
X81196D01*
Y275722D01*
X7196Y218222D02*
Y275722D01*
X81196D01*
X246670Y228430D02*
Y302430D01*
Y228430D02*
X304170D01*
X246670Y302430D02*
X304170D01*
Y228430D02*
Y302430D01*
X69038Y310082D02*
X75642D01*
X72340D02*
X75642D01*
X72340D02*
X75642Y313384D01*
X69038D02*
X75642D01*
X69038D02*
X72340Y310082D01*
X75642Y313384D01*
X64720Y421694D02*
Y428298D01*
Y424996D02*
Y428298D01*
X61418D02*
X64720Y424996D01*
X61418Y421694D02*
Y428298D01*
Y421694D02*
X64720Y424996D01*
X61418Y428298D02*
X64720Y424996D01*
X180340Y184150D02*
X186944D01*
X180340D02*
X183642D01*
X180340Y180848D02*
X183642Y184150D01*
X180340Y180848D02*
X186944D01*
X183642Y184150D02*
X186944Y180848D01*
X180340D02*
X183642Y184150D01*
X150368Y184404D02*
X156972D01*
X150368D02*
X153670D01*
X150368Y181102D02*
X153670Y184404D01*
X150368Y181102D02*
X156972D01*
X153670Y184404D02*
X156972Y181102D01*
X150368D02*
X153670Y184404D01*
X479349Y232893D02*
X539293D01*
Y292862D01*
X479273D02*
X539293D01*
X479273Y232918D02*
Y292862D01*
X5817Y107391D02*
Y167335D01*
Y107391D02*
X65786D01*
Y167411D01*
X5842D02*
X65786D01*
X71933Y11659D02*
X131877D01*
Y71628D01*
X71857D02*
X131877D01*
X71857Y11684D02*
Y71628D01*
X399378Y93472D02*
X408178D01*
X399378Y109728D02*
X408178D01*
D15*
X393335Y214505D02*
X399305D01*
X393182Y209669D02*
X399349D01*
X314435Y210945D02*
X320405D01*
X314391Y215781D02*
X320558D01*
X350829Y199762D02*
Y205929D01*
X353982Y199883D02*
Y205854D01*
X350829Y251072D02*
Y257239D01*
X353982Y251193D02*
Y257164D01*
D16*
X41481Y409956D02*
X48010D01*
X20324Y355600D02*
Y362130D01*
Y355600D02*
X26854D01*
X48010Y403426D02*
Y409956D01*
X29210Y297434D02*
X35739D01*
X56896Y345260D02*
Y351790D01*
X50366D02*
X56896D01*
X29210Y297434D02*
Y303964D01*
X185420Y91694D02*
Y98224D01*
X206576Y146050D02*
X213106D01*
Y139520D02*
Y146050D01*
X185420Y91694D02*
X191949D01*
X519684Y177620D02*
Y184150D01*
X491998Y129794D02*
X498528D01*
X491998D02*
Y136324D01*
X513155Y184150D02*
X519684D01*
X260350Y78306D02*
Y84836D01*
X232664Y30480D02*
X239194D01*
X232664D02*
Y37010D01*
X253821Y84836D02*
X260350D01*
X201930Y29464D02*
Y35994D01*
X223086Y83820D02*
X229616D01*
Y77290D02*
Y83820D01*
X201930Y29464D02*
X208459D01*
D17*
X195022Y319226D02*
X203658D01*
X195022Y284174D02*
X203658D01*
M02*
