M48
;Layer_Color=9474304
;FILE_FORMAT=4:4
METRIC,LZ
;TYPE=PLATED
T1F00S00C0.2000
T2F00S00C0.2032
T3F00S00C0.3048
T4F00S00C0.5000
T7F00S00C1.0000
T8F00S00C1.0200
T9F00S00C1.0201
;TYPE=NON_PLATED
T10F00S00C0.5000
%
T01
X00276108Y0015395
X00282966
X0028957
X00282966Y00147346
Y00160554
X00282412Y00345825
Y00358472
X00295199
Y00345825
X00308255
Y00358472
Y00371597
Y0038446
X00295199
X00282412
X00269588
Y00371597
X00282412
X00295199
X00269588Y00358472
Y00345825
T02
X0005969Y0005842
X00247142Y00079756
X00264414Y00112776
X00287782Y00043688
X00384048Y00073152
X00533908Y0031242
X0054102Y0033782
X0053721Y0034417
X00520954Y00349504
X0051689Y00381
X00533908Y00388112
X00516382Y00446532
X0057277Y004826
X00491236Y0042672
X0048006Y0040894
X0046863
X00469991Y0039243
X0047879
X0050038Y00381
X00423926Y00375412
X0042672Y00347054
Y0033782
X00446535Y00337051
X00449899Y00297898
X00448056Y00292354
X00442468Y00286766
X00450345Y00281584
X00466513Y00281516
X00474176Y00283252
X00490982Y00282956
X00485416Y00289284
X00490347Y0029845
X0048006Y0030353
X00466163Y00302333
X00409702Y00290576
X00367792Y002794
X00363019Y00282769
X00357849Y0026923
X00353262Y00272913
X00347726Y00293624
X00332486Y00293878
X0030226Y00298196
X00287528Y0029845
X0026924Y00298196
X00261874Y00296926
X00254508Y0029845
X00263144Y00277876
X00254508Y0026797
X00250444Y002286
X00249682Y00215265
X0023749Y00169418
X00237744Y00156972
X00133604Y00181864
X00173482Y00292862
X00180848Y00293624
X00187452Y00304292
X00170434Y00309626
X0017526Y0032385
X00181102
X00222758Y00315468
X00228092Y00330962
X00215217Y00291417
X0020816Y00284106
X0013843Y0034036
Y00349123
X00143256Y00370586
X00142205Y00454551
X00140716Y00460629
X00127Y0046101
X00126337Y0045466
X0025781Y00427482
X00333248Y00423164
X00360934Y00405892
X00396494Y00397764
X0039624Y00380746
X00351028Y00364744
X00412242Y00429006
X0043561Y00439801
Y00448691
X00332232Y00217678
X00315976Y00216408
X0010033Y0030099
Y0031496
X0007747Y00355092
X00091454Y00389876
X0010833Y0038951
X00099314Y0042164
X00092456Y00439674
X00045466Y00416814
T03
X00511827Y00518925
X00521666
X00531505
X00541343
X00551182
X00561021
X00570859
X00580698
X00585617Y00528764
X00575779
X0056594
X00556101
X00546263
X00536424
X00526585
X00516746
X00521666Y00538603
X00531505
X00541343
X00551182
X00561021
X00570859
X00580698
X00511827
X00501988
X0049215
X00482311
X00472472
X00462634
X00452795
X00442956
X00433118
X00423279
X0041344
X00403602
X00393763
X00383924
X00374086
X00364247
X00354408
X00344569
X00334731
X00324892
X00315053
X00319973Y00528764
X00329811
X0033965
X00349489
X00359328
X00369166
X00379005
X00388843
X00398682
X00408521
X0041836
X00428198
X00438037
X00447876
X00457714
X00467553
X00477392
X0048723
X00497069
X00506908
X00501988Y00518925
X0049215
X00482311
X00472472
X00462634
X00452795
X00442956
X00433118
X00423279
X0041344
X00403602
X00393763
X00383924
X00374086
X00364247
X00354408
X00344569
X00334731
X00324892
X00315053
X00319973Y00509087
X00329811
X0033965
X00349489
X00359328
X00369166
X00379005
X00388843
X00398682
X00408521
X0041836
X00428198
X00438037
X00433118Y00499248
X00423279
X0041344
X00403602
X00393763
X00383924
X00374086
X00364247
X00354408
X00344569
X00334731
X00324892
X00315053
X00319973Y00489409
X00329811
X0033965
X00349489
X00359328
X00369166
X00379005
X00388843
X00398682
X00408521
X0041836
X00428198
X00438037
X00433118Y00479571
X00423279
X0041344
X00403602
X00393763
X00383924
X00374086
X00364247
X00354408
X00344569
X00334731
X00324892
X00315053
X00319973Y00469732
X00329811
X0033965
X00349489
X00359328
X00369166
X00379005
X00388843
X00398682
X00408521
X0041836
X00428198
X00438037
X00433118Y00459893
X00423279
X0041344
X00403602
X00393763
X00383924
X00374086
X00364247
X00354408
X00344569
X00334731
X00324892
X00315053
X00319973Y00450054
X00310134
X00315053Y00440216
X00285537
X00290457Y00450054
X00280618
X00285537Y00459893
X00275699
X0026586
X00256021
X00246182
X00236344
X00226505
X00216667
X00206828
X00196989
X00201908Y00469732
X00211747
X00221586
X00231425
X00241263
X00251102
X00260941
X00270779
X00280618
X00290457
X00285537Y00479571
X00275699
X0026586
X00256021
X00246182
X00236344
X00226505
X00216667
X00206828
X00196989
X0018715
X00177312
X00167473
X00172392Y00489409
X00182231
X0019207
X00201908
X00211747
X00221586
X00231425
X00241263
X00251102
X00260941
X00270779
X00280618
X00290457
X00285537Y00499248
X00275699
X0026586
X00256021
X00246182
X00236344
X00226505
X00216667
X00206828
X00196989
X0018715
X00177312
X00167473
X00157634
X00147796
X00152715Y00509087
X00162554
X00172392
X00182231
X0019207
X00201908
X00211747
X00221586
X00231425
X00241263
X00251102
X00260941
X00270779
X00280618
X00290457
X00285537Y00518925
X00275699
X0026586
X00256021
X00246182
X00236344
X00226505
X00216667
X00206828
X00196989
X0018715
X00177312
X00167473
X00157634
X00147796
X00137957
X00128118
X0011828
X00123199Y00528764
X00133038
X00142876
X00152715
X00162554
X00172392
X00182231
X0019207
X00201908
X00211747
X00221586
X00231425
X00241263
X00251102
X00260941
X00270779
X00280618
X00290457
X00285537Y00538603
X00275699
X0026586
X00256021
X00246182
X00236344
X00226505
X00216667
X00206828
X00196989
X0018715
X00177312
X00167473
X00157634
X00147796
X00137957
X00128118
X0011828
X00142876Y00509087
X00162554Y00489409
X00182231Y00469732
X0019207
X00310134
Y00489409
Y00509087
Y00528764
X00290457Y00430377
X00108441Y00518925
X00098602
X00088764
X00078925
X00069086
X00059247
X00049409
X0003957
X00029731
X00019893
X00024812Y00528764
X00034651
X00044489
X00054328
X00064167
X00074005
X00083844
X00093683
X00103521
X0011336
X00108441Y00538603
X00098602
X00088764
X00078925
X00069086
X00059247
X00049409
X0003957
X00029731
X00019893
X00014973Y00528764
Y00548441
X00024812
X00034651
X00044489
X00054328
X00064167
X00074005
X00083844
X00093683
X00103521
X0011336
X00108441Y0055828
X00098602
X00088764
X00078925
X00069086
X00059247
X00049409
X0003957
X00029731
X00019893
X0011828
X00128118
X00137957
X00147796
X00157634
X00167473
X00177312
X0018715
X00196989
X00206828
X00216667
X00226505
X00236344
X00246182
X00256079Y00558521
X00266167
X00275699Y0055828
X00285537
X00290457Y00548441
X00280618
X00270779
X00260941
X00251102
X00241263
X00231425
X00221586
X00211747
X00201908
X0019207
X00182231
X00172392
X00162554
X00152715
X00142876
X00133038
X00123199
X00310134
X00319973
X00329811
X0033965
X00349489
X00359328
X00369166
X00379005
X00388843
X00398682
X00408521
X0041836
X00428198
X00438037
X00447876
X00457714
X00467553
X00477392
X0048723
X00497069
X00506908
X00501988Y0055828
X0049215
X00482311
X00472472
X00462634
X00452795
X00442956
X00433118
X00423279
X0041344
X00403602
X00393763
X00383924
X00374086
X00364247
X00354408
X00344569
X00334731
X00324892
X00315053
X00511827
X00521666
X00531505
X00541343
X00551182
X00561021
X00570859
X00580698
X00585617Y00548441
X00575779
X0056594
X00556101
X00546263
X00536424
X00526585
X00516746
T04
X0053086Y0028829
T07
X00195526Y00028448
X00220526
X00436826Y00027912
X00461826
T08
X0056388Y0028956
Y0031496
Y0034036
T09
X0013335Y00126742
X0015875
X00160782Y00179574
X00186182
X0018288Y0025654
Y0028194
X0019914Y0033274
Y0035814
X0045237Y0037592
Y0040132
T10
X0053033Y0036481
M30
