G04*
G04 #@! TF.GenerationSoftware,Altium Limited,Altium Designer,22.9.1 (49)*
G04*
G04 Layer_Color=8388736*
%FSLAX44Y44*%
%MOMM*%
G71*
G04*
G04 #@! TF.SameCoordinates,777D21A2-CDB7-466F-AFFE-F37339BB67B1*
G04*
G04*
G04 #@! TF.FilePolarity,Negative*
G04*
G01*
G75*
%ADD78C,0.0000*%
G04:AMPARAMS|DCode=79|XSize=0.8032mm|YSize=0.7032mm|CornerRadius=0.2266mm|HoleSize=0mm|Usage=FLASHONLY|Rotation=270.000|XOffset=0mm|YOffset=0mm|HoleType=Round|Shape=RoundedRectangle|*
%AMROUNDEDRECTD79*
21,1,0.8032,0.2500,0,0,270.0*
21,1,0.3500,0.7032,0,0,270.0*
1,1,0.4532,-0.1250,-0.1750*
1,1,0.4532,-0.1250,0.1750*
1,1,0.4532,0.1250,0.1750*
1,1,0.4532,0.1250,-0.1750*
%
%ADD79ROUNDEDRECTD79*%
G04:AMPARAMS|DCode=80|XSize=0.54mm|YSize=0.49mm|CornerRadius=0.1575mm|HoleSize=0mm|Usage=FLASHONLY|Rotation=270.000|XOffset=0mm|YOffset=0mm|HoleType=Round|Shape=RoundedRectangle|*
%AMROUNDEDRECTD80*
21,1,0.5400,0.1750,0,0,270.0*
21,1,0.2250,0.4900,0,0,270.0*
1,1,0.3150,-0.0875,-0.1125*
1,1,0.3150,-0.0875,0.1125*
1,1,0.3150,0.0875,0.1125*
1,1,0.3150,0.0875,-0.1125*
%
%ADD80ROUNDEDRECTD80*%
G04:AMPARAMS|DCode=81|XSize=0.5032mm|YSize=0.5032mm|CornerRadius=0.1766mm|HoleSize=0mm|Usage=FLASHONLY|Rotation=180.000|XOffset=0mm|YOffset=0mm|HoleType=Round|Shape=RoundedRectangle|*
%AMROUNDEDRECTD81*
21,1,0.5032,0.1500,0,0,180.0*
21,1,0.1500,0.5032,0,0,180.0*
1,1,0.3532,-0.0750,0.0750*
1,1,0.3532,0.0750,0.0750*
1,1,0.3532,0.0750,-0.0750*
1,1,0.3532,-0.0750,-0.0750*
%
%ADD81ROUNDEDRECTD81*%
G04:AMPARAMS|DCode=82|XSize=0.49mm|YSize=0.54mm|CornerRadius=0.1575mm|HoleSize=0mm|Usage=FLASHONLY|Rotation=90.000|XOffset=0mm|YOffset=0mm|HoleType=Round|Shape=RoundedRectangle|*
%AMROUNDEDRECTD82*
21,1,0.4900,0.2250,0,0,90.0*
21,1,0.1750,0.5400,0,0,90.0*
1,1,0.3150,0.1125,0.0875*
1,1,0.3150,0.1125,-0.0875*
1,1,0.3150,-0.1125,-0.0875*
1,1,0.3150,-0.1125,0.0875*
%
%ADD82ROUNDEDRECTD82*%
G04:AMPARAMS|DCode=83|XSize=0.54mm|YSize=0.49mm|CornerRadius=0.1575mm|HoleSize=0mm|Usage=FLASHONLY|Rotation=180.000|XOffset=0mm|YOffset=0mm|HoleType=Round|Shape=RoundedRectangle|*
%AMROUNDEDRECTD83*
21,1,0.5400,0.1750,0,0,180.0*
21,1,0.2250,0.4900,0,0,180.0*
1,1,0.3150,-0.1125,0.0875*
1,1,0.3150,0.1125,0.0875*
1,1,0.3150,0.1125,-0.0875*
1,1,0.3150,-0.1125,-0.0875*
%
%ADD83ROUNDEDRECTD83*%
G04:AMPARAMS|DCode=84|XSize=1.6532mm|YSize=1.1532mm|CornerRadius=0.3391mm|HoleSize=0mm|Usage=FLASHONLY|Rotation=0.000|XOffset=0mm|YOffset=0mm|HoleType=Round|Shape=RoundedRectangle|*
%AMROUNDEDRECTD84*
21,1,1.6532,0.4750,0,0,0.0*
21,1,0.9750,1.1532,0,0,0.0*
1,1,0.6782,0.4875,-0.2375*
1,1,0.6782,-0.4875,-0.2375*
1,1,0.6782,-0.4875,0.2375*
1,1,0.6782,0.4875,0.2375*
%
%ADD84ROUNDEDRECTD84*%
G04:AMPARAMS|DCode=85|XSize=1.0032mm|YSize=1.0032mm|CornerRadius=0.3016mm|HoleSize=0mm|Usage=FLASHONLY|Rotation=0.000|XOffset=0mm|YOffset=0mm|HoleType=Round|Shape=RoundedRectangle|*
%AMROUNDEDRECTD85*
21,1,1.0032,0.4000,0,0,0.0*
21,1,0.4000,1.0032,0,0,0.0*
1,1,0.6032,0.2000,-0.2000*
1,1,0.6032,-0.2000,-0.2000*
1,1,0.6032,-0.2000,0.2000*
1,1,0.6032,0.2000,0.2000*
%
%ADD85ROUNDEDRECTD85*%
%ADD86R,2.4032X1.0532*%
G04:AMPARAMS|DCode=87|XSize=1.0032mm|YSize=1.0032mm|CornerRadius=0.3016mm|HoleSize=0mm|Usage=FLASHONLY|Rotation=90.000|XOffset=0mm|YOffset=0mm|HoleType=Round|Shape=RoundedRectangle|*
%AMROUNDEDRECTD87*
21,1,1.0032,0.4000,0,0,90.0*
21,1,0.4000,1.0032,0,0,90.0*
1,1,0.6032,0.2000,0.2000*
1,1,0.6032,0.2000,-0.2000*
1,1,0.6032,-0.2000,-0.2000*
1,1,0.6032,-0.2000,0.2000*
%
%ADD87ROUNDEDRECTD87*%
G04:AMPARAMS|DCode=88|XSize=1.3208mm|YSize=2.0066mm|CornerRadius=0.381mm|HoleSize=0mm|Usage=FLASHONLY|Rotation=90.000|XOffset=0mm|YOffset=0mm|HoleType=Round|Shape=RoundedRectangle|*
%AMROUNDEDRECTD88*
21,1,1.3208,1.2446,0,0,90.0*
21,1,0.5588,2.0066,0,0,90.0*
1,1,0.7620,0.6223,0.2794*
1,1,0.7620,0.6223,-0.2794*
1,1,0.7620,-0.6223,-0.2794*
1,1,0.7620,-0.6223,0.2794*
%
%ADD88ROUNDEDRECTD88*%
G04:AMPARAMS|DCode=89|XSize=1.3208mm|YSize=2.0062mm|CornerRadius=0.381mm|HoleSize=0mm|Usage=FLASHONLY|Rotation=90.000|XOffset=0mm|YOffset=0mm|HoleType=Round|Shape=RoundedRectangle|*
%AMROUNDEDRECTD89*
21,1,1.3208,1.2442,0,0,90.0*
21,1,0.5588,2.0062,0,0,90.0*
1,1,0.7620,0.6221,0.2794*
1,1,0.7620,0.6221,-0.2794*
1,1,0.7620,-0.6221,-0.2794*
1,1,0.7620,-0.6221,0.2794*
%
%ADD89ROUNDEDRECTD89*%
G04:AMPARAMS|DCode=90|XSize=1.3208mm|YSize=2.0066mm|CornerRadius=0.381mm|HoleSize=0mm|Usage=FLASHONLY|Rotation=180.000|XOffset=0mm|YOffset=0mm|HoleType=Round|Shape=RoundedRectangle|*
%AMROUNDEDRECTD90*
21,1,1.3208,1.2446,0,0,180.0*
21,1,0.5588,2.0066,0,0,180.0*
1,1,0.7620,-0.2794,0.6223*
1,1,0.7620,0.2794,0.6223*
1,1,0.7620,0.2794,-0.6223*
1,1,0.7620,-0.2794,-0.6223*
%
%ADD90ROUNDEDRECTD90*%
G04:AMPARAMS|DCode=91|XSize=1.3208mm|YSize=2.0062mm|CornerRadius=0.381mm|HoleSize=0mm|Usage=FLASHONLY|Rotation=180.000|XOffset=0mm|YOffset=0mm|HoleType=Round|Shape=RoundedRectangle|*
%AMROUNDEDRECTD91*
21,1,1.3208,1.2442,0,0,180.0*
21,1,0.5588,2.0062,0,0,180.0*
1,1,0.7620,-0.2794,0.6221*
1,1,0.7620,0.2794,0.6221*
1,1,0.7620,0.2794,-0.6221*
1,1,0.7620,-0.2794,-0.6221*
%
%ADD91ROUNDEDRECTD91*%
G04:AMPARAMS|DCode=92|XSize=2.9032mm|YSize=1.8032mm|CornerRadius=0.5016mm|HoleSize=0mm|Usage=FLASHONLY|Rotation=270.000|XOffset=0mm|YOffset=0mm|HoleType=Round|Shape=RoundedRectangle|*
%AMROUNDEDRECTD92*
21,1,2.9032,0.8000,0,0,270.0*
21,1,1.9000,1.8032,0,0,270.0*
1,1,1.0032,-0.4000,-0.9500*
1,1,1.0032,-0.4000,0.9500*
1,1,1.0032,0.4000,0.9500*
1,1,1.0032,0.4000,-0.9500*
%
%ADD92ROUNDEDRECTD92*%
G04:AMPARAMS|DCode=93|XSize=1.1532mm|YSize=1.1032mm|CornerRadius=0.3266mm|HoleSize=0mm|Usage=FLASHONLY|Rotation=0.000|XOffset=0mm|YOffset=0mm|HoleType=Round|Shape=RoundedRectangle|*
%AMROUNDEDRECTD93*
21,1,1.1532,0.4500,0,0,0.0*
21,1,0.5000,1.1032,0,0,0.0*
1,1,0.6532,0.2500,-0.2250*
1,1,0.6532,-0.2500,-0.2250*
1,1,0.6532,-0.2500,0.2250*
1,1,0.6532,0.2500,0.2250*
%
%ADD93ROUNDEDRECTD93*%
G04:AMPARAMS|DCode=94|XSize=0.7032mm|YSize=0.6032mm|CornerRadius=0.2016mm|HoleSize=0mm|Usage=FLASHONLY|Rotation=180.000|XOffset=0mm|YOffset=0mm|HoleType=Round|Shape=RoundedRectangle|*
%AMROUNDEDRECTD94*
21,1,0.7032,0.2000,0,0,180.0*
21,1,0.3000,0.6032,0,0,180.0*
1,1,0.4032,-0.1500,0.1000*
1,1,0.4032,0.1500,0.1000*
1,1,0.4032,0.1500,-0.1000*
1,1,0.4032,-0.1500,-0.1000*
%
%ADD94ROUNDEDRECTD94*%
G04:AMPARAMS|DCode=95|XSize=0.6532mm|YSize=0.7032mm|CornerRadius=0.2141mm|HoleSize=0mm|Usage=FLASHONLY|Rotation=270.000|XOffset=0mm|YOffset=0mm|HoleType=Round|Shape=RoundedRectangle|*
%AMROUNDEDRECTD95*
21,1,0.6532,0.2750,0,0,270.0*
21,1,0.2250,0.7032,0,0,270.0*
1,1,0.4282,-0.1375,-0.1125*
1,1,0.4282,-0.1375,0.1125*
1,1,0.4282,0.1375,0.1125*
1,1,0.4282,0.1375,-0.1125*
%
%ADD95ROUNDEDRECTD95*%
G04:AMPARAMS|DCode=96|XSize=0.6532mm|YSize=0.7032mm|CornerRadius=0.2141mm|HoleSize=0mm|Usage=FLASHONLY|Rotation=0.000|XOffset=0mm|YOffset=0mm|HoleType=Round|Shape=RoundedRectangle|*
%AMROUNDEDRECTD96*
21,1,0.6532,0.2750,0,0,0.0*
21,1,0.2250,0.7032,0,0,0.0*
1,1,0.4282,0.1125,-0.1375*
1,1,0.4282,-0.1125,-0.1375*
1,1,0.4282,-0.1125,0.1375*
1,1,0.4282,0.1125,0.1375*
%
%ADD96ROUNDEDRECTD96*%
G04:AMPARAMS|DCode=97|XSize=1.7032mm|YSize=1.7532mm|CornerRadius=0.4766mm|HoleSize=0mm|Usage=FLASHONLY|Rotation=180.000|XOffset=0mm|YOffset=0mm|HoleType=Round|Shape=RoundedRectangle|*
%AMROUNDEDRECTD97*
21,1,1.7032,0.8000,0,0,180.0*
21,1,0.7500,1.7532,0,0,180.0*
1,1,0.9532,-0.3750,0.4000*
1,1,0.9532,0.3750,0.4000*
1,1,0.9532,0.3750,-0.4000*
1,1,0.9532,-0.3750,-0.4000*
%
%ADD97ROUNDEDRECTD97*%
G04:AMPARAMS|DCode=98|XSize=0.6032mm|YSize=1.5532mm|CornerRadius=0.2016mm|HoleSize=0mm|Usage=FLASHONLY|Rotation=180.000|XOffset=0mm|YOffset=0mm|HoleType=Round|Shape=RoundedRectangle|*
%AMROUNDEDRECTD98*
21,1,0.6032,1.1500,0,0,180.0*
21,1,0.2000,1.5532,0,0,180.0*
1,1,0.4032,-0.1000,0.5750*
1,1,0.4032,0.1000,0.5750*
1,1,0.4032,0.1000,-0.5750*
1,1,0.4032,-0.1000,-0.5750*
%
%ADD98ROUNDEDRECTD98*%
%ADD99R,2.5016X0.8616*%
G04:AMPARAMS|DCode=100|XSize=0.8616mm|YSize=2.5016mm|CornerRadius=0.2408mm|HoleSize=0mm|Usage=FLASHONLY|Rotation=270.000|XOffset=0mm|YOffset=0mm|HoleType=Round|Shape=RoundedRectangle|*
%AMROUNDEDRECTD100*
21,1,0.8616,2.0200,0,0,270.0*
21,1,0.3800,2.5016,0,0,270.0*
1,1,0.4816,-1.0100,-0.1900*
1,1,0.4816,-1.0100,0.1900*
1,1,0.4816,1.0100,0.1900*
1,1,0.4816,1.0100,-0.1900*
%
%ADD100ROUNDEDRECTD100*%
G04:AMPARAMS|DCode=101|XSize=0.9032mm|YSize=0.9432mm|CornerRadius=0.2766mm|HoleSize=0mm|Usage=FLASHONLY|Rotation=90.000|XOffset=0mm|YOffset=0mm|HoleType=Round|Shape=RoundedRectangle|*
%AMROUNDEDRECTD101*
21,1,0.9032,0.3900,0,0,90.0*
21,1,0.3500,0.9432,0,0,90.0*
1,1,0.5532,0.1950,0.1750*
1,1,0.5532,0.1950,-0.1750*
1,1,0.5532,-0.1950,-0.1750*
1,1,0.5532,-0.1950,0.1750*
%
%ADD101ROUNDEDRECTD101*%
G04:AMPARAMS|DCode=102|XSize=3.4032mm|YSize=1.2032mm|CornerRadius=0.3516mm|HoleSize=0mm|Usage=FLASHONLY|Rotation=270.000|XOffset=0mm|YOffset=0mm|HoleType=Round|Shape=RoundedRectangle|*
%AMROUNDEDRECTD102*
21,1,3.4032,0.5000,0,0,270.0*
21,1,2.7000,1.2032,0,0,270.0*
1,1,0.7032,-0.2500,-1.3500*
1,1,0.7032,-0.2500,1.3500*
1,1,0.7032,0.2500,1.3500*
1,1,0.7032,0.2500,-1.3500*
%
%ADD102ROUNDEDRECTD102*%
G04:AMPARAMS|DCode=103|XSize=0.9032mm|YSize=0.9432mm|CornerRadius=0.2766mm|HoleSize=0mm|Usage=FLASHONLY|Rotation=0.000|XOffset=0mm|YOffset=0mm|HoleType=Round|Shape=RoundedRectangle|*
%AMROUNDEDRECTD103*
21,1,0.9032,0.3900,0,0,0.0*
21,1,0.3500,0.9432,0,0,0.0*
1,1,0.5532,0.1750,-0.1950*
1,1,0.5532,-0.1750,-0.1950*
1,1,0.5532,-0.1750,0.1950*
1,1,0.5532,0.1750,0.1950*
%
%ADD103ROUNDEDRECTD103*%
G04:AMPARAMS|DCode=104|XSize=1.1032mm|YSize=0.8532mm|CornerRadius=0.2641mm|HoleSize=0mm|Usage=FLASHONLY|Rotation=180.000|XOffset=0mm|YOffset=0mm|HoleType=Round|Shape=RoundedRectangle|*
%AMROUNDEDRECTD104*
21,1,1.1032,0.3250,0,0,180.0*
21,1,0.5750,0.8532,0,0,180.0*
1,1,0.5282,-0.2875,0.1625*
1,1,0.5282,0.2875,0.1625*
1,1,0.5282,0.2875,-0.1625*
1,1,0.5282,-0.2875,-0.1625*
%
%ADD104ROUNDEDRECTD104*%
G04:AMPARAMS|DCode=105|XSize=1.1032mm|YSize=0.8532mm|CornerRadius=0.2641mm|HoleSize=0mm|Usage=FLASHONLY|Rotation=270.000|XOffset=0mm|YOffset=0mm|HoleType=Round|Shape=RoundedRectangle|*
%AMROUNDEDRECTD105*
21,1,1.1032,0.3250,0,0,270.0*
21,1,0.5750,0.8532,0,0,270.0*
1,1,0.5282,-0.1625,-0.2875*
1,1,0.5282,-0.1625,0.2875*
1,1,0.5282,0.1625,0.2875*
1,1,0.5282,0.1625,-0.2875*
%
%ADD105ROUNDEDRECTD105*%
%ADD106R,2.3032X1.6032*%
G04:AMPARAMS|DCode=107|XSize=2.3032mm|YSize=1.6032mm|CornerRadius=0.4516mm|HoleSize=0mm|Usage=FLASHONLY|Rotation=0.000|XOffset=0mm|YOffset=0mm|HoleType=Round|Shape=RoundedRectangle|*
%AMROUNDEDRECTD107*
21,1,2.3032,0.7000,0,0,0.0*
21,1,1.4000,1.6032,0,0,0.0*
1,1,0.9032,0.7000,-0.3500*
1,1,0.9032,-0.7000,-0.3500*
1,1,0.9032,-0.7000,0.3500*
1,1,0.9032,0.7000,0.3500*
%
%ADD107ROUNDEDRECTD107*%
%ADD108R,1.6032X2.3032*%
G04:AMPARAMS|DCode=109|XSize=2.3032mm|YSize=1.6032mm|CornerRadius=0.4516mm|HoleSize=0mm|Usage=FLASHONLY|Rotation=270.000|XOffset=0mm|YOffset=0mm|HoleType=Round|Shape=RoundedRectangle|*
%AMROUNDEDRECTD109*
21,1,2.3032,0.7000,0,0,270.0*
21,1,1.4000,1.6032,0,0,270.0*
1,1,0.9032,-0.3500,-0.7000*
1,1,0.9032,-0.3500,0.7000*
1,1,0.9032,0.3500,0.7000*
1,1,0.9032,0.3500,-0.7000*
%
%ADD109ROUNDEDRECTD109*%
%ADD110C,1.7272*%
%ADD111R,4.6532X4.6532*%
G04:AMPARAMS|DCode=112|XSize=0.34mm|YSize=0.98mm|CornerRadius=0.115mm|HoleSize=0mm|Usage=FLASHONLY|Rotation=180.000|XOffset=0mm|YOffset=0mm|HoleType=Round|Shape=RoundedRectangle|*
%AMROUNDEDRECTD112*
21,1,0.3400,0.7500,0,0,180.0*
21,1,0.1100,0.9800,0,0,180.0*
1,1,0.2300,-0.0550,0.3750*
1,1,0.2300,0.0550,0.3750*
1,1,0.2300,0.0550,-0.3750*
1,1,0.2300,-0.0550,-0.3750*
%
%ADD112ROUNDEDRECTD112*%
G04:AMPARAMS|DCode=113|XSize=0.34mm|YSize=0.98mm|CornerRadius=0.115mm|HoleSize=0mm|Usage=FLASHONLY|Rotation=270.000|XOffset=0mm|YOffset=0mm|HoleType=Round|Shape=RoundedRectangle|*
%AMROUNDEDRECTD113*
21,1,0.3400,0.7500,0,0,270.0*
21,1,0.1100,0.9800,0,0,270.0*
1,1,0.2300,-0.3750,-0.0550*
1,1,0.2300,-0.3750,0.0550*
1,1,0.2300,0.3750,0.0550*
1,1,0.2300,0.3750,-0.0550*
%
%ADD113ROUNDEDRECTD113*%
%ADD114R,0.9800X0.3400*%
%ADD115R,2.1900X2.1900*%
G04:AMPARAMS|DCode=116|XSize=0.38mm|YSize=0.74mm|CornerRadius=0.13mm|HoleSize=0mm|Usage=FLASHONLY|Rotation=180.000|XOffset=0mm|YOffset=0mm|HoleType=Round|Shape=RoundedRectangle|*
%AMROUNDEDRECTD116*
21,1,0.3800,0.4800,0,0,180.0*
21,1,0.1200,0.7400,0,0,180.0*
1,1,0.2600,-0.0600,0.2400*
1,1,0.2600,0.0600,0.2400*
1,1,0.2600,0.0600,-0.2400*
1,1,0.2600,-0.0600,-0.2400*
%
%ADD116ROUNDEDRECTD116*%
G04:AMPARAMS|DCode=117|XSize=0.38mm|YSize=0.74mm|CornerRadius=0.13mm|HoleSize=0mm|Usage=FLASHONLY|Rotation=270.000|XOffset=0mm|YOffset=0mm|HoleType=Round|Shape=RoundedRectangle|*
%AMROUNDEDRECTD117*
21,1,0.3800,0.4800,0,0,270.0*
21,1,0.1200,0.7400,0,0,270.0*
1,1,0.2600,-0.2400,-0.0600*
1,1,0.2600,-0.2400,0.0600*
1,1,0.2600,0.2400,0.0600*
1,1,0.2600,0.2400,-0.0600*
%
%ADD117ROUNDEDRECTD117*%
%ADD118R,0.7400X0.3800*%
G04:AMPARAMS|DCode=119|XSize=1.0032mm|YSize=1.1032mm|CornerRadius=0.3016mm|HoleSize=0mm|Usage=FLASHONLY|Rotation=90.000|XOffset=0mm|YOffset=0mm|HoleType=Round|Shape=RoundedRectangle|*
%AMROUNDEDRECTD119*
21,1,1.0032,0.5000,0,0,90.0*
21,1,0.4000,1.1032,0,0,90.0*
1,1,0.6032,0.2500,0.2000*
1,1,0.6032,0.2500,-0.2000*
1,1,0.6032,-0.2500,-0.2000*
1,1,0.6032,-0.2500,0.2000*
%
%ADD119ROUNDEDRECTD119*%
G04:AMPARAMS|DCode=120|XSize=0.7532mm|YSize=1.3482mm|CornerRadius=0.2391mm|HoleSize=0mm|Usage=FLASHONLY|Rotation=180.000|XOffset=0mm|YOffset=0mm|HoleType=Round|Shape=RoundedRectangle|*
%AMROUNDEDRECTD120*
21,1,0.7532,0.8700,0,0,180.0*
21,1,0.2750,1.3482,0,0,180.0*
1,1,0.4782,-0.1375,0.4350*
1,1,0.4782,0.1375,0.4350*
1,1,0.4782,0.1375,-0.4350*
1,1,0.4782,-0.1375,-0.4350*
%
%ADD120ROUNDEDRECTD120*%
G04:AMPARAMS|DCode=121|XSize=0.7532mm|YSize=1.3482mm|CornerRadius=0.2391mm|HoleSize=0mm|Usage=FLASHONLY|Rotation=270.000|XOffset=0mm|YOffset=0mm|HoleType=Round|Shape=RoundedRectangle|*
%AMROUNDEDRECTD121*
21,1,0.7532,0.8700,0,0,270.0*
21,1,0.2750,1.3482,0,0,270.0*
1,1,0.4782,-0.4350,-0.1375*
1,1,0.4782,-0.4350,0.1375*
1,1,0.4782,0.4350,0.1375*
1,1,0.4782,0.4350,-0.1375*
%
%ADD121ROUNDEDRECTD121*%
%ADD122R,1.3482X0.7532*%
G04:AMPARAMS|DCode=123|XSize=0.4mm|YSize=0.9mm|CornerRadius=0.125mm|HoleSize=0mm|Usage=FLASHONLY|Rotation=0.000|XOffset=0mm|YOffset=0mm|HoleType=Round|Shape=RoundedRectangle|*
%AMROUNDEDRECTD123*
21,1,0.4000,0.6500,0,0,0.0*
21,1,0.1500,0.9000,0,0,0.0*
1,1,0.2500,0.0750,-0.3250*
1,1,0.2500,-0.0750,-0.3250*
1,1,0.2500,-0.0750,0.3250*
1,1,0.2500,0.0750,0.3250*
%
%ADD123ROUNDEDRECTD123*%
G04:AMPARAMS|DCode=124|XSize=0.4mm|YSize=0.9mm|CornerRadius=0.125mm|HoleSize=0mm|Usage=FLASHONLY|Rotation=90.000|XOffset=0mm|YOffset=0mm|HoleType=Round|Shape=RoundedRectangle|*
%AMROUNDEDRECTD124*
21,1,0.4000,0.6500,0,0,90.0*
21,1,0.1500,0.9000,0,0,90.0*
1,1,0.2500,0.3250,0.0750*
1,1,0.2500,0.3250,-0.0750*
1,1,0.2500,-0.3250,-0.0750*
1,1,0.2500,-0.3250,0.0750*
%
%ADD124ROUNDEDRECTD124*%
%ADD125R,0.9000X0.4000*%
G04:AMPARAMS|DCode=126|XSize=0.8032mm|YSize=0.7252mm|CornerRadius=0.2321mm|HoleSize=0mm|Usage=FLASHONLY|Rotation=90.000|XOffset=0mm|YOffset=0mm|HoleType=Round|Shape=RoundedRectangle|*
%AMROUNDEDRECTD126*
21,1,0.8032,0.2610,0,0,90.0*
21,1,0.3390,0.7252,0,0,90.0*
1,1,0.4642,0.1305,0.1695*
1,1,0.4642,0.1305,-0.1695*
1,1,0.4642,-0.1305,-0.1695*
1,1,0.4642,-0.1305,0.1695*
%
%ADD126ROUNDEDRECTD126*%
%ADD127R,0.7252X0.8032*%
%ADD128R,0.5700X0.4200*%
G04:AMPARAMS|DCode=129|XSize=0.42mm|YSize=0.57mm|CornerRadius=0.135mm|HoleSize=0mm|Usage=FLASHONLY|Rotation=270.000|XOffset=0mm|YOffset=0mm|HoleType=Round|Shape=RoundedRectangle|*
%AMROUNDEDRECTD129*
21,1,0.4200,0.3000,0,0,270.0*
21,1,0.1500,0.5700,0,0,270.0*
1,1,0.2700,-0.1500,-0.0750*
1,1,0.2700,-0.1500,0.0750*
1,1,0.2700,0.1500,0.0750*
1,1,0.2700,0.1500,-0.0750*
%
%ADD129ROUNDEDRECTD129*%
G04:AMPARAMS|DCode=130|XSize=1.3032mm|YSize=2.1032mm|CornerRadius=0.3766mm|HoleSize=0mm|Usage=FLASHONLY|Rotation=0.000|XOffset=0mm|YOffset=0mm|HoleType=Round|Shape=RoundedRectangle|*
%AMROUNDEDRECTD130*
21,1,1.3032,1.3500,0,0,0.0*
21,1,0.5500,2.1032,0,0,0.0*
1,1,0.7532,0.2750,-0.6750*
1,1,0.7532,-0.2750,-0.6750*
1,1,0.7532,-0.2750,0.6750*
1,1,0.7532,0.2750,0.6750*
%
%ADD130ROUNDEDRECTD130*%
%ADD131R,1.3032X1.6032*%
G04:AMPARAMS|DCode=132|XSize=1.6032mm|YSize=1.3032mm|CornerRadius=0.3766mm|HoleSize=0mm|Usage=FLASHONLY|Rotation=270.000|XOffset=0mm|YOffset=0mm|HoleType=Round|Shape=RoundedRectangle|*
%AMROUNDEDRECTD132*
21,1,1.6032,0.5500,0,0,270.0*
21,1,0.8500,1.3032,0,0,270.0*
1,1,0.7532,-0.2750,-0.4250*
1,1,0.7532,-0.2750,0.4250*
1,1,0.7532,0.2750,0.4250*
1,1,0.7532,0.2750,-0.4250*
%
%ADD132ROUNDEDRECTD132*%
%ADD133R,1.8232X1.8232*%
%ADD134C,1.8232*%
%ADD135O,1.0160X1.7532*%
%ADD136O,1.5032X1.0160*%
%ADD137R,1.7112X1.7112*%
%ADD138C,1.7112*%
%ADD139R,1.7112X1.7112*%
%ADD140R,1.5732X1.5732*%
%ADD141C,1.5732*%
D78*
X42901Y394970D02*
G03*
X42901Y394970I-8611J0D01*
G01*
Y369570D02*
G03*
X42901Y369570I-8611J0D01*
G01*
X51541Y312420D02*
G03*
X51541Y312420I-8611J0D01*
G01*
Y337820D02*
G03*
X51541Y337820I-8611J0D01*
G01*
X207751Y132080D02*
G03*
X207751Y132080I-8611J0D01*
G01*
Y106680D02*
G03*
X207751Y106680I-8611J0D01*
G01*
X514575Y143764D02*
G03*
X514575Y143764I-8611J0D01*
G01*
Y169164D02*
G03*
X514575Y169164I-8611J0D01*
G01*
X255241Y44450D02*
G03*
X255241Y44450I-8611J0D01*
G01*
Y69850D02*
G03*
X255241Y69850I-8611J0D01*
G01*
X224261D02*
G03*
X224261Y69850I-8611J0D01*
G01*
Y44450D02*
G03*
X224261Y44450I-8611J0D01*
G01*
D79*
X401240Y212090D02*
D03*
X391240D02*
D03*
X312500Y213360D02*
D03*
X322500D02*
D03*
D80*
X345924Y182069D02*
D03*
X352424D02*
D03*
D81*
Y199828D02*
D03*
Y205828D02*
D03*
Y251138D02*
D03*
Y257138D02*
D03*
D82*
Y229880D02*
D03*
X344734Y229881D02*
D03*
D83*
X352424Y284682D02*
D03*
Y278182D02*
D03*
D84*
X21590Y310290D02*
D03*
Y329790D02*
D03*
D85*
X9348Y373454D02*
D03*
Y357454D02*
D03*
X576834Y253872D02*
D03*
Y237872D02*
D03*
X324358Y82294D02*
D03*
Y66294D02*
D03*
X307848Y66294D02*
D03*
Y82294D02*
D03*
X271780Y68200D02*
D03*
Y84200D02*
D03*
X185116Y386156D02*
D03*
Y402156D02*
D03*
X477774Y134494D02*
D03*
Y150494D02*
D03*
X72340Y303356D02*
D03*
Y319856D02*
D03*
X183642Y190876D02*
D03*
Y174376D02*
D03*
X153670Y191130D02*
D03*
Y174630D02*
D03*
D86*
X290048Y66609D02*
D03*
Y87109D02*
D03*
D87*
X308482Y40894D02*
D03*
X292482D02*
D03*
X297814Y108204D02*
D03*
X281814D02*
D03*
X366650Y82550D02*
D03*
X382650D02*
D03*
X382650Y69850D02*
D03*
X366650D02*
D03*
X370714Y198374D02*
D03*
X386714D02*
D03*
X365634Y183134D02*
D03*
X381634D02*
D03*
X330580Y199390D02*
D03*
X314580D02*
D03*
X334390Y186690D02*
D03*
X318390D02*
D03*
X145620Y302356D02*
D03*
X161620D02*
D03*
X145620Y317596D02*
D03*
X161620D02*
D03*
X208284Y338972D02*
D03*
X192284D02*
D03*
X339346Y71628D02*
D03*
X355346D02*
D03*
X520064Y79456D02*
D03*
X504064D02*
D03*
X553720Y87376D02*
D03*
X569720D02*
D03*
X552990Y162890D02*
D03*
X568990D02*
D03*
X61340Y205740D02*
D03*
X45340D02*
D03*
X32892Y34290D02*
D03*
X16892D02*
D03*
X339346Y85090D02*
D03*
X355346D02*
D03*
X71446Y424996D02*
D03*
X54946D02*
D03*
D88*
X232410Y313944D02*
D03*
D89*
Y282956D02*
D03*
D90*
X70308Y353262D02*
D03*
D91*
X101296D02*
D03*
D92*
X163810Y277570D02*
D03*
X135810D02*
D03*
D93*
X214630Y263910D02*
D03*
Y232410D02*
D03*
D94*
X10160Y412130D02*
D03*
Y398130D02*
D03*
D95*
X224370Y363220D02*
D03*
X235370D02*
D03*
D96*
X229870Y228180D02*
D03*
Y239180D02*
D03*
X44450Y295060D02*
D03*
Y284060D02*
D03*
X29210Y65620D02*
D03*
Y76620D02*
D03*
X15240Y65620D02*
D03*
Y76620D02*
D03*
D97*
X222010Y414350D02*
D03*
X242010D02*
D03*
D98*
X219010Y387350D02*
D03*
X225510D02*
D03*
X232010D02*
D03*
X238510D02*
D03*
X245010D02*
D03*
D99*
X118930Y144780D02*
D03*
D100*
X157930D02*
D03*
X118930Y132080D02*
D03*
X157930D02*
D03*
X118930Y119380D02*
D03*
X157930D02*
D03*
X118930Y106680D02*
D03*
X157930D02*
D03*
X118930Y93980D02*
D03*
X157930D02*
D03*
D101*
X340730Y46990D02*
D03*
X355230D02*
D03*
X532500Y176530D02*
D03*
X547000D02*
D03*
D102*
X210340Y301954D02*
D03*
X188340D02*
D03*
X120678Y317194D02*
D03*
X98678D02*
D03*
D103*
X552450Y112660D02*
D03*
Y98160D02*
D03*
D104*
X576834Y275906D02*
D03*
Y290406D02*
D03*
X248920Y367930D02*
D03*
Y353430D02*
D03*
X466344Y110836D02*
D03*
Y96336D02*
D03*
X451477Y110711D02*
D03*
Y96211D02*
D03*
X152096Y386504D02*
D03*
Y401004D02*
D03*
X135332Y386504D02*
D03*
Y401004D02*
D03*
X118822Y386504D02*
D03*
Y401004D02*
D03*
X81026Y374766D02*
D03*
Y389266D02*
D03*
X168606Y400898D02*
D03*
Y386398D02*
D03*
X102312Y401004D02*
D03*
Y386504D02*
D03*
X477774Y181494D02*
D03*
Y166994D02*
D03*
X450850Y31612D02*
D03*
Y46112D02*
D03*
X526542Y213498D02*
D03*
Y198998D02*
D03*
X561340Y221880D02*
D03*
Y207380D02*
D03*
X544830Y207634D02*
D03*
Y222134D02*
D03*
X577578Y207850D02*
D03*
Y222350D02*
D03*
X121666Y188860D02*
D03*
Y174360D02*
D03*
X289052Y169302D02*
D03*
Y154802D02*
D03*
X138176Y188860D02*
D03*
Y174360D02*
D03*
X198628Y173852D02*
D03*
Y188352D02*
D03*
X168656Y174106D02*
D03*
Y188606D02*
D03*
D105*
X353960Y59690D02*
D03*
X339460D02*
D03*
X71744Y288036D02*
D03*
X86244D02*
D03*
X82180Y405130D02*
D03*
X67680D02*
D03*
X85156Y424996D02*
D03*
X99656D02*
D03*
X457084Y197104D02*
D03*
X442584D02*
D03*
X490104Y79456D02*
D03*
X475604D02*
D03*
X562980Y102870D02*
D03*
X577480D02*
D03*
X559170Y176530D02*
D03*
X573670D02*
D03*
X10276Y206502D02*
D03*
X24776D02*
D03*
X33920Y16764D02*
D03*
X19420D02*
D03*
D106*
X463770Y285640D02*
D03*
X56354Y64406D02*
D03*
D107*
X554770Y285640D02*
D03*
X463770Y240140D02*
D03*
X554770D02*
D03*
X147354Y64406D02*
D03*
X56354Y18906D02*
D03*
X147354D02*
D03*
D108*
X58564Y182914D02*
D03*
D109*
Y91914D02*
D03*
X13064Y182914D02*
D03*
Y91914D02*
D03*
D110*
X191770Y264160D02*
D03*
X473202Y197358D02*
D03*
D111*
X342424Y133316D02*
D03*
D112*
X364424Y162666D02*
D03*
X360424D02*
D03*
X356424D02*
D03*
X352424D02*
D03*
X348424D02*
D03*
X344424D02*
D03*
X340424D02*
D03*
X336424D02*
D03*
X332424D02*
D03*
X364424Y103966D02*
D03*
X360424D02*
D03*
X356424D02*
D03*
X352424D02*
D03*
X348424D02*
D03*
X344424D02*
D03*
X340424D02*
D03*
X336424D02*
D03*
X332424D02*
D03*
X328424D02*
D03*
Y162666D02*
D03*
X324424D02*
D03*
X320424D02*
D03*
X324424Y103966D02*
D03*
X320424D02*
D03*
D113*
X371774Y155316D02*
D03*
Y151316D02*
D03*
Y147316D02*
D03*
Y143316D02*
D03*
Y139316D02*
D03*
Y135316D02*
D03*
Y131316D02*
D03*
Y127316D02*
D03*
Y123316D02*
D03*
Y119316D02*
D03*
Y115316D02*
D03*
X313074Y155316D02*
D03*
Y151316D02*
D03*
Y147316D02*
D03*
Y143316D02*
D03*
Y139316D02*
D03*
Y135316D02*
D03*
Y131316D02*
D03*
Y127316D02*
D03*
Y123316D02*
D03*
Y119316D02*
D03*
Y115316D02*
D03*
Y111316D02*
D03*
D114*
X371774D02*
D03*
D115*
X158710Y351510D02*
D03*
D116*
X168710Y335010D02*
D03*
X163710D02*
D03*
X158710D02*
D03*
X153710D02*
D03*
X148710D02*
D03*
Y368010D02*
D03*
X153710D02*
D03*
X158710D02*
D03*
X163710D02*
D03*
X168710D02*
D03*
D117*
X142210Y341510D02*
D03*
Y346510D02*
D03*
Y351510D02*
D03*
Y356510D02*
D03*
Y361510D02*
D03*
X175210D02*
D03*
Y356510D02*
D03*
Y351510D02*
D03*
Y346510D02*
D03*
D118*
Y341510D02*
D03*
D119*
X248920Y340360D02*
D03*
Y319360D02*
D03*
X268920Y329860D02*
D03*
D120*
X448564Y136759D02*
D03*
Y178709D02*
D03*
D121*
X437589Y137734D02*
D03*
Y145734D02*
D03*
Y153734D02*
D03*
Y161734D02*
D03*
Y169734D02*
D03*
Y177734D02*
D03*
X459539D02*
D03*
Y169734D02*
D03*
Y161734D02*
D03*
Y153734D02*
D03*
Y145734D02*
D03*
D122*
Y137734D02*
D03*
D123*
X499364Y113086D02*
D03*
Y94086D02*
D03*
D124*
X508864Y111086D02*
D03*
Y106086D02*
D03*
Y101086D02*
D03*
Y96086D02*
D03*
X489864D02*
D03*
Y101086D02*
D03*
Y106086D02*
D03*
D125*
Y111086D02*
D03*
D126*
X561546Y54400D02*
D03*
X553326Y63400D02*
D03*
Y72400D02*
D03*
X561546D02*
D03*
X560530Y130600D02*
D03*
X552310Y139600D02*
D03*
Y148600D02*
D03*
X560530D02*
D03*
D127*
X553326Y54400D02*
D03*
X552310Y130600D02*
D03*
D128*
X506368Y213186D02*
D03*
D129*
Y218186D02*
D03*
Y223186D02*
D03*
X492868D02*
D03*
Y218186D02*
D03*
Y213186D02*
D03*
D130*
X416360Y101600D02*
D03*
X391360D02*
D03*
D131*
X399034Y168656D02*
D03*
D132*
Y146656D02*
D03*
X415034D02*
D03*
Y168656D02*
D03*
D133*
X34290Y394970D02*
D03*
X42930Y312420D02*
D03*
X199140Y106680D02*
D03*
X505964Y169164D02*
D03*
X246630Y69850D02*
D03*
X215650Y44450D02*
D03*
D134*
X34290Y369570D02*
D03*
X42930Y337820D02*
D03*
X199140Y132080D02*
D03*
X505964Y143764D02*
D03*
X246630Y44450D02*
D03*
X215650Y69850D02*
D03*
X574066Y63410D02*
D03*
X573050Y139610D02*
D03*
D135*
X197010Y414350D02*
D03*
X267010D02*
D03*
D136*
X207010Y387350D02*
D03*
X257010D02*
D03*
D137*
X31696Y252222D02*
D03*
D138*
X56696D02*
D03*
X280670Y252930D02*
D03*
D139*
Y277930D02*
D03*
D140*
X478028Y40894D02*
D03*
D141*
X503428D02*
D03*
X528828D02*
D03*
M02*
