G04*
G04 #@! TF.GenerationSoftware,Altium Limited,Altium Designer,22.9.1 (49)*
G04*
G04 Layer_Color=32768*
%FSLAX44Y44*%
%MOMM*%
G71*
G04*
G04 #@! TF.SameCoordinates,01709E0F-AE19-4BD8-882A-F161264F200E*
G04*
G04*
G04 #@! TF.FilePolarity,Positive*
G04*
G01*
G75*
%ADD12C,0.2000*%
%ADD13C,0.1000*%
%ADD14C,0.1524*%
%ADD16C,0.2540*%
%ADD176C,0.0500*%
%ADD177C,0.0762*%
D12*
X172720Y310440D02*
Y380440D01*
X104140Y310440D02*
X172720D01*
X104140D02*
Y380440D01*
X172720D01*
D13*
X447120Y388620D02*
X457120D01*
X452120Y383620D02*
Y393620D01*
X470086Y357886D02*
Y420438D01*
X434408Y357886D02*
Y420438D01*
Y357886D02*
X469900D01*
X434408Y420438D02*
X470086D01*
X445770Y330742D02*
Y340742D01*
X440770Y335742D02*
X450770D01*
X547116Y358394D02*
X580644D01*
Y272796D02*
Y358394D01*
X547116Y272796D02*
Y358394D01*
X563880Y309960D02*
Y319960D01*
X547116Y272796D02*
X580644D01*
X558880Y314960D02*
X568880D01*
X505080Y403860D02*
X508380D01*
X506730Y402210D02*
Y405510D01*
X512810Y387934D02*
X522810D01*
X517810Y382934D02*
Y392934D01*
X513540Y312420D02*
X523540D01*
X518540Y307420D02*
Y317420D01*
X518490Y327660D02*
X527990D01*
X523240Y322910D02*
Y332410D01*
X539370Y327660D02*
X542670D01*
X541020Y326010D02*
Y329310D01*
X519760Y403860D02*
X529260D01*
X524510Y399110D02*
Y408610D01*
X332486Y289386D02*
Y299386D01*
X327486Y294386D02*
X337486D01*
X347980Y289386D02*
Y299386D01*
X342980Y294386D02*
X352980D01*
X254254Y293830D02*
Y303830D01*
X249254Y298830D02*
X259254D01*
X269494Y293830D02*
Y303830D01*
X264494Y298830D02*
X274494D01*
X532874Y426504D02*
Y436004D01*
X528124Y431254D02*
X537624D01*
X516364Y426504D02*
Y436004D01*
X511614Y431254D02*
X521114D01*
X17094Y182372D02*
X26594D01*
X21844Y177622D02*
Y187122D01*
X165164Y237422D02*
X200842D01*
X165350Y299974D02*
X200842D01*
Y237422D02*
Y299974D01*
X165164Y237422D02*
Y299974D01*
X183130Y264240D02*
Y274240D01*
X178130Y269240D02*
X188130D01*
X237744Y294080D02*
Y303580D01*
X232994Y298830D02*
X242494D01*
X283830Y365472D02*
X293830D01*
X288830Y360472D02*
Y370472D01*
X282274Y298830D02*
X292274D01*
X287274Y293830D02*
Y303830D01*
X179070Y199978D02*
Y209978D01*
X174070Y204978D02*
X184070D01*
X226060Y171780D02*
Y181280D01*
X221310Y176530D02*
X230810D01*
X214198Y203454D02*
X223698D01*
X218948Y198704D02*
Y208204D01*
X445326Y27912D02*
X453326D01*
X449326Y23912D02*
Y31912D01*
X409826Y1912D02*
X488826D01*
Y64412D01*
X409826D02*
X488826D01*
X409826Y1912D02*
Y64412D01*
X133604Y156544D02*
Y166544D01*
X128604Y161544D02*
X138604D01*
X205058Y149352D02*
X215058D01*
X210058Y144352D02*
Y154352D01*
X196596Y110046D02*
Y118046D01*
X192596Y114046D02*
X200596D01*
X191846Y84074D02*
X201346D01*
X196596Y79324D02*
Y88824D01*
X109220Y435690D02*
Y445690D01*
X104220Y440690D02*
X114220D01*
X38100Y402920D02*
Y412420D01*
X33350Y407670D02*
X42850D01*
X133680D02*
X143180D01*
X138430Y402920D02*
Y412420D01*
X86360Y311480D02*
Y320980D01*
X81610Y316230D02*
X91110D01*
X81360Y421640D02*
X91360D01*
X86360Y416640D02*
Y426640D01*
X72470Y339090D02*
X82470D01*
X77470Y334090D02*
Y344090D01*
X128600Y483870D02*
X138100D01*
X133350Y479120D02*
Y488620D01*
X217504Y298830D02*
X227504D01*
X222504Y293830D02*
Y303830D01*
X331470Y440310D02*
Y443610D01*
X329820Y441960D02*
X333120D01*
X320120Y430530D02*
X330120D01*
X325120Y425530D02*
Y435530D01*
X320040Y410290D02*
Y420290D01*
X315040Y415290D02*
X325040D01*
X424180Y286080D02*
Y295580D01*
X419430Y290830D02*
X428930D01*
X152400Y433400D02*
Y442900D01*
X147650Y438150D02*
X157150D01*
X153670Y404940D02*
Y412940D01*
X149670Y408940D02*
X157670D01*
X167640Y404940D02*
Y412940D01*
X163640Y408940D02*
X171640D01*
X162890Y438150D02*
X172390D01*
X167640Y433400D02*
Y442900D01*
X514350Y12776D02*
Y22276D01*
X509600Y17526D02*
X519100D01*
X204026Y28448D02*
X212026D01*
X208026Y24448D02*
Y32448D01*
X168526Y2448D02*
X247526D01*
Y64948D01*
X168526D02*
X247526D01*
X168526Y2448D02*
Y64948D01*
X453470Y311612D02*
X463470D01*
X458470Y306612D02*
Y316612D01*
X429260Y306862D02*
Y316362D01*
X424510Y311612D02*
X434010D01*
X194390Y345440D02*
X204390D01*
X199390Y340440D02*
Y350440D01*
X181424Y313622D02*
Y376174D01*
X217102Y313622D02*
Y376174D01*
X181610D02*
X217102D01*
X181424Y313622D02*
X217102D01*
X299466Y193730D02*
Y203230D01*
X294716Y198480D02*
X304216D01*
X315976Y193624D02*
Y203124D01*
X311226Y198374D02*
X320726D01*
X282702Y193730D02*
Y203230D01*
X277952Y198480D02*
X287452D01*
X266192Y193730D02*
Y203230D01*
X261442Y198480D02*
X270942D01*
X249682Y193730D02*
Y203230D01*
X244932Y198480D02*
X254432D01*
X332486Y193882D02*
Y203882D01*
X327486Y198882D02*
X337486D01*
X246888Y270590D02*
Y280590D01*
X241888Y275590D02*
X251888D01*
X573024Y496084D02*
Y505584D01*
X568274Y500834D02*
X577774D01*
X568024Y463550D02*
X578024D01*
X573024Y458550D02*
Y468550D01*
X396240Y424510D02*
Y434010D01*
X391490Y429260D02*
X400990D01*
X389970Y389890D02*
X399970D01*
X394970Y384890D02*
Y394890D01*
X419430Y406400D02*
X428930D01*
X424180Y401650D02*
Y411150D01*
X419180Y374650D02*
X429180D01*
X424180Y369650D02*
Y379650D01*
X199962Y228706D02*
X207962D01*
X203962Y224706D02*
Y232706D01*
X233172Y223956D02*
Y233456D01*
X228422Y228706D02*
X237922D01*
X277966Y153950D02*
X287966D01*
X282966Y148950D02*
Y158950D01*
X228934Y119634D02*
X238934D01*
X233934Y114634D02*
Y124634D01*
X283290Y31496D02*
X293290D01*
X288290Y26496D02*
Y36496D01*
X449326Y105744D02*
Y115744D01*
X444326Y110744D02*
X454326D01*
X378794Y104246D02*
X388794D01*
X383794Y99246D02*
Y109246D01*
X326390Y135970D02*
Y145970D01*
X321390Y140970D02*
X331390D01*
X318596Y104394D02*
X328596D01*
X323596Y99394D02*
Y109394D01*
X379048Y43286D02*
X389048D01*
X384048Y38286D02*
Y48286D01*
X277876Y99796D02*
Y109796D01*
X272876Y104796D02*
X282876D01*
X277876Y115036D02*
Y125036D01*
X272876Y120036D02*
X282876D01*
X274066Y75010D02*
Y85010D01*
X269066Y80010D02*
X279066D01*
X146050Y121492D02*
Y131492D01*
X141050Y126492D02*
X151050D01*
X114232Y144458D02*
X176784D01*
X114232Y108780D02*
X176784D01*
Y144272D01*
X114232Y108780D02*
Y144458D01*
X141664Y161612D02*
Y197290D01*
X204216Y161612D02*
Y197104D01*
X141664Y161612D02*
X204216D01*
X141664Y197290D02*
X204216D01*
X168482Y179324D02*
X178482D01*
X173482Y174324D02*
Y184324D01*
X492760Y426800D02*
Y436800D01*
X487760Y431800D02*
X497760D01*
X488950Y403820D02*
Y413320D01*
X484200Y408570D02*
X493700D01*
X462610Y431800D02*
X472110D01*
X467360Y427050D02*
Y436550D01*
X138430Y335690D02*
Y355190D01*
X128680Y345440D02*
X148180D01*
X231220Y340360D02*
X241220D01*
X236220Y335360D02*
Y345360D01*
X408000Y335742D02*
X417500D01*
X412750Y330992D02*
Y340492D01*
X397510Y330992D02*
Y340492D01*
X392760Y335742D02*
X402260D01*
X312730Y300731D02*
X322230D01*
X317480Y295981D02*
Y305481D01*
X317754Y278851D02*
Y282151D01*
X316104Y280501D02*
X319404D01*
X262970Y435610D02*
X272970D01*
X267970Y430610D02*
Y440610D01*
X266780Y420370D02*
X276780D01*
X271780Y415370D02*
Y425370D01*
X260350Y445390D02*
Y448690D01*
X258700Y447040D02*
X262000D01*
X302514Y293830D02*
Y303830D01*
X297514Y298830D02*
X307514D01*
X298921Y511938D02*
Y515238D01*
X297271Y513588D02*
X300571D01*
X298973Y485118D02*
Y488418D01*
X297323Y486768D02*
X300623D01*
X293917Y460619D02*
X297217D01*
X295567Y458969D02*
Y462268D01*
X298973Y433672D02*
Y436972D01*
X297323Y435322D02*
X300623D01*
X293917Y414225D02*
X297217D01*
X295567Y412575D02*
Y415875D01*
D14*
X186436Y160909D02*
X233680D01*
X186436Y137795D02*
Y160909D01*
Y137795D02*
X233680D01*
Y160909D01*
X372237Y80624D02*
X395351D01*
X372237D02*
Y127868D01*
X395351D01*
Y80624D02*
Y127868D01*
D16*
X343916Y326644D02*
X348996D01*
X346456Y324104D02*
Y329184D01*
X352170Y378890D02*
Y386510D01*
X348360Y382700D02*
X355980D01*
X575310Y49222D02*
Y59382D01*
X570230Y54302D02*
X580390D01*
D176*
X445304Y449084D02*
X563584D01*
Y514084D01*
X445304D02*
X563584D01*
X445304Y449084D02*
Y514084D01*
X503200Y380560D02*
X543230D01*
Y349060D02*
Y380560D01*
X503200Y349060D02*
X543230D01*
X503200D02*
Y380560D01*
X430020Y319992D02*
X461520D01*
X430020Y351492D02*
X461520D01*
Y319992D02*
Y351492D01*
X430020Y319992D02*
Y351492D01*
X503730Y272540D02*
Y304040D01*
Y272540D02*
X543760D01*
Y304040D01*
X503730D02*
X543760D01*
X510230Y396860D02*
Y410860D01*
X503230Y396860D02*
Y410860D01*
X510230D01*
X503230Y396860D02*
X510230D01*
X532810Y380434D02*
Y395434D01*
X502810Y380434D02*
Y395434D01*
Y380434D02*
X532810D01*
X502810Y395434D02*
X532810D01*
X533540Y304920D02*
Y319920D01*
X503540Y304920D02*
Y319920D01*
Y304920D02*
X533540D01*
X503540Y319920D02*
X533540D01*
X536240Y320160D02*
Y335160D01*
X510240Y320160D02*
Y335160D01*
Y320160D02*
X536240D01*
X510240Y335160D02*
X536240D01*
X537520Y320660D02*
Y334660D01*
X544520Y320660D02*
Y334660D01*
X537520Y320660D02*
X544520D01*
X537520Y334660D02*
X544520D01*
X537510Y396360D02*
Y411360D01*
X511510Y396360D02*
Y411360D01*
Y396360D02*
X537510D01*
X511510Y411360D02*
X537510D01*
X324986Y309386D02*
X339986D01*
X324986Y279386D02*
X339986D01*
Y309386D01*
X324986Y279386D02*
Y309386D01*
X340480Y279386D02*
X355480D01*
X340480Y309386D02*
X355480D01*
X340480Y279386D02*
Y309386D01*
X355480Y279386D02*
Y309386D01*
X246754Y313830D02*
X261754D01*
X246754Y283830D02*
X261754D01*
Y313830D01*
X246754Y283830D02*
Y313830D01*
X261994Y283830D02*
X276994D01*
X261994Y313830D02*
X276994D01*
X261994Y283830D02*
Y313830D01*
X276994Y283830D02*
Y313830D01*
X525374Y418254D02*
X540374D01*
X525374Y444254D02*
X540374D01*
X525374Y418254D02*
Y444254D01*
X540374Y418254D02*
Y444254D01*
X508864D02*
X523864D01*
X508864Y418254D02*
X523864D01*
Y444254D01*
X508864Y418254D02*
Y444254D01*
X12698Y163324D02*
X36698D01*
Y168324D01*
X83698D01*
Y163324D02*
Y168324D01*
Y163324D02*
X107698D01*
Y68324D02*
Y163324D01*
X83698Y68324D02*
X107698D01*
X83698Y63324D02*
Y68324D01*
X36698Y63324D02*
X83698D01*
X36698D02*
Y68324D01*
X12698D02*
X36698D01*
X12698D02*
Y163324D01*
X29344Y169372D02*
Y195372D01*
X14344Y169372D02*
Y195372D01*
X29344D01*
X14344Y169372D02*
X29344D01*
X230244Y314330D02*
X245244D01*
X230244Y283330D02*
X245244D01*
Y314330D01*
X230244Y283330D02*
Y314330D01*
X324830Y329472D02*
Y401472D01*
X252830Y329472D02*
Y401472D01*
Y329472D02*
X324830D01*
X252830Y401472D02*
X324830D01*
X294774Y283830D02*
Y313830D01*
X279774Y283830D02*
Y313830D01*
X294774D01*
X279774Y283830D02*
X294774D01*
X166570Y210978D02*
X191570D01*
X166570Y198978D02*
X191570D01*
X166570D02*
Y210978D01*
X191570Y198978D02*
Y210978D01*
X218560Y163530D02*
X233560D01*
X218560Y189530D02*
X233560D01*
X218560Y163530D02*
Y189530D01*
X233560Y163530D02*
Y189530D01*
X231948Y195954D02*
Y210954D01*
X205948Y195954D02*
Y210954D01*
Y195954D02*
X231948D01*
X205948Y210954D02*
X231948D01*
X126104Y176544D02*
X141104D01*
X126104Y146544D02*
X141104D01*
Y176544D01*
X126104Y146544D02*
Y176544D01*
X190096Y129046D02*
X203096D01*
X190096Y99046D02*
X203096D01*
Y129046D01*
X190096Y99046D02*
Y129046D01*
X189096Y71074D02*
Y97074D01*
X204096Y71074D02*
Y97074D01*
X189096Y71074D02*
X204096D01*
X189096Y97074D02*
X204096D01*
X94220Y433190D02*
X124220D01*
X94220Y448190D02*
X124220D01*
Y433190D02*
Y448190D01*
X94220Y433190D02*
Y448190D01*
X25100Y400170D02*
X51100D01*
X25100Y415170D02*
X51100D01*
Y400170D02*
Y415170D01*
X25100Y400170D02*
Y415170D01*
X4330Y399500D02*
X69330D01*
Y281220D02*
Y399500D01*
X4330Y281220D02*
X69330D01*
X4330D02*
Y399500D01*
X130930Y394670D02*
Y420670D01*
X145930Y394670D02*
Y420670D01*
X130930Y394670D02*
X145930D01*
X130930Y420670D02*
X145930D01*
X73360Y308730D02*
X99360D01*
X73360Y323730D02*
X99360D01*
Y308730D02*
Y323730D01*
X73360Y308730D02*
Y323730D01*
X98610Y411640D02*
Y431640D01*
X74110Y411640D02*
Y431640D01*
Y411640D02*
X98610D01*
X74110Y431640D02*
X98610D01*
X125286Y449084D02*
Y514084D01*
X7006Y449084D02*
X125286D01*
X7006D02*
Y514084D01*
X125286D01*
X69970Y324090D02*
Y354090D01*
X84970Y324090D02*
Y354090D01*
X69970Y324090D02*
X84970D01*
X69970Y354090D02*
X84970D01*
X125850Y470870D02*
Y496870D01*
X140850Y470870D02*
Y496870D01*
X125850Y470870D02*
X140850D01*
X125850Y496870D02*
X140850D01*
X215004Y283830D02*
Y313830D01*
X230004Y283830D02*
Y313830D01*
X215004Y283830D02*
X230004D01*
X215004Y313830D02*
X230004D01*
X324470Y445460D02*
X338470D01*
X324470Y438460D02*
X338470D01*
X324470D02*
Y445460D01*
X338470Y438460D02*
Y445460D01*
X340120Y423030D02*
Y438030D01*
X310120Y423030D02*
Y438030D01*
Y423030D02*
X340120D01*
X310120Y438030D02*
X340120D01*
X305040Y422790D02*
X335040D01*
X305040Y407790D02*
X335040D01*
X305040D02*
Y422790D01*
X335040Y407790D02*
Y422790D01*
X411180Y283330D02*
X437180D01*
X411180Y298330D02*
X437180D01*
Y283330D02*
Y298330D01*
X411180Y283330D02*
Y298330D01*
X144900Y425150D02*
X159900D01*
X144900Y451150D02*
X159900D01*
X144900Y425150D02*
Y451150D01*
X159900Y425150D02*
Y451150D01*
X147170Y393940D02*
X160170D01*
X147170Y423940D02*
X160170D01*
X147170Y393940D02*
Y423940D01*
X160170Y393940D02*
Y423940D01*
X161140Y393940D02*
X174140D01*
X161140Y423940D02*
X174140D01*
X161140Y393940D02*
Y423940D01*
X174140Y393940D02*
Y423940D01*
X175140Y425150D02*
Y451150D01*
X160140Y425150D02*
Y451150D01*
X175140D01*
X160140Y425150D02*
X175140D01*
X501350Y25026D02*
X527350D01*
X501350Y10026D02*
X527350D01*
X501350D02*
Y25026D01*
X527350Y10026D02*
Y25026D01*
X443470Y304112D02*
Y319112D01*
X473470Y304112D02*
Y319112D01*
X443470D02*
X473470D01*
X443470Y304112D02*
X473470D01*
X416260Y319112D02*
X442260D01*
X416260Y304112D02*
X442260D01*
X416260D02*
Y319112D01*
X442260Y304112D02*
Y319112D01*
X325956Y314644D02*
X366956D01*
X325956D02*
Y338644D01*
X366956D01*
Y314644D02*
Y338644D01*
X335090Y403263D02*
X369090D01*
X335090Y362219D02*
Y403263D01*
Y362219D02*
X369090D01*
Y403263D01*
X291966Y185480D02*
X306966D01*
X291966Y211480D02*
X306966D01*
X291966Y185480D02*
Y211480D01*
X306966Y185480D02*
Y211480D01*
X308476Y211374D02*
X323476D01*
X308476Y185374D02*
X323476D01*
Y211374D01*
X308476Y185374D02*
Y211374D01*
X275202Y185480D02*
X290202D01*
X275202Y211480D02*
X290202D01*
X275202Y185480D02*
Y211480D01*
X290202Y185480D02*
Y211480D01*
X258692Y185480D02*
X273692D01*
X258692Y211480D02*
X273692D01*
X258692Y185480D02*
Y211480D01*
X273692Y185480D02*
Y211480D01*
X242182D02*
X257182D01*
X242182Y185480D02*
X257182D01*
Y211480D01*
X242182Y185480D02*
Y211480D01*
X324986Y213882D02*
X339986D01*
X324986Y183882D02*
X339986D01*
Y213882D01*
X324986Y183882D02*
Y213882D01*
X231888Y268090D02*
X261888D01*
X231888Y283090D02*
X261888D01*
Y268090D02*
Y283090D01*
X231888Y268090D02*
Y283090D01*
X565524Y487834D02*
X580524D01*
X565524Y513834D02*
X580524D01*
X565524Y487834D02*
Y513834D01*
X580524Y487834D02*
Y513834D01*
X580524Y448550D02*
Y478550D01*
X565524Y448550D02*
Y478550D01*
X580524D01*
X565524Y448550D02*
X580524D01*
X383240Y436760D02*
X409240D01*
X383240Y421760D02*
X409240D01*
X383240D02*
Y436760D01*
X409240Y421760D02*
Y436760D01*
X415720Y359140D02*
Y420640D01*
X374220Y359140D02*
Y420640D01*
Y359140D02*
X415720D01*
X374220Y420640D02*
X415720D01*
X416680Y393400D02*
Y419400D01*
X431680Y393400D02*
Y419400D01*
X416680Y393400D02*
X431680D01*
X416680Y419400D02*
X431680D01*
X416680Y359650D02*
Y389650D01*
X431680Y359650D02*
Y389650D01*
X416680Y359650D02*
X431680D01*
X416680Y389650D02*
X431680D01*
X188962Y222206D02*
Y235206D01*
X218962Y222206D02*
Y235206D01*
X188962D02*
X218962D01*
X188962Y222206D02*
X218962D01*
X220172Y221206D02*
X246172D01*
X220172Y236206D02*
X246172D01*
Y221206D02*
Y236206D01*
X220172Y221206D02*
Y236206D01*
X306716Y130200D02*
Y177700D01*
X259216Y130200D02*
Y177700D01*
Y130200D02*
X306716D01*
X259216Y177700D02*
X306716D01*
X258934Y104134D02*
Y135134D01*
X208934Y104134D02*
Y135134D01*
Y104134D02*
X258934D01*
X208934Y135134D02*
X258934D01*
X278290Y19246D02*
Y43746D01*
X298290Y19246D02*
Y43746D01*
X278290Y19246D02*
X298290D01*
X278290Y43746D02*
X298290D01*
X406826Y146744D02*
X491826D01*
X406826Y74744D02*
X491826D01*
X406826D02*
Y146744D01*
X491826Y74744D02*
Y146744D01*
X311390Y133470D02*
X341390D01*
X311390Y148470D02*
X341390D01*
Y133470D02*
Y148470D01*
X311390Y133470D02*
Y148470D01*
X342596Y85394D02*
Y123394D01*
X304596Y85394D02*
X342596D01*
X304596Y123394D02*
X342596D01*
X304596Y85394D02*
Y123394D01*
X394048Y20286D02*
Y66286D01*
X374048Y20286D02*
Y66286D01*
X394048D01*
X374048Y20286D02*
X394048D01*
X262876Y112296D02*
X292876D01*
X262876Y97296D02*
X292876D01*
X262876D02*
Y112296D01*
X292876Y97296D02*
Y112296D01*
X262876Y127536D02*
X292876D01*
X262876Y112536D02*
X292876D01*
X262876D02*
Y127536D01*
X292876Y112536D02*
Y127536D01*
X248666Y64010D02*
Y96010D01*
X299466D01*
X248666Y64010D02*
X299466D01*
Y96010D01*
X480510Y421800D02*
X505010D01*
X480510Y441800D02*
X505010D01*
Y421800D02*
Y441800D01*
X480510Y421800D02*
Y441800D01*
X481450Y395570D02*
X496450D01*
X481450Y421570D02*
X496450D01*
X481450Y395570D02*
Y421570D01*
X496450Y395570D02*
Y421570D01*
X480360Y424300D02*
Y439300D01*
X454360Y424300D02*
Y439300D01*
Y424300D02*
X480360D01*
X454360Y439300D02*
X480360D01*
X221220Y332860D02*
Y347860D01*
X251220Y332860D02*
Y347860D01*
X221220D02*
X251220D01*
X221220Y332860D02*
X251220D01*
X405250Y322742D02*
Y348742D01*
X420250Y322742D02*
Y348742D01*
X405250Y322742D02*
X420250D01*
X405250Y348742D02*
X420250D01*
X390010D02*
X405010D01*
X390010Y322742D02*
X405010D01*
Y348742D01*
X390010Y322742D02*
Y348742D01*
X324980Y287731D02*
Y313731D01*
X309980Y287731D02*
Y313731D01*
X324980D01*
X309980Y287731D02*
X324980D01*
X314254Y273501D02*
X321254D01*
X314254Y287501D02*
X321254D01*
X314254Y273501D02*
Y287501D01*
X321254Y273501D02*
Y287501D01*
X252970Y428110D02*
Y443110D01*
X282970Y428110D02*
Y443110D01*
X252970D02*
X282970D01*
X252970Y428110D02*
X282970D01*
X256780Y412870D02*
Y427870D01*
X286780Y412870D02*
Y427870D01*
X256780D02*
X286780D01*
X256780Y412870D02*
X286780D01*
X253350Y443540D02*
X267350D01*
X253350Y450540D02*
X267350D01*
Y443540D02*
Y450540D01*
X253350Y443540D02*
Y450540D01*
X295014Y283830D02*
X310014D01*
X295014Y313830D02*
X310014D01*
X295014Y283830D02*
Y313830D01*
X310014Y283830D02*
Y313830D01*
X295421Y506088D02*
X302421D01*
X295421Y521088D02*
X302421D01*
X295421Y506088D02*
Y521088D01*
X302421Y506088D02*
Y521088D01*
X295473Y479768D02*
X302473D01*
X295473Y493768D02*
X302473D01*
X295473Y479768D02*
Y493768D01*
X302473Y479768D02*
Y493768D01*
X288067Y457118D02*
Y464118D01*
X303067Y457118D02*
Y464118D01*
X288067D02*
X303067D01*
X288067Y457118D02*
X303067D01*
X295473Y428322D02*
X302473D01*
X295473Y442322D02*
X302473D01*
X295473Y428322D02*
Y442322D01*
X302473Y428322D02*
Y442322D01*
X303067Y410725D02*
Y417725D01*
X288067Y410725D02*
Y417725D01*
Y410725D02*
X303067D01*
X288067Y417725D02*
X303067D01*
D177*
X539060Y11802D02*
Y96802D01*
X604610Y7052D02*
Y101552D01*
X596810Y11802D02*
X604610Y7052D01*
X539060Y11802D02*
X596810D01*
Y96802D02*
X604610Y101552D01*
X539060Y96802D02*
X596810D01*
M02*
