G04*
G04 #@! TF.GenerationSoftware,Altium Limited,Altium Designer,22.9.1 (49)*
G04*
G04 Layer_Physical_Order=2*
G04 Layer_Color=16711680*
%FSLAX44Y44*%
%MOMM*%
G71*
G04*
G04 #@! TF.SameCoordinates,01709E0F-AE19-4BD8-882A-F161264F200E*
G04*
G04*
G04 #@! TF.FilePolarity,Positive*
G04*
G01*
G75*
%ADD14C,0.1524*%
%ADD16C,0.2540*%
%ADD151C,0.3048*%
%ADD152C,0.2032*%
%ADD153C,0.5080*%
%ADD155C,0.5000*%
%ADD156R,1.6200X1.6200*%
%ADD157C,1.6200*%
%ADD158R,1.3700X1.3700*%
%ADD159C,1.3700*%
%ADD160R,1.5080X1.5080*%
%ADD161C,1.5080*%
%ADD162O,0.8128X1.3000*%
%ADD163O,1.5500X0.8128*%
%ADD164R,1.6200X1.6200*%
%ADD165C,0.3302*%
%ADD166C,0.5588*%
%ADD167C,0.3000*%
G36*
X581914Y659130D02*
X583946D01*
X584708Y658368D01*
X585724D01*
X588264Y655828D01*
Y655574D01*
X589280Y654558D01*
Y654304D01*
X590042Y653542D01*
Y652018D01*
X590550Y651510D01*
Y8382D01*
X590042Y7874D01*
Y6858D01*
X589280Y6096D01*
Y5334D01*
X588264Y4318D01*
Y4064D01*
X587248Y3048D01*
X586994D01*
Y2794D01*
X585978Y1778D01*
X585470D01*
X584708Y1016D01*
X583946D01*
X583184Y254D01*
X581914D01*
X581660Y0D01*
X8128D01*
X7366Y762D01*
X6350D01*
X5842Y1270D01*
X5588D01*
X4572Y2286D01*
X4064D01*
X3302Y3048D01*
X3048D01*
Y3302D01*
X2540Y3810D01*
Y4318D01*
X1524Y5334D01*
Y5842D01*
X508Y6858D01*
Y8890D01*
X0Y9398D01*
Y11938D01*
X191Y12128D01*
Y647791D01*
X197Y647866D01*
X191Y651090D01*
X911Y654199D01*
X5070Y658358D01*
X8888Y659403D01*
X9906Y659638D01*
X581406D01*
X581914Y659130D01*
D02*
G37*
%LPC*%
G36*
X127834Y465201D02*
X126166D01*
X124626Y464563D01*
X123447Y463384D01*
X122809Y461844D01*
Y460176D01*
X123447Y458636D01*
X123917Y458166D01*
X122784Y457034D01*
X122146Y455494D01*
Y453826D01*
X122784Y452286D01*
X123963Y451107D01*
X125504Y450469D01*
X127171D01*
X128711Y451107D01*
X129890Y452286D01*
X130015Y452588D01*
X138482D01*
X138652Y452177D01*
X139831Y450998D01*
X141371Y450360D01*
X143039D01*
X144579Y450998D01*
X145758Y452177D01*
X146396Y453718D01*
Y455385D01*
X145758Y456925D01*
X144579Y458104D01*
X144274Y458231D01*
X144269Y458255D01*
X144907Y459795D01*
Y461463D01*
X144269Y463003D01*
X143090Y464182D01*
X141550Y464820D01*
X139882D01*
X138342Y464182D01*
X137163Y463003D01*
X137117Y462891D01*
X130757D01*
X130553Y463384D01*
X129374Y464563D01*
X127834Y465201D01*
D02*
G37*
G36*
X436444Y452882D02*
X434776D01*
X433236Y452244D01*
X432057Y451065D01*
X431419Y449525D01*
Y447857D01*
X432057Y446317D01*
X433236Y445138D01*
X433279Y445120D01*
Y443372D01*
X433236Y443354D01*
X432057Y442175D01*
X431419Y440635D01*
Y438967D01*
X432057Y437427D01*
X433236Y436248D01*
X434776Y435610D01*
X436444D01*
X437984Y436248D01*
X439163Y437427D01*
X439801Y438967D01*
Y440635D01*
X439163Y442175D01*
X437984Y443354D01*
X437941Y443372D01*
Y445120D01*
X437984Y445138D01*
X439163Y446317D01*
X439801Y447857D01*
Y449525D01*
X439163Y451065D01*
X437984Y452244D01*
X436444Y452882D01*
D02*
G37*
G36*
X480894Y413131D02*
X479226D01*
X477686Y412493D01*
X476723Y411530D01*
X471967D01*
X471004Y412493D01*
X469464Y413131D01*
X467796D01*
X466256Y412493D01*
X465077Y411314D01*
X464439Y409774D01*
Y408106D01*
X465077Y406566D01*
X466256Y405387D01*
X467796Y404749D01*
X469464D01*
X471004Y405387D01*
X471967Y406350D01*
X476723D01*
X477686Y405387D01*
X479226Y404749D01*
X480894D01*
X482434Y405387D01*
X483613Y406566D01*
X484251Y408106D01*
Y409774D01*
X483613Y411314D01*
X482434Y412493D01*
X480894Y413131D01*
D02*
G37*
G36*
X479624Y396621D02*
X477956D01*
X476416Y395983D01*
X475237Y394804D01*
X475112Y394502D01*
X473670D01*
X473544Y394804D01*
X472365Y395983D01*
X470825Y396621D01*
X469158D01*
X467617Y395983D01*
X466438Y394804D01*
X465800Y393264D01*
Y391596D01*
X466438Y390056D01*
X467617Y388877D01*
X469158Y388239D01*
X470825D01*
X472365Y388877D01*
X473544Y390056D01*
X473670Y390358D01*
X475112D01*
X475237Y390056D01*
X476416Y388877D01*
X477956Y388239D01*
X479624D01*
X481164Y388877D01*
X482343Y390056D01*
X482981Y391596D01*
Y393264D01*
X482343Y394804D01*
X481164Y395983D01*
X479624Y396621D01*
D02*
G37*
G36*
X463010Y411960D02*
X441730D01*
Y390680D01*
X463010D01*
Y411960D01*
D02*
G37*
G36*
X92287Y394067D02*
X90620D01*
X89080Y393429D01*
X87901Y392250D01*
X87263Y390710D01*
Y389043D01*
X87901Y387502D01*
X89080Y386323D01*
X90620Y385685D01*
X92287D01*
X93828Y386323D01*
X95007Y387502D01*
X95056Y387621D01*
X104576D01*
X104777Y387136D01*
X105956Y385957D01*
X107496Y385319D01*
X109164D01*
X110704Y385957D01*
X111883Y387136D01*
X112521Y388676D01*
Y390344D01*
X111883Y391884D01*
X110704Y393063D01*
X109164Y393701D01*
X107496D01*
X105956Y393063D01*
X104777Y391884D01*
X104727Y391765D01*
X95208D01*
X95007Y392250D01*
X93828Y393429D01*
X92287Y394067D01*
D02*
G37*
G36*
X517724Y385191D02*
X516056D01*
X514516Y384553D01*
X513337Y383374D01*
X513212Y383072D01*
X504058D01*
X503933Y383374D01*
X502754Y384553D01*
X501214Y385191D01*
X499546D01*
X498006Y384553D01*
X496827Y383374D01*
X496189Y381834D01*
Y380166D01*
X496827Y378626D01*
X498006Y377447D01*
X499546Y376809D01*
X501214D01*
X502754Y377447D01*
X503933Y378626D01*
X504058Y378928D01*
X513212D01*
X513337Y378626D01*
X514516Y377447D01*
X516056Y376809D01*
X517724D01*
X519264Y377447D01*
X520443Y378626D01*
X521081Y380166D01*
Y381834D01*
X520443Y383374D01*
X519264Y384553D01*
X517724Y385191D01*
D02*
G37*
G36*
X531600Y369739D02*
Y366080D01*
X535259D01*
X534603Y367665D01*
X533185Y369083D01*
X531600Y369739D01*
D02*
G37*
G36*
X529060Y369739D02*
X527475Y369083D01*
X526057Y367665D01*
X525401Y366080D01*
X529060D01*
Y369739D01*
D02*
G37*
G36*
X453771Y386560D02*
X450969D01*
X448263Y385835D01*
X445837Y384434D01*
X443856Y382453D01*
X442455Y380027D01*
X441730Y377321D01*
Y374519D01*
X442455Y371813D01*
X443856Y369387D01*
X445837Y367406D01*
X448263Y366005D01*
X450969Y365280D01*
X453771D01*
X456477Y366005D01*
X458903Y367406D01*
X460884Y369387D01*
X462285Y371813D01*
X463010Y374519D01*
Y377321D01*
X462285Y380027D01*
X460884Y382453D01*
X458903Y384434D01*
X456477Y385835D01*
X453771Y386560D01*
D02*
G37*
G36*
X529060Y363540D02*
X525401D01*
X526057Y361955D01*
X527475Y360537D01*
X529060Y359881D01*
Y363540D01*
D02*
G37*
G36*
X535259D02*
X531600D01*
Y359881D01*
X533185Y360537D01*
X534603Y361955D01*
X535259Y363540D01*
D02*
G37*
G36*
X200541Y368780D02*
X197739D01*
X195033Y368055D01*
X192607Y366654D01*
X190626Y364673D01*
X189225Y362247D01*
X188500Y359541D01*
Y356739D01*
X189225Y354033D01*
X190626Y351607D01*
X192607Y349626D01*
X195033Y348225D01*
X197739Y347500D01*
X200541D01*
X203247Y348225D01*
X205673Y349626D01*
X207654Y351607D01*
X209055Y354033D01*
X209780Y356739D01*
Y359541D01*
X209055Y362247D01*
X207654Y364673D01*
X205673Y366654D01*
X203247Y368055D01*
X200541Y368780D01*
D02*
G37*
G36*
X573270Y349750D02*
X554490D01*
Y346242D01*
X540888D01*
X540763Y346544D01*
X539584Y347723D01*
X538044Y348361D01*
X536376D01*
X534836Y347723D01*
X533657Y346544D01*
X533019Y345004D01*
Y343336D01*
X533657Y341796D01*
X534836Y340617D01*
X536058Y340111D01*
X536913Y338856D01*
X536829Y338654D01*
Y336986D01*
X537467Y335446D01*
X538646Y334267D01*
X540186Y333629D01*
X541854D01*
X542156Y333754D01*
X555934Y319976D01*
X555130Y318584D01*
X554490Y316196D01*
Y313724D01*
X555130Y311336D01*
X556366Y309194D01*
X558114Y307446D01*
X560256Y306210D01*
X562644Y305570D01*
X565116D01*
X567504Y306210D01*
X569646Y307446D01*
X571394Y309194D01*
X572630Y311336D01*
X573270Y313724D01*
Y316196D01*
X572630Y318584D01*
X571394Y320726D01*
X569646Y322474D01*
X567504Y323710D01*
X565116Y324350D01*
X562644D01*
X560256Y323710D01*
X558864Y322906D01*
X545086Y336684D01*
X545211Y336986D01*
Y338654D01*
X544573Y340194D01*
X543939Y340828D01*
X544465Y342098D01*
X554490D01*
Y330970D01*
X573270D01*
Y349750D01*
D02*
G37*
G36*
X139264Y353314D02*
X137596D01*
X136056Y352676D01*
X134877Y351497D01*
X134239Y349957D01*
Y348289D01*
X134877Y346749D01*
X136056Y345570D01*
X136358Y345445D01*
Y344038D01*
X136056Y343913D01*
X134877Y342734D01*
X134239Y341194D01*
Y339526D01*
X134877Y337986D01*
X136056Y336807D01*
X137596Y336169D01*
X139264D01*
X140804Y336807D01*
X141983Y337986D01*
X142621Y339526D01*
Y341194D01*
X141983Y342734D01*
X140804Y343913D01*
X140502Y344038D01*
Y345445D01*
X140804Y345570D01*
X141983Y346749D01*
X142621Y348289D01*
Y349957D01*
X141983Y351497D01*
X140804Y352676D01*
X139264Y353314D01*
D02*
G37*
G36*
X427554Y351245D02*
X425886D01*
X424346Y350607D01*
X423167Y349428D01*
X422529Y347888D01*
Y346220D01*
X423167Y344680D01*
X424346Y343501D01*
X424648Y343376D01*
Y341498D01*
X424346Y341373D01*
X423167Y340194D01*
X422529Y338654D01*
Y336986D01*
X423167Y335446D01*
X424346Y334267D01*
X425886Y333629D01*
X427554D01*
X429094Y334267D01*
X430273Y335446D01*
X430911Y336986D01*
Y338654D01*
X430273Y340194D01*
X429094Y341373D01*
X428792Y341498D01*
Y343376D01*
X429094Y343501D01*
X430273Y344680D01*
X430911Y346220D01*
Y347888D01*
X430273Y349428D01*
X429094Y350607D01*
X427554Y351245D01*
D02*
G37*
G36*
X181936Y328041D02*
X180268D01*
X178728Y327403D01*
X178181Y326856D01*
X177634Y327403D01*
X176094Y328041D01*
X174426D01*
X172886Y327403D01*
X171707Y326224D01*
X171069Y324684D01*
Y323016D01*
X171707Y321476D01*
X172886Y320297D01*
X173188Y320172D01*
Y310102D01*
X172017Y308930D01*
X171568Y308258D01*
X171410Y307465D01*
X171410Y307465D01*
Y296540D01*
X171108Y296415D01*
X169929Y295236D01*
X169291Y293696D01*
Y292028D01*
X169929Y290488D01*
X171108Y289309D01*
X172648Y288671D01*
X173013D01*
X173747Y287401D01*
X172965Y286047D01*
X172240Y283341D01*
Y280539D01*
X172965Y277833D01*
X174366Y275407D01*
X176347Y273426D01*
X178773Y272025D01*
X181479Y271300D01*
X184281D01*
X186987Y272025D01*
X189413Y273426D01*
X191394Y275407D01*
X192795Y277833D01*
X193520Y280539D01*
Y283341D01*
X192795Y286047D01*
X191394Y288473D01*
X189413Y290454D01*
X186987Y291855D01*
X185274Y292314D01*
X185039Y292790D01*
Y294458D01*
X184401Y295998D01*
X183222Y297177D01*
X183165Y297201D01*
Y301933D01*
X183583Y302351D01*
X183583Y302351D01*
X184032Y303023D01*
X184190Y303816D01*
X184190Y303816D01*
Y321011D01*
X184655Y321476D01*
X185293Y323016D01*
Y324684D01*
X184655Y326224D01*
X183476Y327403D01*
X181936Y328041D01*
D02*
G37*
G36*
X209780Y343380D02*
X188500D01*
Y322100D01*
X209780D01*
Y343380D01*
D02*
G37*
G36*
X491181Y302641D02*
X489513D01*
X487973Y302003D01*
X486794Y300824D01*
X486554Y300246D01*
X453463D01*
X453452Y300272D01*
X452273Y301451D01*
X450733Y302089D01*
X449066D01*
X447525Y301451D01*
X446346Y300272D01*
X445708Y298731D01*
Y297064D01*
X446113Y296086D01*
X445682Y295907D01*
X444503Y294728D01*
X443865Y293188D01*
Y292098D01*
X443488Y291334D01*
X442724Y290957D01*
X441634D01*
X440094Y290319D01*
X438915Y289140D01*
X438277Y287600D01*
Y285932D01*
X438915Y284392D01*
X440094Y283213D01*
X441634Y282575D01*
X443302D01*
X444842Y283213D01*
X446021Y284392D01*
X446146Y284694D01*
X469578D01*
X469985Y284086D01*
Y282418D01*
X470623Y280878D01*
X471802Y279699D01*
X473342Y279061D01*
X475010D01*
X476550Y279699D01*
X477729Y280878D01*
X478367Y282418D01*
Y284086D01*
X477729Y285626D01*
X476550Y286805D01*
X475010Y287443D01*
X473396D01*
X472608Y288231D01*
X471936Y288680D01*
X471143Y288838D01*
X471143Y288838D01*
X453490D01*
X452828Y290108D01*
X452950Y290282D01*
X481115D01*
X481225Y290117D01*
Y288450D01*
X481863Y286910D01*
X483042Y285731D01*
X484582Y285093D01*
X485956D01*
X486637Y284391D01*
X486867Y283974D01*
X486791Y283790D01*
Y282122D01*
X487429Y280582D01*
X488608Y279403D01*
X490148Y278765D01*
X491816D01*
X493356Y279403D01*
X494535Y280582D01*
X495173Y282122D01*
Y283790D01*
X494535Y285330D01*
X493356Y286509D01*
X492736Y286766D01*
Y294912D01*
X493900Y296076D01*
X494538Y297616D01*
Y299284D01*
X493900Y300824D01*
X492721Y302003D01*
X491181Y302641D01*
D02*
G37*
G36*
X101164Y319151D02*
X99496D01*
X97956Y318513D01*
X96777Y317334D01*
X96139Y315794D01*
Y314126D01*
X96445Y313387D01*
Y302563D01*
X96139Y301824D01*
Y300156D01*
X96777Y298616D01*
X97956Y297437D01*
X99496Y296799D01*
X101164D01*
X102704Y297437D01*
X103883Y298616D01*
X104521Y300156D01*
Y301824D01*
X104215Y302563D01*
Y313387D01*
X104521Y314126D01*
Y315794D01*
X103883Y317334D01*
X102704Y318513D01*
X101164Y319151D01*
D02*
G37*
G36*
X532130Y293219D02*
Y289560D01*
X535789D01*
X535133Y291145D01*
X533715Y292563D01*
X532130Y293219D01*
D02*
G37*
G36*
X529590Y293219D02*
X528005Y292563D01*
X526587Y291145D01*
X525931Y289560D01*
X529590D01*
Y293219D01*
D02*
G37*
G36*
X535789Y287020D02*
X532130D01*
Y283361D01*
X533715Y284017D01*
X535133Y285435D01*
X535789Y287020D01*
D02*
G37*
G36*
X529590D02*
X525931D01*
X526587Y285435D01*
X528005Y284017D01*
X529590Y283361D01*
Y287020D01*
D02*
G37*
G36*
X565116Y298950D02*
X562644D01*
X560256Y298310D01*
X558114Y297074D01*
X556366Y295326D01*
X555130Y293184D01*
X554490Y290796D01*
Y288324D01*
X555130Y285936D01*
X556366Y283794D01*
X558114Y282046D01*
X560256Y280810D01*
X562644Y280170D01*
X565116D01*
X567504Y280810D01*
X569646Y282046D01*
X571394Y283794D01*
X572630Y285936D01*
X573270Y288324D01*
Y290796D01*
X572630Y293184D01*
X571394Y295326D01*
X569646Y297074D01*
X567504Y298310D01*
X565116Y298950D01*
D02*
G37*
G36*
X216051Y295608D02*
X214384D01*
X212843Y294970D01*
X211664Y293791D01*
X211026Y292251D01*
Y291255D01*
X208068Y288297D01*
X207327D01*
X205786Y287659D01*
X204607Y286480D01*
X203969Y284940D01*
Y283272D01*
X204607Y281732D01*
X205786Y280553D01*
X207327Y279915D01*
X208994D01*
X210534Y280553D01*
X211713Y281732D01*
X212351Y283272D01*
Y284522D01*
X215055Y287226D01*
X216051D01*
X217591Y287864D01*
X218770Y289043D01*
X219408Y290584D01*
Y292251D01*
X218770Y293791D01*
X217591Y294970D01*
X216051Y295608D01*
D02*
G37*
G36*
X363853Y286960D02*
X362186D01*
X360645Y286322D01*
X359466Y285143D01*
X358828Y283603D01*
Y281935D01*
X358968Y281598D01*
X354363Y276993D01*
X354096Y277104D01*
X352428D01*
X350888Y276466D01*
X349709Y275287D01*
X349071Y273746D01*
Y272079D01*
X349709Y270539D01*
X350888Y269360D01*
X352428Y268722D01*
X353657D01*
Y268396D01*
X354296Y266856D01*
X355475Y265677D01*
X357015Y265039D01*
X358682D01*
X360223Y265677D01*
X361401Y266856D01*
X362039Y268396D01*
Y270063D01*
X361881Y270446D01*
X366736Y275301D01*
X366958Y275209D01*
X368626D01*
X370166Y275847D01*
X371345Y277026D01*
X371983Y278566D01*
Y280234D01*
X371345Y281774D01*
X370166Y282953D01*
X368626Y283591D01*
X367210D01*
Y283603D01*
X366572Y285143D01*
X365393Y286322D01*
X363853Y286960D01*
D02*
G37*
G36*
X262708Y301117D02*
X261040D01*
X259500Y300479D01*
X258321Y299300D01*
X257683Y297760D01*
Y296092D01*
X258321Y294552D01*
X259025Y293848D01*
Y288163D01*
X259025Y288163D01*
X259242Y287073D01*
X259860Y286149D01*
X260295Y285713D01*
Y280954D01*
X259591Y280250D01*
X258953Y278710D01*
Y277042D01*
X259591Y275502D01*
X260770Y274323D01*
X262310Y273685D01*
X263978D01*
X265518Y274323D01*
X266697Y275502D01*
X267335Y277042D01*
Y278710D01*
X266697Y280250D01*
X265993Y280954D01*
Y286893D01*
X265993Y286893D01*
X265776Y287983D01*
X265158Y288907D01*
X265158Y288908D01*
X264723Y289343D01*
Y293848D01*
X265427Y294552D01*
X266065Y296092D01*
Y297760D01*
X265427Y299300D01*
X264248Y300479D01*
X262708Y301117D01*
D02*
G37*
G36*
X193520Y267180D02*
X172240D01*
Y245900D01*
X193520D01*
Y267180D01*
D02*
G37*
G36*
X171422Y190214D02*
X162052D01*
Y180844D01*
X171422D01*
Y190214D01*
D02*
G37*
G36*
X159512D02*
X150142D01*
Y180844D01*
X159512D01*
Y190214D01*
D02*
G37*
G36*
X187583D02*
X184781D01*
X182075Y189489D01*
X179649Y188088D01*
X177668Y186107D01*
X176267Y183681D01*
X175542Y180975D01*
Y178173D01*
X176267Y175467D01*
X177668Y173041D01*
X179649Y171060D01*
X182075Y169659D01*
X184781Y168934D01*
X187583D01*
X190289Y169659D01*
X192715Y171060D01*
X194696Y173041D01*
X196097Y175467D01*
X196822Y178173D01*
Y180975D01*
X196097Y183681D01*
X194696Y186107D01*
X192715Y188088D01*
X190289Y189489D01*
X187583Y190214D01*
D02*
G37*
G36*
X171422Y178304D02*
X162052D01*
Y168934D01*
X171422D01*
Y178304D01*
D02*
G37*
G36*
X159512D02*
X150142D01*
Y168934D01*
X159512D01*
Y178304D01*
D02*
G37*
G36*
X160151Y137382D02*
X157349D01*
X154643Y136657D01*
X152217Y135256D01*
X150236Y133275D01*
X148835Y130849D01*
X148110Y128143D01*
Y125341D01*
X148835Y122635D01*
X150236Y120209D01*
X152217Y118228D01*
X154643Y116827D01*
X157349Y116102D01*
X160151D01*
X162857Y116827D01*
X165283Y118228D01*
X167264Y120209D01*
X168665Y122635D01*
X169390Y125341D01*
Y128143D01*
X168665Y130849D01*
X167264Y133275D01*
X165283Y135256D01*
X162857Y136657D01*
X160151Y137382D01*
D02*
G37*
G36*
X143990D02*
X122710D01*
Y116102D01*
X143990D01*
Y137382D01*
D02*
G37*
G36*
X578996Y95963D02*
X576580D01*
Y90572D01*
X585490D01*
X585430Y91026D01*
X584765Y92633D01*
X583706Y94012D01*
X582327Y95071D01*
X580720Y95736D01*
X578996Y95963D01*
D02*
G37*
G36*
X574040D02*
X571624D01*
X569900Y95736D01*
X568293Y95071D01*
X566914Y94012D01*
X565855Y92633D01*
X565190Y91026D01*
X565130Y90572D01*
X574040D01*
Y95963D01*
D02*
G37*
G36*
X585490Y88032D02*
X576580D01*
Y82641D01*
X578996D01*
X580720Y82868D01*
X582327Y83533D01*
X583706Y84592D01*
X584765Y85972D01*
X585430Y87578D01*
X585490Y88032D01*
D02*
G37*
G36*
X574040D02*
X565130D01*
X565190Y87578D01*
X565855Y85972D01*
X566914Y84592D01*
X568293Y83533D01*
X569900Y82868D01*
X571624Y82641D01*
X574040D01*
Y88032D01*
D02*
G37*
G36*
X549580Y88232D02*
Y80572D01*
X554971D01*
Y81738D01*
X554744Y83462D01*
X554079Y85069D01*
X553020Y86448D01*
X551641Y87507D01*
X550034Y88172D01*
X549580Y88232D01*
D02*
G37*
G36*
X547040D02*
X546586Y88172D01*
X544980Y87507D01*
X543600Y86448D01*
X542541Y85069D01*
X541876Y83462D01*
X541649Y81738D01*
Y80572D01*
X547040D01*
Y88232D01*
D02*
G37*
G36*
X554971Y78032D02*
X549580D01*
Y70372D01*
X550034Y70432D01*
X551641Y71097D01*
X553020Y72156D01*
X554079Y73536D01*
X554744Y75142D01*
X554971Y76866D01*
Y78032D01*
D02*
G37*
G36*
X547040D02*
X541649D01*
Y76866D01*
X541876Y75142D01*
X542541Y73536D01*
X543600Y72156D01*
X544980Y71097D01*
X546586Y70432D01*
X547040Y70372D01*
Y78032D01*
D02*
G37*
G36*
X549580Y38232D02*
Y30572D01*
X554971D01*
Y31738D01*
X554744Y33462D01*
X554079Y35069D01*
X553020Y36448D01*
X551641Y37507D01*
X550034Y38172D01*
X549580Y38232D01*
D02*
G37*
G36*
X547040D02*
X546586Y38172D01*
X544980Y37507D01*
X543600Y36448D01*
X542541Y35069D01*
X541876Y33462D01*
X541649Y31738D01*
Y30572D01*
X547040D01*
Y38232D01*
D02*
G37*
G36*
X196853Y38528D02*
X196796D01*
Y29718D01*
X205606D01*
Y29775D01*
X204919Y32339D01*
X203592Y34637D01*
X201715Y36514D01*
X199417Y37841D01*
X196853Y38528D01*
D02*
G37*
G36*
X194256D02*
X194199D01*
X191635Y37841D01*
X189337Y36514D01*
X187460Y34637D01*
X186133Y32339D01*
X185446Y29775D01*
Y29718D01*
X194256D01*
Y38528D01*
D02*
G37*
G36*
X438153Y37992D02*
X438096D01*
Y29182D01*
X446906D01*
Y29239D01*
X446219Y31803D01*
X444892Y34101D01*
X443015Y35978D01*
X440717Y37305D01*
X438153Y37992D01*
D02*
G37*
G36*
X435556D02*
X435499D01*
X432935Y37305D01*
X430637Y35978D01*
X428760Y34101D01*
X427433Y31803D01*
X426746Y29239D01*
Y29182D01*
X435556D01*
Y37992D01*
D02*
G37*
G36*
X578996Y25963D02*
X576580D01*
Y20572D01*
X585490D01*
X585430Y21026D01*
X584765Y22633D01*
X583706Y24012D01*
X582327Y25071D01*
X580720Y25736D01*
X578996Y25963D01*
D02*
G37*
G36*
X574040D02*
X571624D01*
X569900Y25736D01*
X568293Y25071D01*
X566914Y24012D01*
X565855Y22633D01*
X565190Y21026D01*
X565130Y20572D01*
X574040D01*
Y25963D01*
D02*
G37*
G36*
X554971Y28032D02*
X549580D01*
Y20372D01*
X550034Y20432D01*
X551641Y21098D01*
X553020Y22156D01*
X554079Y23536D01*
X554744Y25142D01*
X554971Y26866D01*
Y28032D01*
D02*
G37*
G36*
X547040D02*
X541649D01*
Y26866D01*
X541876Y25142D01*
X542541Y23536D01*
X543600Y22156D01*
X544980Y21098D01*
X546586Y20432D01*
X547040Y20372D01*
Y28032D01*
D02*
G37*
G36*
X230606Y38528D02*
X210446D01*
Y18368D01*
X230606D01*
Y38528D01*
D02*
G37*
G36*
X205606Y27178D02*
X196796D01*
Y18368D01*
X196853D01*
X199417Y19055D01*
X201715Y20382D01*
X203592Y22259D01*
X204919Y24557D01*
X205606Y27121D01*
Y27178D01*
D02*
G37*
G36*
X194256D02*
X185446D01*
Y27121D01*
X186133Y24557D01*
X187460Y22259D01*
X189337Y20382D01*
X191635Y19055D01*
X194199Y18368D01*
X194256D01*
Y27178D01*
D02*
G37*
G36*
X471906Y37992D02*
X451746D01*
Y17832D01*
X471906D01*
Y37992D01*
D02*
G37*
G36*
X446906Y26642D02*
X438096D01*
Y17832D01*
X438153D01*
X440717Y18519D01*
X443015Y19846D01*
X444892Y21723D01*
X446219Y24021D01*
X446906Y26585D01*
Y26642D01*
D02*
G37*
G36*
X435556D02*
X426746D01*
Y26585D01*
X427433Y24021D01*
X428760Y21723D01*
X430637Y19846D01*
X432935Y18519D01*
X435499Y17832D01*
X435556D01*
Y26642D01*
D02*
G37*
G36*
X585490Y18032D02*
X576580D01*
Y12641D01*
X578996D01*
X580720Y12868D01*
X582327Y13534D01*
X583706Y14592D01*
X584765Y15972D01*
X585430Y17578D01*
X585490Y18032D01*
D02*
G37*
G36*
X574040D02*
X565130D01*
X565190Y17578D01*
X565855Y15972D01*
X566914Y14592D01*
X568293Y13534D01*
X569900Y12868D01*
X571624Y12641D01*
X574040D01*
Y18032D01*
D02*
G37*
%LPD*%
D14*
X140526Y460820D02*
X140716Y460629D01*
X127191Y460820D02*
X140526D01*
X127000Y461010D02*
X127191Y460820D01*
X126337Y454660D02*
X142096D01*
X142205Y454551D01*
X353262Y272962D02*
X363019Y282719D01*
X367792Y279287D02*
Y279400D01*
X357849Y269230D02*
Y269343D01*
X367792Y279287D01*
X353262Y272913D02*
Y272962D01*
X363019Y282719D02*
Y282769D01*
X469991Y392430D02*
X478790D01*
X180848Y293624D02*
X181093Y293869D01*
Y302791D01*
X175260Y309244D02*
Y323850D01*
X173482Y292862D02*
Y307465D01*
X175260Y309244D01*
X182118Y303816D02*
Y322353D01*
X181102Y323369D02*
Y323850D01*
Y323369D02*
X182118Y322353D01*
X181093Y302791D02*
X182118Y303816D01*
X471143Y286766D02*
X474176Y283733D01*
X442468Y286766D02*
X471143D01*
X474176Y283252D02*
Y283733D01*
X482346Y292354D02*
X485416Y289284D01*
Y289284D02*
Y289284D01*
X448056Y292354D02*
X482346D01*
X490664Y283274D02*
X490982Y282956D01*
X490220Y298450D02*
X490664Y298006D01*
Y283274D02*
Y298006D01*
X490071Y298174D02*
X490347Y298450D01*
X450176Y298174D02*
X490071D01*
X449899Y297898D02*
X450176Y298174D01*
X138430Y340360D02*
Y349123D01*
X537210Y344170D02*
X560070D01*
X563880Y340360D01*
X541020Y337820D02*
X563880Y314960D01*
X500380Y381000D02*
X516890D01*
X91637Y389693D02*
X108147D01*
X91454Y389876D02*
X91637Y389693D01*
X108147D02*
X108330Y389510D01*
X426720Y337820D02*
Y347054D01*
D16*
X468630Y408940D02*
X480060D01*
D151*
X208209Y284155D02*
Y284409D01*
X208160Y284106D02*
X208209Y284155D01*
Y284409D02*
X215217Y291417D01*
X263144Y277876D02*
Y286893D01*
X261874Y288163D02*
X263144Y286893D01*
X261874Y288163D02*
Y296926D01*
D152*
X435610Y439801D02*
Y448691D01*
D153*
X100330Y300990D02*
Y314960D01*
D155*
X530330Y364810D02*
D03*
X530860Y288290D02*
D03*
X282412Y384460D02*
D03*
X295199D02*
D03*
X308255D02*
D03*
X269588Y371597D02*
D03*
X308255D02*
D03*
X282412D02*
D03*
X295199D02*
D03*
X282412Y345825D02*
D03*
X295199D02*
D03*
X269588D02*
D03*
X282412Y358472D02*
D03*
X295199D02*
D03*
X269588D02*
D03*
X308255D02*
D03*
Y345825D02*
D03*
X269588Y384460D02*
D03*
D156*
X452370Y401320D02*
D03*
X182880Y256540D02*
D03*
X199140Y332740D02*
D03*
D157*
X452370Y375920D02*
D03*
X182880Y281940D02*
D03*
X199140Y358140D02*
D03*
X158750Y126742D02*
D03*
X186182Y179574D02*
D03*
D158*
X563880Y340360D02*
D03*
D159*
Y314960D02*
D03*
Y289560D02*
D03*
D160*
X461826Y27912D02*
D03*
X220526Y28448D02*
D03*
D161*
X436826Y27912D02*
D03*
X195526Y28448D02*
D03*
D162*
X548310Y29302D02*
D03*
Y79302D02*
D03*
D163*
X575310Y19302D02*
D03*
Y89302D02*
D03*
D164*
X133350Y126742D02*
D03*
X160782Y179574D02*
D03*
D165*
X533908Y312420D02*
D03*
X351028Y364744D02*
D03*
X140716Y460629D02*
D03*
X142205Y454551D02*
D03*
X143256Y370586D02*
D03*
X396494Y397764D02*
D03*
X396240Y380746D02*
D03*
X423926Y375412D02*
D03*
X491236Y426720D02*
D03*
X533908Y388112D02*
D03*
X446535Y337051D02*
D03*
X357849Y269230D02*
D03*
X353262Y272913D02*
D03*
X247142Y79756D02*
D03*
X264414Y112776D02*
D03*
X287782Y43688D02*
D03*
X228092Y330962D02*
D03*
X45466Y416814D02*
D03*
X99314Y421640D02*
D03*
X257810Y427482D02*
D03*
X333248Y423164D02*
D03*
X520954Y349504D02*
D03*
X254508Y298450D02*
D03*
X269240Y298196D02*
D03*
X254508Y267970D02*
D03*
X409702Y290576D02*
D03*
X347726Y293624D02*
D03*
X332486Y293878D02*
D03*
X287528Y298450D02*
D03*
X302260Y298196D02*
D03*
X367792Y279400D02*
D03*
X363019Y282769D02*
D03*
X360934Y405892D02*
D03*
X412242Y429006D02*
D03*
X572770Y482600D02*
D03*
X516382Y446532D02*
D03*
X469991Y392430D02*
D03*
X222758Y315468D02*
D03*
X92456Y439674D02*
D03*
X77470Y355092D02*
D03*
X250444Y228600D02*
D03*
X237744Y156972D02*
D03*
X237490Y169418D02*
D03*
X133604Y181864D02*
D03*
X249682Y215265D02*
D03*
X332232Y217678D02*
D03*
X315976Y216408D02*
D03*
X59690Y58420D02*
D03*
X100330Y300990D02*
D03*
X180848Y293624D02*
D03*
X173482Y292862D02*
D03*
X187452Y304292D02*
D03*
X170434Y309626D02*
D03*
X208160Y284106D02*
D03*
X215217Y291417D02*
D03*
X485416Y289284D02*
D03*
X474176Y283252D02*
D03*
X466513Y281516D02*
D03*
X450345Y281584D02*
D03*
X466163Y302333D02*
D03*
X490982Y282956D02*
D03*
X442468Y286766D02*
D03*
X449899Y297898D02*
D03*
X448056Y292354D02*
D03*
X490347Y298450D02*
D03*
X480060Y303530D02*
D03*
X175260Y323850D02*
D03*
X181102D02*
D03*
X127000Y461010D02*
D03*
X126337Y454660D02*
D03*
X100330Y314960D02*
D03*
X138430Y340360D02*
D03*
X263144Y277876D02*
D03*
X261874Y296926D02*
D03*
X537210Y344170D02*
D03*
X541020Y337820D02*
D03*
X500380Y381000D02*
D03*
X516890D02*
D03*
X435610Y448691D02*
D03*
Y439801D02*
D03*
X478790Y392430D02*
D03*
X91454Y389876D02*
D03*
X108330Y389510D02*
D03*
X468630Y408940D02*
D03*
X480060D02*
D03*
X138430Y349123D02*
D03*
X426720Y347054D02*
D03*
Y337820D02*
D03*
X384048Y73152D02*
D03*
D166*
X266167Y558521D02*
D03*
X256079D02*
D03*
X585617Y548441D02*
D03*
Y528764D02*
D03*
X580698Y558280D02*
D03*
X575779Y548441D02*
D03*
X580698Y538603D02*
D03*
X575779Y528764D02*
D03*
X580698Y518925D02*
D03*
X570859Y558280D02*
D03*
X565940Y548441D02*
D03*
X570859Y538603D02*
D03*
X565940Y528764D02*
D03*
X570859Y518925D02*
D03*
X561021Y558280D02*
D03*
X556101Y548441D02*
D03*
X561021Y538603D02*
D03*
X556101Y528764D02*
D03*
X561021Y518925D02*
D03*
X551182Y558280D02*
D03*
X546263Y548441D02*
D03*
X551182Y538603D02*
D03*
X546263Y528764D02*
D03*
X551182Y518925D02*
D03*
X541343Y558280D02*
D03*
X536424Y548441D02*
D03*
X541343Y538603D02*
D03*
X536424Y528764D02*
D03*
X541343Y518925D02*
D03*
X531505Y558280D02*
D03*
X526585Y548441D02*
D03*
X531505Y538603D02*
D03*
X526585Y528764D02*
D03*
X531505Y518925D02*
D03*
X521666Y558280D02*
D03*
X516746Y548441D02*
D03*
X521666Y538603D02*
D03*
X516746Y528764D02*
D03*
X521666Y518925D02*
D03*
X511827Y558280D02*
D03*
X506908Y548441D02*
D03*
X511827Y538603D02*
D03*
X506908Y528764D02*
D03*
X511827Y518925D02*
D03*
X501988Y558280D02*
D03*
X497069Y548441D02*
D03*
X501988Y538603D02*
D03*
X497069Y528764D02*
D03*
X501988Y518925D02*
D03*
X492150Y558280D02*
D03*
X487230Y548441D02*
D03*
X492150Y538603D02*
D03*
X487230Y528764D02*
D03*
X492150Y518925D02*
D03*
X482311Y558280D02*
D03*
X477392Y548441D02*
D03*
X482311Y538603D02*
D03*
X477392Y528764D02*
D03*
X482311Y518925D02*
D03*
X472472Y558280D02*
D03*
X467553Y548441D02*
D03*
X472472Y538603D02*
D03*
X467553Y528764D02*
D03*
X472472Y518925D02*
D03*
X462634Y558280D02*
D03*
X457714Y548441D02*
D03*
X462634Y538603D02*
D03*
X457714Y528764D02*
D03*
X462634Y518925D02*
D03*
X452795Y558280D02*
D03*
X447876Y548441D02*
D03*
X452795Y538603D02*
D03*
X447876Y528764D02*
D03*
X452795Y518925D02*
D03*
X442956Y558280D02*
D03*
X438037Y548441D02*
D03*
X442956Y538603D02*
D03*
X438037Y528764D02*
D03*
X442956Y518925D02*
D03*
X438037Y509087D02*
D03*
Y489409D02*
D03*
Y469732D02*
D03*
X433118Y558280D02*
D03*
X428198Y548441D02*
D03*
X433118Y538603D02*
D03*
X428198Y528764D02*
D03*
X433118Y518925D02*
D03*
X428198Y509087D02*
D03*
X433118Y499248D02*
D03*
X428198Y489409D02*
D03*
X433118Y479571D02*
D03*
X428198Y469732D02*
D03*
X433118Y459893D02*
D03*
X423279Y558280D02*
D03*
X418360Y548441D02*
D03*
X423279Y538603D02*
D03*
X418360Y528764D02*
D03*
X423279Y518925D02*
D03*
X418360Y509087D02*
D03*
X423279Y499248D02*
D03*
X418360Y489409D02*
D03*
X423279Y479571D02*
D03*
X418360Y469732D02*
D03*
X423279Y459893D02*
D03*
X413440Y558280D02*
D03*
X408521Y548441D02*
D03*
X413440Y538603D02*
D03*
X408521Y528764D02*
D03*
X413440Y518925D02*
D03*
X408521Y509087D02*
D03*
X413440Y499248D02*
D03*
X408521Y489409D02*
D03*
X413440Y479571D02*
D03*
X408521Y469732D02*
D03*
X413440Y459893D02*
D03*
X403602Y558280D02*
D03*
X398682Y548441D02*
D03*
X403602Y538603D02*
D03*
X398682Y528764D02*
D03*
X403602Y518925D02*
D03*
X398682Y509087D02*
D03*
X403602Y499248D02*
D03*
X398682Y489409D02*
D03*
X403602Y479571D02*
D03*
X398682Y469732D02*
D03*
X403602Y459893D02*
D03*
X393763Y558280D02*
D03*
X388843Y548441D02*
D03*
X393763Y538603D02*
D03*
X388843Y528764D02*
D03*
X393763Y518925D02*
D03*
X388843Y509087D02*
D03*
X393763Y499248D02*
D03*
X388843Y489409D02*
D03*
X393763Y479571D02*
D03*
X388843Y469732D02*
D03*
X393763Y459893D02*
D03*
X383924Y558280D02*
D03*
X379005Y548441D02*
D03*
X383924Y538603D02*
D03*
X379005Y528764D02*
D03*
X383924Y518925D02*
D03*
X379005Y509087D02*
D03*
X383924Y499248D02*
D03*
X379005Y489409D02*
D03*
X383924Y479571D02*
D03*
X379005Y469732D02*
D03*
X383924Y459893D02*
D03*
X374086Y558280D02*
D03*
X369166Y548441D02*
D03*
X374086Y538603D02*
D03*
X369166Y528764D02*
D03*
X374086Y518925D02*
D03*
X369166Y509087D02*
D03*
X374086Y499248D02*
D03*
X369166Y489409D02*
D03*
X374086Y479571D02*
D03*
X369166Y469732D02*
D03*
X374086Y459893D02*
D03*
X364247Y558280D02*
D03*
X359328Y548441D02*
D03*
X364247Y538603D02*
D03*
X359328Y528764D02*
D03*
X364247Y518925D02*
D03*
X359328Y509087D02*
D03*
X364247Y499248D02*
D03*
X359328Y489409D02*
D03*
X364247Y479571D02*
D03*
X359328Y469732D02*
D03*
X364247Y459893D02*
D03*
X354408Y558280D02*
D03*
X349489Y548441D02*
D03*
X354408Y538603D02*
D03*
X349489Y528764D02*
D03*
X354408Y518925D02*
D03*
X349489Y509087D02*
D03*
X354408Y499248D02*
D03*
X349489Y489409D02*
D03*
X354408Y479571D02*
D03*
X349489Y469732D02*
D03*
X354408Y459893D02*
D03*
X344569Y558280D02*
D03*
X339650Y548441D02*
D03*
X344569Y538603D02*
D03*
X339650Y528764D02*
D03*
X344569Y518925D02*
D03*
X339650Y509087D02*
D03*
X344569Y499248D02*
D03*
X339650Y489409D02*
D03*
X344569Y479571D02*
D03*
X339650Y469732D02*
D03*
X344569Y459893D02*
D03*
X334731Y558280D02*
D03*
X329811Y548441D02*
D03*
X334731Y538603D02*
D03*
X329811Y528764D02*
D03*
X334731Y518925D02*
D03*
X329811Y509087D02*
D03*
X334731Y499248D02*
D03*
X329811Y489409D02*
D03*
X334731Y479571D02*
D03*
X329811Y469732D02*
D03*
X334731Y459893D02*
D03*
X324892Y558280D02*
D03*
X319973Y548441D02*
D03*
X324892Y538603D02*
D03*
X319973Y528764D02*
D03*
X324892Y518925D02*
D03*
X319973Y509087D02*
D03*
X324892Y499248D02*
D03*
X319973Y489409D02*
D03*
X324892Y479571D02*
D03*
X319973Y469732D02*
D03*
X324892Y459893D02*
D03*
X319973Y450054D02*
D03*
X315053Y558280D02*
D03*
X310134Y548441D02*
D03*
X315053Y538603D02*
D03*
X310134Y528764D02*
D03*
X315053Y518925D02*
D03*
X310134Y509087D02*
D03*
X315053Y499248D02*
D03*
X310134Y489409D02*
D03*
X315053Y479571D02*
D03*
X310134Y469732D02*
D03*
X315053Y459893D02*
D03*
X310134Y450054D02*
D03*
X315053Y440216D02*
D03*
X290457Y548441D02*
D03*
Y528764D02*
D03*
Y509087D02*
D03*
Y489409D02*
D03*
Y469732D02*
D03*
Y450054D02*
D03*
Y430377D02*
D03*
X285537Y558280D02*
D03*
X280618Y548441D02*
D03*
X285537Y538603D02*
D03*
X280618Y528764D02*
D03*
X285537Y518925D02*
D03*
X280618Y509087D02*
D03*
X285537Y499248D02*
D03*
X280618Y489409D02*
D03*
X285537Y479571D02*
D03*
X280618Y469732D02*
D03*
X285537Y459893D02*
D03*
X280618Y450054D02*
D03*
X285537Y440216D02*
D03*
X275699Y558280D02*
D03*
X270779Y548441D02*
D03*
X275699Y538603D02*
D03*
X270779Y528764D02*
D03*
X275699Y518925D02*
D03*
X270779Y509087D02*
D03*
X275699Y499248D02*
D03*
X270779Y489409D02*
D03*
X275699Y479571D02*
D03*
X270779Y469732D02*
D03*
X275699Y459893D02*
D03*
X260941Y548441D02*
D03*
X265860Y538603D02*
D03*
X260941Y528764D02*
D03*
X265860Y518925D02*
D03*
X260941Y509087D02*
D03*
X265860Y499248D02*
D03*
X260941Y489409D02*
D03*
X265860Y479571D02*
D03*
X260941Y469732D02*
D03*
X265860Y459893D02*
D03*
X251102Y548441D02*
D03*
X256021Y538603D02*
D03*
X251102Y528764D02*
D03*
X256021Y518925D02*
D03*
X251102Y509087D02*
D03*
X256021Y499248D02*
D03*
X251102Y489409D02*
D03*
X256021Y479571D02*
D03*
X251102Y469732D02*
D03*
X256021Y459893D02*
D03*
X246182Y558280D02*
D03*
X241263Y548441D02*
D03*
X246182Y538603D02*
D03*
X241263Y528764D02*
D03*
X246182Y518925D02*
D03*
X241263Y509087D02*
D03*
X246182Y499248D02*
D03*
X241263Y489409D02*
D03*
X246182Y479571D02*
D03*
X241263Y469732D02*
D03*
X246182Y459893D02*
D03*
X236344Y558280D02*
D03*
X231425Y548441D02*
D03*
X236344Y538603D02*
D03*
X231425Y528764D02*
D03*
X236344Y518925D02*
D03*
X231425Y509087D02*
D03*
X236344Y499248D02*
D03*
X231425Y489409D02*
D03*
X236344Y479571D02*
D03*
X231425Y469732D02*
D03*
X236344Y459893D02*
D03*
X226505Y558280D02*
D03*
X221586Y548441D02*
D03*
X226505Y538603D02*
D03*
X221586Y528764D02*
D03*
X226505Y518925D02*
D03*
X221586Y509087D02*
D03*
X226505Y499248D02*
D03*
X221586Y489409D02*
D03*
X226505Y479571D02*
D03*
X221586Y469732D02*
D03*
X226505Y459893D02*
D03*
X216667Y558280D02*
D03*
X211747Y548441D02*
D03*
X216667Y538603D02*
D03*
X211747Y528764D02*
D03*
X216667Y518925D02*
D03*
X211747Y509087D02*
D03*
X216667Y499248D02*
D03*
X211747Y489409D02*
D03*
X216667Y479571D02*
D03*
X211747Y469732D02*
D03*
X216667Y459893D02*
D03*
X206828Y558280D02*
D03*
X201908Y548441D02*
D03*
X206828Y538603D02*
D03*
X201908Y528764D02*
D03*
X206828Y518925D02*
D03*
X201908Y509087D02*
D03*
X206828Y499248D02*
D03*
X201908Y489409D02*
D03*
X206828Y479571D02*
D03*
X201908Y469732D02*
D03*
X206828Y459893D02*
D03*
X196989Y558280D02*
D03*
X192070Y548441D02*
D03*
X196989Y538603D02*
D03*
X192070Y528764D02*
D03*
X196989Y518925D02*
D03*
X192070Y509087D02*
D03*
X196989Y499248D02*
D03*
X192070Y489409D02*
D03*
X196989Y479571D02*
D03*
X192070Y469732D02*
D03*
X196989Y459893D02*
D03*
X187150Y558280D02*
D03*
X182231Y548441D02*
D03*
X187150Y538603D02*
D03*
X182231Y528764D02*
D03*
X187150Y518925D02*
D03*
X182231Y509087D02*
D03*
X187150Y499248D02*
D03*
X182231Y489409D02*
D03*
X187150Y479571D02*
D03*
X182231Y469732D02*
D03*
X177312Y558280D02*
D03*
X172392Y548441D02*
D03*
X177312Y538603D02*
D03*
X172392Y528764D02*
D03*
X177312Y518925D02*
D03*
X172392Y509087D02*
D03*
X177312Y499248D02*
D03*
X172392Y489409D02*
D03*
X177312Y479571D02*
D03*
X167473Y558280D02*
D03*
X162554Y548441D02*
D03*
X167473Y538603D02*
D03*
X162554Y528764D02*
D03*
X167473Y518925D02*
D03*
X162554Y509087D02*
D03*
X167473Y499248D02*
D03*
X162554Y489409D02*
D03*
X167473Y479571D02*
D03*
X157634Y558280D02*
D03*
X152715Y548441D02*
D03*
X157634Y538603D02*
D03*
X152715Y528764D02*
D03*
X157634Y518925D02*
D03*
X152715Y509087D02*
D03*
X157634Y499248D02*
D03*
X147796Y558280D02*
D03*
X142876Y548441D02*
D03*
X147796Y538603D02*
D03*
X142876Y528764D02*
D03*
X147796Y518925D02*
D03*
X142876Y509087D02*
D03*
X147796Y499248D02*
D03*
X137957Y558280D02*
D03*
X133038Y548441D02*
D03*
X137957Y538603D02*
D03*
X133038Y528764D02*
D03*
X137957Y518925D02*
D03*
X128118Y558280D02*
D03*
X123199Y548441D02*
D03*
X128118Y538603D02*
D03*
X123199Y528764D02*
D03*
X128118Y518925D02*
D03*
X118280Y558280D02*
D03*
X113360Y548441D02*
D03*
X118280Y538603D02*
D03*
X113360Y528764D02*
D03*
X118280Y518925D02*
D03*
X108441Y558280D02*
D03*
X103521Y548441D02*
D03*
X108441Y538603D02*
D03*
X103521Y528764D02*
D03*
X108441Y518925D02*
D03*
X98602Y558280D02*
D03*
X93683Y548441D02*
D03*
X98602Y538603D02*
D03*
X93683Y528764D02*
D03*
X98602Y518925D02*
D03*
X88764Y558280D02*
D03*
X83844Y548441D02*
D03*
X88764Y538603D02*
D03*
X83844Y528764D02*
D03*
X88764Y518925D02*
D03*
X78925Y558280D02*
D03*
X74005Y548441D02*
D03*
X78925Y538603D02*
D03*
X74005Y528764D02*
D03*
X78925Y518925D02*
D03*
X69086Y558280D02*
D03*
X64167Y548441D02*
D03*
X69086Y538603D02*
D03*
X64167Y528764D02*
D03*
X69086Y518925D02*
D03*
X59247Y558280D02*
D03*
X54328Y548441D02*
D03*
X59247Y538603D02*
D03*
X54328Y528764D02*
D03*
X59247Y518925D02*
D03*
X49409Y558280D02*
D03*
X44489Y548441D02*
D03*
X49409Y538603D02*
D03*
X44489Y528764D02*
D03*
X49409Y518925D02*
D03*
X39570Y558280D02*
D03*
X34651Y548441D02*
D03*
X39570Y538603D02*
D03*
X34651Y528764D02*
D03*
X39570Y518925D02*
D03*
X29731Y558280D02*
D03*
X24812Y548441D02*
D03*
X29731Y538603D02*
D03*
X24812Y528764D02*
D03*
X29731Y518925D02*
D03*
X19893Y558280D02*
D03*
X14973Y548441D02*
D03*
X19893Y538603D02*
D03*
X14973Y528764D02*
D03*
X19893Y518925D02*
D03*
D167*
X276108Y153950D02*
D03*
X289570D02*
D03*
X282966Y147346D02*
D03*
Y153950D02*
D03*
Y160554D02*
D03*
M02*
