G04*
G04 #@! TF.GenerationSoftware,Altium Limited,Altium Designer,22.9.1 (49)*
G04*
G04 Layer_Color=32768*
%FSLAX44Y44*%
%MOMM*%
G71*
G04*
G04 #@! TF.SameCoordinates,777D21A2-CDB7-466F-AFFE-F37339BB67B1*
G04*
G04*
G04 #@! TF.FilePolarity,Positive*
G04*
G01*
G75*
%ADD10C,0.1000*%
%ADD11C,0.1524*%
%ADD12C,0.2000*%
%ADD14C,0.1270*%
%ADD17C,0.2540*%
%ADD176C,0.0500*%
%ADD177C,0.0762*%
D10*
X393990Y212090D02*
X398490D01*
X396240Y209840D02*
Y214340D01*
X315250Y213360D02*
X319750D01*
X317500Y211110D02*
Y215610D01*
X349174Y180419D02*
Y183719D01*
X347524Y182069D02*
X350824D01*
X352424Y201478D02*
Y204178D01*
X351074Y202828D02*
X353774D01*
X348583Y228226D02*
Y231526D01*
X346933Y229876D02*
X350233D01*
X352424Y252788D02*
Y255488D01*
X351074Y254138D02*
X353774D01*
X350774Y281432D02*
X354074D01*
X352424Y279782D02*
Y283082D01*
X29040Y382270D02*
X39040D01*
X34040Y377270D02*
Y387270D01*
X52006Y351536D02*
Y414088D01*
X16328Y351536D02*
Y414088D01*
Y351536D02*
X51820D01*
X16328Y414088D02*
X52006D01*
X16590Y320040D02*
X26590D01*
X21590Y315040D02*
Y325040D01*
X9348Y360454D02*
Y370454D01*
X4348Y365454D02*
X14348D01*
X38180Y325120D02*
X48180D01*
X43180Y320120D02*
Y330120D01*
X25214Y293302D02*
Y355854D01*
X60892Y293302D02*
Y355854D01*
X25400D02*
X60892D01*
X25214Y293302D02*
X60892D01*
X285048Y76859D02*
X295048D01*
X290048Y71859D02*
Y81859D01*
X249000Y139700D02*
X259000D01*
X254000Y134700D02*
Y144700D01*
X181424Y87562D02*
X217102D01*
X181610Y150114D02*
X217102D01*
Y87562D02*
Y150114D01*
X181424Y87562D02*
Y150114D01*
X199390Y114380D02*
Y124380D01*
X194390Y119380D02*
X204390D01*
X571834Y245872D02*
X581834D01*
X576834Y240872D02*
Y250872D01*
X319358Y74294D02*
X329358D01*
X324358Y69294D02*
Y79294D01*
X302848Y74294D02*
X312848D01*
X307848Y69294D02*
Y79294D01*
X266780Y76200D02*
X276780D01*
X271780Y71200D02*
Y81200D01*
X300482Y35894D02*
Y45894D01*
X295482Y40894D02*
X305482D01*
X289814Y103204D02*
Y113204D01*
X284814Y108204D02*
X294814D01*
X374650Y77550D02*
Y87550D01*
X369650Y82550D02*
X379650D01*
X374650Y64850D02*
Y74850D01*
X369650Y69850D02*
X379650D01*
X378714Y193374D02*
Y203374D01*
X373714Y198374D02*
X383714D01*
X373634Y178134D02*
Y188134D01*
X368634Y183134D02*
X378634D01*
X322580Y194390D02*
Y204390D01*
X317580Y199390D02*
X327580D01*
X326390Y181690D02*
Y191690D01*
X321390Y186690D02*
X331390D01*
X153620Y297356D02*
Y307356D01*
X148620Y302356D02*
X158620D01*
X153620Y312596D02*
Y322596D01*
X148620Y317596D02*
X158620D01*
X200284Y333972D02*
Y343972D01*
X195284Y338972D02*
X205284D01*
X232410Y293450D02*
Y303450D01*
X227410Y298450D02*
X237410D01*
X180116Y394156D02*
X190116D01*
X185116Y389156D02*
Y399156D01*
X80802Y353262D02*
X90802D01*
X85802Y348262D02*
Y358262D01*
X347346Y66628D02*
Y76628D01*
X342346Y71628D02*
X352346D01*
X512064Y74456D02*
Y84456D01*
X507064Y79456D02*
X517064D01*
X472774Y142494D02*
X482774D01*
X477774Y137494D02*
Y147494D01*
X144810Y277570D02*
X154810D01*
X149810Y272570D02*
Y282570D01*
X561720Y82376D02*
Y92376D01*
X556720Y87376D02*
X566720D01*
X560990Y157891D02*
Y167890D01*
X555990Y162890D02*
X565990D01*
X53340Y200740D02*
Y210740D01*
X48340Y205740D02*
X58340D01*
X24892Y29290D02*
Y39290D01*
X19892Y34290D02*
X29892D01*
X347346Y80090D02*
Y90090D01*
X342346Y85090D02*
X352346D01*
X214630Y243160D02*
Y253160D01*
X209630Y248160D02*
X219630D01*
X5160Y405130D02*
X15160D01*
X10160Y400130D02*
Y410130D01*
X229870Y358220D02*
Y368220D01*
X224870Y363220D02*
X234870D01*
X224870Y233680D02*
X234870D01*
X229870Y228680D02*
Y238680D01*
X39450Y289560D02*
X49450D01*
X44450Y284560D02*
Y294560D01*
X24210Y71120D02*
X34210D01*
X29210Y66120D02*
Y76120D01*
X10240Y71120D02*
X20240D01*
X15240Y66120D02*
Y76120D01*
X138430Y109630D02*
Y129130D01*
X128680Y119380D02*
X148180D01*
X40196Y252222D02*
X48196D01*
X44196Y248222D02*
Y256222D01*
X4696Y278222D02*
X83696D01*
X4696Y215722D02*
Y278222D01*
Y215722D02*
X83696D01*
Y278222D01*
X280670Y261430D02*
Y269430D01*
X276670Y265430D02*
X284670D01*
X306670Y225930D02*
Y304930D01*
X244170D02*
X306670D01*
X244170Y225930D02*
Y304930D01*
Y225930D02*
X306670D01*
X488002Y188282D02*
X523680D01*
X488002Y125730D02*
X523494D01*
X488002D02*
Y188282D01*
X523680Y125730D02*
Y188282D01*
X505714Y151464D02*
Y161464D01*
X500714Y156464D02*
X510714D01*
X228668Y88968D02*
X264346D01*
X228668Y26416D02*
X264160D01*
X228668D02*
Y88968D01*
X264346Y26416D02*
Y88968D01*
X246380Y52150D02*
Y62150D01*
X241380Y57150D02*
X251380D01*
X459994Y24130D02*
Y57658D01*
X545592D01*
X459994Y24130D02*
X545592D01*
X498428Y40894D02*
X508428D01*
X545592Y24130D02*
Y57658D01*
X503428Y35894D02*
Y45894D01*
X197934Y25332D02*
X233612D01*
X198120Y87884D02*
X233612D01*
Y25332D02*
Y87884D01*
X197934Y25332D02*
Y87884D01*
X215900Y52150D02*
Y62150D01*
X210900Y57150D02*
X220900D01*
X342980Y46990D02*
X352980D01*
X347980Y41990D02*
Y51990D01*
X194340Y301954D02*
X204340D01*
X199340Y296954D02*
Y306954D01*
X104678Y317194D02*
X114678D01*
X109678Y312194D02*
Y322194D01*
X552450Y100410D02*
Y110410D01*
X547450Y105410D02*
X557450D01*
X534750Y176530D02*
X544750D01*
X539750Y171530D02*
Y181530D01*
X68340Y311606D02*
X76340D01*
X72340Y307606D02*
Y315606D01*
X63196Y420996D02*
Y428996D01*
X59196Y424996D02*
X67196D01*
X179642Y182626D02*
X187642D01*
X183642Y178626D02*
Y186626D01*
X149670Y182880D02*
X157670D01*
X153670Y178880D02*
Y186880D01*
X576834Y278406D02*
Y287906D01*
X572084Y283156D02*
X581584D01*
X248920Y355930D02*
Y365430D01*
X244170Y360680D02*
X253670D01*
X341960Y59690D02*
X351460D01*
X346710Y54940D02*
Y64440D01*
X466344Y98836D02*
Y108336D01*
X461594Y103586D02*
X471094D01*
X74244Y288036D02*
X83744D01*
X78994Y283286D02*
Y292786D01*
X451477Y98711D02*
Y108211D01*
X446727Y103461D02*
X456227D01*
X152096Y389004D02*
Y398504D01*
X147346Y393754D02*
X156846D01*
X135332Y389004D02*
Y398504D01*
X130582Y393754D02*
X140082D01*
X70180Y405130D02*
X79680D01*
X74930Y400380D02*
Y409880D01*
X87656Y424996D02*
X97156D01*
X92406Y420246D02*
Y429746D01*
X118822Y389004D02*
Y398504D01*
X114072Y393754D02*
X123572D01*
X81026Y377266D02*
Y386766D01*
X76276Y382016D02*
X85776D01*
X168606Y388898D02*
Y398398D01*
X163856Y393648D02*
X173356D01*
X102312Y389004D02*
Y398504D01*
X97562Y393754D02*
X107062D01*
X477774Y169494D02*
Y178994D01*
X473024Y174244D02*
X482524D01*
X445084Y197104D02*
X454584D01*
X449834Y192354D02*
Y201854D01*
X478104Y79456D02*
X487604D01*
X482854Y74706D02*
Y84206D01*
X565480Y102870D02*
X574980D01*
X570230Y98120D02*
Y107620D01*
X561670Y176530D02*
X571170D01*
X566420Y171780D02*
Y181280D01*
X450850Y34112D02*
Y43612D01*
X446100Y38862D02*
X455600D01*
X526542Y201498D02*
Y210998D01*
X521792Y206248D02*
X531292D01*
X561340Y209880D02*
Y219380D01*
X556590Y214630D02*
X566090D01*
X544830Y210134D02*
Y219634D01*
X540080Y214884D02*
X549580D01*
X577578Y210350D02*
Y219850D01*
X572828Y215100D02*
X582328D01*
X121666Y176860D02*
Y186360D01*
X116916Y181610D02*
X126416D01*
X12776Y206502D02*
X22276D01*
X17526Y201752D02*
Y211252D01*
X289052Y157302D02*
Y166802D01*
X284302Y162052D02*
X293802D01*
X138176Y176860D02*
Y186360D01*
X133426Y181610D02*
X142926D01*
X21920Y16764D02*
X31420D01*
X26670Y12014D02*
Y21514D01*
X198628Y176352D02*
Y185852D01*
X193878Y181102D02*
X203378D01*
X168656Y176606D02*
Y186106D01*
X163906Y181356D02*
X173406D01*
X342424Y128316D02*
Y138316D01*
X337424Y133316D02*
X347424D01*
X158710Y346510D02*
Y356510D01*
X153710Y351510D02*
X163710D01*
X253920Y329860D02*
X263920D01*
X258920Y324860D02*
Y334860D01*
X448564Y152734D02*
Y162734D01*
X443564Y157734D02*
X453564D01*
X499364Y98586D02*
Y108586D01*
X494364Y103586D02*
X504364D01*
X494618Y218186D02*
X504618D01*
X499618Y213186D02*
Y223186D01*
D11*
X243967Y274828D02*
Y322072D01*
X220853D02*
X243967D01*
X220853Y274828D02*
Y322072D01*
Y274828D02*
X243967D01*
X62180Y364819D02*
X109424D01*
X62180Y341705D02*
Y364819D01*
Y341705D02*
X109424D01*
Y364819D01*
D12*
X172720Y84380D02*
Y154380D01*
X104140Y84380D02*
X172720D01*
X104140D02*
Y154380D01*
X172720D01*
D14*
X401320Y101600D02*
X406400D01*
X403860Y99060D02*
Y104140D01*
D17*
X232010Y409270D02*
Y419430D01*
X226930Y414350D02*
X237090D01*
X407034Y153846D02*
Y161466D01*
X403224Y157656D02*
X410844D01*
D176*
X405740Y207590D02*
Y216590D01*
X386740Y207590D02*
Y216590D01*
Y207590D02*
X405740D01*
X386740Y216590D02*
X405740D01*
X308000Y208860D02*
Y217860D01*
X327000Y208860D02*
Y217860D01*
X308000D02*
X327000D01*
X308000Y208860D02*
X327000D01*
X341674Y185569D02*
X356674D01*
X341674Y178569D02*
X356674D01*
X341674D02*
Y185569D01*
X356674Y178569D02*
Y185569D01*
X349424Y195328D02*
X355424D01*
X349424Y210328D02*
X355424D01*
X349424Y195328D02*
Y210328D01*
X355424Y195328D02*
Y210328D01*
X340484Y226381D02*
X355484D01*
X340484Y233381D02*
X355484D01*
Y226381D02*
Y233381D01*
X340484Y226381D02*
Y233381D01*
X349424Y246638D02*
X355424D01*
X349424Y261638D02*
X355424D01*
X349424Y246638D02*
Y261638D01*
X355424Y246638D02*
Y261638D01*
X355924Y273932D02*
Y288932D01*
X348924Y273932D02*
Y288932D01*
X355924D01*
X348924Y273932D02*
X355924D01*
X11590Y301540D02*
Y338540D01*
X31590Y301540D02*
Y338540D01*
X11590Y301540D02*
X31590D01*
X11590Y338540D02*
X31590D01*
X1848Y380454D02*
X16848D01*
X1848Y350454D02*
X16848D01*
Y380454D01*
X1848Y350454D02*
Y380454D01*
X276548Y55359D02*
Y98359D01*
X303548Y55359D02*
Y98359D01*
X276548Y55359D02*
X303548D01*
X276548Y98359D02*
X303548D01*
X301500Y92200D02*
Y187200D01*
X277500Y92200D02*
X301500D01*
X277500Y83820D02*
Y92200D01*
X230500Y83820D02*
X277500D01*
X230500D02*
Y92200D01*
X206500D02*
X230500D01*
X206500D02*
Y187200D01*
X230500D01*
Y195580D01*
X277500D01*
Y187200D02*
Y195580D01*
Y187200D02*
X301500D01*
X584334Y230872D02*
Y260872D01*
X569334Y230872D02*
Y260872D01*
X584334D01*
X569334Y230872D02*
X584334D01*
X331858Y59294D02*
Y89294D01*
X316858Y59294D02*
Y89294D01*
X331858D01*
X316858Y59294D02*
X331858D01*
X300348Y59294D02*
Y89294D01*
X315348Y59294D02*
Y89294D01*
X300348Y59294D02*
X315348D01*
X300348Y89294D02*
X315348D01*
X264280Y61200D02*
Y91200D01*
X279280Y61200D02*
Y91200D01*
X264280Y61200D02*
X279280D01*
X264280Y91200D02*
X279280D01*
X285482Y33394D02*
X315482D01*
X285482Y48394D02*
X315482D01*
Y33394D02*
Y48394D01*
X285482Y33394D02*
Y48394D01*
X274814Y100704D02*
X304814D01*
X274814Y115704D02*
X304814D01*
Y100704D02*
Y115704D01*
X274814Y100704D02*
Y115704D01*
X359650Y90050D02*
X389650D01*
X359650Y75050D02*
X389650D01*
X359650D02*
Y90050D01*
X389650Y75050D02*
Y90050D01*
X359650Y62350D02*
X389650D01*
X359650Y77350D02*
X389650D01*
Y62350D02*
Y77350D01*
X359650Y62350D02*
Y77350D01*
X363714Y205874D02*
X393714D01*
X363714Y190874D02*
X393714D01*
X363714D02*
Y205874D01*
X393714Y190874D02*
Y205874D01*
X358634Y190634D02*
X388634D01*
X358634Y175634D02*
X388634D01*
X358634D02*
Y190634D01*
X388634Y175634D02*
Y190634D01*
X307580Y191890D02*
X337580D01*
X307580Y206890D02*
X337580D01*
Y191890D02*
Y206890D01*
X307580Y191890D02*
Y206890D01*
X311390Y179190D02*
X341390D01*
X311390Y194190D02*
X341390D01*
Y179190D02*
Y194190D01*
X311390Y179190D02*
Y194190D01*
X138620Y309856D02*
X168620D01*
X138620Y294856D02*
X168620D01*
X138620D02*
Y309856D01*
X168620Y294856D02*
Y309856D01*
X138620Y325096D02*
X168620D01*
X138620Y310096D02*
X168620D01*
X138620D02*
Y325096D01*
X168620Y310096D02*
Y325096D01*
X185284Y331472D02*
X215284D01*
X185284Y346472D02*
X215284D01*
Y331472D02*
Y346472D01*
X185284Y331472D02*
Y346472D01*
X177616Y379156D02*
Y409156D01*
X192616Y379156D02*
Y409156D01*
X177616Y379156D02*
X192616D01*
X177616Y409156D02*
X192616D01*
X332346Y79128D02*
X362346D01*
X332346Y64128D02*
X362346D01*
X332346D02*
Y79128D01*
X362346Y64128D02*
Y79128D01*
X497064Y71956D02*
X527064D01*
X497064Y86956D02*
X527064D01*
Y71956D02*
Y86956D01*
X497064Y71956D02*
Y86956D01*
X470274Y127494D02*
Y157494D01*
X485274Y127494D02*
Y157494D01*
X470274Y127494D02*
X485274D01*
X470274Y157494D02*
X485274D01*
X175210Y261570D02*
Y293570D01*
X124410Y261570D02*
X175210D01*
X124410Y293570D02*
X175210D01*
X124410Y261570D02*
Y293570D01*
X546720Y94876D02*
X576720D01*
X546720Y79876D02*
X576720D01*
X546720D02*
Y94876D01*
X576720Y79876D02*
Y94876D01*
X545990Y170390D02*
X575990D01*
X545990Y155391D02*
X575990D01*
X545990D02*
Y170390D01*
X575990Y155391D02*
Y170390D01*
X38340Y198240D02*
X68340D01*
X38340Y213240D02*
X68340D01*
Y198240D02*
Y213240D01*
X38340Y198240D02*
Y213240D01*
X9892Y26790D02*
X39892D01*
X9892Y41790D02*
X39892D01*
Y26790D02*
Y41790D01*
X9892Y26790D02*
Y41790D01*
X332346Y92590D02*
X362346D01*
X332346Y77590D02*
X362346D01*
X332346D02*
Y92590D01*
X362346Y77590D02*
Y92590D01*
X204630Y271160D02*
X224630D01*
X204630Y225160D02*
X224630D01*
Y271160D01*
X204630Y225160D02*
Y271160D01*
X16160Y392630D02*
Y417630D01*
X4160Y392630D02*
Y417630D01*
X16160D01*
X4160Y392630D02*
X16160D01*
X218620Y368220D02*
X241120D01*
X218620Y358220D02*
X241120D01*
X218620D02*
Y368220D01*
X241120Y358220D02*
Y368220D01*
X224870Y222430D02*
Y244930D01*
X234870Y222430D02*
Y244930D01*
X224870Y222430D02*
X234870D01*
X224870Y244930D02*
X234870D01*
X49450Y278310D02*
Y300810D01*
X39450Y278310D02*
Y300810D01*
X49450D01*
X39450Y278310D02*
X49450D01*
X24210Y59870D02*
Y82370D01*
X34210Y59870D02*
Y82370D01*
X24210Y59870D02*
X34210D01*
X24210Y82370D02*
X34210D01*
X10240Y59870D02*
Y82370D01*
X20240Y59870D02*
Y82370D01*
X10240Y59870D02*
X20240D01*
X10240Y82370D02*
X20240D01*
X334980Y39490D02*
Y54490D01*
X360980Y39490D02*
Y54490D01*
X334980D02*
X360980D01*
X334980Y39490D02*
X360980D01*
X218340Y282954D02*
Y320954D01*
X180340Y282954D02*
X218340D01*
X180340Y320954D02*
X218340D01*
X180340Y282954D02*
Y320954D01*
X134678Y301694D02*
Y332694D01*
X84678Y301694D02*
Y332694D01*
Y301694D02*
X134678D01*
X84678Y332694D02*
X134678D01*
X544950Y118410D02*
X559950D01*
X544950Y92410D02*
X559950D01*
Y118410D01*
X544950Y92410D02*
Y118410D01*
X526750Y169030D02*
Y184030D01*
X552750Y169030D02*
Y184030D01*
X526750D02*
X552750D01*
X526750Y169030D02*
X552750D01*
X65840Y296606D02*
Y326606D01*
X78840Y296606D02*
Y326606D01*
X65840Y296606D02*
X78840D01*
X65840Y326606D02*
X78840D01*
X48196Y418496D02*
X78196D01*
X48196Y431496D02*
X78196D01*
Y418496D02*
Y431496D01*
X48196Y418496D02*
Y431496D01*
X190142Y167626D02*
Y197626D01*
X177142Y167626D02*
Y197626D01*
X190142D01*
X177142Y167626D02*
X190142D01*
X160170Y167880D02*
Y197880D01*
X147170Y167880D02*
Y197880D01*
X160170D01*
X147170Y167880D02*
X160170D01*
X569334Y270156D02*
X584334D01*
X569334Y296156D02*
X584334D01*
X569334Y270156D02*
Y296156D01*
X584334Y270156D02*
Y296156D01*
X241420Y373680D02*
X256420D01*
X241420Y347680D02*
X256420D01*
Y373680D01*
X241420Y347680D02*
Y373680D01*
X359710Y52190D02*
Y67190D01*
X333710Y52190D02*
Y67190D01*
Y52190D02*
X359710D01*
X333710Y67190D02*
X359710D01*
X458844Y116586D02*
X473844D01*
X458844Y90586D02*
X473844D01*
Y116586D01*
X458844Y90586D02*
Y116586D01*
X65994Y280536D02*
Y295536D01*
X91994Y280536D02*
Y295536D01*
X65994D02*
X91994D01*
X65994Y280536D02*
X91994D01*
X443977Y116461D02*
X458977D01*
X443977Y90461D02*
X458977D01*
Y116461D01*
X443977Y90461D02*
Y116461D01*
X144596Y380754D02*
X159596D01*
X144596Y406754D02*
X159596D01*
X144596Y380754D02*
Y406754D01*
X159596Y380754D02*
Y406754D01*
X127832Y380754D02*
X142832D01*
X127832Y406754D02*
X142832D01*
X127832Y380754D02*
Y406754D01*
X142832Y380754D02*
Y406754D01*
X87930Y397630D02*
Y412630D01*
X61930Y397630D02*
Y412630D01*
Y397630D02*
X87930D01*
X61930Y412630D02*
X87930D01*
X79406Y417496D02*
Y432496D01*
X105406Y417496D02*
Y432496D01*
X79406D02*
X105406D01*
X79406Y417496D02*
X105406D01*
X111322Y380754D02*
X126322D01*
X111322Y406754D02*
X126322D01*
X111322Y380754D02*
Y406754D01*
X126322Y380754D02*
Y406754D01*
X73526Y369016D02*
X88526D01*
X73526Y395016D02*
X88526D01*
X73526Y369016D02*
Y395016D01*
X88526Y369016D02*
Y395016D01*
X161106Y406648D02*
X176106D01*
X161106Y380648D02*
X176106D01*
Y406648D01*
X161106Y380648D02*
Y406648D01*
X94812Y406754D02*
X109812D01*
X94812Y380754D02*
X109812D01*
Y406754D01*
X94812Y380754D02*
Y406754D01*
X470274Y187244D02*
X485274D01*
X470274Y161244D02*
X485274D01*
Y187244D01*
X470274Y161244D02*
Y187244D01*
X462834Y189604D02*
Y204604D01*
X436834Y189604D02*
Y204604D01*
Y189604D02*
X462834D01*
X436834Y204604D02*
X462834D01*
X495854Y71956D02*
Y86956D01*
X469854Y71956D02*
Y86956D01*
Y71956D02*
X495854D01*
X469854Y86956D02*
X495854D01*
X557230Y95370D02*
Y110370D01*
X583230Y95370D02*
Y110370D01*
X557230D02*
X583230D01*
X557230Y95370D02*
X583230D01*
X553420Y169030D02*
Y184030D01*
X579420Y169030D02*
Y184030D01*
X553420D02*
X579420D01*
X553420Y169030D02*
X579420D01*
X443350Y25862D02*
X458350D01*
X443350Y51862D02*
X458350D01*
X443350Y25862D02*
Y51862D01*
X458350Y25862D02*
Y51862D01*
X519042Y219248D02*
X534042D01*
X519042Y193248D02*
X534042D01*
Y219248D01*
X519042Y193248D02*
Y219248D01*
X553840Y227630D02*
X568840D01*
X553840Y201630D02*
X568840D01*
Y227630D01*
X553840Y201630D02*
Y227630D01*
X537330Y201884D02*
X552330D01*
X537330Y227884D02*
X552330D01*
X537330Y201884D02*
Y227884D01*
X552330Y201884D02*
Y227884D01*
X570078Y202100D02*
X585078D01*
X570078Y228100D02*
X585078D01*
X570078Y202100D02*
Y228100D01*
X585078Y202100D02*
Y228100D01*
X114166Y194610D02*
X129166D01*
X114166Y168610D02*
X129166D01*
Y194610D01*
X114166Y168610D02*
Y194610D01*
X4526Y199002D02*
Y214002D01*
X30526Y199002D02*
Y214002D01*
X4526D02*
X30526D01*
X4526Y199002D02*
X30526D01*
X281552Y175052D02*
X296552D01*
X281552Y149052D02*
X296552D01*
Y175052D01*
X281552Y149052D02*
Y175052D01*
X130676Y194610D02*
X145676D01*
X130676Y168610D02*
X145676D01*
Y194610D01*
X130676Y168610D02*
Y194610D01*
X39670Y9264D02*
Y24264D01*
X13670Y9264D02*
Y24264D01*
Y9264D02*
X39670D01*
X13670Y24264D02*
X39670D01*
X191128Y168102D02*
X206128D01*
X191128Y194102D02*
X206128D01*
X191128Y168102D02*
Y194102D01*
X206128Y168102D02*
Y194102D01*
X161156Y168356D02*
X176156D01*
X161156Y194356D02*
X176156D01*
X161156Y168356D02*
Y194356D01*
X176156Y168356D02*
Y194356D01*
X450130Y230390D02*
Y295390D01*
X568410D01*
Y230390D02*
Y295390D01*
X450130Y230390D02*
X568410D01*
X3314Y196554D02*
X68314D01*
Y78274D02*
Y196554D01*
X3314Y78274D02*
X68314D01*
X3314D02*
Y196554D01*
X42714Y9156D02*
Y74156D01*
X160994D01*
Y9156D02*
Y74156D01*
X42714Y9156D02*
X160994D01*
X306424Y169316D02*
X378424D01*
X306424Y97316D02*
X378424D01*
X306424D02*
Y169316D01*
X378424Y97316D02*
Y169316D01*
X134960Y375260D02*
X182460D01*
X134960Y327760D02*
X182460D01*
X134960D02*
Y375260D01*
X182460Y327760D02*
Y375260D01*
X240170Y312360D02*
Y347360D01*
X277670Y312360D02*
Y347360D01*
X240170D02*
X277670D01*
X240170Y312360D02*
X277670D01*
X427814Y188484D02*
X469314D01*
X427814Y126984D02*
X469314D01*
X427814D02*
Y188484D01*
X469314Y126984D02*
Y188484D01*
X483614Y87836D02*
X515114D01*
X483614Y119336D02*
X515114D01*
Y87836D02*
Y119336D01*
X483614Y87836D02*
Y119336D01*
X546936Y47650D02*
Y79150D01*
Y47650D02*
X586966D01*
Y79150D01*
X546936D02*
X586966D01*
X545920Y123850D02*
Y155350D01*
Y123850D02*
X585950D01*
Y155350D01*
X545920D02*
X585950D01*
X511868Y208186D02*
Y228186D01*
X487368Y208186D02*
Y228186D01*
Y208186D02*
X511868D01*
X487368Y228186D02*
X511868D01*
X383360Y89600D02*
X424360D01*
X383360D02*
Y113600D01*
X424360D01*
Y89600D02*
Y113600D01*
X389954Y178219D02*
X423954D01*
X389954Y137175D02*
Y178219D01*
Y137175D02*
X423954D01*
Y178219D01*
D177*
X189510Y378100D02*
Y435850D01*
X184760Y443650D02*
X189510Y435850D01*
X274510Y378100D02*
Y435850D01*
X279260Y443650D01*
X184760D02*
X279260D01*
X189510Y378100D02*
X274510D01*
M02*
