G04*
G04 #@! TF.GenerationSoftware,Altium Limited,Altium Designer,22.9.1 (49)*
G04*
G04 Layer_Color=16711935*
%FSLAX44Y44*%
%MOMM*%
G71*
G04*
G04 #@! TF.SameCoordinates,01709E0F-AE19-4BD8-882A-F161264F200E*
G04*
G04*
G04 #@! TF.FilePolarity,Positive*
G04*
G01*
G75*
%ADD10C,0.1270*%
%ADD11C,0.2500*%
%ADD12C,0.2000*%
%ADD13C,0.1000*%
%ADD14C,0.1524*%
%ADD16C,0.2540*%
%ADD169C,0.1905*%
%ADD170C,0.0254*%
%ADD171C,0.1800*%
%ADD172C,0.0600*%
%ADD173C,0.1016*%
%ADD174C,0.1750*%
%ADD175C,0.0400*%
D10*
X31698Y153324D02*
G03*
X31698Y153324I-4000J0D01*
G01*
X91158Y79664D02*
G03*
X91158Y79664I-2500J0D01*
G01*
X454406Y451584D02*
X554482D01*
Y511584D01*
X454406Y451584D02*
Y511584D01*
X554482D01*
X505730Y351560D02*
Y378060D01*
X540730D01*
X505730Y351560D02*
X540730D01*
Y378060D01*
X541260Y275040D02*
Y301540D01*
X506260Y275040D02*
X541260D01*
X506260Y301540D02*
X541260D01*
X506260Y275040D02*
Y301540D01*
X15198Y160824D02*
X105198D01*
Y70824D02*
Y160824D01*
X15198Y70824D02*
X105198D01*
X15198D02*
Y160824D01*
X412326Y4412D02*
X486326D01*
Y61912D01*
X412326D02*
X486326D01*
X412326Y4412D02*
Y61912D01*
X66830Y290322D02*
Y390398D01*
X6830D02*
X66830D01*
X6830Y290322D02*
X66830D01*
X6830D02*
Y390398D01*
X16108Y451584D02*
X116184D01*
Y511584D01*
X16108Y451584D02*
Y511584D01*
X116184D01*
X171026Y4948D02*
X245026D01*
Y62448D01*
X171026D02*
X245026D01*
X171026Y4948D02*
Y62448D01*
X362456Y319144D02*
Y334144D01*
X330456D02*
X362456D01*
X330456Y319144D02*
Y334144D01*
Y319144D02*
X362456D01*
X589810Y17302D02*
Y91302D01*
Y17302D02*
X596810D01*
X546810Y91302D02*
X589810D01*
X546810Y17302D02*
X589810D01*
X596810D02*
X602110Y14052D01*
Y94552D01*
X596810Y91302D02*
X602110Y94552D01*
X589810Y91302D02*
X596810D01*
X546810Y17302D02*
Y91302D01*
D11*
X510950Y347435D02*
G03*
X510950Y347435I-1250J0D01*
G01*
X511480Y270915D02*
G03*
X511480Y270915I-1250J0D01*
G01*
D12*
X462826Y-1838D02*
G03*
X462826Y-1838I-1000J0D01*
G01*
X221526Y-1302D02*
G03*
X221526Y-1302I-1000J0D01*
G01*
X344524Y395353D02*
G03*
X344524Y395353I-1000J0D01*
G01*
X354007Y395940D02*
X344010Y389276D01*
X354007D02*
X344010Y395940D01*
Y379279D02*
Y385943D01*
X350675Y379279D01*
X352341D01*
X354007Y380945D01*
Y384277D01*
X352341Y385943D01*
D13*
X441722Y342346D02*
G03*
X441722Y342346I-2048J0D01*
G01*
X315690Y342612D02*
G03*
X315690Y342612I-4000J0D01*
G01*
X408020Y370078D02*
G03*
X408020Y370078I-3652J0D01*
G01*
X297361Y143536D02*
G03*
X297361Y143536I-3473J0D01*
G01*
X491318Y436880D02*
G03*
X491318Y436880I-1606J0D01*
G01*
X439420Y363220D02*
X465074D01*
X439420Y415290D02*
X465074D01*
X439420Y363220D02*
Y415290D01*
X465074Y363220D02*
Y415290D01*
X435102Y325074D02*
X456438D01*
X435102Y346664D02*
X456438D01*
Y325074D02*
Y346664D01*
X435102Y325074D02*
Y346664D01*
X576580Y276860D02*
Y354330D01*
X551180D02*
X576580D01*
X551180Y276860D02*
Y354330D01*
Y276860D02*
X576580D01*
X508380Y400710D02*
Y407010D01*
X505080Y400710D02*
Y407010D01*
X508380D01*
X505080Y400710D02*
X508380D01*
X526810Y382934D02*
Y392934D01*
X508810Y382934D02*
Y392934D01*
Y382934D02*
X526810D01*
X508810Y392934D02*
X526810D01*
X527540Y307420D02*
Y317420D01*
X509540Y307420D02*
Y317420D01*
Y307420D02*
X527540D01*
X509540Y317420D02*
X527540D01*
X531740Y322910D02*
Y332410D01*
X514740Y322910D02*
Y332410D01*
Y322910D02*
X531740D01*
X514740Y332410D02*
X531740D01*
X539370Y324510D02*
Y330810D01*
X542670Y324510D02*
Y330810D01*
X539370Y324510D02*
X542670D01*
X539370Y330810D02*
X542670D01*
X533010Y399110D02*
Y408610D01*
X516010Y399110D02*
Y408610D01*
Y399110D02*
X533010D01*
X516010Y408610D02*
X533010D01*
X327486Y303386D02*
X337486D01*
X327486Y285386D02*
X337486D01*
Y303386D01*
X327486Y285386D02*
Y303386D01*
X342980Y285386D02*
X352980D01*
X342980Y303386D02*
X352980D01*
X342980Y285386D02*
Y303386D01*
X352980Y285386D02*
Y303386D01*
X249254Y307830D02*
X259254D01*
X249254Y289830D02*
X259254D01*
Y307830D01*
X249254Y289830D02*
Y307830D01*
X264494Y289830D02*
X274494D01*
X264494Y307830D02*
X274494D01*
X264494Y289830D02*
Y307830D01*
X274494Y289830D02*
Y307830D01*
X528124Y422754D02*
X537624D01*
X528124Y439754D02*
X537624D01*
X528124Y422754D02*
Y439754D01*
X537624Y422754D02*
Y439754D01*
X511614D02*
X521114D01*
X511614Y422754D02*
X521114D01*
Y439754D01*
X511614Y422754D02*
Y439754D01*
X26594Y173872D02*
Y190872D01*
X17094Y173872D02*
Y190872D01*
X26594D01*
X17094Y173872D02*
X26594D01*
X170176Y242570D02*
Y294640D01*
X195830Y242570D02*
Y294640D01*
X170176Y242570D02*
X195830D01*
X170176Y294640D02*
X195830D01*
X232994Y305830D02*
X242494D01*
X232994Y291830D02*
X242494D01*
Y305830D01*
X232994Y291830D02*
Y305830D01*
X319330Y334972D02*
Y395972D01*
X258330Y334972D02*
Y395972D01*
Y334972D02*
X319330D01*
X258330Y395972D02*
X319330D01*
X292274Y289830D02*
Y307830D01*
X282274Y289830D02*
Y307830D01*
X292274D01*
X282274Y289830D02*
X292274D01*
X172820Y209228D02*
X185320D01*
X172820Y200728D02*
X185320D01*
X172820D02*
Y209228D01*
X185320Y200728D02*
Y209228D01*
X221310Y168030D02*
X230810D01*
X221310Y185030D02*
X230810D01*
X221310Y168030D02*
Y185030D01*
X230810Y168030D02*
Y185030D01*
X227448Y198704D02*
Y208204D01*
X210448Y198704D02*
Y208204D01*
Y198704D02*
X227448D01*
X210448Y208204D02*
X227448D01*
X128604Y170544D02*
X138604D01*
X128604Y152544D02*
X138604D01*
Y170544D01*
X128604Y152544D02*
Y170544D01*
X192532Y140335D02*
X227584D01*
X192532Y158369D02*
X227584D01*
X192532Y140335D02*
Y158369D01*
X227584Y140335D02*
Y158369D01*
X192596Y122046D02*
X200596D01*
X192596Y106046D02*
X200596D01*
Y122046D01*
X192596Y106046D02*
Y122046D01*
X191846Y75574D02*
Y92574D01*
X201346Y75574D02*
Y92574D01*
X191846Y75574D02*
X201346D01*
X191846Y92574D02*
X201346D01*
X100220Y435690D02*
X118220D01*
X100220Y445690D02*
X118220D01*
Y435690D02*
Y445690D01*
X100220Y435690D02*
Y445690D01*
X29600Y402920D02*
X46600D01*
X29600Y412420D02*
X46600D01*
Y402920D02*
Y412420D01*
X29600Y402920D02*
Y412420D01*
X133680Y399170D02*
Y416170D01*
X143180Y399170D02*
Y416170D01*
X133680Y399170D02*
X143180D01*
X133680Y416170D02*
X143180D01*
X77860Y311480D02*
X94860D01*
X77860Y320980D02*
X94860D01*
Y311480D02*
Y320980D01*
X77860Y311480D02*
Y320980D01*
X92860Y413140D02*
Y430140D01*
X79860Y413140D02*
Y430140D01*
Y413140D02*
X92860D01*
X79860Y430140D02*
X92860D01*
X72470Y330090D02*
Y348090D01*
X82470Y330090D02*
Y348090D01*
X72470Y330090D02*
X82470D01*
X72470Y348090D02*
X82470D01*
X128600Y475370D02*
Y492370D01*
X138100Y475370D02*
Y492370D01*
X128600Y475370D02*
X138100D01*
X128600Y492370D02*
X138100D01*
X217504Y289830D02*
Y307830D01*
X227504Y289830D02*
Y307830D01*
X217504Y289830D02*
X227504D01*
X217504Y307830D02*
X227504D01*
X328320Y443610D02*
X334620D01*
X328320Y440310D02*
X334620D01*
X328320D02*
Y443610D01*
X334620Y440310D02*
Y443610D01*
X334120Y425530D02*
Y435530D01*
X316120Y425530D02*
Y435530D01*
Y425530D02*
X334120D01*
X316120Y435530D02*
X334120D01*
X311040Y420290D02*
X329040D01*
X311040Y410290D02*
X329040D01*
X311040D02*
Y420290D01*
X329040Y410290D02*
Y420290D01*
X415680Y286080D02*
X432680D01*
X415680Y295580D02*
X432680D01*
Y286080D02*
Y295580D01*
X415680Y286080D02*
Y295580D01*
X147650Y429650D02*
X157150D01*
X147650Y446650D02*
X157150D01*
X147650Y429650D02*
Y446650D01*
X157150Y429650D02*
Y446650D01*
X149670Y400940D02*
X157670D01*
X149670Y416940D02*
X157670D01*
X149670Y400940D02*
Y416940D01*
X157670Y400940D02*
Y416940D01*
X163640Y400940D02*
X171640D01*
X163640Y416940D02*
X171640D01*
X163640Y400940D02*
Y416940D01*
X171640Y400940D02*
Y416940D01*
X172390Y429650D02*
Y446650D01*
X162890Y429650D02*
Y446650D01*
X172390D01*
X162890Y429650D02*
X172390D01*
X505850Y22276D02*
X522850D01*
X505850Y12776D02*
X522850D01*
X505850D02*
Y22276D01*
X522850Y12776D02*
Y22276D01*
X449470Y306612D02*
Y316612D01*
X467470Y306612D02*
Y316612D01*
X449470D02*
X467470D01*
X449470Y306612D02*
X467470D01*
X420760Y316362D02*
X437760D01*
X420760Y306862D02*
X437760D01*
X420760D02*
Y316362D01*
X437760Y306862D02*
Y316362D01*
X186436Y370840D02*
X212090D01*
X186436Y318770D02*
X212090D01*
Y370840D01*
X186436Y318770D02*
Y370840D01*
X294716Y189980D02*
X304216D01*
X294716Y206980D02*
X304216D01*
X294716Y189980D02*
Y206980D01*
X304216Y189980D02*
Y206980D01*
X311226Y206874D02*
X320726D01*
X311226Y189874D02*
X320726D01*
Y206874D01*
X311226Y189874D02*
Y206874D01*
X277952Y189980D02*
X287452D01*
X277952Y206980D02*
X287452D01*
X277952Y189980D02*
Y206980D01*
X287452Y189980D02*
Y206980D01*
X261442Y189980D02*
X270942D01*
X261442Y206980D02*
X270942D01*
X261442Y189980D02*
Y206980D01*
X270942Y189980D02*
Y206980D01*
X244932D02*
X254432D01*
X244932Y189980D02*
X254432D01*
Y206980D01*
X244932Y189980D02*
Y206980D01*
X327486Y207882D02*
X337486D01*
X327486Y189882D02*
X337486D01*
Y207882D01*
X327486Y189882D02*
Y207882D01*
X237888Y270590D02*
X255888D01*
X237888Y280590D02*
X255888D01*
Y270590D02*
Y280590D01*
X237888Y270590D02*
Y280590D01*
X568274Y492334D02*
X577774D01*
X568274Y509334D02*
X577774D01*
X568274Y492334D02*
Y509334D01*
X577774Y492334D02*
Y509334D01*
X578024Y454550D02*
Y472550D01*
X568024Y454550D02*
Y472550D01*
X578024D01*
X568024Y454550D02*
X578024D01*
X387740Y434010D02*
X404740D01*
X387740Y424510D02*
X404740D01*
X387740D02*
Y434010D01*
X404740Y424510D02*
Y434010D01*
X410464Y364236D02*
Y415544D01*
X379476Y364236D02*
Y415544D01*
Y364236D02*
X410464D01*
X379476Y415544D02*
X410464D01*
X419430Y397900D02*
Y414900D01*
X428930Y397900D02*
Y414900D01*
X419430Y397900D02*
X428930D01*
X419430Y414900D02*
X428930D01*
X419180Y365650D02*
Y383650D01*
X429180Y365650D02*
Y383650D01*
X419180Y365650D02*
X429180D01*
X419180Y383650D02*
X429180D01*
X195962Y224706D02*
Y232706D01*
X211962Y224706D02*
Y232706D01*
X195962D02*
X211962D01*
X195962Y224706D02*
X211962D01*
X224672Y223956D02*
X241672D01*
X224672Y233456D02*
X241672D01*
Y223956D02*
Y233456D01*
X224672Y223956D02*
Y233456D01*
X301216Y135700D02*
Y172200D01*
X264716Y135700D02*
Y172200D01*
Y135700D02*
X301216D01*
X264716Y172200D02*
X301216D01*
X246834Y106734D02*
Y132534D01*
X221034Y106734D02*
Y132534D01*
Y106734D02*
X246834D01*
X221034Y132534D02*
X246834D01*
X279790Y24996D02*
Y37996D01*
X296790Y24996D02*
Y37996D01*
X279790Y24996D02*
X296790D01*
X279790Y37996D02*
X296790D01*
X430826Y144244D02*
X467826D01*
X430826Y77244D02*
X467826D01*
X430826D02*
Y144244D01*
X467826Y77244D02*
Y144244D01*
X374777Y86720D02*
X392811D01*
X374777Y121772D02*
X392811D01*
Y86720D02*
Y121772D01*
X374777Y86720D02*
Y121772D01*
X317390Y135970D02*
X335390D01*
X317390Y145970D02*
X335390D01*
Y135970D02*
Y145970D01*
X317390Y135970D02*
Y145970D01*
X338596Y89394D02*
Y119394D01*
X308596Y89394D02*
Y119394D01*
Y89394D02*
X338596D01*
X308596Y119394D02*
X338596D01*
X392548Y29036D02*
Y57536D01*
X375548Y29036D02*
Y57536D01*
X392548D01*
X375548Y29036D02*
X392548D01*
X268876Y109796D02*
X286876D01*
X268876Y99796D02*
X286876D01*
X268876D02*
Y109796D01*
X286876Y99796D02*
Y109796D01*
X268876Y125036D02*
X286876D01*
X268876Y115036D02*
X286876D01*
X268876D02*
Y125036D01*
X286876Y115036D02*
Y125036D01*
X257066Y93510D02*
X291066D01*
X257066Y66510D02*
X291066D01*
X257066D02*
Y93510D01*
X291066Y66510D02*
Y93510D01*
X171450Y113792D02*
Y139446D01*
X119380Y113792D02*
Y139446D01*
Y113792D02*
X171450D01*
X119380Y139446D02*
X171450D01*
X146812Y192278D02*
X198882D01*
X146812Y166624D02*
X198882D01*
X146812D02*
Y192278D01*
X198882Y166624D02*
Y192278D01*
X486260Y423300D02*
X499260D01*
X486260Y440300D02*
X499260D01*
Y423300D02*
Y440300D01*
X486260Y423300D02*
Y440300D01*
X484200Y400070D02*
X493700D01*
X484200Y417070D02*
X493700D01*
X484200Y400070D02*
Y417070D01*
X493700Y400070D02*
Y417070D01*
X475860Y427050D02*
Y436550D01*
X458860Y427050D02*
Y436550D01*
Y427050D02*
X475860D01*
X458860Y436550D02*
X475860D01*
X227220Y335360D02*
Y345360D01*
X245220Y335360D02*
Y345360D01*
X227220D02*
X245220D01*
X227220Y335360D02*
X245220D01*
X408000Y327242D02*
Y344242D01*
X417500Y327242D02*
Y344242D01*
X408000Y327242D02*
X417500D01*
X408000Y344242D02*
X417500D01*
X392760D02*
X402260D01*
X392760Y327242D02*
X402260D01*
Y344242D01*
X392760Y327242D02*
Y344242D01*
X322230Y292231D02*
Y309231D01*
X312730Y292231D02*
Y309231D01*
X322230D01*
X312730Y292231D02*
X322230D01*
X316104Y277351D02*
X319404D01*
X316104Y283651D02*
X319404D01*
X316104Y277351D02*
Y283651D01*
X319404Y277351D02*
Y283651D01*
X258970Y430610D02*
Y440610D01*
X276970Y430610D02*
Y440610D01*
X258970D02*
X276970D01*
X258970Y430610D02*
X276970D01*
X262780Y415370D02*
Y425370D01*
X280780Y415370D02*
Y425370D01*
X262780D02*
X280780D01*
X262780Y415370D02*
X280780D01*
X257200Y445390D02*
X263500D01*
X257200Y448690D02*
X263500D01*
Y445390D02*
Y448690D01*
X257200Y445390D02*
Y448690D01*
X297514Y289830D02*
X307514D01*
X297514Y307830D02*
X307514D01*
X297514Y289830D02*
Y307830D01*
X307514Y289830D02*
Y307830D01*
X297271Y510438D02*
X300571D01*
X297271Y516738D02*
X300571D01*
X297271Y510438D02*
Y516738D01*
X300571Y510438D02*
Y516738D01*
X297323Y483618D02*
X300623D01*
X297323Y489918D02*
X300623D01*
X297323Y483618D02*
Y489918D01*
X300623Y483618D02*
Y489918D01*
X292417Y458969D02*
Y462268D01*
X298717Y458969D02*
Y462268D01*
X292417D02*
X298717D01*
X292417Y458969D02*
X298717D01*
X297323Y432172D02*
X300623D01*
X297323Y438472D02*
X300623D01*
X297323Y432172D02*
Y438472D01*
X300623Y432172D02*
Y438472D01*
X298717Y412575D02*
Y415875D01*
X292417Y412575D02*
Y415875D01*
Y412575D02*
X298717D01*
X292417Y415875D02*
X298717D01*
X519636Y387904D02*
X519921Y387333D01*
X520493Y386762D01*
X521064Y386476D01*
X522206D01*
X522778Y386762D01*
X523349Y387333D01*
X523635Y387904D01*
X523920Y388761D01*
Y390189D01*
X523635Y391046D01*
X523349Y391618D01*
X522778Y392189D01*
X522206Y392475D01*
X521064D01*
X520493Y392189D01*
X519921Y391618D01*
X519636Y391046D01*
X517664Y387904D02*
Y387618D01*
X517379Y387047D01*
X517093Y386762D01*
X516522Y386476D01*
X515379D01*
X514808Y386762D01*
X514522Y387047D01*
X514237Y387618D01*
Y388190D01*
X514522Y388761D01*
X515094Y389618D01*
X517950Y392475D01*
X513951D01*
X508609Y386476D02*
X511466Y392475D01*
X512608Y386476D02*
X508609D01*
X520365Y312390D02*
X520651Y311818D01*
X521222Y311247D01*
X521794Y310961D01*
X522936D01*
X523508Y311247D01*
X524079Y311818D01*
X524365Y312390D01*
X524650Y313247D01*
Y314675D01*
X524365Y315532D01*
X524079Y316103D01*
X523508Y316674D01*
X522936Y316960D01*
X521794D01*
X521222Y316674D01*
X520651Y316103D01*
X520365Y315532D01*
X518395Y312390D02*
Y312104D01*
X518109Y311533D01*
X517823Y311247D01*
X517252Y310961D01*
X516109D01*
X515538Y311247D01*
X515252Y311533D01*
X514967Y312104D01*
Y312675D01*
X515252Y313247D01*
X515824Y314104D01*
X518680Y316960D01*
X514681D01*
X509911Y311818D02*
X510196Y311247D01*
X511053Y310961D01*
X511625D01*
X512481Y311247D01*
X513053Y312104D01*
X513339Y313532D01*
Y314960D01*
X513053Y316103D01*
X512481Y316674D01*
X511625Y316960D01*
X511339D01*
X510482Y316674D01*
X509911Y316103D01*
X509625Y315246D01*
Y314960D01*
X509911Y314104D01*
X510482Y313532D01*
X511339Y313247D01*
X511625D01*
X512481Y313532D01*
X513053Y314104D01*
X513339Y314960D01*
X529860Y324725D02*
Y330724D01*
Y324725D02*
X527289D01*
X526432Y325011D01*
X526147Y325297D01*
X525861Y325868D01*
Y326439D01*
X526147Y327010D01*
X526432Y327296D01*
X527289Y327582D01*
X529860D01*
X527860D02*
X525861Y330724D01*
X524233Y326154D02*
Y325868D01*
X523947Y325297D01*
X523661Y325011D01*
X523090Y324725D01*
X521947D01*
X521376Y325011D01*
X521091Y325297D01*
X520805Y325868D01*
Y326439D01*
X521091Y327010D01*
X521662Y327868D01*
X524518Y330724D01*
X520519D01*
X519177Y325868D02*
X518605Y325582D01*
X517748Y324725D01*
Y330724D01*
X531130Y400925D02*
Y406924D01*
Y400925D02*
X528559D01*
X527702Y401211D01*
X527416Y401497D01*
X527131Y402068D01*
Y402639D01*
X527416Y403210D01*
X527702Y403496D01*
X528559Y403782D01*
X531130D01*
X529130D02*
X527131Y406924D01*
X525503Y402354D02*
Y402068D01*
X525217Y401497D01*
X524931Y401211D01*
X524360Y400925D01*
X523217D01*
X522646Y401211D01*
X522360Y401497D01*
X522075Y402068D01*
Y402639D01*
X522360Y403210D01*
X522932Y404067D01*
X525788Y406924D01*
X521789D01*
X520161Y402354D02*
Y402068D01*
X519875Y401497D01*
X519590Y401211D01*
X519018Y400925D01*
X517876D01*
X517304Y401211D01*
X517019Y401497D01*
X516733Y402068D01*
Y402639D01*
X517019Y403210D01*
X517590Y404067D01*
X520447Y406924D01*
X516447D01*
X332516Y296212D02*
X333088Y296497D01*
X333659Y297069D01*
X333945Y297640D01*
Y298783D01*
X333659Y299354D01*
X333088Y299925D01*
X332516Y300211D01*
X331659Y300496D01*
X330231D01*
X329374Y300211D01*
X328803Y299925D01*
X328232Y299354D01*
X327946Y298783D01*
Y297640D01*
X328232Y297069D01*
X328803Y296497D01*
X329374Y296212D01*
X333945Y293098D02*
X333659Y293955D01*
X333088Y294241D01*
X332516D01*
X331945Y293955D01*
X331659Y293384D01*
X331374Y292241D01*
X331088Y291384D01*
X330517Y290813D01*
X329945Y290527D01*
X329089D01*
X328517Y290813D01*
X328232Y291098D01*
X327946Y291955D01*
Y293098D01*
X328232Y293955D01*
X328517Y294241D01*
X329089Y294526D01*
X329945D01*
X330517Y294241D01*
X331088Y293669D01*
X331374Y292812D01*
X331659Y291670D01*
X331945Y291098D01*
X332516Y290813D01*
X333088D01*
X333659Y291098D01*
X333945Y291955D01*
Y293098D01*
X347950Y292560D02*
X347378Y292275D01*
X346807Y291703D01*
X346521Y291132D01*
Y289989D01*
X346807Y289418D01*
X347378Y288847D01*
X347950Y288561D01*
X348807Y288276D01*
X350235D01*
X351092Y288561D01*
X351663Y288847D01*
X352234Y289418D01*
X352520Y289989D01*
Y291132D01*
X352234Y291703D01*
X351663Y292275D01*
X351092Y292560D01*
X346521Y298245D02*
X352520Y295388D01*
X346521Y294246D02*
Y298245D01*
X254284Y300656D02*
X254856Y300941D01*
X255427Y301513D01*
X255713Y302084D01*
Y303227D01*
X255427Y303798D01*
X254856Y304369D01*
X254284Y304655D01*
X253427Y304940D01*
X251999D01*
X251142Y304655D01*
X250571Y304369D01*
X250000Y303798D01*
X249714Y303227D01*
Y302084D01*
X250000Y301513D01*
X250571Y300941D01*
X251142Y300656D01*
X255713Y298399D02*
Y295257D01*
X253427Y296971D01*
Y296114D01*
X253142Y295542D01*
X252856Y295257D01*
X251999Y294971D01*
X251428D01*
X250571Y295257D01*
X250000Y295828D01*
X249714Y296685D01*
Y297542D01*
X250000Y298399D01*
X250285Y298685D01*
X250857Y298970D01*
X269464Y297004D02*
X268892Y296719D01*
X268321Y296147D01*
X268035Y295576D01*
Y294433D01*
X268321Y293862D01*
X268892Y293291D01*
X269464Y293005D01*
X270321Y292720D01*
X271749D01*
X272606Y293005D01*
X273177Y293291D01*
X273748Y293862D01*
X274034Y294433D01*
Y295576D01*
X273748Y296147D01*
X273177Y296719D01*
X272606Y297004D01*
X269464Y298975D02*
X269178D01*
X268607Y299261D01*
X268321Y299547D01*
X268035Y300118D01*
Y301261D01*
X268321Y301832D01*
X268607Y302118D01*
X269178Y302403D01*
X269749D01*
X270321Y302118D01*
X271178Y301546D01*
X274034Y298690D01*
Y302689D01*
X529939Y424634D02*
X535938D01*
X529939D02*
Y427205D01*
X530225Y428062D01*
X530511Y428347D01*
X531082Y428633D01*
X531653D01*
X532225Y428347D01*
X532510Y428062D01*
X532796Y427205D01*
Y424634D01*
Y426633D02*
X535938Y428633D01*
X531368Y430261D02*
X531082D01*
X530511Y430547D01*
X530225Y430832D01*
X529939Y431404D01*
Y432546D01*
X530225Y433118D01*
X530511Y433403D01*
X531082Y433689D01*
X531653D01*
X532225Y433403D01*
X533082Y432832D01*
X535938Y429976D01*
Y433975D01*
X529939Y439316D02*
X535938Y436460D01*
X529939Y435317D02*
Y439316D01*
X519299Y437874D02*
X513300D01*
X519299D02*
Y435303D01*
X519013Y434446D01*
X518728Y434160D01*
X518156Y433875D01*
X517585D01*
X517014Y434160D01*
X516728Y434446D01*
X516442Y435303D01*
Y437874D01*
Y435874D02*
X513300Y433875D01*
X517871Y432246D02*
X518156D01*
X518728Y431961D01*
X519013Y431675D01*
X519299Y431104D01*
Y429961D01*
X519013Y429390D01*
X518728Y429104D01*
X518156Y428819D01*
X517585D01*
X517014Y429104D01*
X516157Y429675D01*
X513300Y432532D01*
Y428533D01*
X519299Y423763D02*
Y426619D01*
X516728Y426905D01*
X517014Y426619D01*
X517299Y425762D01*
Y424905D01*
X517014Y424048D01*
X516442Y423477D01*
X515585Y423191D01*
X515014D01*
X514157Y423477D01*
X513586Y424048D01*
X513300Y424905D01*
Y425762D01*
X513586Y426619D01*
X513871Y426905D01*
X514443Y427190D01*
X18909Y175752D02*
X24908D01*
X18909D02*
Y178323D01*
X19195Y179180D01*
X19481Y179466D01*
X20052Y179751D01*
X20623D01*
X21195Y179466D01*
X21480Y179180D01*
X21766Y178323D01*
Y175752D01*
Y177752D02*
X24908Y179751D01*
X18909Y181665D02*
Y184807D01*
X21195Y183093D01*
Y183950D01*
X21480Y184522D01*
X21766Y184807D01*
X22623Y185093D01*
X23194D01*
X24051Y184807D01*
X24622Y184236D01*
X24908Y183379D01*
Y182522D01*
X24622Y181665D01*
X24337Y181379D01*
X23765Y181094D01*
X18909Y188149D02*
X19195Y187292D01*
X20052Y186721D01*
X21480Y186435D01*
X22337D01*
X23765Y186721D01*
X24622Y187292D01*
X24908Y188149D01*
Y188721D01*
X24622Y189578D01*
X23765Y190149D01*
X22337Y190434D01*
X21480D01*
X20052Y190149D01*
X19195Y189578D01*
X18909Y188721D01*
Y188149D01*
X287243Y297005D02*
X286672Y296719D01*
X286101Y296148D01*
X285815Y295576D01*
Y294434D01*
X286101Y293862D01*
X286672Y293291D01*
X287243Y293005D01*
X288100Y292720D01*
X289529D01*
X290386Y293005D01*
X290957Y293291D01*
X291528Y293862D01*
X291814Y294434D01*
Y295576D01*
X291528Y296148D01*
X290957Y296719D01*
X290386Y297005D01*
X287243Y298976D02*
X286958D01*
X286387Y299261D01*
X286101Y299547D01*
X285815Y300118D01*
Y301261D01*
X286101Y301832D01*
X286387Y302118D01*
X286958Y302403D01*
X287529D01*
X288100Y302118D01*
X288957Y301546D01*
X291814Y298690D01*
Y302689D01*
X287243Y304317D02*
X286958D01*
X286387Y304603D01*
X286101Y304888D01*
X285815Y305460D01*
Y306602D01*
X286101Y307174D01*
X286387Y307459D01*
X286958Y307745D01*
X287529D01*
X288100Y307459D01*
X288957Y306888D01*
X291814Y304032D01*
Y308031D01*
X223125Y169910D02*
X229124D01*
X223125D02*
Y172481D01*
X223411Y173338D01*
X223697Y173624D01*
X224268Y173909D01*
X224839D01*
X225410Y173624D01*
X225696Y173338D01*
X225982Y172481D01*
Y169910D01*
Y171910D02*
X229124Y173909D01*
X224268Y175252D02*
X223982Y175823D01*
X223125Y176680D01*
X229124D01*
X223125Y180222D02*
Y183364D01*
X225410Y181650D01*
Y182507D01*
X225696Y183079D01*
X225982Y183364D01*
X226839Y183650D01*
X227410D01*
X228267Y183364D01*
X228838Y182793D01*
X229124Y181936D01*
Y181079D01*
X228838Y180222D01*
X228553Y179936D01*
X227981Y179651D01*
X225568Y200519D02*
Y206518D01*
Y200519D02*
X222997D01*
X222140Y200805D01*
X221854Y201091D01*
X221569Y201662D01*
Y202233D01*
X221854Y202805D01*
X222140Y203090D01*
X222997Y203376D01*
X225568D01*
X223568D02*
X221569Y206518D01*
X220226Y201662D02*
X219655Y201376D01*
X218798Y200519D01*
Y206518D01*
X214113Y200519D02*
X214970Y200805D01*
X215542Y201662D01*
X215827Y203090D01*
Y203947D01*
X215542Y205375D01*
X214970Y206232D01*
X214113Y206518D01*
X213542D01*
X212685Y206232D01*
X212114Y205375D01*
X211828Y203947D01*
Y203090D01*
X212114Y201662D01*
X212685Y200805D01*
X213542Y200519D01*
X214113D01*
X133634Y163370D02*
X134206Y163655D01*
X134777Y164226D01*
X135063Y164798D01*
Y165940D01*
X134777Y166512D01*
X134206Y167083D01*
X133634Y167369D01*
X132777Y167654D01*
X131349D01*
X130492Y167369D01*
X129921Y167083D01*
X129350Y166512D01*
X129064Y165940D01*
Y164798D01*
X129350Y164226D01*
X129921Y163655D01*
X130492Y163370D01*
X135063Y161113D02*
Y157971D01*
X132777Y159685D01*
Y158828D01*
X132492Y158256D01*
X132206Y157971D01*
X131349Y157685D01*
X130778D01*
X129921Y157971D01*
X129350Y158542D01*
X129064Y159399D01*
Y160256D01*
X129350Y161113D01*
X129635Y161399D01*
X130206Y161684D01*
X135063Y154629D02*
X134777Y155486D01*
X133920Y156057D01*
X132492Y156342D01*
X131635D01*
X130206Y156057D01*
X129350Y155486D01*
X129064Y154629D01*
Y154057D01*
X129350Y153200D01*
X130206Y152629D01*
X131635Y152343D01*
X132492D01*
X133920Y152629D01*
X134777Y153200D01*
X135063Y154057D01*
Y154629D01*
X199531Y90694D02*
X193532D01*
X199531D02*
Y88123D01*
X199245Y87266D01*
X198959Y86980D01*
X198388Y86695D01*
X197817D01*
X197246Y86980D01*
X196960Y87266D01*
X196674Y88123D01*
Y90694D01*
Y88694D02*
X193532Y86695D01*
X198674Y81924D02*
X199245Y82210D01*
X199531Y83067D01*
Y83638D01*
X199245Y84495D01*
X198388Y85067D01*
X196960Y85352D01*
X195532D01*
X194389Y85067D01*
X193818Y84495D01*
X193532Y83638D01*
Y83353D01*
X193818Y82496D01*
X194389Y81924D01*
X195246Y81639D01*
X195532D01*
X196388Y81924D01*
X196960Y82496D01*
X197246Y83353D01*
Y83638D01*
X196960Y84495D01*
X196388Y85067D01*
X195532Y85352D01*
X107394Y440720D02*
X107109Y441292D01*
X106538Y441863D01*
X105966Y442149D01*
X104824D01*
X104252Y441863D01*
X103681Y441292D01*
X103395Y440720D01*
X103110Y439863D01*
Y438435D01*
X103395Y437578D01*
X103681Y437007D01*
X104252Y436436D01*
X104824Y436150D01*
X105966D01*
X106538Y436436D01*
X107109Y437007D01*
X107394Y437578D01*
X109365Y440720D02*
Y441006D01*
X109651Y441577D01*
X109937Y441863D01*
X110508Y442149D01*
X111651D01*
X112222Y441863D01*
X112508Y441577D01*
X112793Y441006D01*
Y440435D01*
X112508Y439863D01*
X111936Y439007D01*
X109080Y436150D01*
X113079D01*
X115850Y442149D02*
X114993Y441863D01*
X114707Y441292D01*
Y440720D01*
X114993Y440149D01*
X115564Y439863D01*
X116707Y439578D01*
X117564Y439292D01*
X118135Y438721D01*
X118421Y438149D01*
Y437293D01*
X118135Y436721D01*
X117849Y436436D01*
X116992Y436150D01*
X115850D01*
X114993Y436436D01*
X114707Y436721D01*
X114422Y437293D01*
Y438149D01*
X114707Y438721D01*
X115278Y439292D01*
X116135Y439578D01*
X117278Y439863D01*
X117849Y440149D01*
X118135Y440720D01*
Y441292D01*
X117849Y441863D01*
X116992Y442149D01*
X115850D01*
X31480Y410605D02*
Y404606D01*
Y410605D02*
X34051D01*
X34908Y410319D01*
X35194Y410033D01*
X35479Y409462D01*
Y408891D01*
X35194Y408320D01*
X34908Y408034D01*
X34051Y407748D01*
X31480D01*
X33480D02*
X35479Y404606D01*
X37393Y410605D02*
X40535D01*
X38821Y408320D01*
X39678D01*
X40250Y408034D01*
X40535Y407748D01*
X40821Y406891D01*
Y406320D01*
X40535Y405463D01*
X39964Y404892D01*
X39107Y404606D01*
X38250D01*
X37393Y404892D01*
X37107Y405177D01*
X36822Y405749D01*
X42449Y409176D02*
Y409462D01*
X42735Y410033D01*
X43020Y410319D01*
X43592Y410605D01*
X44734D01*
X45306Y410319D01*
X45591Y410033D01*
X45877Y409462D01*
Y408891D01*
X45591Y408320D01*
X45020Y407463D01*
X42163Y404606D01*
X46163D01*
X141365Y414290D02*
X135366D01*
X141365D02*
Y411719D01*
X141079Y410862D01*
X140793Y410577D01*
X140222Y410291D01*
X139651D01*
X139080Y410577D01*
X138794Y410862D01*
X138508Y411719D01*
Y414290D01*
Y412290D02*
X135366Y410291D01*
X139936Y408663D02*
X140222D01*
X140793Y408377D01*
X141079Y408091D01*
X141365Y407520D01*
Y406377D01*
X141079Y405806D01*
X140793Y405520D01*
X140222Y405235D01*
X139651D01*
X139080Y405520D01*
X138223Y406092D01*
X135366Y408948D01*
Y404949D01*
X141365Y402178D02*
X141079Y403035D01*
X140508Y403321D01*
X139936D01*
X139365Y403035D01*
X139080Y402464D01*
X138794Y401321D01*
X138508Y400464D01*
X137937Y399893D01*
X137366Y399608D01*
X136509D01*
X135937Y399893D01*
X135652Y400179D01*
X135366Y401036D01*
Y402178D01*
X135652Y403035D01*
X135937Y403321D01*
X136509Y403607D01*
X137366D01*
X137937Y403321D01*
X138508Y402750D01*
X138794Y401893D01*
X139080Y400750D01*
X139365Y400179D01*
X139936Y399893D01*
X140508D01*
X141079Y400179D01*
X141365Y401036D01*
Y402178D01*
X79740Y319165D02*
Y313166D01*
Y319165D02*
X82311D01*
X83168Y318879D01*
X83454Y318593D01*
X83739Y318022D01*
Y317451D01*
X83454Y316880D01*
X83168Y316594D01*
X82311Y316308D01*
X79740D01*
X81740D02*
X83739Y313166D01*
X85653Y319165D02*
X88795D01*
X87081Y316880D01*
X87938D01*
X88510Y316594D01*
X88795Y316308D01*
X89081Y315451D01*
Y314880D01*
X88795Y314023D01*
X88224Y313452D01*
X87367Y313166D01*
X86510D01*
X85653Y313452D01*
X85367Y313737D01*
X85082Y314309D01*
X90423Y318022D02*
X90995Y318308D01*
X91852Y319165D01*
Y313166D01*
X77500Y340916D02*
X78072Y341201D01*
X78643Y341772D01*
X78929Y342344D01*
Y343486D01*
X78643Y344058D01*
X78072Y344629D01*
X77500Y344915D01*
X76643Y345200D01*
X75215D01*
X74358Y344915D01*
X73787Y344629D01*
X73216Y344058D01*
X72930Y343486D01*
Y342344D01*
X73216Y341772D01*
X73787Y341201D01*
X74358Y340916D01*
X77500Y338945D02*
X77786D01*
X78357Y338659D01*
X78643Y338373D01*
X78929Y337802D01*
Y336659D01*
X78643Y336088D01*
X78357Y335802D01*
X77786Y335517D01*
X77215D01*
X76643Y335802D01*
X75786Y336374D01*
X72930Y339230D01*
Y335231D01*
X76929Y330175D02*
X76072Y330461D01*
X75501Y331032D01*
X75215Y331889D01*
Y332175D01*
X75501Y333032D01*
X76072Y333603D01*
X76929Y333889D01*
X77215D01*
X78072Y333603D01*
X78643Y333032D01*
X78929Y332175D01*
Y331889D01*
X78643Y331032D01*
X78072Y330461D01*
X76929Y330175D01*
X75501D01*
X74072Y330461D01*
X73216Y331032D01*
X72930Y331889D01*
Y332460D01*
X73216Y333317D01*
X73787Y333603D01*
X136285Y490490D02*
X130286D01*
X136285D02*
Y487919D01*
X135999Y487062D01*
X135713Y486777D01*
X135142Y486491D01*
X134571D01*
X134000Y486777D01*
X133714Y487062D01*
X133428Y487919D01*
Y490490D01*
Y488490D02*
X130286Y486491D01*
X134856Y484863D02*
X135142D01*
X135713Y484577D01*
X135999Y484291D01*
X136285Y483720D01*
Y482577D01*
X135999Y482006D01*
X135713Y481720D01*
X135142Y481435D01*
X134571D01*
X134000Y481720D01*
X133142Y482292D01*
X130286Y485148D01*
Y481149D01*
X134285Y476093D02*
X133428Y476379D01*
X132857Y476950D01*
X132571Y477807D01*
Y478093D01*
X132857Y478950D01*
X133428Y479521D01*
X134285Y479807D01*
X134571D01*
X135428Y479521D01*
X135999Y478950D01*
X136285Y478093D01*
Y477807D01*
X135999Y476950D01*
X135428Y476379D01*
X134285Y476093D01*
X132857D01*
X131429Y476379D01*
X130572Y476950D01*
X130286Y477807D01*
Y478378D01*
X130572Y479235D01*
X131143Y479521D01*
X222534Y300656D02*
X223106Y300941D01*
X223677Y301513D01*
X223963Y302084D01*
Y303227D01*
X223677Y303798D01*
X223106Y304369D01*
X222534Y304655D01*
X221677Y304940D01*
X220249D01*
X219392Y304655D01*
X218821Y304369D01*
X218250Y303798D01*
X217964Y303227D01*
Y302084D01*
X218250Y301513D01*
X218821Y300941D01*
X219392Y300656D01*
X223963Y296114D02*
X219963Y298970D01*
Y294685D01*
X223963Y296114D02*
X217964D01*
X326945Y430500D02*
X327231Y429928D01*
X327803Y429357D01*
X328374Y429071D01*
X329516D01*
X330088Y429357D01*
X330659Y429928D01*
X330945Y430500D01*
X331230Y431357D01*
Y432785D01*
X330945Y433642D01*
X330659Y434213D01*
X330088Y434784D01*
X329516Y435070D01*
X328374D01*
X327803Y434784D01*
X327231Y434213D01*
X326945Y433642D01*
X325260Y430214D02*
X324689Y429928D01*
X323832Y429071D01*
Y435070D01*
X320575Y430500D02*
Y430214D01*
X320290Y429643D01*
X320004Y429357D01*
X319433Y429071D01*
X318290D01*
X317719Y429357D01*
X317433Y429643D01*
X317148Y430214D01*
Y430785D01*
X317433Y431357D01*
X318005Y432214D01*
X320861Y435070D01*
X316862D01*
X321866Y415260D02*
X322151Y414688D01*
X322723Y414117D01*
X323294Y413831D01*
X324436D01*
X325008Y414117D01*
X325579Y414688D01*
X325865Y415260D01*
X326150Y416117D01*
Y417545D01*
X325865Y418402D01*
X325579Y418973D01*
X325008Y419544D01*
X324436Y419830D01*
X323294D01*
X322723Y419544D01*
X322151Y418973D01*
X321866Y418402D01*
X320180Y414974D02*
X319609Y414688D01*
X318752Y413831D01*
Y419830D01*
X315210Y413831D02*
X312068D01*
X313782Y416117D01*
X312925D01*
X312353Y416402D01*
X312068Y416688D01*
X311782Y417545D01*
Y418116D01*
X312068Y418973D01*
X312639Y419544D01*
X313496Y419830D01*
X314353D01*
X315210Y419544D01*
X315495Y419259D01*
X315781Y418687D01*
X417560Y293765D02*
Y287766D01*
Y293765D02*
X420131D01*
X420988Y293479D01*
X421273Y293193D01*
X421559Y292622D01*
Y292051D01*
X421273Y291479D01*
X420988Y291194D01*
X420131Y290908D01*
X417560D01*
X419560D02*
X421559Y287766D01*
X423187Y292336D02*
Y292622D01*
X423473Y293193D01*
X423759Y293479D01*
X424330Y293765D01*
X425473D01*
X426044Y293479D01*
X426329Y293193D01*
X426615Y292622D01*
Y292051D01*
X426329Y291479D01*
X425758Y290623D01*
X422902Y287766D01*
X426901D01*
X428815Y293765D02*
X431957D01*
X430243Y291479D01*
X431100D01*
X431671Y291194D01*
X431957Y290908D01*
X432243Y290051D01*
Y289480D01*
X431957Y288623D01*
X431386Y288052D01*
X430529Y287766D01*
X429672D01*
X428815Y288052D01*
X428529Y288337D01*
X428243Y288909D01*
X149465Y431530D02*
X155464D01*
X149465D02*
Y434101D01*
X149751Y434958D01*
X150037Y435243D01*
X150608Y435529D01*
X151179D01*
X151750Y435243D01*
X152036Y434958D01*
X152322Y434101D01*
Y431530D01*
Y433530D02*
X155464Y435529D01*
X149465Y437443D02*
Y440585D01*
X151750Y438871D01*
Y439728D01*
X152036Y440300D01*
X152322Y440585D01*
X153179Y440871D01*
X153750D01*
X154607Y440585D01*
X155178Y440014D01*
X155464Y439157D01*
Y438300D01*
X155178Y437443D01*
X154893Y437157D01*
X154321Y436872D01*
X149465Y445070D02*
X153464Y442213D01*
Y446498D01*
X149465Y445070D02*
X155464D01*
X164705Y431530D02*
X170704D01*
X164705D02*
Y434101D01*
X164991Y434958D01*
X165277Y435243D01*
X165848Y435529D01*
X166419D01*
X166991Y435243D01*
X167276Y434958D01*
X167562Y434101D01*
Y431530D01*
Y433530D02*
X170704Y435529D01*
X164705Y437443D02*
Y440585D01*
X166991Y438871D01*
Y439728D01*
X167276Y440300D01*
X167562Y440585D01*
X168419Y440871D01*
X168990D01*
X169847Y440585D01*
X170418Y440014D01*
X170704Y439157D01*
Y438300D01*
X170418Y437443D01*
X170133Y437157D01*
X169561Y436872D01*
X164705Y442785D02*
Y445927D01*
X166991Y444213D01*
Y445070D01*
X167276Y445641D01*
X167562Y445927D01*
X168419Y446213D01*
X168990D01*
X169847Y445927D01*
X170418Y445356D01*
X170704Y444499D01*
Y443642D01*
X170418Y442785D01*
X170133Y442499D01*
X169561Y442213D01*
X520970Y14591D02*
Y20590D01*
Y14591D02*
X518399D01*
X517542Y14877D01*
X517257Y15163D01*
X516971Y15734D01*
Y16305D01*
X517257Y16876D01*
X517542Y17162D01*
X518399Y17448D01*
X520970D01*
X518970D02*
X516971Y20590D01*
X515343Y16020D02*
Y15734D01*
X515057Y15163D01*
X514771Y14877D01*
X514200Y14591D01*
X513057D01*
X512486Y14877D01*
X512201Y15163D01*
X511915Y15734D01*
Y16305D01*
X512201Y16876D01*
X512772Y17734D01*
X515628Y20590D01*
X511629D01*
X456644Y311642D02*
X456359Y312214D01*
X455788Y312785D01*
X455216Y313071D01*
X454074D01*
X453502Y312785D01*
X452931Y312214D01*
X452645Y311642D01*
X452360Y310786D01*
Y309357D01*
X452645Y308500D01*
X452931Y307929D01*
X453502Y307358D01*
X454074Y307072D01*
X455216D01*
X455788Y307358D01*
X456359Y307929D01*
X456644Y308500D01*
X458615Y311642D02*
Y311928D01*
X458901Y312500D01*
X459187Y312785D01*
X459758Y313071D01*
X460901D01*
X461472Y312785D01*
X461758Y312500D01*
X462043Y311928D01*
Y311357D01*
X461758Y310786D01*
X461186Y309929D01*
X458330Y307072D01*
X462329D01*
X464243Y313071D02*
X467385D01*
X465671Y310786D01*
X466528D01*
X467099Y310500D01*
X467385Y310214D01*
X467671Y309357D01*
Y308786D01*
X467385Y307929D01*
X466814Y307358D01*
X465957Y307072D01*
X465100D01*
X464243Y307358D01*
X463957Y307643D01*
X463671Y308215D01*
X435880Y308677D02*
Y314676D01*
Y308677D02*
X433309D01*
X432452Y308963D01*
X432166Y309249D01*
X431881Y309820D01*
Y310391D01*
X432166Y310963D01*
X432452Y311248D01*
X433309Y311534D01*
X435880D01*
X433881D02*
X431881Y314676D01*
X430253Y310106D02*
Y309820D01*
X429967Y309249D01*
X429681Y308963D01*
X429110Y308677D01*
X427967D01*
X427396Y308963D01*
X427110Y309249D01*
X426825Y309820D01*
Y310391D01*
X427110Y310963D01*
X427682Y311820D01*
X430538Y314676D01*
X426539D01*
X423483Y308677D02*
X424340Y308963D01*
X424911Y309820D01*
X425197Y311248D01*
Y312105D01*
X424911Y313533D01*
X424340Y314391D01*
X423483Y314676D01*
X422911D01*
X422054Y314391D01*
X421483Y313533D01*
X421198Y312105D01*
Y311248D01*
X421483Y309820D01*
X422054Y308963D01*
X422911Y308677D01*
X423483D01*
X296531Y191860D02*
X302530D01*
X296531D02*
Y194431D01*
X296817Y195288D01*
X297103Y195574D01*
X297674Y195859D01*
X298245D01*
X298817Y195574D01*
X299102Y195288D01*
X299388Y194431D01*
Y191860D01*
Y193860D02*
X302530Y195859D01*
X296531Y198630D02*
X296817Y197773D01*
X297388Y197488D01*
X297960D01*
X298531Y197773D01*
X298817Y198344D01*
X299102Y199487D01*
X299388Y200344D01*
X299959Y200915D01*
X300530Y201201D01*
X301387D01*
X301959Y200915D01*
X302244Y200630D01*
X302530Y199773D01*
Y198630D01*
X302244Y197773D01*
X301959Y197488D01*
X301387Y197202D01*
X300530D01*
X299959Y197488D01*
X299388Y198059D01*
X299102Y198916D01*
X298817Y200058D01*
X298531Y200630D01*
X297960Y200915D01*
X297388D01*
X296817Y200630D01*
X296531Y199773D01*
Y198630D01*
X318911Y204994D02*
X312912D01*
X318911D02*
Y202423D01*
X318625Y201566D01*
X318339Y201280D01*
X317768Y200995D01*
X317197D01*
X316625Y201280D01*
X316340Y201566D01*
X316054Y202423D01*
Y204994D01*
Y202994D02*
X312912Y200995D01*
X317768Y199652D02*
X318054Y199081D01*
X318911Y198224D01*
X312912D01*
X318911Y192397D02*
X314911Y195253D01*
Y190968D01*
X318911Y192397D02*
X312912D01*
X279767Y191860D02*
X285766D01*
X279767D02*
Y194431D01*
X280053Y195288D01*
X280339Y195574D01*
X280910Y195859D01*
X281481D01*
X282052Y195574D01*
X282338Y195288D01*
X282624Y194431D01*
Y191860D01*
Y193860D02*
X285766Y195859D01*
X281767Y200915D02*
X282624Y200630D01*
X283195Y200058D01*
X283481Y199201D01*
Y198916D01*
X283195Y198059D01*
X282624Y197488D01*
X281767Y197202D01*
X281481D01*
X280624Y197488D01*
X280053Y198059D01*
X279767Y198916D01*
Y199201D01*
X280053Y200058D01*
X280624Y200630D01*
X281767Y200915D01*
X283195D01*
X284623Y200630D01*
X285480Y200058D01*
X285766Y199201D01*
Y198630D01*
X285480Y197773D01*
X284909Y197488D01*
X263257Y191860D02*
X269256D01*
X263257D02*
Y194431D01*
X263543Y195288D01*
X263829Y195574D01*
X264400Y195859D01*
X264971D01*
X265543Y195574D01*
X265828Y195288D01*
X266114Y194431D01*
Y191860D01*
Y193860D02*
X269256Y195859D01*
X264400Y197202D02*
X264114Y197773D01*
X263257Y198630D01*
X269256D01*
X264686Y201887D02*
X264400D01*
X263829Y202172D01*
X263543Y202458D01*
X263257Y203029D01*
Y204172D01*
X263543Y204743D01*
X263829Y205029D01*
X264400Y205314D01*
X264971D01*
X265543Y205029D01*
X266399Y204457D01*
X269256Y201601D01*
Y205600D01*
X252617Y205100D02*
X246618D01*
X252617D02*
Y202529D01*
X252331Y201672D01*
X252045Y201387D01*
X251474Y201101D01*
X250903D01*
X250331Y201387D01*
X250046Y201672D01*
X249760Y202529D01*
Y205100D01*
Y203101D02*
X246618Y201101D01*
X251474Y199758D02*
X251760Y199187D01*
X252617Y198330D01*
X246618D01*
X252617Y191931D02*
Y194788D01*
X250046Y195074D01*
X250331Y194788D01*
X250617Y193931D01*
Y193074D01*
X250331Y192217D01*
X249760Y191646D01*
X248903Y191360D01*
X248332D01*
X247475Y191646D01*
X246904Y192217D01*
X246618Y193074D01*
Y193931D01*
X246904Y194788D01*
X247189Y195074D01*
X247761Y195359D01*
X332516Y200708D02*
X333088Y200993D01*
X333659Y201565D01*
X333945Y202136D01*
Y203278D01*
X333659Y203850D01*
X333088Y204421D01*
X332516Y204707D01*
X331659Y204992D01*
X330231D01*
X329374Y204707D01*
X328803Y204421D01*
X328232Y203850D01*
X327946Y203278D01*
Y202136D01*
X328232Y201565D01*
X328803Y200993D01*
X329374Y200708D01*
X332516Y198737D02*
X332802D01*
X333373Y198451D01*
X333659Y198165D01*
X333945Y197594D01*
Y196451D01*
X333659Y195880D01*
X333373Y195594D01*
X332802Y195309D01*
X332231D01*
X331659Y195594D01*
X330802Y196166D01*
X327946Y199022D01*
Y195023D01*
X333945Y191967D02*
X333659Y192824D01*
X332802Y193395D01*
X331374Y193680D01*
X330517D01*
X329089Y193395D01*
X328232Y192824D01*
X327946Y191967D01*
Y191395D01*
X328232Y190538D01*
X329089Y189967D01*
X330517Y189681D01*
X331374D01*
X332802Y189967D01*
X333659Y190538D01*
X333945Y191395D01*
Y191967D01*
X245062Y275620D02*
X244777Y276192D01*
X244205Y276763D01*
X243634Y277049D01*
X242491D01*
X241920Y276763D01*
X241349Y276192D01*
X241063Y275620D01*
X240778Y274763D01*
Y273335D01*
X241063Y272478D01*
X241349Y271907D01*
X241920Y271336D01*
X242491Y271050D01*
X243634D01*
X244205Y271336D01*
X244777Y271907D01*
X245062Y272478D01*
X250176Y277049D02*
X247319D01*
X247033Y274478D01*
X247319Y274763D01*
X248176Y275049D01*
X249033D01*
X249890Y274763D01*
X250461Y274192D01*
X250747Y273335D01*
Y272764D01*
X250461Y271907D01*
X249890Y271336D01*
X249033Y271050D01*
X248176D01*
X247319Y271336D01*
X247033Y271621D01*
X246748Y272193D01*
X570089Y494214D02*
X576088D01*
X570089D02*
Y496785D01*
X570375Y497642D01*
X570661Y497927D01*
X571232Y498213D01*
X571803D01*
X572374Y497927D01*
X572660Y497642D01*
X572946Y496785D01*
Y494214D01*
Y496213D02*
X576088Y498213D01*
X571232Y499556D02*
X570946Y500127D01*
X570089Y500984D01*
X576088D01*
X572994Y461724D02*
X572422Y461439D01*
X571851Y460868D01*
X571565Y460296D01*
Y459154D01*
X571851Y458582D01*
X572422Y458011D01*
X572994Y457725D01*
X573851Y457440D01*
X575279D01*
X576136Y457725D01*
X576707Y458011D01*
X577278Y458582D01*
X577564Y459154D01*
Y460296D01*
X577278Y460868D01*
X576707Y461439D01*
X576136Y461724D01*
X572708Y463410D02*
X572422Y463981D01*
X571565Y464838D01*
X577564D01*
X402860Y426325D02*
Y432324D01*
Y426325D02*
X400289D01*
X399432Y426611D01*
X399146Y426897D01*
X398861Y427468D01*
Y428039D01*
X399146Y428610D01*
X399432Y428896D01*
X400289Y429182D01*
X402860D01*
X400860D02*
X398861Y432324D01*
X397518Y427468D02*
X396947Y427182D01*
X396090Y426325D01*
Y432324D01*
X389406Y428325D02*
X389691Y429182D01*
X390263Y429753D01*
X391120Y430039D01*
X391405D01*
X392262Y429753D01*
X392834Y429182D01*
X393119Y428325D01*
Y428039D01*
X392834Y427182D01*
X392262Y426611D01*
X391405Y426325D01*
X391120D01*
X390263Y426611D01*
X389691Y427182D01*
X389406Y428325D01*
Y429753D01*
X389691Y431181D01*
X390263Y432038D01*
X391120Y432324D01*
X391691D01*
X392548Y432038D01*
X392834Y431467D01*
X427115Y413020D02*
X421116D01*
X427115D02*
Y410449D01*
X426829Y409592D01*
X426543Y409306D01*
X425972Y409021D01*
X425401D01*
X424829Y409306D01*
X424544Y409592D01*
X424258Y410449D01*
Y413020D01*
Y411020D02*
X421116Y409021D01*
X425972Y407678D02*
X426258Y407107D01*
X427115Y406250D01*
X421116D01*
X427115Y401851D02*
X426829Y402708D01*
X426258Y402994D01*
X425686D01*
X425115Y402708D01*
X424829Y402137D01*
X424544Y400994D01*
X424258Y400137D01*
X423687Y399566D01*
X423116Y399280D01*
X422259D01*
X421687Y399566D01*
X421402Y399851D01*
X421116Y400708D01*
Y401851D01*
X421402Y402708D01*
X421687Y402994D01*
X422259Y403279D01*
X423116D01*
X423687Y402994D01*
X424258Y402422D01*
X424544Y401565D01*
X424829Y400423D01*
X425115Y399851D01*
X425686Y399566D01*
X426258D01*
X426829Y399851D01*
X427115Y400708D01*
Y401851D01*
X424210Y376476D02*
X424782Y376761D01*
X425353Y377332D01*
X425639Y377904D01*
Y379046D01*
X425353Y379618D01*
X424782Y380189D01*
X424210Y380475D01*
X423353Y380760D01*
X421925D01*
X421068Y380475D01*
X420497Y380189D01*
X419926Y379618D01*
X419640Y379046D01*
Y377904D01*
X419926Y377332D01*
X420497Y376761D01*
X421068Y376476D01*
X424210Y374505D02*
X424496D01*
X425067Y374219D01*
X425353Y373933D01*
X425639Y373362D01*
Y372219D01*
X425353Y371648D01*
X425067Y371362D01*
X424496Y371077D01*
X423925D01*
X423353Y371362D01*
X422496Y371934D01*
X419640Y374790D01*
Y370791D01*
X425639Y366592D02*
X421640Y369449D01*
Y365164D01*
X425639Y366592D02*
X419640D01*
X226552Y231641D02*
Y225642D01*
Y231641D02*
X229123D01*
X229980Y231355D01*
X230266Y231070D01*
X230551Y230498D01*
Y229927D01*
X230266Y229356D01*
X229980Y229070D01*
X229123Y228784D01*
X226552D01*
X228552D02*
X230551Y225642D01*
X231894Y230498D02*
X232465Y230784D01*
X233322Y231641D01*
Y225642D01*
X236293Y230498D02*
X236864Y230784D01*
X237721Y231641D01*
Y225642D01*
X324564Y141000D02*
X324279Y141572D01*
X323708Y142143D01*
X323136Y142429D01*
X321993D01*
X321422Y142143D01*
X320851Y141572D01*
X320565Y141000D01*
X320280Y140143D01*
Y138715D01*
X320565Y137858D01*
X320851Y137287D01*
X321422Y136716D01*
X321993Y136430D01*
X323136D01*
X323708Y136716D01*
X324279Y137287D01*
X324564Y137858D01*
X326250Y141286D02*
X326821Y141572D01*
X327678Y142429D01*
Y136430D01*
X332077Y142429D02*
X331220Y142143D01*
X330934Y141572D01*
Y141000D01*
X331220Y140429D01*
X331791Y140143D01*
X332934Y139858D01*
X333791Y139572D01*
X334362Y139001D01*
X334648Y138429D01*
Y137573D01*
X334362Y137001D01*
X334077Y136716D01*
X333220Y136430D01*
X332077D01*
X331220Y136716D01*
X330934Y137001D01*
X330649Y137573D01*
Y138429D01*
X330934Y139001D01*
X331506Y139572D01*
X332363Y139858D01*
X333505Y140143D01*
X334077Y140429D01*
X334362Y141000D01*
Y141572D01*
X334077Y142143D01*
X333220Y142429D01*
X332077D01*
X279702Y104766D02*
X279987Y104194D01*
X280558Y103623D01*
X281130Y103337D01*
X282272D01*
X282844Y103623D01*
X283415Y104194D01*
X283701Y104766D01*
X283986Y105622D01*
Y107051D01*
X283701Y107908D01*
X283415Y108479D01*
X282844Y109050D01*
X282272Y109336D01*
X281130D01*
X280558Y109050D01*
X279987Y108479D01*
X279702Y107908D01*
X278016Y104480D02*
X277445Y104194D01*
X276588Y103337D01*
Y109336D01*
X270189Y104194D02*
X270475Y103623D01*
X271332Y103337D01*
X271903D01*
X272760Y103623D01*
X273332Y104480D01*
X273617Y105908D01*
Y107336D01*
X273332Y108479D01*
X272760Y109050D01*
X271903Y109336D01*
X271618D01*
X270761Y109050D01*
X270189Y108479D01*
X269904Y107622D01*
Y107336D01*
X270189Y106479D01*
X270761Y105908D01*
X271618Y105622D01*
X271903D01*
X272760Y105908D01*
X273332Y106479D01*
X273617Y107336D01*
X279702Y120006D02*
X279987Y119434D01*
X280558Y118863D01*
X281130Y118577D01*
X282272D01*
X282844Y118863D01*
X283415Y119434D01*
X283701Y120006D01*
X283986Y120862D01*
Y122291D01*
X283701Y123148D01*
X283415Y123719D01*
X282844Y124290D01*
X282272Y124576D01*
X281130D01*
X280558Y124290D01*
X279987Y123719D01*
X279702Y123148D01*
X278016Y119720D02*
X277445Y119434D01*
X276588Y118577D01*
Y124576D01*
X269618Y118577D02*
X272474Y124576D01*
X273617Y118577D02*
X269618D01*
X486015Y401950D02*
X492014D01*
X486015D02*
Y404521D01*
X486301Y405378D01*
X486587Y405663D01*
X487158Y405949D01*
X487729D01*
X488301Y405663D01*
X488586Y405378D01*
X488872Y404521D01*
Y401950D01*
Y403950D02*
X492014Y405949D01*
X487444Y407577D02*
X487158D01*
X486587Y407863D01*
X486301Y408149D01*
X486015Y408720D01*
Y409863D01*
X486301Y410434D01*
X486587Y410719D01*
X487158Y411005D01*
X487729D01*
X488301Y410719D01*
X489157Y410148D01*
X492014Y407292D01*
Y411291D01*
X486872Y416061D02*
X486301Y415776D01*
X486015Y414919D01*
Y414347D01*
X486301Y413490D01*
X487158Y412919D01*
X488586Y412633D01*
X490014D01*
X491157Y412919D01*
X491728Y413490D01*
X492014Y414347D01*
Y414633D01*
X491728Y415490D01*
X491157Y416061D01*
X490300Y416347D01*
X490014D01*
X489157Y416061D01*
X488586Y415490D01*
X488301Y414633D01*
Y414347D01*
X488586Y413490D01*
X489157Y412919D01*
X490014Y412633D01*
X473980Y428865D02*
Y434864D01*
Y428865D02*
X471409D01*
X470552Y429151D01*
X470266Y429437D01*
X469981Y430008D01*
Y430579D01*
X470266Y431151D01*
X470552Y431436D01*
X471409Y431722D01*
X473980D01*
X471980D02*
X469981Y434864D01*
X468353Y430294D02*
Y430008D01*
X468067Y429437D01*
X467781Y429151D01*
X467210Y428865D01*
X466067D01*
X465496Y429151D01*
X465210Y429437D01*
X464925Y430008D01*
Y430579D01*
X465210Y431151D01*
X465782Y432007D01*
X468638Y434864D01*
X464639D01*
X460440Y428865D02*
X463297Y432864D01*
X459012D01*
X460440Y428865D02*
Y434864D01*
X234394Y340390D02*
X234109Y340962D01*
X233538Y341533D01*
X232966Y341819D01*
X231824D01*
X231252Y341533D01*
X230681Y340962D01*
X230395Y340390D01*
X230110Y339533D01*
Y338105D01*
X230395Y337248D01*
X230681Y336677D01*
X231252Y336106D01*
X231824Y335820D01*
X232966D01*
X233538Y336106D01*
X234109Y336677D01*
X234394Y337248D01*
X239508Y340962D02*
X239222Y341533D01*
X238365Y341819D01*
X237794D01*
X236937Y341533D01*
X236365Y340676D01*
X236080Y339248D01*
Y337820D01*
X236365Y336677D01*
X236937Y336106D01*
X237794Y335820D01*
X238079D01*
X238936Y336106D01*
X239508Y336677D01*
X239793Y337534D01*
Y337820D01*
X239508Y338676D01*
X238936Y339248D01*
X238079Y339533D01*
X237794D01*
X236937Y339248D01*
X236365Y338676D01*
X236080Y337820D01*
X415685Y342362D02*
X409686D01*
X415685D02*
Y339791D01*
X415399Y338934D01*
X415113Y338649D01*
X414542Y338363D01*
X413971D01*
X413400Y338649D01*
X413114Y338934D01*
X412828Y339791D01*
Y342362D01*
Y340363D02*
X409686Y338363D01*
X415685Y334164D02*
X411686Y337020D01*
Y332736D01*
X415685Y334164D02*
X409686D01*
X400445Y342362D02*
X394446D01*
X400445D02*
Y339791D01*
X400159Y338934D01*
X399873Y338649D01*
X399302Y338363D01*
X398731D01*
X398159Y338649D01*
X397874Y338934D01*
X397588Y339791D01*
Y342362D01*
Y340363D02*
X394446Y338363D01*
X400445Y333021D02*
X394446Y335878D01*
X400445Y337020D02*
Y333021D01*
X314545Y294111D02*
X320544D01*
X314545D02*
Y296682D01*
X314831Y297539D01*
X315116Y297825D01*
X315688Y298110D01*
X316259D01*
X316830Y297825D01*
X317116Y297539D01*
X317401Y296682D01*
Y294111D01*
Y296111D02*
X320544Y298110D01*
X314545Y300024D02*
Y303166D01*
X316830Y301452D01*
Y302309D01*
X317116Y302881D01*
X317401Y303166D01*
X318258Y303452D01*
X318830D01*
X319687Y303166D01*
X320258Y302595D01*
X320544Y301738D01*
Y300881D01*
X320258Y300024D01*
X319972Y299739D01*
X319401Y299453D01*
X266144Y435640D02*
X265859Y436212D01*
X265287Y436783D01*
X264716Y437069D01*
X263573D01*
X263002Y436783D01*
X262431Y436212D01*
X262145Y435640D01*
X261860Y434783D01*
Y433355D01*
X262145Y432498D01*
X262431Y431927D01*
X263002Y431356D01*
X263573Y431070D01*
X264716D01*
X265287Y431356D01*
X265859Y431927D01*
X266144Y432498D01*
X267830Y435926D02*
X268401Y436212D01*
X269258Y437069D01*
Y431070D01*
X275085Y437069D02*
X272229Y433069D01*
X276514D01*
X275085Y437069D02*
Y431070D01*
X269954Y420400D02*
X269669Y420972D01*
X269097Y421543D01*
X268526Y421829D01*
X267383D01*
X266812Y421543D01*
X266241Y420972D01*
X265955Y420400D01*
X265670Y419543D01*
Y418115D01*
X265955Y417258D01*
X266241Y416687D01*
X266812Y416116D01*
X267383Y415830D01*
X268526D01*
X269097Y416116D01*
X269669Y416687D01*
X269954Y417258D01*
X271640Y420686D02*
X272211Y420972D01*
X273068Y421829D01*
Y415830D01*
X279467Y421829D02*
X276610D01*
X276325Y419258D01*
X276610Y419543D01*
X277467Y419829D01*
X278324D01*
X279181Y419543D01*
X279752Y418972D01*
X280038Y418115D01*
Y417544D01*
X279752Y416687D01*
X279181Y416116D01*
X278324Y415830D01*
X277467D01*
X276610Y416116D01*
X276325Y416401D01*
X276039Y416973D01*
X302484Y297004D02*
X301912Y296719D01*
X301341Y296147D01*
X301055Y295576D01*
Y294434D01*
X301341Y293862D01*
X301912Y293291D01*
X302484Y293005D01*
X303340Y292720D01*
X304769D01*
X305626Y293005D01*
X306197Y293291D01*
X306768Y293862D01*
X307054Y294434D01*
Y295576D01*
X306768Y296147D01*
X306197Y296719D01*
X305626Y297004D01*
X301055Y299261D02*
Y302403D01*
X303340Y300689D01*
Y301546D01*
X303626Y302118D01*
X303912Y302403D01*
X304769Y302689D01*
X305340D01*
X306197Y302403D01*
X306768Y301832D01*
X307054Y300975D01*
Y300118D01*
X306768Y299261D01*
X306483Y298975D01*
X305911Y298690D01*
X302484Y304317D02*
X302198D01*
X301627Y304603D01*
X301341Y304888D01*
X301055Y305460D01*
Y306602D01*
X301341Y307174D01*
X301627Y307459D01*
X302198Y307745D01*
X302769D01*
X303340Y307459D01*
X304198Y306888D01*
X307054Y304032D01*
Y308031D01*
D14*
X542290Y35760D02*
G03*
X542290Y35760I-762J0D01*
G01*
X582676Y80972D02*
X587756D01*
X585216Y83512D02*
X587756Y80972D01*
X585216Y78432D02*
X587756Y80972D01*
X582676Y27632D02*
X587756D01*
X585216Y30172D02*
X587756Y27632D01*
X585216Y25092D02*
X587756Y27632D01*
X591820D02*
X596900D01*
X591820D02*
X594360Y25092D01*
X591820Y27632D02*
X594360Y30172D01*
X591820Y80972D02*
X596900D01*
X591820D02*
X594360Y78432D01*
X591820Y80972D02*
X594360Y83512D01*
X358902Y326393D02*
X353824Y334010D01*
Y326393D02*
X358902Y334010D01*
X351284D02*
X348745D01*
X350015D01*
Y326393D01*
X351284Y327662D01*
X557024Y20012D02*
X563880D01*
X560452D01*
Y24583D01*
X557024D01*
X563880D01*
Y26868D02*
Y29153D01*
Y28010D01*
X557024D01*
X558167Y26868D01*
D16*
X104140Y311150D02*
Y381000D01*
X172720Y311150D02*
Y381000D01*
X104140D02*
X172720D01*
X104140Y311150D02*
X172720D01*
X472945Y466086D02*
X470406Y468625D01*
X465327D01*
X462788Y466086D01*
Y463547D01*
X465327Y461007D01*
X470406D01*
X472945Y458468D01*
Y455929D01*
X470406Y453390D01*
X465327D01*
X462788Y455929D01*
X478023Y468625D02*
Y453390D01*
X483101Y458468D01*
X488180Y453390D01*
Y468625D01*
X493258Y453390D02*
X498336D01*
X495797D01*
Y468625D01*
X493258Y466086D01*
X454958Y401799D02*
Y405877D01*
Y403838D01*
X444761D01*
X442722Y405877D01*
Y407917D01*
X444761Y409956D01*
X442722Y397720D02*
X454958D01*
Y391602D01*
X452919Y389563D01*
X448840D01*
X446801Y391602D01*
Y397720D01*
X442722Y379366D02*
X454958D01*
X448840Y385484D01*
Y377327D01*
X567988Y340585D02*
Y344663D01*
Y342624D01*
X557791D01*
X555752Y344663D01*
Y346703D01*
X557791Y348742D01*
X555752Y336506D02*
X567988D01*
Y330388D01*
X565949Y328349D01*
X561870D01*
X559831Y330388D01*
Y336506D01*
X565949Y324270D02*
X567988Y322230D01*
Y318152D01*
X565949Y316112D01*
X563909D01*
X561870Y318152D01*
X559831Y316112D01*
X557791D01*
X555752Y318152D01*
Y322230D01*
X557791Y324270D01*
X559831D01*
X561870Y322230D01*
X563909Y324270D01*
X565949D01*
X561870Y322230D02*
Y318152D01*
X180292Y256061D02*
Y251983D01*
Y254022D01*
X190489D01*
X192528Y251983D01*
Y249943D01*
X190489Y247904D01*
X192528Y260140D02*
X180292D01*
Y266258D01*
X182331Y268297D01*
X186410D01*
X188449Y266258D01*
Y260140D01*
X190489Y272376D02*
X192528Y274415D01*
Y278494D01*
X190489Y280533D01*
X182331D01*
X180292Y278494D01*
Y274415D01*
X182331Y272376D01*
X184371D01*
X186410Y274415D01*
Y280533D01*
X316790Y378197D02*
Y390893D01*
X314251Y393432D01*
X309172D01*
X306633Y390893D01*
Y378197D01*
X301555Y393432D02*
X296477D01*
X299016D01*
Y378197D01*
X301555Y380736D01*
X432559Y24097D02*
X427480D01*
X430020D01*
Y11401D01*
X427480Y8862D01*
X424941D01*
X422402Y11401D01*
X437637Y8862D02*
Y24097D01*
X445255D01*
X447794Y21558D01*
Y16480D01*
X445255Y13941D01*
X437637D01*
X452872Y21558D02*
X455411Y24097D01*
X460490D01*
X463029Y21558D01*
Y19019D01*
X460490Y16480D01*
X457951D01*
X460490D01*
X463029Y13941D01*
Y11401D01*
X460490Y8862D01*
X455411D01*
X452872Y11401D01*
X21332Y371859D02*
X23871Y374398D01*
Y379477D01*
X21332Y382016D01*
X18793D01*
X16253Y379477D01*
Y374398D01*
X13714Y371859D01*
X11175D01*
X8636Y374398D01*
Y379477D01*
X11175Y382016D01*
X23871Y366781D02*
X8636D01*
X13714Y361703D01*
X8636Y356624D01*
X23871D01*
X21332Y351546D02*
X23871Y349007D01*
Y343928D01*
X21332Y341389D01*
X18793D01*
X16253Y343928D01*
Y346468D01*
Y343928D01*
X13714Y341389D01*
X11175D01*
X8636Y343928D01*
Y349007D01*
X11175Y351546D01*
X97645Y497082D02*
X100185Y494543D01*
X105263D01*
X107802Y497082D01*
Y499621D01*
X105263Y502160D01*
X100185D01*
X97645Y504700D01*
Y507239D01*
X100185Y509778D01*
X105263D01*
X107802Y507239D01*
X92567Y494543D02*
Y509778D01*
X87489Y504700D01*
X82410Y509778D01*
Y494543D01*
X67175Y509778D02*
X77332D01*
X67175Y499621D01*
Y497082D01*
X69714Y494543D01*
X74793D01*
X77332Y497082D01*
X191259Y24633D02*
X186180D01*
X188720D01*
Y11937D01*
X186180Y9398D01*
X183641D01*
X181102Y11937D01*
X196337Y9398D02*
Y24633D01*
X203955D01*
X206494Y22094D01*
Y17016D01*
X203955Y14476D01*
X196337D01*
X211572Y9398D02*
X216651D01*
X214111D01*
Y24633D01*
X211572Y22094D01*
X196552Y332261D02*
Y328183D01*
Y330222D01*
X206749D01*
X208788Y328183D01*
Y326143D01*
X206749Y324104D01*
X208788Y336340D02*
X196552D01*
Y342458D01*
X198591Y344497D01*
X202670D01*
X204709Y342458D01*
Y336340D01*
X208788Y348576D02*
Y352655D01*
Y350615D01*
X196552D01*
X198591Y348576D01*
X208788Y358773D02*
Y362851D01*
Y360812D01*
X196552D01*
X198591Y358773D01*
X297698Y156686D02*
Y166683D01*
X295699Y168682D01*
X291700D01*
X289701Y166683D01*
Y156686D01*
X277705Y168682D02*
X285702D01*
X277705Y160685D01*
Y158685D01*
X279704Y156686D01*
X283703D01*
X285702Y158685D01*
X462534Y131735D02*
Y140066D01*
X460868Y141732D01*
X457536D01*
X455869Y140066D01*
Y131735D01*
X452537Y133401D02*
X450871Y131735D01*
X447539D01*
X445873Y133401D01*
Y135068D01*
X447539Y136734D01*
X449205D01*
X447539D01*
X445873Y138400D01*
Y140066D01*
X447539Y141732D01*
X450871D01*
X452537Y140066D01*
X378971Y36174D02*
X389128D01*
Y41252D01*
X387435Y42945D01*
X380664D01*
X378971Y41252D01*
Y36174D01*
X389128Y46331D02*
Y49716D01*
Y48024D01*
X378971D01*
X380664Y46331D01*
X279435Y81006D02*
X281268Y79174D01*
X284933D01*
X286766Y81006D01*
Y88337D01*
X284933Y90170D01*
X281268D01*
X279435Y88337D01*
X268439Y90170D02*
X275770D01*
X268439Y82839D01*
Y81006D01*
X270271Y79174D01*
X273937D01*
X275770Y81006D01*
X257442Y79174D02*
X264773D01*
Y84672D01*
X261108Y82839D01*
X259275D01*
X257442Y84672D01*
Y88337D01*
X259275Y90170D01*
X262940D01*
X264773Y88337D01*
X132871Y129330D02*
X128793D01*
X130832D01*
Y119133D01*
X128793Y117094D01*
X126753D01*
X124714Y119133D01*
X136950Y117094D02*
Y129330D01*
X143068D01*
X145107Y127291D01*
Y123212D01*
X143068Y121173D01*
X136950D01*
X157343Y117094D02*
X149186D01*
X157343Y125251D01*
Y127291D01*
X155304Y129330D01*
X151225D01*
X149186Y127291D01*
X160303Y182162D02*
X156225D01*
X158264D01*
Y171965D01*
X156225Y169926D01*
X154185D01*
X152146Y171965D01*
X164382Y169926D02*
Y182162D01*
X170500D01*
X172539Y180123D01*
Y176044D01*
X170500Y174005D01*
X164382D01*
X176618Y169926D02*
X180697D01*
X178657D01*
Y182162D01*
X176618Y180123D01*
X186815D02*
X188854Y182162D01*
X192933D01*
X194972Y180123D01*
Y171965D01*
X192933Y169926D01*
X188854D01*
X186815Y171965D01*
Y180123D01*
X109220Y331465D02*
Y316230D01*
Y323848D01*
X119377D01*
Y331465D01*
Y316230D01*
X134612D02*
X124455D01*
X134612Y326387D01*
Y328926D01*
X132073Y331465D01*
X126994D01*
X124455Y328926D01*
D169*
X217516Y147757D02*
X218061Y146669D01*
X219149Y145581D01*
X220237Y145036D01*
X222414D01*
X223502Y145581D01*
X224591Y146669D01*
X225135Y147757D01*
X225679Y149390D01*
Y152111D01*
X225135Y153743D01*
X224591Y154831D01*
X223502Y155920D01*
X222414Y156464D01*
X220237D01*
X219149Y155920D01*
X218061Y154831D01*
X217516Y153743D01*
X213762Y147757D02*
Y147213D01*
X213218Y146125D01*
X212673Y145581D01*
X211585Y145036D01*
X209408D01*
X208320Y145581D01*
X207776Y146125D01*
X207232Y147213D01*
Y148301D01*
X207776Y149390D01*
X208864Y151022D01*
X214306Y156464D01*
X206688D01*
X204130Y147213D02*
X203042Y146669D01*
X201409Y145036D01*
Y156464D01*
X382199Y96788D02*
X381111Y96243D01*
X380023Y95155D01*
X379478Y94067D01*
Y91890D01*
X380023Y90802D01*
X381111Y89713D01*
X382199Y89169D01*
X383832Y88625D01*
X386553D01*
X388185Y89169D01*
X389273Y89713D01*
X390362Y90802D01*
X390906Y91890D01*
Y94067D01*
X390362Y95155D01*
X389273Y96243D01*
X388185Y96788D01*
X381655Y99998D02*
X381111Y101087D01*
X379478Y102719D01*
X390906D01*
X383288Y115453D02*
X384920Y114909D01*
X386008Y113820D01*
X386553Y112188D01*
Y111643D01*
X386008Y110011D01*
X384920Y108923D01*
X383288Y108378D01*
X382743D01*
X381111Y108923D01*
X380023Y110011D01*
X379478Y111643D01*
Y112188D01*
X380023Y113820D01*
X381111Y114909D01*
X383288Y115453D01*
X386008D01*
X388729Y114909D01*
X390362Y113820D01*
X390906Y112188D01*
Y111099D01*
X390362Y109467D01*
X389273Y108923D01*
X335691Y99061D02*
Y110489D01*
X329161D01*
X321379Y100694D02*
X321923Y99606D01*
X323556Y99061D01*
X324644D01*
X326277Y99606D01*
X327365Y101238D01*
X327909Y103959D01*
Y106680D01*
X327365Y108856D01*
X326277Y109945D01*
X324644Y110489D01*
X324100D01*
X322468Y109945D01*
X321379Y108856D01*
X320835Y107224D01*
Y106680D01*
X321379Y105047D01*
X322468Y103959D01*
X324100Y103415D01*
X324644D01*
X326277Y103959D01*
X327365Y105047D01*
X327909Y106680D01*
D170*
X227584Y140335D02*
Y158369D01*
X192532Y140335D02*
Y158369D01*
Y140335D02*
X200152D01*
X192532Y158369D02*
X200152D01*
Y140335D02*
Y158369D01*
X219964D02*
X227584D01*
X219964Y140335D02*
X227584D01*
X219964D02*
Y158369D01*
X374777Y94340D02*
X392811D01*
X374777Y86720D02*
Y94340D01*
X392811Y86720D02*
Y94340D01*
X374777Y114152D02*
X392811D01*
Y121772D01*
X374777Y114152D02*
Y121772D01*
X392811D01*
X374777Y86720D02*
X392811D01*
D171*
X339670Y366700D02*
Y398700D01*
X364670Y366700D02*
Y398700D01*
X339670Y366700D02*
X364670D01*
X339670Y398700D02*
X364670D01*
D172*
X199109Y120312D02*
X194110D01*
Y117455D01*
X199109Y113813D02*
Y116908D01*
X194110D01*
Y113813D01*
X196728Y116908D02*
Y115003D01*
X199109Y112980D02*
X194110D01*
X199109D02*
Y111314D01*
X198871Y110599D01*
X198395Y110123D01*
X197918Y109885D01*
X197204Y109647D01*
X196014D01*
X195300Y109885D01*
X194824Y110123D01*
X194348Y110599D01*
X194110Y111314D01*
Y112980D01*
X197918Y108291D02*
X198157D01*
X198633Y108052D01*
X198871Y107814D01*
X199109Y107338D01*
Y106386D01*
X198871Y105910D01*
X198633Y105672D01*
X198157Y105434D01*
X197680D01*
X197204Y105672D01*
X196490Y106148D01*
X194110Y108528D01*
Y105196D01*
X151157Y402674D02*
X156156D01*
Y405531D01*
X151157Y409173D02*
Y406078D01*
X156156D01*
Y409173D01*
X153538Y406078D02*
Y407983D01*
X151157Y410006D02*
X156156D01*
X151157D02*
Y411672D01*
X151395Y412386D01*
X151871Y412863D01*
X152347Y413101D01*
X153062Y413339D01*
X154252D01*
X154966Y413101D01*
X155442Y412863D01*
X155918Y412386D01*
X156156Y411672D01*
Y410006D01*
X151157Y417314D02*
Y414934D01*
X153300Y414696D01*
X153062Y414934D01*
X152824Y415648D01*
Y416362D01*
X153062Y417076D01*
X153538Y417552D01*
X154252Y417790D01*
X154728D01*
X155442Y417552D01*
X155918Y417076D01*
X156156Y416362D01*
Y415648D01*
X155918Y414934D01*
X155680Y414696D01*
X155204Y414457D01*
X165127Y402674D02*
X170126D01*
Y405531D01*
X165127Y409173D02*
Y406078D01*
X170126D01*
Y409173D01*
X167508Y406078D02*
Y407983D01*
X165127Y410006D02*
X170126D01*
X165127D02*
Y411672D01*
X165365Y412386D01*
X165841Y412863D01*
X166318Y413101D01*
X167032Y413339D01*
X168222D01*
X168936Y413101D01*
X169412Y412863D01*
X169888Y412386D01*
X170126Y411672D01*
Y410006D01*
X165127Y416838D02*
X168460Y414457D01*
Y418028D01*
X165127Y416838D02*
X170126D01*
X197696Y231219D02*
Y226220D01*
X200553D01*
X204195Y231219D02*
X201100D01*
Y226220D01*
X204195D01*
X201100Y228838D02*
X203005D01*
X205028Y231219D02*
Y226220D01*
Y231219D02*
X206694D01*
X207409Y230981D01*
X207885Y230505D01*
X208123Y230029D01*
X208361Y229314D01*
Y228124D01*
X208123Y227410D01*
X207885Y226934D01*
X207409Y226458D01*
X206694Y226220D01*
X205028D01*
X209956Y231219D02*
X212574D01*
X211146Y229314D01*
X211860D01*
X212336Y229076D01*
X212574Y228838D01*
X212812Y228124D01*
Y227648D01*
X212574Y226934D01*
X212098Y226458D01*
X211384Y226220D01*
X210670D01*
X209956Y226458D01*
X209718Y226696D01*
X209480Y227172D01*
D173*
X91694Y424689D02*
Y428498D01*
X90932Y429260D01*
X89409D01*
X88647Y428498D01*
Y424689D01*
X87123Y429260D02*
X85600D01*
X86362D01*
Y424689D01*
X87123Y425451D01*
X83315D02*
X82553Y424689D01*
X81029D01*
X80268Y425451D01*
Y428498D01*
X81029Y429260D01*
X82553D01*
X83315Y428498D01*
Y425451D01*
X596900Y37792D02*
X591902D01*
Y40291D01*
X592735Y41124D01*
X594401D01*
X595234Y40291D01*
Y37792D01*
X592735Y46123D02*
X591902Y45290D01*
Y43624D01*
X592735Y42790D01*
X596067D01*
X596900Y43624D01*
Y45290D01*
X596067Y46123D01*
X591902Y47789D02*
X596900D01*
Y50288D01*
X596067Y51121D01*
X595234D01*
X594401Y50288D01*
Y47789D01*
Y50288D01*
X593568Y51121D01*
X592735D01*
X591902Y50288D01*
Y47789D01*
Y61118D02*
Y57786D01*
X596900D01*
Y61118D01*
X594401Y57786D02*
Y59452D01*
X596900Y62784D02*
X591902D01*
X596900Y66116D01*
X591902D01*
Y67782D02*
X596900D01*
Y70282D01*
X596067Y71115D01*
X592735D01*
X591902Y70282D01*
Y67782D01*
X285240Y36830D02*
X281432D01*
X280670Y36068D01*
Y34545D01*
X281432Y33783D01*
X285240D01*
X280670Y29974D02*
X285240D01*
X282955Y32260D01*
Y29213D01*
X487426Y427929D02*
Y424805D01*
X488051Y424180D01*
X489300D01*
X489925Y424805D01*
Y427929D01*
X491175Y424805D02*
X491800Y424180D01*
X493049D01*
X493674Y424805D01*
Y427304D01*
X493049Y427929D01*
X491800D01*
X491175Y427304D01*
Y426679D01*
X491800Y426054D01*
X493674D01*
D174*
X407444Y403527D02*
Y411025D01*
X405944Y412524D01*
X402945D01*
X401446Y411025D01*
Y403527D01*
X392449D02*
X398447D01*
Y408025D01*
X395448Y406526D01*
X393948D01*
X392449Y408025D01*
Y411025D01*
X393948Y412524D01*
X396947D01*
X398447Y411025D01*
D175*
X298392Y513134D02*
X298230Y513053D01*
X298068Y512891D01*
X297987Y512729D01*
Y512406D01*
X298068Y512244D01*
X298230Y512082D01*
X298392Y512001D01*
X298635Y511920D01*
X299039D01*
X299282Y512001D01*
X299444Y512082D01*
X299606Y512244D01*
X299687Y512406D01*
Y512729D01*
X299606Y512891D01*
X299444Y513053D01*
X299282Y513134D01*
X298554Y514664D02*
X298797Y514583D01*
X298958Y514421D01*
X299039Y514178D01*
Y514097D01*
X298958Y513854D01*
X298797Y513692D01*
X298554Y513611D01*
X298473D01*
X298230Y513692D01*
X298068Y513854D01*
X297987Y514097D01*
Y514178D01*
X298068Y514421D01*
X298230Y514583D01*
X298554Y514664D01*
X298958D01*
X299363Y514583D01*
X299606Y514421D01*
X299687Y514178D01*
Y514016D01*
X299606Y513773D01*
X299444Y513692D01*
X295114Y461148D02*
X295033Y461310D01*
X294871Y461472D01*
X294709Y461553D01*
X294385D01*
X294223Y461472D01*
X294061Y461310D01*
X293980Y461148D01*
X293899Y460905D01*
Y460500D01*
X293980Y460258D01*
X294061Y460096D01*
X294223Y459934D01*
X294385Y459853D01*
X294709D01*
X294871Y459934D01*
X295033Y460096D01*
X295114Y460258D01*
X295591Y461229D02*
X295753Y461310D01*
X295996Y461553D01*
Y459853D01*
X296838Y461229D02*
X296999Y461310D01*
X297242Y461553D01*
Y459853D01*
X296021Y413695D02*
X296102Y413533D01*
X296264Y413371D01*
X296426Y413290D01*
X296749D01*
X296911Y413371D01*
X297073Y413533D01*
X297154Y413695D01*
X297235Y413938D01*
Y414343D01*
X297154Y414585D01*
X297073Y414747D01*
X296911Y414909D01*
X296749Y414990D01*
X296426D01*
X296264Y414909D01*
X296102Y414747D01*
X296021Y414585D01*
X295543Y413614D02*
X295382Y413533D01*
X295139Y413290D01*
Y414990D01*
X293811Y413290D02*
X294054Y413371D01*
X294216Y413614D01*
X294297Y414019D01*
Y414262D01*
X294216Y414666D01*
X294054Y414909D01*
X293811Y414990D01*
X293650D01*
X293407Y414909D01*
X293245Y414666D01*
X293164Y414262D01*
Y414019D01*
X293245Y413614D01*
X293407Y413371D01*
X293650Y413290D01*
X293811D01*
M02*
