G04*
G04 #@! TF.GenerationSoftware,Altium Limited,Altium Designer,22.9.1 (49)*
G04*
G04 Layer_Physical_Order=1*
G04 Layer_Color=255*
%FSLAX44Y44*%
%MOMM*%
G71*
G04*
G04 #@! TF.SameCoordinates,777D21A2-CDB7-466F-AFFE-F37339BB67B1*
G04*
G04*
G04 #@! TF.FilePolarity,Positive*
G04*
G01*
G75*
%ADD11C,0.1524*%
%ADD17C,0.2540*%
G04:AMPARAMS|DCode=26|XSize=0.6mm|YSize=0.5mm|CornerRadius=0.125mm|HoleSize=0mm|Usage=FLASHONLY|Rotation=270.000|XOffset=0mm|YOffset=0mm|HoleType=Round|Shape=RoundedRectangle|*
%AMROUNDEDRECTD26*
21,1,0.6000,0.2500,0,0,270.0*
21,1,0.3500,0.5000,0,0,270.0*
1,1,0.2500,-0.1250,-0.1750*
1,1,0.2500,-0.1250,0.1750*
1,1,0.2500,0.1250,0.1750*
1,1,0.2500,0.1250,-0.1750*
%
%ADD26ROUNDEDRECTD26*%
G04:AMPARAMS|DCode=27|XSize=0.4mm|YSize=0.35mm|CornerRadius=0.0875mm|HoleSize=0mm|Usage=FLASHONLY|Rotation=270.000|XOffset=0mm|YOffset=0mm|HoleType=Round|Shape=RoundedRectangle|*
%AMROUNDEDRECTD27*
21,1,0.4000,0.1750,0,0,270.0*
21,1,0.2250,0.3500,0,0,270.0*
1,1,0.1750,-0.0875,-0.1125*
1,1,0.1750,-0.0875,0.1125*
1,1,0.1750,0.0875,0.1125*
1,1,0.1750,0.0875,-0.1125*
%
%ADD27ROUNDEDRECTD27*%
G04:AMPARAMS|DCode=28|XSize=0.3mm|YSize=0.3mm|CornerRadius=0.075mm|HoleSize=0mm|Usage=FLASHONLY|Rotation=180.000|XOffset=0mm|YOffset=0mm|HoleType=Round|Shape=RoundedRectangle|*
%AMROUNDEDRECTD28*
21,1,0.3000,0.1500,0,0,180.0*
21,1,0.1500,0.3000,0,0,180.0*
1,1,0.1500,-0.0750,0.0750*
1,1,0.1500,0.0750,0.0750*
1,1,0.1500,0.0750,-0.0750*
1,1,0.1500,-0.0750,-0.0750*
%
%ADD28ROUNDEDRECTD28*%
G04:AMPARAMS|DCode=29|XSize=0.35mm|YSize=0.4mm|CornerRadius=0.0875mm|HoleSize=0mm|Usage=FLASHONLY|Rotation=90.000|XOffset=0mm|YOffset=0mm|HoleType=Round|Shape=RoundedRectangle|*
%AMROUNDEDRECTD29*
21,1,0.3500,0.2250,0,0,90.0*
21,1,0.1750,0.4000,0,0,90.0*
1,1,0.1750,0.1125,0.0875*
1,1,0.1750,0.1125,-0.0875*
1,1,0.1750,-0.1125,-0.0875*
1,1,0.1750,-0.1125,0.0875*
%
%ADD29ROUNDEDRECTD29*%
G04:AMPARAMS|DCode=30|XSize=0.4mm|YSize=0.35mm|CornerRadius=0.0875mm|HoleSize=0mm|Usage=FLASHONLY|Rotation=180.000|XOffset=0mm|YOffset=0mm|HoleType=Round|Shape=RoundedRectangle|*
%AMROUNDEDRECTD30*
21,1,0.4000,0.1750,0,0,180.0*
21,1,0.2250,0.3500,0,0,180.0*
1,1,0.1750,-0.1125,0.0875*
1,1,0.1750,0.1125,0.0875*
1,1,0.1750,0.1125,-0.0875*
1,1,0.1750,-0.1125,-0.0875*
%
%ADD30ROUNDEDRECTD30*%
G04:AMPARAMS|DCode=31|XSize=1.45mm|YSize=0.95mm|CornerRadius=0.2375mm|HoleSize=0mm|Usage=FLASHONLY|Rotation=0.000|XOffset=0mm|YOffset=0mm|HoleType=Round|Shape=RoundedRectangle|*
%AMROUNDEDRECTD31*
21,1,1.4500,0.4750,0,0,0.0*
21,1,0.9750,0.9500,0,0,0.0*
1,1,0.4750,0.4875,-0.2375*
1,1,0.4750,-0.4875,-0.2375*
1,1,0.4750,-0.4875,0.2375*
1,1,0.4750,0.4875,0.2375*
%
%ADD31ROUNDEDRECTD31*%
G04:AMPARAMS|DCode=32|XSize=0.8mm|YSize=0.8mm|CornerRadius=0.2mm|HoleSize=0mm|Usage=FLASHONLY|Rotation=0.000|XOffset=0mm|YOffset=0mm|HoleType=Round|Shape=RoundedRectangle|*
%AMROUNDEDRECTD32*
21,1,0.8000,0.4000,0,0,0.0*
21,1,0.4000,0.8000,0,0,0.0*
1,1,0.4000,0.2000,-0.2000*
1,1,0.4000,-0.2000,-0.2000*
1,1,0.4000,-0.2000,0.2000*
1,1,0.4000,0.2000,0.2000*
%
%ADD32ROUNDEDRECTD32*%
%ADD33R,2.2000X0.8500*%
G04:AMPARAMS|DCode=34|XSize=0.8mm|YSize=0.8mm|CornerRadius=0.2mm|HoleSize=0mm|Usage=FLASHONLY|Rotation=90.000|XOffset=0mm|YOffset=0mm|HoleType=Round|Shape=RoundedRectangle|*
%AMROUNDEDRECTD34*
21,1,0.8000,0.4000,0,0,90.0*
21,1,0.4000,0.8000,0,0,90.0*
1,1,0.4000,0.2000,0.2000*
1,1,0.4000,0.2000,-0.2000*
1,1,0.4000,-0.2000,-0.2000*
1,1,0.4000,-0.2000,0.2000*
%
%ADD34ROUNDEDRECTD34*%
G04:AMPARAMS|DCode=35|XSize=1.1176mm|YSize=1.8034mm|CornerRadius=0.2794mm|HoleSize=0mm|Usage=FLASHONLY|Rotation=90.000|XOffset=0mm|YOffset=0mm|HoleType=Round|Shape=RoundedRectangle|*
%AMROUNDEDRECTD35*
21,1,1.1176,1.2446,0,0,90.0*
21,1,0.5588,1.8034,0,0,90.0*
1,1,0.5588,0.6223,0.2794*
1,1,0.5588,0.6223,-0.2794*
1,1,0.5588,-0.6223,-0.2794*
1,1,0.5588,-0.6223,0.2794*
%
%ADD35ROUNDEDRECTD35*%
G04:AMPARAMS|DCode=36|XSize=1.1176mm|YSize=1.803mm|CornerRadius=0.2794mm|HoleSize=0mm|Usage=FLASHONLY|Rotation=90.000|XOffset=0mm|YOffset=0mm|HoleType=Round|Shape=RoundedRectangle|*
%AMROUNDEDRECTD36*
21,1,1.1176,1.2442,0,0,90.0*
21,1,0.5588,1.8030,0,0,90.0*
1,1,0.5588,0.6221,0.2794*
1,1,0.5588,0.6221,-0.2794*
1,1,0.5588,-0.6221,-0.2794*
1,1,0.5588,-0.6221,0.2794*
%
%ADD36ROUNDEDRECTD36*%
G04:AMPARAMS|DCode=37|XSize=1.1176mm|YSize=1.8034mm|CornerRadius=0.2794mm|HoleSize=0mm|Usage=FLASHONLY|Rotation=180.000|XOffset=0mm|YOffset=0mm|HoleType=Round|Shape=RoundedRectangle|*
%AMROUNDEDRECTD37*
21,1,1.1176,1.2446,0,0,180.0*
21,1,0.5588,1.8034,0,0,180.0*
1,1,0.5588,-0.2794,0.6223*
1,1,0.5588,0.2794,0.6223*
1,1,0.5588,0.2794,-0.6223*
1,1,0.5588,-0.2794,-0.6223*
%
%ADD37ROUNDEDRECTD37*%
G04:AMPARAMS|DCode=38|XSize=1.1176mm|YSize=1.803mm|CornerRadius=0.2794mm|HoleSize=0mm|Usage=FLASHONLY|Rotation=180.000|XOffset=0mm|YOffset=0mm|HoleType=Round|Shape=RoundedRectangle|*
%AMROUNDEDRECTD38*
21,1,1.1176,1.2442,0,0,180.0*
21,1,0.5588,1.8030,0,0,180.0*
1,1,0.5588,-0.2794,0.6221*
1,1,0.5588,0.2794,0.6221*
1,1,0.5588,0.2794,-0.6221*
1,1,0.5588,-0.2794,-0.6221*
%
%ADD38ROUNDEDRECTD38*%
G04:AMPARAMS|DCode=39|XSize=2.7mm|YSize=1.6mm|CornerRadius=0.4mm|HoleSize=0mm|Usage=FLASHONLY|Rotation=270.000|XOffset=0mm|YOffset=0mm|HoleType=Round|Shape=RoundedRectangle|*
%AMROUNDEDRECTD39*
21,1,2.7000,0.8000,0,0,270.0*
21,1,1.9000,1.6000,0,0,270.0*
1,1,0.8000,-0.4000,-0.9500*
1,1,0.8000,-0.4000,0.9500*
1,1,0.8000,0.4000,0.9500*
1,1,0.8000,0.4000,-0.9500*
%
%ADD39ROUNDEDRECTD39*%
G04:AMPARAMS|DCode=40|XSize=0.95mm|YSize=0.9mm|CornerRadius=0.225mm|HoleSize=0mm|Usage=FLASHONLY|Rotation=0.000|XOffset=0mm|YOffset=0mm|HoleType=Round|Shape=RoundedRectangle|*
%AMROUNDEDRECTD40*
21,1,0.9500,0.4500,0,0,0.0*
21,1,0.5000,0.9000,0,0,0.0*
1,1,0.4500,0.2500,-0.2250*
1,1,0.4500,-0.2500,-0.2250*
1,1,0.4500,-0.2500,0.2250*
1,1,0.4500,0.2500,0.2250*
%
%ADD40ROUNDEDRECTD40*%
G04:AMPARAMS|DCode=41|XSize=0.5mm|YSize=0.4mm|CornerRadius=0.1mm|HoleSize=0mm|Usage=FLASHONLY|Rotation=180.000|XOffset=0mm|YOffset=0mm|HoleType=Round|Shape=RoundedRectangle|*
%AMROUNDEDRECTD41*
21,1,0.5000,0.2000,0,0,180.0*
21,1,0.3000,0.4000,0,0,180.0*
1,1,0.2000,-0.1500,0.1000*
1,1,0.2000,0.1500,0.1000*
1,1,0.2000,0.1500,-0.1000*
1,1,0.2000,-0.1500,-0.1000*
%
%ADD41ROUNDEDRECTD41*%
G04:AMPARAMS|DCode=42|XSize=0.45mm|YSize=0.5mm|CornerRadius=0.1125mm|HoleSize=0mm|Usage=FLASHONLY|Rotation=270.000|XOffset=0mm|YOffset=0mm|HoleType=Round|Shape=RoundedRectangle|*
%AMROUNDEDRECTD42*
21,1,0.4500,0.2750,0,0,270.0*
21,1,0.2250,0.5000,0,0,270.0*
1,1,0.2250,-0.1375,-0.1125*
1,1,0.2250,-0.1375,0.1125*
1,1,0.2250,0.1375,0.1125*
1,1,0.2250,0.1375,-0.1125*
%
%ADD42ROUNDEDRECTD42*%
G04:AMPARAMS|DCode=43|XSize=0.45mm|YSize=0.5mm|CornerRadius=0.1125mm|HoleSize=0mm|Usage=FLASHONLY|Rotation=0.000|XOffset=0mm|YOffset=0mm|HoleType=Round|Shape=RoundedRectangle|*
%AMROUNDEDRECTD43*
21,1,0.4500,0.2750,0,0,0.0*
21,1,0.2250,0.5000,0,0,0.0*
1,1,0.2250,0.1125,-0.1375*
1,1,0.2250,-0.1125,-0.1375*
1,1,0.2250,-0.1125,0.1375*
1,1,0.2250,0.1125,0.1375*
%
%ADD43ROUNDEDRECTD43*%
G04:AMPARAMS|DCode=44|XSize=1.5mm|YSize=1.55mm|CornerRadius=0.375mm|HoleSize=0mm|Usage=FLASHONLY|Rotation=180.000|XOffset=0mm|YOffset=0mm|HoleType=Round|Shape=RoundedRectangle|*
%AMROUNDEDRECTD44*
21,1,1.5000,0.8000,0,0,180.0*
21,1,0.7500,1.5500,0,0,180.0*
1,1,0.7500,-0.3750,0.4000*
1,1,0.7500,0.3750,0.4000*
1,1,0.7500,0.3750,-0.4000*
1,1,0.7500,-0.3750,-0.4000*
%
%ADD44ROUNDEDRECTD44*%
G04:AMPARAMS|DCode=45|XSize=0.4mm|YSize=1.35mm|CornerRadius=0.1mm|HoleSize=0mm|Usage=FLASHONLY|Rotation=180.000|XOffset=0mm|YOffset=0mm|HoleType=Round|Shape=RoundedRectangle|*
%AMROUNDEDRECTD45*
21,1,0.4000,1.1500,0,0,180.0*
21,1,0.2000,1.3500,0,0,180.0*
1,1,0.2000,-0.1000,0.5750*
1,1,0.2000,0.1000,0.5750*
1,1,0.2000,0.1000,-0.5750*
1,1,0.2000,-0.1000,-0.5750*
%
%ADD45ROUNDEDRECTD45*%
%ADD46R,2.4000X0.7600*%
G04:AMPARAMS|DCode=47|XSize=0.76mm|YSize=2.4mm|CornerRadius=0.19mm|HoleSize=0mm|Usage=FLASHONLY|Rotation=270.000|XOffset=0mm|YOffset=0mm|HoleType=Round|Shape=RoundedRectangle|*
%AMROUNDEDRECTD47*
21,1,0.7600,2.0200,0,0,270.0*
21,1,0.3800,2.4000,0,0,270.0*
1,1,0.3800,-1.0100,-0.1900*
1,1,0.3800,-1.0100,0.1900*
1,1,0.3800,1.0100,0.1900*
1,1,0.3800,1.0100,-0.1900*
%
%ADD47ROUNDEDRECTD47*%
G04:AMPARAMS|DCode=48|XSize=0.7mm|YSize=0.74mm|CornerRadius=0.175mm|HoleSize=0mm|Usage=FLASHONLY|Rotation=90.000|XOffset=0mm|YOffset=0mm|HoleType=Round|Shape=RoundedRectangle|*
%AMROUNDEDRECTD48*
21,1,0.7000,0.3900,0,0,90.0*
21,1,0.3500,0.7400,0,0,90.0*
1,1,0.3500,0.1950,0.1750*
1,1,0.3500,0.1950,-0.1750*
1,1,0.3500,-0.1950,-0.1750*
1,1,0.3500,-0.1950,0.1750*
%
%ADD48ROUNDEDRECTD48*%
G04:AMPARAMS|DCode=49|XSize=3.2mm|YSize=1mm|CornerRadius=0.25mm|HoleSize=0mm|Usage=FLASHONLY|Rotation=270.000|XOffset=0mm|YOffset=0mm|HoleType=Round|Shape=RoundedRectangle|*
%AMROUNDEDRECTD49*
21,1,3.2000,0.5000,0,0,270.0*
21,1,2.7000,1.0000,0,0,270.0*
1,1,0.5000,-0.2500,-1.3500*
1,1,0.5000,-0.2500,1.3500*
1,1,0.5000,0.2500,1.3500*
1,1,0.5000,0.2500,-1.3500*
%
%ADD49ROUNDEDRECTD49*%
G04:AMPARAMS|DCode=50|XSize=0.7mm|YSize=0.74mm|CornerRadius=0.175mm|HoleSize=0mm|Usage=FLASHONLY|Rotation=0.000|XOffset=0mm|YOffset=0mm|HoleType=Round|Shape=RoundedRectangle|*
%AMROUNDEDRECTD50*
21,1,0.7000,0.3900,0,0,0.0*
21,1,0.3500,0.7400,0,0,0.0*
1,1,0.3500,0.1750,-0.1950*
1,1,0.3500,-0.1750,-0.1950*
1,1,0.3500,-0.1750,0.1950*
1,1,0.3500,0.1750,0.1950*
%
%ADD50ROUNDEDRECTD50*%
G04:AMPARAMS|DCode=51|XSize=0.9mm|YSize=0.65mm|CornerRadius=0.1625mm|HoleSize=0mm|Usage=FLASHONLY|Rotation=180.000|XOffset=0mm|YOffset=0mm|HoleType=Round|Shape=RoundedRectangle|*
%AMROUNDEDRECTD51*
21,1,0.9000,0.3250,0,0,180.0*
21,1,0.5750,0.6500,0,0,180.0*
1,1,0.3250,-0.2875,0.1625*
1,1,0.3250,0.2875,0.1625*
1,1,0.3250,0.2875,-0.1625*
1,1,0.3250,-0.2875,-0.1625*
%
%ADD51ROUNDEDRECTD51*%
G04:AMPARAMS|DCode=52|XSize=0.9mm|YSize=0.65mm|CornerRadius=0.1625mm|HoleSize=0mm|Usage=FLASHONLY|Rotation=270.000|XOffset=0mm|YOffset=0mm|HoleType=Round|Shape=RoundedRectangle|*
%AMROUNDEDRECTD52*
21,1,0.9000,0.3250,0,0,270.0*
21,1,0.5750,0.6500,0,0,270.0*
1,1,0.3250,-0.1625,-0.2875*
1,1,0.3250,-0.1625,0.2875*
1,1,0.3250,0.1625,0.2875*
1,1,0.3250,0.1625,-0.2875*
%
%ADD52ROUNDEDRECTD52*%
%ADD53R,2.1000X1.4000*%
G04:AMPARAMS|DCode=54|XSize=2.1mm|YSize=1.4mm|CornerRadius=0.35mm|HoleSize=0mm|Usage=FLASHONLY|Rotation=0.000|XOffset=0mm|YOffset=0mm|HoleType=Round|Shape=RoundedRectangle|*
%AMROUNDEDRECTD54*
21,1,2.1000,0.7000,0,0,0.0*
21,1,1.4000,1.4000,0,0,0.0*
1,1,0.7000,0.7000,-0.3500*
1,1,0.7000,-0.7000,-0.3500*
1,1,0.7000,-0.7000,0.3500*
1,1,0.7000,0.7000,0.3500*
%
%ADD54ROUNDEDRECTD54*%
%ADD55R,1.4000X2.1000*%
G04:AMPARAMS|DCode=56|XSize=2.1mm|YSize=1.4mm|CornerRadius=0.35mm|HoleSize=0mm|Usage=FLASHONLY|Rotation=270.000|XOffset=0mm|YOffset=0mm|HoleType=Round|Shape=RoundedRectangle|*
%AMROUNDEDRECTD56*
21,1,2.1000,0.7000,0,0,270.0*
21,1,1.4000,1.4000,0,0,270.0*
1,1,0.7000,-0.3500,-0.7000*
1,1,0.7000,-0.3500,0.7000*
1,1,0.7000,0.3500,0.7000*
1,1,0.7000,0.3500,-0.7000*
%
%ADD56ROUNDEDRECTD56*%
%ADD57C,1.5240*%
G04:AMPARAMS|DCode=58|XSize=0.22mm|YSize=0.86mm|CornerRadius=0.055mm|HoleSize=0mm|Usage=FLASHONLY|Rotation=180.000|XOffset=0mm|YOffset=0mm|HoleType=Round|Shape=RoundedRectangle|*
%AMROUNDEDRECTD58*
21,1,0.2200,0.7500,0,0,180.0*
21,1,0.1100,0.8600,0,0,180.0*
1,1,0.1100,-0.0550,0.3750*
1,1,0.1100,0.0550,0.3750*
1,1,0.1100,0.0550,-0.3750*
1,1,0.1100,-0.0550,-0.3750*
%
%ADD58ROUNDEDRECTD58*%
G04:AMPARAMS|DCode=59|XSize=0.22mm|YSize=0.86mm|CornerRadius=0.055mm|HoleSize=0mm|Usage=FLASHONLY|Rotation=270.000|XOffset=0mm|YOffset=0mm|HoleType=Round|Shape=RoundedRectangle|*
%AMROUNDEDRECTD59*
21,1,0.2200,0.7500,0,0,270.0*
21,1,0.1100,0.8600,0,0,270.0*
1,1,0.1100,-0.3750,-0.0550*
1,1,0.1100,-0.3750,0.0550*
1,1,0.1100,0.3750,0.0550*
1,1,0.1100,0.3750,-0.0550*
%
%ADD59ROUNDEDRECTD59*%
%ADD60R,0.8600X0.2200*%
G04:AMPARAMS|DCode=61|XSize=0.24mm|YSize=0.6mm|CornerRadius=0.06mm|HoleSize=0mm|Usage=FLASHONLY|Rotation=180.000|XOffset=0mm|YOffset=0mm|HoleType=Round|Shape=RoundedRectangle|*
%AMROUNDEDRECTD61*
21,1,0.2400,0.4800,0,0,180.0*
21,1,0.1200,0.6000,0,0,180.0*
1,1,0.1200,-0.0600,0.2400*
1,1,0.1200,0.0600,0.2400*
1,1,0.1200,0.0600,-0.2400*
1,1,0.1200,-0.0600,-0.2400*
%
%ADD61ROUNDEDRECTD61*%
G04:AMPARAMS|DCode=62|XSize=0.24mm|YSize=0.6mm|CornerRadius=0.06mm|HoleSize=0mm|Usage=FLASHONLY|Rotation=270.000|XOffset=0mm|YOffset=0mm|HoleType=Round|Shape=RoundedRectangle|*
%AMROUNDEDRECTD62*
21,1,0.2400,0.4800,0,0,270.0*
21,1,0.1200,0.6000,0,0,270.0*
1,1,0.1200,-0.2400,-0.0600*
1,1,0.1200,-0.2400,0.0600*
1,1,0.1200,0.2400,0.0600*
1,1,0.1200,0.2400,-0.0600*
%
%ADD62ROUNDEDRECTD62*%
%ADD63R,0.6000X0.2400*%
G04:AMPARAMS|DCode=64|XSize=0.8mm|YSize=0.9mm|CornerRadius=0.2mm|HoleSize=0mm|Usage=FLASHONLY|Rotation=90.000|XOffset=0mm|YOffset=0mm|HoleType=Round|Shape=RoundedRectangle|*
%AMROUNDEDRECTD64*
21,1,0.8000,0.5000,0,0,90.0*
21,1,0.4000,0.9000,0,0,90.0*
1,1,0.4000,0.2500,0.2000*
1,1,0.4000,0.2500,-0.2000*
1,1,0.4000,-0.2500,-0.2000*
1,1,0.4000,-0.2500,0.2000*
%
%ADD64ROUNDEDRECTD64*%
G04:AMPARAMS|DCode=65|XSize=0.55mm|YSize=1.145mm|CornerRadius=0.1375mm|HoleSize=0mm|Usage=FLASHONLY|Rotation=180.000|XOffset=0mm|YOffset=0mm|HoleType=Round|Shape=RoundedRectangle|*
%AMROUNDEDRECTD65*
21,1,0.5500,0.8700,0,0,180.0*
21,1,0.2750,1.1450,0,0,180.0*
1,1,0.2750,-0.1375,0.4350*
1,1,0.2750,0.1375,0.4350*
1,1,0.2750,0.1375,-0.4350*
1,1,0.2750,-0.1375,-0.4350*
%
%ADD65ROUNDEDRECTD65*%
G04:AMPARAMS|DCode=66|XSize=0.55mm|YSize=1.145mm|CornerRadius=0.1375mm|HoleSize=0mm|Usage=FLASHONLY|Rotation=270.000|XOffset=0mm|YOffset=0mm|HoleType=Round|Shape=RoundedRectangle|*
%AMROUNDEDRECTD66*
21,1,0.5500,0.8700,0,0,270.0*
21,1,0.2750,1.1450,0,0,270.0*
1,1,0.2750,-0.4350,-0.1375*
1,1,0.2750,-0.4350,0.1375*
1,1,0.2750,0.4350,0.1375*
1,1,0.2750,0.4350,-0.1375*
%
%ADD66ROUNDEDRECTD66*%
%ADD67R,1.1450X0.5500*%
G04:AMPARAMS|DCode=68|XSize=0.3mm|YSize=0.8mm|CornerRadius=0.075mm|HoleSize=0mm|Usage=FLASHONLY|Rotation=0.000|XOffset=0mm|YOffset=0mm|HoleType=Round|Shape=RoundedRectangle|*
%AMROUNDEDRECTD68*
21,1,0.3000,0.6500,0,0,0.0*
21,1,0.1500,0.8000,0,0,0.0*
1,1,0.1500,0.0750,-0.3250*
1,1,0.1500,-0.0750,-0.3250*
1,1,0.1500,-0.0750,0.3250*
1,1,0.1500,0.0750,0.3250*
%
%ADD68ROUNDEDRECTD68*%
G04:AMPARAMS|DCode=69|XSize=0.3mm|YSize=0.8mm|CornerRadius=0.075mm|HoleSize=0mm|Usage=FLASHONLY|Rotation=90.000|XOffset=0mm|YOffset=0mm|HoleType=Round|Shape=RoundedRectangle|*
%AMROUNDEDRECTD69*
21,1,0.3000,0.6500,0,0,90.0*
21,1,0.1500,0.8000,0,0,90.0*
1,1,0.1500,0.3250,0.0750*
1,1,0.1500,0.3250,-0.0750*
1,1,0.1500,-0.3250,-0.0750*
1,1,0.1500,-0.3250,0.0750*
%
%ADD69ROUNDEDRECTD69*%
%ADD70R,0.8000X0.3000*%
%ADD73R,0.4500X0.3000*%
G04:AMPARAMS|DCode=74|XSize=0.3mm|YSize=0.45mm|CornerRadius=0.075mm|HoleSize=0mm|Usage=FLASHONLY|Rotation=270.000|XOffset=0mm|YOffset=0mm|HoleType=Round|Shape=RoundedRectangle|*
%AMROUNDEDRECTD74*
21,1,0.3000,0.3000,0,0,270.0*
21,1,0.1500,0.4500,0,0,270.0*
1,1,0.1500,-0.1500,-0.0750*
1,1,0.1500,-0.1500,0.0750*
1,1,0.1500,0.1500,0.0750*
1,1,0.1500,0.1500,-0.0750*
%
%ADD74ROUNDEDRECTD74*%
G04:AMPARAMS|DCode=75|XSize=1.1mm|YSize=1.9mm|CornerRadius=0.275mm|HoleSize=0mm|Usage=FLASHONLY|Rotation=0.000|XOffset=0mm|YOffset=0mm|HoleType=Round|Shape=RoundedRectangle|*
%AMROUNDEDRECTD75*
21,1,1.1000,1.3500,0,0,0.0*
21,1,0.5500,1.9000,0,0,0.0*
1,1,0.5500,0.2750,-0.6750*
1,1,0.5500,-0.2750,-0.6750*
1,1,0.5500,-0.2750,0.6750*
1,1,0.5500,0.2750,0.6750*
%
%ADD75ROUNDEDRECTD75*%
%ADD76R,1.1000X1.4000*%
G04:AMPARAMS|DCode=77|XSize=1.4mm|YSize=1.1mm|CornerRadius=0.275mm|HoleSize=0mm|Usage=FLASHONLY|Rotation=270.000|XOffset=0mm|YOffset=0mm|HoleType=Round|Shape=RoundedRectangle|*
%AMROUNDEDRECTD77*
21,1,1.4000,0.5500,0,0,270.0*
21,1,0.8500,1.1000,0,0,270.0*
1,1,0.5500,-0.2750,-0.4250*
1,1,0.5500,-0.2750,0.4250*
1,1,0.5500,0.2750,0.4250*
1,1,0.5500,0.2750,-0.4250*
%
%ADD77ROUNDEDRECTD77*%
%ADD142R,4.4500X4.4500*%
%ADD143R,2.0500X2.0500*%
G04:AMPARAMS|DCode=144|XSize=0.6mm|YSize=0.522mm|CornerRadius=0.1305mm|HoleSize=0mm|Usage=FLASHONLY|Rotation=90.000|XOffset=0mm|YOffset=0mm|HoleType=Round|Shape=RoundedRectangle|*
%AMROUNDEDRECTD144*
21,1,0.6000,0.2610,0,0,90.0*
21,1,0.3390,0.5220,0,0,90.0*
1,1,0.2610,0.1305,0.1695*
1,1,0.2610,0.1305,-0.1695*
1,1,0.2610,-0.1305,-0.1695*
1,1,0.2610,-0.1305,0.1695*
%
%ADD144ROUNDEDRECTD144*%
%ADD145R,0.5220X0.6000*%
%ADD146R,19.8628X0.9906*%
%ADD147R,1.0160X8.5852*%
%ADD148C,0.2032*%
%ADD149C,0.3810*%
%ADD150C,0.4318*%
%ADD151C,0.5080*%
%ADD152C,0.2286*%
%ADD153C,0.3048*%
%ADD154R,1.6200X1.6200*%
%ADD155C,1.6200*%
%ADD156O,0.8128X1.5500*%
%ADD157O,1.3000X0.8128*%
%ADD158R,1.5080X1.5080*%
%ADD159C,1.5080*%
%ADD160R,1.5080X1.5080*%
%ADD161R,1.3700X1.3700*%
%ADD162C,1.3700*%
%ADD163C,0.5588*%
G36*
X106772Y364411D02*
X105962Y363425D01*
X105775Y363550D01*
X104090Y363885D01*
X98502D01*
X96817Y363550D01*
X95389Y362596D01*
X94434Y361168D01*
X94099Y359483D01*
Y357204D01*
X88910D01*
X88489Y357378D01*
X86771D01*
X85184Y356721D01*
X83969Y355506D01*
X83312Y353919D01*
Y352201D01*
X83969Y350614D01*
X85184Y349399D01*
X86771Y348742D01*
X88489D01*
X88910Y348916D01*
X94099D01*
Y347041D01*
X94434Y345356D01*
X95389Y343928D01*
X96817Y342973D01*
X98502Y342638D01*
X104090D01*
X105775Y342973D01*
X107203Y343928D01*
X108157Y345356D01*
X108492Y347041D01*
Y359483D01*
X108157Y361168D01*
X108032Y361355D01*
X109018Y362165D01*
X121321Y349862D01*
X122078Y349356D01*
X122970Y349179D01*
X135883D01*
X137383Y347679D01*
X144794D01*
X144862Y347611D01*
X144889D01*
X145038Y347462D01*
X145044Y346192D01*
X144650Y345564D01*
X144088Y345334D01*
X139728D01*
X139707Y345355D01*
X134050Y339470D01*
X110490D01*
X109324Y338986D01*
X108840Y337820D01*
Y313244D01*
X108771Y313171D01*
Y295910D01*
X74373D01*
Y297769D01*
X75715Y298036D01*
X76881Y298815D01*
X77660Y299981D01*
X77933Y301356D01*
Y305356D01*
X77660Y306731D01*
X76881Y307896D01*
X75715Y308675D01*
X74340Y308949D01*
X70340D01*
X68965Y308675D01*
X67799Y307896D01*
X67020Y306731D01*
X66747Y305356D01*
Y301356D01*
X67020Y299981D01*
X67799Y298815D01*
X68965Y298036D01*
X69711Y297888D01*
Y295910D01*
X59690D01*
Y365760D01*
X105423D01*
X106772Y364411D01*
D02*
G37*
G36*
X149915Y331131D02*
X148555Y329889D01*
X142739D01*
X142739Y329889D01*
X141401Y329623D01*
X140267Y328865D01*
X140267Y328865D01*
X132148Y320746D01*
X131390Y319611D01*
X131124Y318274D01*
Y303708D01*
X128406Y300990D01*
X110490D01*
Y337820D01*
X149915D01*
Y331131D01*
D02*
G37*
G36*
X356917Y329001D02*
X356381Y328544D01*
X355909Y327782D01*
X355500Y326715D01*
X355153Y325343D01*
X354870Y323667D01*
X354649Y321686D01*
X354398Y316809D01*
X354366Y313913D01*
X350556D01*
X350525Y316809D01*
X350054Y323667D01*
X349771Y325343D01*
X349426Y326715D01*
X349017Y327782D01*
X348546Y328544D01*
X348013Y329001D01*
X347416Y329153D01*
X357515D01*
X356917Y329001D01*
D02*
G37*
G36*
X12188Y314092D02*
X12557Y313314D01*
X12883Y312819D01*
X13214Y312317D01*
X13741Y311790D01*
X14217Y311486D01*
X14832Y311447D01*
X15365Y311414D01*
X16013Y311374D01*
X16737D01*
Y308319D01*
X15918Y308286D01*
X15484Y308269D01*
X14832Y308228D01*
X14133Y308082D01*
X13689Y307786D01*
X13185Y307451D01*
X12602Y306699D01*
X12188Y305602D01*
X11851Y304219D01*
X9117Y309542D01*
X11851Y315320D01*
X12188Y314092D01*
D02*
G37*
G36*
X596850Y293370D02*
X582602D01*
X581979Y294301D01*
X580938Y294997D01*
X579709Y295242D01*
X573959D01*
X572730Y294997D01*
X571689Y294301D01*
X571067Y293370D01*
X564482D01*
X563730Y293873D01*
X561770Y294262D01*
X547770D01*
X545810Y293873D01*
X545058Y293370D01*
X475794D01*
Y294164D01*
X451746D01*
Y277116D01*
X453390D01*
Y247424D01*
X453148Y247262D01*
X452038Y245600D01*
X451648Y243640D01*
Y236640D01*
X452038Y234680D01*
X453148Y233018D01*
X453390Y232856D01*
Y217170D01*
X384017D01*
X383478Y217709D01*
X369736Y203967D01*
X368714D01*
X367339Y203694D01*
X366173Y202915D01*
X365515Y201930D01*
X360680D01*
Y187056D01*
X360314Y186509D01*
X360041Y185134D01*
Y181339D01*
X355920D01*
Y199751D01*
X355654Y201089D01*
X355078Y201952D01*
X354896Y203358D01*
X355654Y204492D01*
X355920Y205830D01*
Y228629D01*
X355995Y229005D01*
Y230755D01*
X355920Y231131D01*
Y251135D01*
X355654Y252473D01*
X355071Y253347D01*
X354967Y254182D01*
X355071Y255019D01*
X355654Y255892D01*
X355920Y257230D01*
Y276931D01*
X355995Y277307D01*
Y279057D01*
X355809Y279993D01*
X355279Y280786D01*
Y282077D01*
X355809Y282871D01*
X355995Y283807D01*
Y285557D01*
X355920Y285933D01*
Y313672D01*
X356016Y313895D01*
X356047Y316757D01*
X356294Y321552D01*
X356504Y323438D01*
X356769Y325003D01*
X357075Y326216D01*
X357393Y327045D01*
X357648Y327456D01*
X357696Y327497D01*
X357922Y327555D01*
X357961Y327584D01*
X359028D01*
Y328823D01*
X359165Y329153D01*
X359226Y329244D01*
X596850D01*
Y293370D01*
D02*
G37*
G36*
X191770Y330200D02*
X200660D01*
Y280670D01*
X175640D01*
Y323850D01*
X175156Y325016D01*
X168296Y331877D01*
X168140Y331942D01*
X168046Y332082D01*
X167768Y332268D01*
X167582Y332546D01*
X167521Y332587D01*
Y337289D01*
X168243Y337808D01*
X168594Y337992D01*
X183978D01*
X191770Y330200D01*
D02*
G37*
G36*
X164846Y337451D02*
Y332994D01*
X166211Y331629D01*
X166579Y331079D01*
X167129Y330710D01*
X173990Y323850D01*
Y262890D01*
Y261620D01*
X154627Y261612D01*
X153728Y262509D01*
Y274915D01*
X154178Y276001D01*
Y277719D01*
X153728Y278805D01*
Y321877D01*
X154986Y323134D01*
X155128Y323163D01*
X156263Y323921D01*
X157021Y325055D01*
X157049Y325198D01*
X162513Y330662D01*
X162514Y337459D01*
X163558Y338004D01*
X163805D01*
X164846Y337451D01*
D02*
G37*
G36*
X241899Y327007D02*
X242782Y326418D01*
X243822Y326211D01*
X251604D01*
X253694Y324121D01*
Y263889D01*
X238904Y249099D01*
X200660D01*
Y279020D01*
X201826Y279504D01*
X202310Y280670D01*
Y330200D01*
X201826Y331366D01*
X200660Y331850D01*
Y341651D01*
X196951Y345361D01*
X173324D01*
X172831Y345569D01*
X172565Y346510D01*
X173369Y347692D01*
X221214D01*
X241899Y327007D01*
D02*
G37*
G36*
X305038Y329244D02*
X345706D01*
X345767Y329153D01*
X345820Y329024D01*
Y327584D01*
X346970D01*
X347008Y327555D01*
X347232Y327498D01*
X347278Y327458D01*
X347533Y327047D01*
X347850Y326217D01*
X348155Y325004D01*
X348414Y323473D01*
X348876Y316743D01*
X348907Y313895D01*
X348928Y313845D01*
Y285933D01*
X348853Y285557D01*
Y283807D01*
X349039Y282871D01*
X349570Y282077D01*
Y280786D01*
X349039Y279993D01*
X348853Y279057D01*
Y277307D01*
X348928Y276931D01*
Y257230D01*
X349194Y255892D01*
X349777Y255019D01*
X349881Y254182D01*
X349777Y253347D01*
X349194Y252473D01*
X348928Y251135D01*
Y231131D01*
X348853Y230755D01*
Y229005D01*
X348928Y228629D01*
Y205830D01*
X349194Y204492D01*
X349952Y203358D01*
X349770Y201952D01*
X349194Y201089D01*
X348928Y199751D01*
Y184679D01*
X347755Y184193D01*
X339090Y192858D01*
Y206325D01*
X327259Y218155D01*
X269241D01*
X269241Y260641D01*
X274710Y266110D01*
X275608Y267454D01*
X275889Y268866D01*
X289734D01*
Y286994D01*
X275924D01*
Y326505D01*
X275608Y328090D01*
X275013Y328981D01*
Y331860D01*
X274739Y333235D01*
X273961Y334401D01*
X272795Y335179D01*
X271420Y335453D01*
X269240D01*
X269240Y404440D01*
X270340Y404895D01*
X271720Y405954D01*
X272779Y407333D01*
X273444Y408940D01*
X273671Y410664D01*
Y413080D01*
X267010D01*
Y415620D01*
X273671D01*
Y418036D01*
X273444Y419760D01*
X272779Y421367D01*
X271720Y422746D01*
X270340Y423805D01*
X269240Y424260D01*
X269240Y430852D01*
X270138Y431750D01*
X305038D01*
Y329244D01*
D02*
G37*
G36*
X321379Y90170D02*
X301346D01*
Y74694D01*
X278849D01*
Y101819D01*
X279814Y102611D01*
X283814D01*
X285189Y102885D01*
X286355Y103663D01*
X286935Y104532D01*
X287050Y104543D01*
X288637Y103886D01*
X290355D01*
X291942Y104543D01*
X293107Y103912D01*
X293273Y103663D01*
X294439Y102885D01*
X295814Y102611D01*
X299814D01*
X301189Y102885D01*
X302355Y103663D01*
X303134Y104829D01*
X303341Y105873D01*
X306762D01*
X307654Y106051D01*
X308410Y106556D01*
X309804Y107950D01*
X321379D01*
Y90170D01*
D02*
G37*
G36*
X325759Y107716D02*
Y100216D01*
X325920Y99407D01*
X326379Y98721D01*
X327065Y98263D01*
X327874Y98102D01*
X328974D01*
X329307Y97828D01*
Y78229D01*
X325399D01*
X325243Y78294D01*
X323525D01*
X323369Y78229D01*
X308863D01*
X308707Y78294D01*
X306989D01*
X306833Y78229D01*
X303914D01*
Y88520D01*
X321379D01*
X322546Y89004D01*
X323029Y90170D01*
Y99916D01*
X323089Y100216D01*
Y107716D01*
X323338Y108019D01*
X324525D01*
X325759Y107716D01*
D02*
G37*
G36*
X341630Y97790D02*
X358578D01*
X358609Y97634D01*
X359114Y96878D01*
X362390Y93602D01*
X363146Y93097D01*
X364038Y92919D01*
X365551D01*
X370840Y87630D01*
Y66040D01*
X361950D01*
Y88900D01*
X360375D01*
X359887Y89631D01*
X358721Y90409D01*
X357346Y90683D01*
X353346D01*
X351971Y90409D01*
X350805Y89631D01*
X350317Y88900D01*
X346710D01*
X339470Y96140D01*
Y99911D01*
X339405Y100068D01*
X339438Y100233D01*
X339409Y100379D01*
Y107716D01*
X339565Y107950D01*
X341630D01*
Y97790D01*
D02*
G37*
G36*
X337759Y107716D02*
Y100216D01*
X337820Y99911D01*
Y90170D01*
X342900D01*
X344170Y88900D01*
Y53340D01*
X335460D01*
Y107950D01*
X337567D01*
X337759Y107716D01*
D02*
G37*
G36*
X278849Y73044D02*
X301346D01*
X301444Y72978D01*
Y56203D01*
X301624Y55448D01*
X301994Y54670D01*
X302320Y54175D01*
X302651Y53673D01*
X303178Y53146D01*
X303654Y52842D01*
X304269Y52804D01*
X304802Y52771D01*
X305450Y52730D01*
X306174D01*
Y49675D01*
X305355Y49643D01*
X304921Y49626D01*
X304269Y49584D01*
X303570Y49438D01*
X303126Y49142D01*
X302622Y48807D01*
X302039Y48055D01*
X301624Y46959D01*
X301444Y45990D01*
Y45566D01*
X300339D01*
X298752Y44909D01*
X297537Y43694D01*
X296880Y42107D01*
Y40389D01*
X297537Y38802D01*
X298752Y37588D01*
X300339Y36930D01*
X301444D01*
Y31795D01*
X286462D01*
X266616Y51640D01*
Y72550D01*
X267393Y73326D01*
X278168D01*
X278849Y73044D01*
D02*
G37*
G36*
X432700Y28261D02*
X432862Y27486D01*
X433070Y26487D01*
X433390Y25691D01*
X433755Y25246D01*
X434066Y24867D01*
X434538Y24544D01*
X435192Y24230D01*
X436315Y23732D01*
X430992Y20998D01*
X424770Y23732D01*
X425304Y23912D01*
X425975Y24230D01*
X426640Y24544D01*
X427122Y24867D01*
X427472Y25246D01*
X427665Y25691D01*
X428010Y26487D01*
X428250Y27486D01*
X428287Y28261D01*
X428378Y29324D01*
X432550D01*
X432700Y28261D01*
D02*
G37*
%LPC*%
G36*
X74340Y325449D02*
X73356D01*
Y320872D01*
X77933D01*
Y321856D01*
X77660Y323231D01*
X76881Y324396D01*
X75715Y325175D01*
X74340Y325449D01*
D02*
G37*
G36*
X71324D02*
X70340D01*
X68965Y325175D01*
X67799Y324396D01*
X67020Y323231D01*
X66747Y321856D01*
Y320872D01*
X71324D01*
Y325449D01*
D02*
G37*
G36*
X77933Y318840D02*
X73356D01*
Y314263D01*
X74340D01*
X75715Y314536D01*
X76881Y315315D01*
X77660Y316481D01*
X77933Y317856D01*
Y318840D01*
D02*
G37*
G36*
X71324D02*
X66747D01*
Y317856D01*
X67020Y316481D01*
X67799Y315315D01*
X68965Y314536D01*
X70340Y314263D01*
X71324D01*
Y318840D01*
D02*
G37*
G36*
X238631Y290153D02*
X226189D01*
X224504Y289818D01*
X223076Y288863D01*
X222122Y287435D01*
X221786Y285750D01*
Y280162D01*
X222122Y278477D01*
X223076Y277049D01*
X224504Y276094D01*
X226189Y275759D01*
X228607D01*
Y273263D01*
X228530Y273077D01*
Y271359D01*
X229187Y269772D01*
X230402Y268557D01*
X231989Y267900D01*
X233707D01*
X235294Y268557D01*
X236509Y269772D01*
X237166Y271359D01*
Y273077D01*
X236894Y273732D01*
Y275759D01*
X238631D01*
X240316Y276094D01*
X241744Y277049D01*
X242698Y278477D01*
X243034Y280162D01*
Y285750D01*
X242698Y287435D01*
X241744Y288863D01*
X240316Y289818D01*
X238631Y290153D01*
D02*
G37*
G36*
X281997Y263010D02*
X281940D01*
Y254200D01*
X290750D01*
Y254257D01*
X290063Y256821D01*
X288736Y259119D01*
X286859Y260996D01*
X284561Y262323D01*
X281997Y263010D01*
D02*
G37*
G36*
X279400D02*
X279343D01*
X276779Y262323D01*
X274481Y260996D01*
X272604Y259119D01*
X271277Y256821D01*
X270590Y254257D01*
Y254200D01*
X279400D01*
Y263010D01*
D02*
G37*
G36*
X290750Y251660D02*
X281940D01*
Y242850D01*
X281997D01*
X284561Y243537D01*
X286859Y244864D01*
X288736Y246741D01*
X290063Y249039D01*
X290750Y251603D01*
Y251660D01*
D02*
G37*
G36*
X279400D02*
X270590D01*
Y251603D01*
X271277Y249039D01*
X272604Y246741D01*
X274481Y244864D01*
X276779Y243537D01*
X279343Y242850D01*
X279400D01*
Y251660D01*
D02*
G37*
%LPD*%
D11*
X134134Y86360D02*
X170055D01*
X200535Y55880D01*
X126514Y93980D02*
X134134Y86360D01*
X91440Y81280D02*
Y95673D01*
X154365Y376495D02*
X158573Y372287D01*
X151825Y376495D02*
X154365D01*
X158573Y368147D02*
Y372287D01*
X144837Y383483D02*
X151825Y376495D01*
X158573Y368147D02*
X158710Y368010D01*
X144837Y383483D02*
Y392749D01*
X148710Y368010D02*
Y374376D01*
X132200Y384082D02*
X134622Y386504D01*
X135332D01*
X136582D02*
X148710Y374376D01*
X135332Y386504D02*
X136582D01*
X58564Y88414D02*
X58691D01*
X15290Y76200D02*
X16394Y77303D01*
X57530Y201930D02*
X61340Y205740D01*
X412550Y101600D02*
X416360D01*
X400764Y89814D02*
X412550Y101600D01*
X380086Y89814D02*
X400764D01*
X364038Y95250D02*
X374650D01*
X360762Y98526D02*
X364038Y95250D01*
X360762Y98526D02*
Y103628D01*
X388994Y103966D02*
X391360Y101600D01*
X590804Y48206D02*
Y179070D01*
X407447Y29464D02*
X416845Y38862D01*
X417830D01*
X411584Y26416D02*
X416970Y31802D01*
X360424Y103966D02*
X360762Y103628D01*
X578176Y191698D02*
X590804Y179070D01*
X189230Y39370D02*
X212090Y16510D01*
X559108D01*
X590804Y48206D01*
X536012Y191698D02*
X578176D01*
X533481Y194229D02*
Y202011D01*
Y194229D02*
X536012Y191698D01*
X538937Y207467D02*
X544663D01*
X533481Y202011D02*
X538937Y207467D01*
X544663D02*
X544830Y207634D01*
X437865Y34005D02*
X442776Y38916D01*
X437322Y34005D02*
X437865D01*
X435610Y47194D02*
X436918Y45886D01*
X435610Y47194D02*
Y60960D01*
X442776Y38916D02*
Y58105D01*
X436918Y42130D02*
Y45886D01*
X435547Y65333D02*
X442776Y58105D01*
X436918Y42130D02*
X437696Y41352D01*
X255496Y59464D02*
X285496Y29464D01*
X254000Y55880D02*
X283464Y26416D01*
X411584D01*
X285496Y29464D02*
X407447D01*
X85975Y157942D02*
X98254Y170221D01*
X97572Y173772D02*
X112660Y188860D01*
X85975Y101138D02*
X91440Y95673D01*
X82550Y158827D02*
X97495Y173772D01*
X82550Y89773D02*
Y158827D01*
X97495Y173772D02*
X97572D01*
X98793Y170221D02*
X108468Y179896D01*
X98254Y170221D02*
X98793D01*
X85975Y101138D02*
Y157942D01*
X66569Y80536D02*
X74186D01*
X82550Y89773D02*
X83255Y89068D01*
X81991Y72022D02*
X82346Y72376D01*
X58691Y88414D02*
X66569Y80536D01*
X374650Y95250D02*
X380086Y89814D01*
X371774Y143316D02*
X382464D01*
X391458Y134322D02*
X422906D01*
X382464Y143316D02*
X391458Y134322D01*
X384252Y147316D02*
X394198Y137370D01*
X419870D01*
X371774Y147316D02*
X384252D01*
X371774Y139316D02*
X381384D01*
X389426Y131274D02*
X434086D01*
X381384Y139316D02*
X389426Y131274D01*
X371774Y135316D02*
X379034D01*
X386124Y128226D02*
X432606D01*
X379034Y135316D02*
X386124Y128226D01*
X377954Y131316D02*
X384092Y125178D01*
X371774Y131316D02*
X377954D01*
X384092Y125178D02*
X431343D01*
X371856Y127235D02*
X376955D01*
X382060Y122130D02*
X430081D01*
X371774Y127316D02*
X371856Y127235D01*
X376955D02*
X382060Y122130D01*
X384040Y115570D02*
X427990D01*
X380125Y111654D02*
X384040Y115570D01*
X379814Y115654D02*
X382778Y118618D01*
X372112Y115654D02*
X379814D01*
X382778Y118618D02*
X429253D01*
X372112Y111654D02*
X380125D01*
X331126Y172974D02*
X336298Y167803D01*
Y162904D02*
X336480Y162722D01*
X336298Y162904D02*
Y167803D01*
X332142Y162948D02*
Y167647D01*
X329864Y169926D02*
X332142Y167647D01*
X313424Y172974D02*
X331126D01*
X312161Y169926D02*
X329864D01*
X332142Y162948D02*
X332424Y162666D01*
X344086Y163004D02*
Y168635D01*
Y163004D02*
X344325Y162765D01*
X314686Y176022D02*
X332389D01*
X315949Y179070D02*
X333651D01*
X344086Y168635D01*
X332389Y176022D02*
X340453Y167958D01*
Y162695D02*
Y167958D01*
X340424Y162666D02*
X340453Y162695D01*
X201262Y59464D02*
X255496D01*
X200535Y55880D02*
X254000D01*
X175260Y129540D02*
Y147320D01*
X106724Y151607D02*
X170973D01*
X175260Y147320D01*
X453728Y190429D02*
X453839Y190318D01*
X466162D01*
X473202Y197358D01*
X448120Y190429D02*
X453728D01*
X448120D02*
Y201599D01*
X441177Y183486D02*
X448120Y190429D01*
X441177Y179675D02*
Y183486D01*
X559782Y96084D02*
X568765D01*
X555904Y92206D02*
X559782Y96084D01*
X555904Y89560D02*
Y92206D01*
X553720Y87376D02*
X555904Y89560D01*
X544576Y67825D02*
Y120683D01*
X528828Y56388D02*
X541020Y68580D01*
Y128153D01*
X542290Y65539D02*
X544576Y67825D01*
X286492Y204216D02*
X314686Y176022D01*
X287755Y207264D02*
X312104Y182915D01*
X139426Y188860D02*
X154782Y204216D01*
X283967Y198120D02*
X312161Y169926D01*
X141320Y207264D02*
X287755D01*
X199878Y188352D02*
X209646Y198120D01*
X285230Y201168D02*
X313424Y172974D01*
X122916Y188860D02*
X141320Y207264D01*
X154782Y204216D02*
X286492D01*
X182468Y201168D02*
X285230D01*
X209646Y198120D02*
X283967D01*
X169906Y188606D02*
X182468Y201168D01*
X217106Y119316D02*
X313074D01*
X181844Y118646D02*
X216436D01*
X215646Y115316D02*
X313074D01*
X216026Y123316D02*
X313074D01*
X208633Y108303D02*
X215646Y115316D01*
X216436Y118646D02*
X217106Y119316D01*
X183106Y121694D02*
X214404D01*
X216026Y123316D01*
X160266Y129745D02*
X170745D01*
X145786Y125994D02*
X169236D01*
X176530Y118700D01*
X170745Y129745D02*
X181844Y118646D01*
X176530Y102620D02*
Y118700D01*
Y102620D02*
X210570Y68580D01*
X130168Y141612D02*
X145786Y125994D01*
X175260Y129540D02*
X183106Y121694D01*
X157930Y132080D02*
X160266Y129745D01*
X199140Y132080D02*
X209550D01*
X199140Y106680D02*
X200763Y108303D01*
X208633D01*
X173482Y93885D02*
Y109048D01*
X169500Y113030D02*
X173482Y109048D01*
Y93885D02*
X191197Y76170D01*
X137684Y113030D02*
X169500D01*
X68781Y406518D02*
X70102Y407839D01*
X71954D02*
X78759Y414644D01*
X68781Y404666D02*
Y406518D01*
X70102Y407839D02*
X71954D01*
X81026Y390818D02*
Y405450D01*
X152149Y386451D02*
X167876D01*
X165401Y383975D02*
X167876Y386451D01*
X168553D01*
X165401Y383299D02*
Y383975D01*
X163710Y381608D02*
X165401Y383299D01*
X163710Y368010D02*
Y381608D01*
X152096Y386504D02*
X152149Y386451D01*
X136582Y401004D02*
X144837Y392749D01*
X120952Y380968D02*
Y384374D01*
X118822Y386504D02*
X120952Y384374D01*
Y380968D02*
X140410Y361510D01*
X142210D01*
X102312Y386504D02*
X118822D01*
X122970Y351510D02*
X142210D01*
X99264Y372278D02*
X106512D01*
X122280Y356510D02*
X142210D01*
X105250Y369230D02*
X122970Y351510D01*
X76531Y369230D02*
X105250D01*
X106512Y372278D02*
X122280Y356510D01*
X81026Y389266D02*
X82276D01*
X99264Y372278D01*
X54946Y390815D02*
X76531Y369230D01*
X54946Y390815D02*
Y424996D01*
X345911Y182069D02*
Y182380D01*
X342708Y186690D02*
X343486Y185912D01*
Y184805D02*
Y185912D01*
Y184805D02*
X345911Y182380D01*
X137422Y112768D02*
X137684Y113030D01*
X447040Y125730D02*
X447710Y125060D01*
X452120D02*
X463139Y114041D01*
X447710Y125060D02*
X452120D01*
X426720Y137160D02*
X426976Y137416D01*
X425682Y137098D02*
X426782D01*
X437271Y137416D02*
X437589Y137734D01*
X426976Y137416D02*
X437271D01*
X422906Y134322D02*
X425682Y137098D01*
X457084Y197104D02*
Y197887D01*
X461381Y202184D01*
X462280D01*
X541020Y128153D02*
X552310Y139443D01*
X535940Y80010D02*
X536194Y79756D01*
X530860Y69850D02*
Y123190D01*
X536194Y79756D02*
X536702D01*
X511810Y50800D02*
X530860Y69850D01*
X537210Y128653D02*
X545338Y136781D01*
X505758Y43224D02*
X508544D01*
X536702Y71382D02*
Y79756D01*
X537210Y80010D02*
Y128653D01*
X503428Y40894D02*
X505758Y43224D01*
X508544D02*
X536702Y71382D01*
X547370Y61223D02*
X548148Y62001D01*
X551927D01*
X553326Y63400D01*
X542290Y58856D02*
Y65539D01*
Y58856D02*
X545266Y55880D01*
X551846D01*
X553326Y54400D01*
X191197Y76170D02*
X191740D01*
X166746Y93980D02*
X201262Y59464D01*
X78305Y72022D02*
X81991D01*
X66092Y70644D02*
X76927D01*
X78305Y72022D01*
X112660Y188860D02*
X121666D01*
X544576Y120683D02*
X547083Y123190D01*
X432499Y64071D02*
X435610Y60960D01*
X547083Y123190D02*
X547370D01*
X41060Y76200D02*
X52854Y64406D01*
X28839Y76200D02*
X41060D01*
X29646Y86360D02*
X56510D01*
X20589Y77303D02*
X29646Y86360D01*
X16394Y77303D02*
X20589D01*
X35366Y46918D02*
X52854Y64406D01*
X56354D01*
X56510Y86360D02*
X58564Y88414D01*
X444691Y69659D02*
Y116141D01*
X469785Y44565D02*
X474357D01*
X461010Y39370D02*
Y49029D01*
X474357Y44565D02*
X478028Y40894D01*
X444691Y69659D02*
X469785Y44565D01*
X441643Y68396D02*
Y114878D01*
Y68396D02*
X461010Y49029D01*
X438595Y66596D02*
X448310Y56881D01*
X432499Y64071D02*
Y111061D01*
X438595Y66596D02*
Y113616D01*
X435547Y65333D02*
Y112323D01*
X427990Y115570D02*
X432499Y111061D01*
X448310Y48534D02*
Y56881D01*
X429253Y118618D02*
X435547Y112323D01*
X371774Y115316D02*
X372112Y115654D01*
X432606Y128226D02*
X444691Y116141D01*
X430081Y122130D02*
X438595Y113616D01*
X431343Y125178D02*
X441643Y114878D01*
X364424Y103966D02*
X388994D01*
X371841Y111383D02*
X372112Y111654D01*
X157930Y93980D02*
X166746D01*
X553326Y72010D02*
X561546Y63790D01*
Y54400D02*
Y63790D01*
X314615Y180404D02*
X315949Y179070D01*
X314615Y180404D02*
X314615D01*
X312104Y182915D02*
X314615Y180404D01*
X312104Y182915D02*
Y182915D01*
X430530Y200152D02*
X434268Y203890D01*
X430530Y200152D02*
X430530D01*
X426022Y195644D02*
X430530Y200152D01*
X434268Y203890D02*
X445829D01*
X426022Y143522D02*
Y195644D01*
X568765Y96084D02*
X573438Y100757D01*
X577907D01*
X580020Y102870D01*
X528828Y40894D02*
Y56388D01*
X456750Y37280D02*
Y40995D01*
X451633Y46112D02*
X456750Y40995D01*
Y37280D02*
X467360Y26670D01*
X450732Y46112D02*
X451633D01*
X448310Y48534D02*
X450732Y46112D01*
X493014Y30480D02*
X503428Y40894D01*
X461010Y39370D02*
X469900Y30480D01*
X493014D01*
X467360Y26670D02*
X514604D01*
X528828Y40894D01*
X371774Y151316D02*
X381186D01*
X387350Y157480D02*
X405710D01*
X381186Y151316D02*
X387350Y157480D01*
X405710D02*
X415034Y148156D01*
X72042Y288334D02*
Y303058D01*
X72340Y303356D01*
X71744Y288036D02*
X72042Y288334D01*
X120442Y414644D02*
X134082Y401004D01*
X78759Y414644D02*
X120442D01*
X134082Y401004D02*
X135332D01*
X136582D02*
X152096D01*
X135332D02*
X136582D01*
X134327Y386504D02*
X134622D01*
X120249Y400582D02*
X134327Y386504D01*
X119136Y400582D02*
X120249D01*
X58564Y88414D02*
Y91914D01*
X59854Y63682D02*
X146630D01*
X147354Y64406D01*
X35366Y36764D02*
Y46918D01*
X32892Y34290D02*
X35366Y36764D01*
X291135Y135316D02*
X313074D01*
X290824Y131316D02*
X313074D01*
X291445Y139316D02*
X313074D01*
X102937Y160751D02*
X270011D01*
X291445Y139316D01*
X267486Y154655D02*
X290824Y131316D01*
X104199Y157703D02*
X268748D01*
X105462Y154655D02*
X267486D01*
X268748Y157703D02*
X291135Y135316D01*
X98548Y152052D02*
X104199Y157703D01*
X95500Y153314D02*
X102937Y160751D01*
X101596Y150789D02*
X105462Y154655D01*
X108468Y179896D02*
X124778D01*
X118930Y93980D02*
X126514D01*
X130168Y141612D02*
Y141742D01*
X118930Y144780D02*
X127130D01*
X130168Y141742D01*
X135594Y127508D02*
X136144D01*
X133216Y129886D02*
X135594Y127508D01*
X121124Y129886D02*
X133216D01*
X118930Y132080D02*
X121124Y129886D01*
X209550Y132080D02*
X214314Y127316D01*
X313074D01*
X95500Y112190D02*
Y153314D01*
Y112190D02*
X107096Y100594D01*
X143774D01*
X98548Y114097D02*
Y152052D01*
X101596Y118794D02*
Y150789D01*
X104644Y149527D02*
X106724Y151607D01*
X101596Y118794D02*
X107096Y113294D01*
X130764D01*
X560070Y156210D02*
X560300Y155980D01*
Y148830D02*
X560530Y148600D01*
X560300Y148830D02*
Y155980D01*
X59854Y64406D02*
X66092Y70644D01*
X547370Y123190D02*
X550462Y126282D01*
Y128752D01*
X552310Y130600D01*
X560070Y80010D02*
X560459Y79621D01*
Y73487D02*
Y79621D01*
Y73487D02*
X561546Y72400D01*
X545338Y136781D02*
Y156718D01*
X487934Y50800D02*
X511810D01*
X553326Y72010D02*
Y72400D01*
X478028Y40894D02*
X487934Y50800D01*
X485781Y105348D02*
X489126D01*
X457890Y105300D02*
X485733D01*
X485781Y105348D01*
X489126D02*
X489864Y106086D01*
X452354Y110836D02*
X457890Y105300D01*
X463139Y113258D02*
X465561Y110836D01*
X463139Y113258D02*
Y114041D01*
X465561Y110836D02*
X466344D01*
X483870Y125730D02*
X491490Y133350D01*
X456618Y125730D02*
X483870D01*
X449653Y132695D02*
X456618Y125730D01*
X489864Y111086D02*
Y127414D01*
X505964Y143513D01*
X491490Y133350D02*
Y160020D01*
X505964Y143513D02*
Y143764D01*
X491490Y160020D02*
X496471Y165001D01*
X501801D02*
X505964Y169164D01*
X496471Y165001D02*
X501801D01*
X130764Y113294D02*
X136850Y119380D01*
X157930D01*
X98548Y114097D02*
X105537Y107109D01*
X118501D02*
X118930Y106680D01*
X105537Y107109D02*
X118501D01*
X149860Y106680D02*
X157930D01*
X143774Y100594D02*
X149860Y106680D01*
X104644Y125466D02*
Y149527D01*
Y125466D02*
X110730Y119380D01*
X118930D01*
X576707Y253999D02*
X576834Y253872D01*
X576707Y253999D02*
Y261493D01*
X576580Y261620D02*
X576707Y261493D01*
X576580Y269240D02*
Y275652D01*
X576834Y275906D01*
X399034Y167156D02*
Y168656D01*
X378336Y155316D02*
X385438Y162418D01*
X371774Y155316D02*
X378336D01*
X385438Y162418D02*
X394296D01*
X399034Y167156D01*
X136902Y187586D02*
X138176Y188860D01*
X132467Y187586D02*
X136902D01*
X124778Y179896D02*
X132467Y187586D01*
X56354Y64406D02*
X59854D01*
X445722Y131274D02*
X447143Y132695D01*
X449653D01*
X434086Y131274D02*
X445722D01*
X448988Y112952D02*
Y116372D01*
Y112952D02*
X451104Y110836D01*
X434086Y131274D02*
X448988Y116372D01*
X477337Y202692D02*
X477567D01*
X477670Y202588D01*
X445829Y203890D02*
X448120Y201599D01*
X290048Y156326D02*
X303058Y143316D01*
X313074D01*
X288798Y156326D02*
X290048D01*
X58564Y91914D02*
Y182914D01*
X552310Y139443D02*
Y139600D01*
X138176Y188860D02*
X139426D01*
X198628Y188352D02*
X199878D01*
X168656Y188606D02*
X169906D01*
X195423Y176274D02*
Y179095D01*
Y176274D02*
X197845Y173852D01*
X183642Y190876D02*
X195423Y179095D01*
X197845Y173852D02*
X198628D01*
X165451Y176528D02*
Y179349D01*
Y176528D02*
X167873Y174106D01*
X153670Y191130D02*
X165451Y179349D01*
X167873Y174106D02*
X168656D01*
X57530Y183948D02*
X58564Y182914D01*
X57530Y183948D02*
Y201930D01*
X34678Y17522D02*
X145970D01*
X147354Y18906D01*
X33920Y16764D02*
X34678Y17522D01*
X525147Y222134D02*
X544830D01*
X506368Y218186D02*
X521199D01*
X525147Y222134D01*
X553523Y72597D02*
Y87179D01*
X553326Y72400D02*
X553523Y72597D01*
X552310Y148600D02*
X552650Y148940D01*
Y162551D02*
X552990Y162890D01*
X552650Y148940D02*
Y162551D01*
X558929Y162890D02*
X571395Y175357D01*
X572010D01*
X552990Y162890D02*
X558929D01*
X572010Y175357D02*
X574432Y177779D01*
Y178562D01*
X490104Y79456D02*
Y95846D01*
X489864Y96086D02*
X490104Y95846D01*
X419870Y137370D02*
X426022Y143522D01*
X466469Y110961D02*
X489739D01*
X466344Y110836D02*
X466469Y110961D01*
X489739D02*
X489864Y111086D01*
X451104Y110836D02*
X452354D01*
X439236Y177734D02*
X441177Y179675D01*
X437589Y177734D02*
X439236D01*
X415034Y146656D02*
Y148156D01*
X309874Y111316D02*
X313074D01*
X297814Y108204D02*
X306762D01*
X309874Y111316D01*
D17*
X45720Y196850D02*
Y207533D01*
X322500Y213360D02*
X322965Y212895D01*
X327110D02*
X329564Y210441D01*
Y192419D02*
Y210441D01*
X322965Y212895D02*
X327110D01*
X399807Y33020D02*
X411237Y44450D01*
X420370D01*
X423890Y40930D01*
Y28663D02*
Y40930D01*
X423671Y28444D02*
X423890Y28663D01*
X292482Y40894D02*
X300356Y33020D01*
X399807D01*
X389322Y150174D02*
X395516D01*
X389128Y150368D02*
X389322Y150174D01*
X324371Y66396D02*
X324384Y66382D01*
X324371Y66396D02*
Y73963D01*
X324384Y73976D01*
X281814Y108204D02*
X289496D01*
X329962Y51232D02*
X332424Y53694D01*
Y91132D01*
X307848Y66356D02*
Y73976D01*
X318390Y186690D02*
X318898D01*
X317995D02*
X318390D01*
X311733Y191187D02*
X313498D01*
X317995Y186690D01*
X311150Y191770D02*
X311733Y191187D01*
X308610Y205451D02*
X314580Y199481D01*
Y199390D02*
Y199481D01*
X308610Y205451D02*
Y205542D01*
X511643Y223353D02*
X511810Y223520D01*
X506368Y223186D02*
X506535Y223353D01*
X511643D01*
X553720Y217170D02*
X554303Y217753D01*
X555771D01*
X560368Y222350D01*
X561068D01*
X450114Y169200D02*
X459005D01*
X449580Y168666D02*
X450114Y169200D01*
X459005D02*
X459539Y169734D01*
X386701Y185279D02*
X390652Y189230D01*
X324318Y98831D02*
Y100936D01*
X7620Y34290D02*
X16892D01*
X558800Y123190D02*
Y123417D01*
X560530Y125147D01*
Y130600D01*
X450850Y31612D02*
Y38100D01*
X386714Y198374D02*
X394949D01*
X395965Y199390D02*
X396240D01*
X394949Y198374D02*
X395965Y199390D01*
X352520Y330200D02*
Y372034D01*
X352515Y330195D02*
X352520Y330200D01*
X158640Y331242D02*
Y334940D01*
X158339Y330941D02*
X158640Y331242D01*
Y334940D02*
X158710Y335010D01*
X292043Y162560D02*
X307287Y147316D01*
X569784Y87312D02*
X579309D01*
X579372Y87249D01*
X569720Y87376D02*
X569784Y87312D01*
X469900Y156210D02*
X470094Y156016D01*
X477774Y150494D02*
X477774D01*
X472252Y156016D02*
X477774Y150494D01*
X470094Y156016D02*
X472252D01*
X450299Y161734D02*
X459539D01*
X449855Y161290D02*
X450299Y161734D01*
X449580Y161290D02*
X449855D01*
X449580Y147320D02*
X449774Y147126D01*
X458147D01*
X459539Y145734D01*
X140458Y144845D02*
X157865D01*
X140393Y144910D02*
X140458Y144845D01*
X157865D02*
X157930Y144780D01*
X508634Y105856D02*
X508864Y106086D01*
X502371Y105856D02*
X508634D01*
X500401Y103886D02*
X502371Y105856D01*
X500126Y103886D02*
X500401D01*
X395516Y150174D02*
X399034Y146656D01*
X415034Y181841D02*
X415798Y182605D01*
X415034Y168656D02*
Y181841D01*
X415798Y182605D02*
Y182880D01*
X381634Y183134D02*
X383779Y185279D01*
X386701D01*
X24776Y206502D02*
X24961Y206317D01*
Y196781D02*
Y206317D01*
Y196781D02*
X25146Y196596D01*
X19293Y16891D02*
X19420Y16764D01*
X10033Y16891D02*
X19293D01*
X9906Y17018D02*
X10033Y16891D01*
X519938Y69850D02*
X520064Y69976D01*
Y79456D01*
X568990Y162890D02*
X569155Y162725D01*
X577177D01*
X577342Y162560D01*
X11670Y184308D02*
X13064Y182914D01*
X10276Y206502D02*
X11670Y205108D01*
Y184308D02*
Y205108D01*
X13064Y91914D02*
Y182914D01*
X333374Y188214D02*
Y188609D01*
X329564Y192419D02*
X333374Y188609D01*
D26*
X401240Y212090D02*
D03*
X391240D02*
D03*
X312500Y213360D02*
D03*
X322500D02*
D03*
D27*
X345924Y182069D02*
D03*
X352424D02*
D03*
D28*
Y199828D02*
D03*
Y205828D02*
D03*
Y251138D02*
D03*
Y257138D02*
D03*
D29*
Y229880D02*
D03*
X344734Y229881D02*
D03*
D30*
X352424Y284682D02*
D03*
Y278182D02*
D03*
D31*
X21590Y310290D02*
D03*
Y329790D02*
D03*
D32*
X9348Y373454D02*
D03*
Y357454D02*
D03*
X576834Y253872D02*
D03*
Y237872D02*
D03*
X324358Y82294D02*
D03*
Y66294D02*
D03*
X307848Y66294D02*
D03*
Y82294D02*
D03*
X271780Y68200D02*
D03*
Y84200D02*
D03*
X185116Y386156D02*
D03*
Y402156D02*
D03*
X477774Y134494D02*
D03*
Y150494D02*
D03*
X72340Y303356D02*
D03*
Y319856D02*
D03*
X183642Y190876D02*
D03*
Y174376D02*
D03*
X153670Y191130D02*
D03*
Y174630D02*
D03*
D33*
X290048Y66609D02*
D03*
Y87109D02*
D03*
D34*
X308482Y40894D02*
D03*
X292482D02*
D03*
X297814Y108204D02*
D03*
X281814D02*
D03*
X366650Y82550D02*
D03*
X382650D02*
D03*
X382650Y69850D02*
D03*
X366650D02*
D03*
X370714Y198374D02*
D03*
X386714D02*
D03*
X365634Y183134D02*
D03*
X381634D02*
D03*
X330580Y199390D02*
D03*
X314580D02*
D03*
X334390Y186690D02*
D03*
X318390D02*
D03*
X145620Y302356D02*
D03*
X161620D02*
D03*
X145620Y317596D02*
D03*
X161620D02*
D03*
X208284Y338972D02*
D03*
X192284D02*
D03*
X339346Y71628D02*
D03*
X355346D02*
D03*
X520064Y79456D02*
D03*
X504064D02*
D03*
X553720Y87376D02*
D03*
X569720D02*
D03*
X552990Y162890D02*
D03*
X568990D02*
D03*
X61340Y205740D02*
D03*
X45340D02*
D03*
X32892Y34290D02*
D03*
X16892D02*
D03*
X339346Y85090D02*
D03*
X355346D02*
D03*
X71446Y424996D02*
D03*
X54946D02*
D03*
D35*
X232410Y313944D02*
D03*
D36*
Y282956D02*
D03*
D37*
X70308Y353262D02*
D03*
D38*
X101296D02*
D03*
D39*
X163810Y277570D02*
D03*
X135810D02*
D03*
D40*
X214630Y263910D02*
D03*
Y232410D02*
D03*
D41*
X10160Y412130D02*
D03*
Y398130D02*
D03*
D42*
X224370Y363220D02*
D03*
X235370D02*
D03*
D43*
X229870Y228180D02*
D03*
Y239180D02*
D03*
X44450Y295060D02*
D03*
Y284060D02*
D03*
X29210Y65620D02*
D03*
Y76620D02*
D03*
X15240Y65620D02*
D03*
Y76620D02*
D03*
D44*
X222010Y414350D02*
D03*
X242010D02*
D03*
D45*
X219010Y387350D02*
D03*
X225510D02*
D03*
X232010D02*
D03*
X238510D02*
D03*
X245010D02*
D03*
D46*
X118930Y144780D02*
D03*
D47*
X157930D02*
D03*
X118930Y132080D02*
D03*
X157930D02*
D03*
X118930Y119380D02*
D03*
X157930D02*
D03*
X118930Y106680D02*
D03*
X157930D02*
D03*
X118930Y93980D02*
D03*
X157930D02*
D03*
D48*
X340730Y46990D02*
D03*
X355230D02*
D03*
X532500Y176530D02*
D03*
X547000D02*
D03*
D49*
X210340Y301954D02*
D03*
X188340D02*
D03*
X120678Y317194D02*
D03*
X98678D02*
D03*
D50*
X552450Y112660D02*
D03*
Y98160D02*
D03*
D51*
X576834Y275906D02*
D03*
Y290406D02*
D03*
X248920Y367930D02*
D03*
Y353430D02*
D03*
X466344Y110836D02*
D03*
Y96336D02*
D03*
X451477Y110711D02*
D03*
Y96211D02*
D03*
X152096Y386504D02*
D03*
Y401004D02*
D03*
X135332Y386504D02*
D03*
Y401004D02*
D03*
X118822Y386504D02*
D03*
Y401004D02*
D03*
X81026Y374766D02*
D03*
Y389266D02*
D03*
X168606Y400898D02*
D03*
Y386398D02*
D03*
X102312Y401004D02*
D03*
Y386504D02*
D03*
X477774Y181494D02*
D03*
Y166994D02*
D03*
X450850Y31612D02*
D03*
Y46112D02*
D03*
X526542Y213498D02*
D03*
Y198998D02*
D03*
X561340Y221880D02*
D03*
Y207380D02*
D03*
X544830Y207634D02*
D03*
Y222134D02*
D03*
X577578Y207850D02*
D03*
Y222350D02*
D03*
X121666Y188860D02*
D03*
Y174360D02*
D03*
X289052Y169302D02*
D03*
Y154802D02*
D03*
X138176Y188860D02*
D03*
Y174360D02*
D03*
X198628Y173852D02*
D03*
Y188352D02*
D03*
X168656Y174106D02*
D03*
Y188606D02*
D03*
D52*
X353960Y59690D02*
D03*
X339460D02*
D03*
X71744Y288036D02*
D03*
X86244D02*
D03*
X82180Y405130D02*
D03*
X67680D02*
D03*
X85156Y424996D02*
D03*
X99656D02*
D03*
X457084Y197104D02*
D03*
X442584D02*
D03*
X490104Y79456D02*
D03*
X475604D02*
D03*
X562980Y102870D02*
D03*
X577480D02*
D03*
X559170Y176530D02*
D03*
X573670D02*
D03*
X10276Y206502D02*
D03*
X24776D02*
D03*
X33920Y16764D02*
D03*
X19420D02*
D03*
D53*
X463770Y285640D02*
D03*
X56354Y64406D02*
D03*
D54*
X554770Y285640D02*
D03*
X463770Y240140D02*
D03*
X554770D02*
D03*
X147354Y64406D02*
D03*
X56354Y18906D02*
D03*
X147354D02*
D03*
D55*
X58564Y182914D02*
D03*
D56*
Y91914D02*
D03*
X13064Y182914D02*
D03*
Y91914D02*
D03*
D57*
X191770Y264160D02*
D03*
X473202Y197358D02*
D03*
D58*
X364424Y162666D02*
D03*
X360424D02*
D03*
X356424D02*
D03*
X352424D02*
D03*
X348424D02*
D03*
X344424D02*
D03*
X340424D02*
D03*
X336424D02*
D03*
X332424D02*
D03*
X364424Y103966D02*
D03*
X360424D02*
D03*
X356424D02*
D03*
X352424D02*
D03*
X348424D02*
D03*
X344424D02*
D03*
X340424D02*
D03*
X336424D02*
D03*
X332424D02*
D03*
X328424D02*
D03*
Y162666D02*
D03*
X324424D02*
D03*
X320424D02*
D03*
X324424Y103966D02*
D03*
X320424D02*
D03*
D59*
X371774Y155316D02*
D03*
Y151316D02*
D03*
Y147316D02*
D03*
Y143316D02*
D03*
Y139316D02*
D03*
Y135316D02*
D03*
Y131316D02*
D03*
Y127316D02*
D03*
Y123316D02*
D03*
Y119316D02*
D03*
Y115316D02*
D03*
X313074Y155316D02*
D03*
Y151316D02*
D03*
Y147316D02*
D03*
Y143316D02*
D03*
Y139316D02*
D03*
Y135316D02*
D03*
Y131316D02*
D03*
Y127316D02*
D03*
Y123316D02*
D03*
Y119316D02*
D03*
Y115316D02*
D03*
Y111316D02*
D03*
D60*
X371774D02*
D03*
D61*
X168710Y335010D02*
D03*
X163710D02*
D03*
X158710D02*
D03*
X153710D02*
D03*
X148710D02*
D03*
Y368010D02*
D03*
X153710D02*
D03*
X158710D02*
D03*
X163710D02*
D03*
X168710D02*
D03*
D62*
X142210Y341510D02*
D03*
Y346510D02*
D03*
Y351510D02*
D03*
Y356510D02*
D03*
Y361510D02*
D03*
X175210D02*
D03*
Y356510D02*
D03*
Y351510D02*
D03*
Y346510D02*
D03*
D63*
Y341510D02*
D03*
D64*
X248920Y340360D02*
D03*
Y319360D02*
D03*
X268920Y329860D02*
D03*
D65*
X448564Y136759D02*
D03*
Y178709D02*
D03*
D66*
X437589Y137734D02*
D03*
Y145734D02*
D03*
Y153734D02*
D03*
Y161734D02*
D03*
Y169734D02*
D03*
Y177734D02*
D03*
X459539D02*
D03*
Y169734D02*
D03*
Y161734D02*
D03*
Y153734D02*
D03*
Y145734D02*
D03*
D67*
Y137734D02*
D03*
D68*
X499364Y113086D02*
D03*
Y94086D02*
D03*
D69*
X508864Y111086D02*
D03*
Y106086D02*
D03*
Y101086D02*
D03*
Y96086D02*
D03*
X489864D02*
D03*
Y101086D02*
D03*
Y106086D02*
D03*
D70*
Y111086D02*
D03*
D73*
X506368Y213186D02*
D03*
D74*
Y218186D02*
D03*
Y223186D02*
D03*
X492868D02*
D03*
Y218186D02*
D03*
Y213186D02*
D03*
D75*
X416360Y101600D02*
D03*
X391360D02*
D03*
D76*
X399034Y168656D02*
D03*
D77*
Y146656D02*
D03*
X415034D02*
D03*
Y168656D02*
D03*
D142*
X342424Y133316D02*
D03*
D143*
X158710Y351510D02*
D03*
D144*
X561546Y54400D02*
D03*
X553326Y63400D02*
D03*
Y72400D02*
D03*
X561546D02*
D03*
X560530Y130600D02*
D03*
X552310Y139600D02*
D03*
Y148600D02*
D03*
X560530D02*
D03*
D145*
X553326Y54400D02*
D03*
X552310Y130600D02*
D03*
D146*
X408812Y417246D02*
D03*
D147*
X352424Y372034D02*
D03*
X314578D02*
D03*
D148*
X567128Y287174D02*
X570359Y290406D01*
X553754Y286656D02*
X554272Y287174D01*
X567128D01*
X570359Y290406D02*
X576834D01*
X462754Y286656D02*
X553754D01*
X462943Y241156D02*
X567834D01*
X570976Y238014D01*
X576692D02*
X577206Y237500D01*
X570976Y238014D02*
X576692D01*
X383762Y211422D02*
X388476D01*
X370714Y198374D02*
X383762Y211422D01*
X469754Y229397D02*
X502047Y197104D01*
X518046D01*
X469754Y229397D02*
Y234345D01*
X462943Y241156D02*
X469754Y234345D01*
X352424Y165823D02*
Y174618D01*
X348424Y162666D02*
Y170498D01*
X335578Y183344D02*
X348424Y170498D01*
X342424Y133316D02*
X356424Y147316D01*
X216808Y419608D02*
X286808D01*
X158710Y358114D02*
X165314D01*
X158710Y344906D02*
X165314D01*
X151852Y344652D02*
Y351510D01*
X328424Y147316D02*
X342424Y133316D01*
X323374Y114266D02*
X328378Y109262D01*
Y103921D02*
Y109262D01*
X290048Y66609D02*
X292065Y64592D01*
X291745Y58040D02*
X292065Y58361D01*
X521716Y187626D02*
Y193434D01*
X520526Y186436D02*
X521716Y187626D01*
X498492Y186436D02*
X520526D01*
X518046Y197104D02*
X521716Y193434D01*
X565520Y102578D02*
Y102870D01*
X554681Y100391D02*
X563332D01*
X565520Y102578D01*
X552450Y98160D02*
X554681Y100391D01*
X168710Y368010D02*
Y369810D01*
X563938Y229870D02*
X570069Y223739D01*
X499465Y223186D02*
X506149Y229870D01*
X563938D01*
X554109Y209238D02*
X559680D01*
X536858Y213424D02*
X549923D01*
X559680Y209238D02*
X561068Y207850D01*
X549923Y213424D02*
X554109Y209238D01*
X364508Y165400D02*
X374950D01*
X417068Y207518D02*
X477410D01*
X374950Y165400D02*
X417068Y207518D01*
X348730Y67350D02*
X349070Y67690D01*
X350875D01*
X354813Y71628D01*
X355346D01*
Y84963D02*
Y85090D01*
X349250Y78867D02*
X355346Y84963D01*
X349250Y78740D02*
Y78867D01*
X145620Y302356D02*
X146931Y301044D01*
X332424Y91132D02*
Y103966D01*
X477410Y207518D02*
X498492Y186436D01*
X25522Y69558D02*
X29210Y65870D01*
X24422Y69558D02*
X25522D01*
X24130Y69850D02*
X24422Y69558D01*
X29210Y65620D02*
Y65870D01*
X10452Y69558D02*
X11552D01*
X10160Y69850D02*
X10452Y69558D01*
X15240Y65620D02*
Y65870D01*
X11552Y69558D02*
X15240Y65870D01*
X375920Y82550D02*
X382650D01*
X375920Y69850D02*
X382650D01*
X340424Y97726D02*
Y103966D01*
X353960Y48260D02*
Y59690D01*
Y48260D02*
X355230Y46990D01*
X339346Y71628D02*
X339403Y71571D01*
Y59747D02*
Y71571D01*
Y59747D02*
X339460Y59690D01*
X339346Y71628D02*
Y85090D01*
X336424Y88545D02*
X339346Y85623D01*
Y85090D02*
Y85623D01*
X287312Y171042D02*
X289052Y169302D01*
X287020Y176530D02*
X287312Y176238D01*
Y171042D02*
Y176238D01*
X328424Y147316D02*
Y162666D01*
X549032Y178562D02*
X559932D01*
X547000Y176530D02*
X549032Y178562D01*
X365236Y182736D02*
X365634Y183134D01*
X360508Y172548D02*
X365236Y177276D01*
X365634Y183134D02*
Y193294D01*
X360508Y162750D02*
Y172548D01*
X365236Y177276D02*
Y182736D01*
X356424Y147316D02*
Y162666D01*
X168758Y408788D02*
X168910Y408940D01*
X168606Y400898D02*
X168758Y401050D01*
Y408788D01*
X99733Y425073D02*
X106765D01*
X106842Y425149D01*
X99656Y424996D02*
X99733Y425073D01*
X102233Y401083D02*
Y408929D01*
X102154Y409008D02*
X102233Y408929D01*
Y401083D02*
X102312Y401004D01*
X86244Y288036D02*
X86371Y288163D01*
X95123D01*
X95250Y288290D01*
X101094Y353060D02*
X101296Y353262D01*
X187493Y404532D02*
X205418D01*
X185116Y402156D02*
X187493Y404532D01*
X205418D02*
X216808Y415922D01*
X184150Y403122D02*
X185116Y402156D01*
X189930Y341326D02*
X192284Y338972D01*
X175210Y341510D02*
X175394Y341326D01*
X189930D01*
X148710Y341510D02*
X151852Y344652D01*
X142210Y341510D02*
X148710D01*
X165314Y344906D02*
X168710Y341510D01*
X175210D01*
X168710Y361510D02*
X175210D01*
X165314Y358114D02*
X168710Y361510D01*
X216808Y415922D02*
Y419608D01*
X307287Y147316D02*
X313074D01*
X335578Y183344D02*
Y186010D01*
X333374Y188214D02*
X335578Y186010D01*
X360424Y162666D02*
X360508Y162750D01*
X531142Y207708D02*
X536858Y213424D01*
X364424Y165316D02*
X364508Y165400D01*
X364424Y162666D02*
Y165316D01*
X365634Y193294D02*
X370714Y198374D01*
Y198374D01*
X576328Y207850D02*
X577578D01*
X570069Y214109D02*
X576328Y207850D01*
X570069Y214109D02*
Y223739D01*
X492868Y223186D02*
X499465D01*
X492868Y213186D02*
Y218186D01*
Y213186D02*
X493618D01*
X499096Y207708D01*
X531142D01*
X506524Y213342D02*
X526386D01*
X506368Y213186D02*
X506524Y213342D01*
X526386D02*
X526542Y213498D01*
X577206Y222722D02*
Y237500D01*
Y222722D02*
X577578Y222350D01*
X450271Y183024D02*
X476244D01*
X448564Y178709D02*
Y181317D01*
X450271Y183024D01*
X476244D02*
X477774Y181494D01*
X429324Y150737D02*
Y182594D01*
X442584Y195854D01*
X429324Y150737D02*
X432815Y147246D01*
X436077D02*
X437589Y145734D01*
X432815Y147246D02*
X436077D01*
X442584Y195854D02*
Y197104D01*
X318846Y100682D02*
X320340D01*
X320424Y100766D01*
Y103966D01*
D149*
X111760Y81280D02*
X158332D01*
X90166Y102874D02*
X111760Y81280D01*
X158332D02*
X195162Y44450D01*
X88593Y74930D02*
X157129D01*
X182279Y49780D01*
X76200Y87323D02*
X88593Y74930D01*
X586359Y54483D02*
X586613Y54737D01*
Y114300D01*
X594995Y42545D02*
Y182395D01*
X195162Y44450D02*
X215650D01*
X477774Y166994D02*
X478890D01*
X476524D02*
X477774D01*
X449854Y96336D02*
X466344D01*
X102870Y166370D02*
X110860Y174360D01*
X102530Y166030D02*
X102870Y166370D01*
X366650Y38393D02*
X366943Y38100D01*
X326281D02*
X326696D01*
X340730Y38481D02*
Y46990D01*
X208569Y11230D02*
X423442D01*
X563680D01*
X586613Y114300D02*
Y176657D01*
X578358Y184912D02*
X586613Y176657D01*
X552458Y114300D02*
X586613D01*
X526542Y184912D02*
X578358D01*
X563680Y11230D02*
X594995Y42545D01*
X182279Y37520D02*
X208569Y11230D01*
X539750Y198120D02*
X579270D01*
X594995Y182395D01*
X480235Y159711D02*
Y165649D01*
X487122Y143842D02*
Y152824D01*
X478890Y166994D02*
X480235Y165649D01*
Y159711D02*
X487122Y152824D01*
X477774Y134494D02*
X487122Y143842D01*
X493579Y181549D02*
X521195D01*
X479024Y166994D02*
X493579Y181549D01*
X183642Y174376D02*
X190915Y167103D01*
X269777D01*
X274320Y162560D01*
X161440Y166860D02*
X175968D01*
X153670Y174630D02*
X161440Y166860D01*
X175968D02*
X183484Y174376D01*
X183642D01*
X90166Y154552D02*
X101095Y165481D01*
X90166Y102874D02*
Y154552D01*
X102049Y166030D02*
X102530D01*
X101095Y165481D02*
X101500D01*
X102049Y166030D01*
X120650Y213360D02*
X312500D01*
X76200Y87323D02*
Y168910D01*
X182279Y37520D02*
Y49780D01*
X76200Y168910D02*
X120650Y213360D01*
X403643Y212090D02*
X480775D01*
X501289Y191576D02*
X515426D01*
X480775Y212090D02*
X501289Y191576D01*
X44450Y283810D02*
Y284060D01*
X41910Y281270D02*
X44450Y283810D01*
X41910Y276860D02*
X109220D01*
X41910D02*
Y281270D01*
X109220Y276860D02*
X134620Y302260D01*
X31696Y266646D02*
X41910Y276860D01*
X352424Y174624D02*
Y199751D01*
Y205830D02*
Y229725D01*
Y230035D02*
Y251135D01*
Y257230D02*
Y278027D01*
Y285444D02*
Y330195D01*
X319371Y45009D02*
X326281Y38100D01*
X318684Y45009D02*
X319371D01*
X292482Y51232D02*
X329962D01*
X306450Y41127D02*
Y41402D01*
X301198Y41248D02*
X301375Y41071D01*
X306394D01*
X306450Y41127D01*
X31696Y252222D02*
Y266646D01*
X142739Y326393D02*
X153791D01*
X134620Y318274D02*
X142739Y326393D01*
X134620Y302260D02*
Y318274D01*
X366650Y82550D02*
X367030Y82930D01*
X366650Y82550D02*
X366650Y82550D01*
X367030Y82930D02*
Y88900D01*
X366650Y69850D02*
Y82550D01*
X521195Y176530D02*
Y180312D01*
Y96587D02*
Y176530D01*
X532500D01*
X274320Y162560D02*
X292043D01*
X121666Y174360D02*
X138176D01*
X110860D02*
X121666D01*
X484626Y101086D02*
X489864D01*
X466344Y96336D02*
X479876D01*
X484626Y101086D01*
X521942Y180312D02*
X526542Y184912D01*
X521195Y180312D02*
X521942D01*
X526542Y184912D02*
Y198998D01*
X138176Y174360D02*
X138311Y174495D01*
X153535D01*
X153670Y174630D01*
X504064Y79456D02*
X521195Y96587D01*
X497417Y72809D02*
X504064Y79456D01*
X497417Y72736D02*
Y72809D01*
X495038Y70358D02*
X497417Y72736D01*
X483452Y70358D02*
X495038D01*
X475604Y78206D02*
X483452Y70358D01*
X475604Y78206D02*
Y79456D01*
X473886Y82370D02*
X475604Y80652D01*
X466344Y88716D02*
Y96336D01*
Y88716D02*
X472690Y82370D01*
X473886D01*
X475604Y79456D02*
Y80652D01*
X467296Y176222D02*
X476524Y166994D01*
X459539Y177734D02*
X461051Y176222D01*
X467296D01*
X474002Y137734D02*
X477242Y134494D01*
X459539Y137734D02*
X474002D01*
X477242Y134494D02*
X477774D01*
D150*
X553720Y21590D02*
X586359Y54229D01*
X430530Y21590D02*
X553720D01*
X586359Y54229D02*
Y54483D01*
X238510Y21590D02*
X430530D01*
X215650Y44450D02*
X238510Y21590D01*
X327077Y38100D02*
X340730D01*
X403413Y49639D02*
X427881D01*
X430530Y21590D02*
Y46990D01*
X427881Y49639D02*
X430530Y46990D01*
X391875Y38100D02*
X403413Y49639D01*
X340730Y38100D02*
X366943D01*
X391875D01*
D151*
X181991Y66421D02*
X195961Y52451D01*
X9348Y309880D02*
X37596D01*
X366650Y38393D02*
Y69850D01*
X95429Y178852D02*
X95468D01*
X84038Y167461D02*
X95429Y178852D01*
X83999Y167461D02*
X84038D01*
X81594Y184388D02*
Y208064D01*
X81587Y184381D02*
X81594Y184388D01*
X271780Y269040D02*
Y278130D01*
Y326505D01*
X66138Y223520D02*
X81594Y208064D01*
X29718Y223520D02*
X66138D01*
X245010Y371840D02*
Y387350D01*
X246960Y368640D02*
X247670Y367930D01*
X245010Y371840D02*
X246960Y369890D01*
Y368640D02*
Y369890D01*
X247670Y367930D02*
X248920D01*
X235370Y363220D02*
X240213D01*
X244213Y367220D02*
X248210D01*
X240213Y363220D02*
X244213Y367220D01*
X271780Y278130D02*
X280470D01*
X280670Y277930D01*
X241920Y239180D02*
X271780Y269040D01*
X229870Y239180D02*
X241920D01*
X268920Y329860D02*
X269420D01*
X270880Y328400D01*
X14620Y398130D02*
X19070Y393680D01*
Y384790D02*
X32614Y371246D01*
X19070Y384790D02*
Y393680D01*
X10160Y398130D02*
X14620D01*
X9348Y357454D02*
X19165D01*
X9348Y309880D02*
Y357454D01*
X19165D02*
X31281Y369570D01*
X34290D01*
X39374Y337058D02*
X70612D01*
X24090Y329790D02*
X31163Y336863D01*
X36565D01*
X21590Y329790D02*
X24090D01*
X9445Y373551D02*
Y381149D01*
X264257Y76297D02*
Y76677D01*
X264160Y76200D02*
X264257Y76297D01*
Y76677D02*
X271780Y84200D01*
X232751Y279927D02*
X236060Y283237D01*
X292065Y58361D02*
Y64592D01*
X292482Y51232D02*
Y57944D01*
X214630Y220980D02*
Y232410D01*
X218440Y374787D02*
X219010Y375358D01*
X218440Y374650D02*
Y374787D01*
X219010Y375358D02*
Y387350D01*
X229870Y220980D02*
Y228180D01*
X191770Y264160D02*
X191895Y264035D01*
X214505D02*
X214630Y263910D01*
X191895Y264035D02*
X214505D01*
X215900Y363220D02*
X224370D01*
X236060Y283237D02*
X237975D01*
X232751Y272315D02*
X232848Y272218D01*
X232751Y272315D02*
Y279927D01*
X10160Y412130D02*
Y419100D01*
X51336Y295060D02*
X51409Y295132D01*
X44450Y295060D02*
X51336D01*
X144780Y309880D02*
X144877Y309977D01*
Y316853D02*
X145620Y317596D01*
X144877Y309977D02*
Y316853D01*
X147080Y293748D02*
Y300896D01*
Y293748D02*
X147320Y293507D01*
Y293370D02*
Y293507D01*
X146931Y301044D02*
X147080Y300896D01*
X136520Y276860D02*
X149860D01*
X135810Y277570D02*
X136520Y276860D01*
X70612Y337058D02*
X73660Y334010D01*
X87630Y353060D02*
X101094D01*
X9348Y243890D02*
X29718Y223520D01*
X9348Y243890D02*
Y309880D01*
D152*
X240030Y246380D02*
X256413Y262763D01*
Y325247D01*
X180340Y246380D02*
X240030D01*
X252730Y328930D02*
X256413Y325247D01*
X243822Y328930D02*
X252730D01*
X179283Y392823D02*
X192691D01*
X194030Y351510D02*
X221242D01*
X175210D02*
X194030D01*
X192691Y392823D02*
X194030Y391484D01*
Y351510D02*
Y391484D01*
X221242Y351510D02*
X243822Y328930D01*
X176530Y390070D02*
X179283Y392823D01*
X176530Y377630D02*
Y390070D01*
X168710Y369810D02*
X176530Y377630D01*
X177887Y356567D02*
X185116Y363796D01*
X175210Y356510D02*
X175267Y356567D01*
X177887D01*
X71446Y424996D02*
X85156D01*
X167048Y259672D02*
Y267637D01*
Y259672D02*
X180340Y246380D01*
X185116Y363796D02*
Y386156D01*
D153*
X315881Y57492D02*
Y82201D01*
X316230Y82550D01*
X515426Y191576D02*
X515620Y191770D01*
X249000Y339510D02*
Y353350D01*
X153791Y326393D02*
X158339Y330941D01*
D154*
X34290Y394970D02*
D03*
X42930Y312420D02*
D03*
X199140Y106680D02*
D03*
X505964Y169164D02*
D03*
X246630Y69850D02*
D03*
X215650Y44450D02*
D03*
D155*
X34290Y369570D02*
D03*
X42930Y337820D02*
D03*
X199140Y132080D02*
D03*
X505964Y143764D02*
D03*
X246630Y44450D02*
D03*
X215650Y69850D02*
D03*
X574066Y63410D02*
D03*
X573050Y139610D02*
D03*
D156*
X197010Y414350D02*
D03*
X267010D02*
D03*
D157*
X207010Y387350D02*
D03*
X257010D02*
D03*
D158*
X31696Y252222D02*
D03*
D159*
X56696D02*
D03*
X280670Y252930D02*
D03*
D160*
Y277930D02*
D03*
D161*
X478028Y40894D02*
D03*
D162*
X503428D02*
D03*
X528828D02*
D03*
D163*
X91440Y81280D02*
D03*
X45720Y196850D02*
D03*
X195961Y52451D02*
D03*
X181991Y66421D02*
D03*
X417830Y38862D02*
D03*
X416970Y31802D02*
D03*
X423671Y28444D02*
D03*
X423442Y11230D02*
D03*
X539750Y198120D02*
D03*
X437322Y34005D02*
D03*
X437696Y41352D02*
D03*
X83999Y167461D02*
D03*
X74186Y80536D02*
D03*
X83255Y89068D02*
D03*
X82346Y72376D02*
D03*
X81587Y184381D02*
D03*
X389128Y150368D02*
D03*
X279400Y325120D02*
D03*
Y299720D02*
D03*
Y312420D02*
D03*
X358826Y262890D02*
D03*
Y271780D02*
D03*
X359269Y237490D02*
D03*
X345553D02*
D03*
Y245110D02*
D03*
X359165Y228600D02*
D03*
X345449Y212057D02*
D03*
X345449Y205733D02*
D03*
X359269Y244902D02*
D03*
X9445Y381149D02*
D03*
X264160Y76200D02*
D03*
X318684Y45009D02*
D03*
X315881Y57492D02*
D03*
X324384Y73976D02*
D03*
X289496Y108204D02*
D03*
X301198Y41248D02*
D03*
X307848Y73976D02*
D03*
X515620Y191770D02*
D03*
X359165Y213360D02*
D03*
X345449Y220980D02*
D03*
X359165D02*
D03*
Y207010D02*
D03*
X378189Y250157D02*
D03*
X289424Y318770D02*
D03*
X345948Y280670D02*
D03*
X358826Y298450D02*
D03*
X428989Y250157D02*
D03*
X289424Y306070D02*
D03*
X581389Y326443D02*
D03*
X371839Y288257D02*
D03*
X308339Y237457D02*
D03*
X401320Y224790D02*
D03*
X279400Y222250D02*
D03*
X345948Y191770D02*
D03*
X327660Y224790D02*
D03*
X384539Y237457D02*
D03*
X486139Y313657D02*
D03*
X302209Y326443D02*
D03*
X358826Y281153D02*
D03*
X308339Y262857D02*
D03*
Y288257D02*
D03*
X403589Y275557D02*
D03*
X345948Y198120D02*
D03*
X562339Y313657D02*
D03*
X327389Y275557D02*
D03*
X517889Y326443D02*
D03*
X454660Y300990D02*
D03*
X275590Y427990D02*
D03*
X289424Y424892D02*
D03*
X543560Y300990D02*
D03*
X473439Y313657D02*
D03*
X416289Y300957D02*
D03*
X378189Y275557D02*
D03*
X302209Y334902D02*
D03*
X311404Y326443D02*
D03*
X397239Y262857D02*
D03*
X302209Y377200D02*
D03*
Y402579D02*
D03*
X321039Y237457D02*
D03*
X397239Y313657D02*
D03*
X275590Y337108D02*
D03*
X403589Y250157D02*
D03*
X289424Y334010D02*
D03*
X441689Y326443D02*
D03*
X361442Y326357D02*
D03*
X371839Y313657D02*
D03*
X289424Y412192D02*
D03*
Y240030D02*
D03*
X365489Y224757D02*
D03*
X467360Y300990D02*
D03*
X492489Y326443D02*
D03*
X524239Y313657D02*
D03*
X340089Y224757D02*
D03*
X428989Y275557D02*
D03*
X302209Y427957D02*
D03*
X358826Y199390D02*
D03*
X439420Y224790D02*
D03*
X435339Y313657D02*
D03*
X543289Y326443D02*
D03*
X289424Y227330D02*
D03*
X333739Y288257D02*
D03*
X388620Y224790D02*
D03*
X302209Y368740D02*
D03*
X505460Y300990D02*
D03*
X333739Y313657D02*
D03*
X422639D02*
D03*
X435339Y237457D02*
D03*
X441689Y275557D02*
D03*
X409939Y237457D02*
D03*
X530860Y300990D02*
D03*
X275590Y362508D02*
D03*
Y349808D02*
D03*
X435339Y288257D02*
D03*
X365489Y300957D02*
D03*
X441689Y250157D02*
D03*
X358850Y313684D02*
D03*
X302209Y360281D02*
D03*
X289424Y293370D02*
D03*
X345948Y313657D02*
D03*
X422639Y262857D02*
D03*
X492760Y300990D02*
D03*
X340089Y300957D02*
D03*
X428989D02*
D03*
X448039Y237457D02*
D03*
X358826Y255270D02*
D03*
X536939Y313657D02*
D03*
X511539D02*
D03*
X384539Y288257D02*
D03*
X568960Y300990D02*
D03*
X390889Y326443D02*
D03*
X454389D02*
D03*
X289424Y399492D02*
D03*
X302209Y351821D02*
D03*
X345948Y271780D02*
D03*
X343662Y326443D02*
D03*
X302209Y411038D02*
D03*
X326390Y326443D02*
D03*
X414020Y224790D02*
D03*
X314689Y300957D02*
D03*
X428989Y326443D02*
D03*
X302209Y419498D02*
D03*
X480060Y300990D02*
D03*
X275590Y402590D02*
D03*
X403589Y300957D02*
D03*
X460739Y313657D02*
D03*
X575039D02*
D03*
X593090Y326443D02*
D03*
X289424Y372110D02*
D03*
X555989Y326443D02*
D03*
X435339Y262857D02*
D03*
X333739Y237457D02*
D03*
X365489Y275557D02*
D03*
X422639Y288257D02*
D03*
X289424Y386792D02*
D03*
X556260Y300990D02*
D03*
X289424Y265430D02*
D03*
X409939Y313657D02*
D03*
X302260Y224790D02*
D03*
X384539Y262857D02*
D03*
X340089Y250157D02*
D03*
X378189Y224757D02*
D03*
X467089Y326443D02*
D03*
X390889Y250157D02*
D03*
X409939Y262857D02*
D03*
X314689Y275557D02*
D03*
X279400Y234950D02*
D03*
X441689Y300957D02*
D03*
X327389D02*
D03*
X422639Y237457D02*
D03*
X581660Y300990D02*
D03*
X416289Y326443D02*
D03*
X448039Y262857D02*
D03*
X426720Y224790D02*
D03*
X479789Y326443D02*
D03*
X371839Y262857D02*
D03*
X384539Y313657D02*
D03*
X409939Y288257D02*
D03*
X321039Y262857D02*
D03*
X587739Y313657D02*
D03*
X358826Y288665D02*
D03*
X378189Y326443D02*
D03*
X335280D02*
D03*
X568689D02*
D03*
X378189Y300957D02*
D03*
X289424Y346710D02*
D03*
X505189Y326443D02*
D03*
X390889Y300957D02*
D03*
X340089Y275557D02*
D03*
X518160Y300990D02*
D03*
X321039Y313657D02*
D03*
X397239Y237457D02*
D03*
X345948Y262857D02*
D03*
X403589Y326443D02*
D03*
X530589D02*
D03*
X593090Y300990D02*
D03*
X345948Y297180D02*
D03*
X318008Y326443D02*
D03*
X448039Y313657D02*
D03*
X302209Y343362D02*
D03*
Y385659D02*
D03*
X358826Y306187D02*
D03*
X301989Y250157D02*
D03*
X345948Y306070D02*
D03*
X358826Y192185D02*
D03*
X302209Y300957D02*
D03*
X289424Y359410D02*
D03*
X345948Y255270D02*
D03*
X321039Y288257D02*
D03*
X301989Y275557D02*
D03*
X333739Y262857D02*
D03*
X370066Y326443D02*
D03*
X275590Y375208D02*
D03*
X302209Y394119D02*
D03*
X416289Y250157D02*
D03*
X397239Y288257D02*
D03*
X308339Y313657D02*
D03*
X345948Y288257D02*
D03*
X390889Y275557D02*
D03*
X275590Y389890D02*
D03*
X327389Y250157D02*
D03*
X365489D02*
D03*
X448039Y288257D02*
D03*
X498839Y313657D02*
D03*
X416289Y275557D02*
D03*
X549639Y313657D02*
D03*
X314960Y224790D02*
D03*
X314689Y250157D02*
D03*
X371839Y237457D02*
D03*
X348774Y139441D02*
D03*
X336074D02*
D03*
X348774Y152304D02*
D03*
X336074D02*
D03*
X361474Y114266D02*
D03*
X348774D02*
D03*
X336074D02*
D03*
X323374D02*
D03*
X361474Y139666D02*
D03*
Y126966D02*
D03*
X348774D02*
D03*
X336074D02*
D03*
X323374D02*
D03*
Y139666D02*
D03*
Y152366D02*
D03*
X361474D02*
D03*
X158710Y358114D02*
D03*
Y344906D02*
D03*
X152106Y351510D02*
D03*
X165314D02*
D03*
X158710D02*
D03*
X214630Y220980D02*
D03*
X218440Y374650D02*
D03*
X229870Y220980D02*
D03*
X232848Y272218D02*
D03*
X10160Y419100D02*
D03*
X215900Y363220D02*
D03*
X51409Y295132D02*
D03*
X144780Y309880D02*
D03*
X147320Y293370D02*
D03*
X342708Y186690D02*
D03*
X311150Y191770D02*
D03*
X308610Y205542D02*
D03*
X137422Y112768D02*
D03*
X447040Y125730D02*
D03*
X426782Y137098D02*
D03*
X511810Y223520D02*
D03*
X553720Y217170D02*
D03*
X449580Y168666D02*
D03*
X462280Y202184D02*
D03*
X390652Y189230D02*
D03*
X535940Y80010D02*
D03*
X530860Y123190D02*
D03*
X547370Y61223D02*
D03*
X348730Y67350D02*
D03*
X349250Y78740D02*
D03*
X191740Y76170D02*
D03*
X95468Y178852D02*
D03*
X87630Y374650D02*
D03*
X7620Y34290D02*
D03*
X24130Y69850D02*
D03*
X10160D02*
D03*
X558800Y123190D02*
D03*
X450850Y38100D02*
D03*
X375920Y69850D02*
D03*
Y82550D02*
D03*
X287020Y176530D02*
D03*
X396240Y199390D02*
D03*
X87630Y353060D02*
D03*
X106842Y425149D02*
D03*
X102154Y409008D02*
D03*
X168910Y408940D02*
D03*
X149860Y276860D02*
D03*
X95250Y288290D02*
D03*
X136144Y127508D02*
D03*
X102870Y166370D02*
D03*
X547370Y123190D02*
D03*
X545338Y156718D02*
D03*
X560070Y80010D02*
D03*
X579372Y87249D02*
D03*
X469900Y156210D02*
D03*
X449580Y161290D02*
D03*
Y147320D02*
D03*
X189230Y39370D02*
D03*
X140393Y144910D02*
D03*
X576580Y261620D02*
D03*
Y269240D02*
D03*
X500126Y103886D02*
D03*
X415798Y182880D02*
D03*
X25146Y196596D02*
D03*
X9906Y17018D02*
D03*
X519938Y69850D02*
D03*
X577342Y162560D02*
D03*
X560070Y156210D02*
D03*
M02*
