G04*
G04 #@! TF.GenerationSoftware,Altium Limited,Altium Designer,22.9.1 (49)*
G04*
G04 Layer_Physical_Order=2*
G04 Layer_Color=16711680*
%FSLAX44Y44*%
%MOMM*%
G71*
G04*
G04 #@! TF.SameCoordinates,777D21A2-CDB7-466F-AFFE-F37339BB67B1*
G04*
G04*
G04 #@! TF.FilePolarity,Positive*
G04*
G01*
G75*
%ADD11C,0.1524*%
%ADD17C,0.2540*%
%ADD148C,0.2032*%
%ADD149C,0.3810*%
%ADD151C,0.5080*%
%ADD153C,0.3048*%
%ADD154R,1.6200X1.6200*%
%ADD155C,1.6200*%
%ADD156O,0.8128X1.5500*%
%ADD157O,1.3000X0.8128*%
%ADD158R,1.5080X1.5080*%
%ADD159C,1.5080*%
%ADD160R,1.5080X1.5080*%
%ADD161R,1.3700X1.3700*%
%ADD162C,1.3700*%
%ADD163C,0.5588*%
G04:AMPARAMS|DCode=164|XSize=4.2mm|YSize=2.3368mm|CornerRadius=0.5842mm|HoleSize=0mm|Usage=FLASHONLY|Rotation=180.000|XOffset=0mm|YOffset=0mm|HoleType=Round|Shape=RoundedRectangle|*
%AMROUNDEDRECTD164*
21,1,4.2000,1.1684,0,0,180.0*
21,1,3.0316,2.3368,0,0,180.0*
1,1,1.1684,-1.5158,0.5842*
1,1,1.1684,1.5158,0.5842*
1,1,1.1684,1.5158,-0.5842*
1,1,1.1684,-1.5158,-0.5842*
%
%ADD164ROUNDEDRECTD164*%
%ADD165R,4.2000X2.3368*%
G36*
X302547Y329124D02*
X596850D01*
Y2590D01*
X2590D01*
Y166057D01*
Y431750D01*
X302547D01*
Y329124D01*
D02*
G37*
%LPC*%
G36*
X198280Y424530D02*
Y415620D01*
X203671D01*
Y418036D01*
X203444Y419760D01*
X202779Y421367D01*
X201720Y422746D01*
X200340Y423805D01*
X198734Y424470D01*
X198280Y424530D01*
D02*
G37*
G36*
X195740D02*
X195286Y424470D01*
X193680Y423805D01*
X192300Y422746D01*
X191241Y421367D01*
X190576Y419760D01*
X190349Y418036D01*
Y415620D01*
X195740D01*
Y424530D01*
D02*
G37*
G36*
X268280D02*
Y415620D01*
X273671D01*
Y418036D01*
X273444Y419760D01*
X272779Y421367D01*
X271720Y422746D01*
X270340Y423805D01*
X268734Y424470D01*
X268280Y424530D01*
D02*
G37*
G36*
X265740D02*
X265286Y424470D01*
X263680Y423805D01*
X262300Y422746D01*
X261241Y421367D01*
X260576Y419760D01*
X260349Y418036D01*
Y415620D01*
X265740D01*
Y424530D01*
D02*
G37*
G36*
X195740Y413080D02*
X190349D01*
Y410664D01*
X190576Y408940D01*
X191241Y407333D01*
X192300Y405954D01*
X193680Y404895D01*
X195286Y404230D01*
X195740Y404170D01*
Y413080D01*
D02*
G37*
G36*
X273671Y413080D02*
X268280D01*
Y404170D01*
X268734Y404230D01*
X270340Y404895D01*
X271720Y405954D01*
X272779Y407333D01*
X273444Y408940D01*
X273671Y410664D01*
Y413080D01*
D02*
G37*
G36*
X265740D02*
X260349D01*
Y410664D01*
X260576Y408940D01*
X261241Y407333D01*
X262300Y405954D01*
X263680Y404895D01*
X265286Y404230D01*
X265740Y404170D01*
Y413080D01*
D02*
G37*
G36*
X203671Y413080D02*
X198280D01*
Y404170D01*
X198734Y404230D01*
X200340Y404895D01*
X201720Y405954D01*
X202779Y407333D01*
X203444Y408940D01*
X203671Y410664D01*
Y413080D01*
D02*
G37*
G36*
X44930Y405610D02*
X35560D01*
Y396240D01*
X44930D01*
Y405610D01*
D02*
G37*
G36*
X33020D02*
X23650D01*
Y396240D01*
X33020D01*
Y405610D01*
D02*
G37*
G36*
X259446Y394011D02*
X258280D01*
Y388620D01*
X265940D01*
X265880Y389074D01*
X265215Y390681D01*
X264156Y392060D01*
X262777Y393119D01*
X261170Y393784D01*
X259446Y394011D01*
D02*
G37*
G36*
X209446D02*
X208280D01*
Y388620D01*
X215940D01*
X215880Y389074D01*
X215215Y390681D01*
X214156Y392060D01*
X212777Y393119D01*
X211170Y393784D01*
X209446Y394011D01*
D02*
G37*
G36*
X255740D02*
X254574D01*
X252850Y393784D01*
X251243Y393119D01*
X249864Y392060D01*
X248805Y390681D01*
X248140Y389074D01*
X248080Y388620D01*
X255740D01*
Y394011D01*
D02*
G37*
G36*
X205740D02*
X204574D01*
X202850Y393784D01*
X201243Y393119D01*
X199864Y392060D01*
X198805Y390681D01*
X198140Y389074D01*
X198080Y388620D01*
X205740D01*
Y394011D01*
D02*
G37*
G36*
X44930Y393700D02*
X35560D01*
Y384330D01*
X44930D01*
Y393700D01*
D02*
G37*
G36*
X33020D02*
X23650D01*
Y384330D01*
X33020D01*
Y393700D01*
D02*
G37*
G36*
X265940Y386080D02*
X258280D01*
Y380689D01*
X259446D01*
X261170Y380916D01*
X262777Y381581D01*
X264156Y382640D01*
X265215Y384020D01*
X265880Y385626D01*
X265940Y386080D01*
D02*
G37*
G36*
X255740D02*
X248080D01*
X248140Y385626D01*
X248805Y384020D01*
X249864Y382640D01*
X251243Y381581D01*
X252850Y380916D01*
X254574Y380689D01*
X255740D01*
Y386080D01*
D02*
G37*
G36*
X215940D02*
X208280D01*
Y380689D01*
X209446D01*
X211170Y380916D01*
X212777Y381581D01*
X214156Y382640D01*
X215215Y384020D01*
X215880Y385626D01*
X215940Y386080D01*
D02*
G37*
G36*
X205740D02*
X198080D01*
X198140Y385626D01*
X198805Y384020D01*
X199864Y382640D01*
X201243Y381581D01*
X202850Y380916D01*
X204574Y380689D01*
X205740D01*
Y386080D01*
D02*
G37*
G36*
X35557Y379194D02*
X33023D01*
X30575Y378538D01*
X28381Y377271D01*
X26589Y375479D01*
X25322Y373285D01*
X24666Y370837D01*
Y368303D01*
X25322Y365855D01*
X26589Y363661D01*
X28381Y361869D01*
X30575Y360602D01*
X33023Y359946D01*
X35557D01*
X38005Y360602D01*
X40199Y361869D01*
X41991Y363661D01*
X43258Y365855D01*
X43914Y368303D01*
Y370837D01*
X43258Y373285D01*
X41991Y375479D01*
X40199Y377271D01*
X38005Y378538D01*
X35557Y379194D01*
D02*
G37*
G36*
X44197Y347444D02*
X41663D01*
X39215Y346788D01*
X37021Y345521D01*
X35229Y343729D01*
X33962Y341535D01*
X33306Y339087D01*
Y336553D01*
X33962Y334105D01*
X35229Y331911D01*
X37021Y330119D01*
X39215Y328852D01*
X41663Y328196D01*
X44197D01*
X46645Y328852D01*
X48839Y330119D01*
X50631Y331911D01*
X51898Y334105D01*
X52554Y336553D01*
Y339087D01*
X51898Y341535D01*
X50631Y343729D01*
X48839Y345521D01*
X46645Y346788D01*
X44197Y347444D01*
D02*
G37*
G36*
X52554Y322044D02*
X33306D01*
Y302796D01*
X52554D01*
Y322044D01*
D02*
G37*
G36*
X289734Y286994D02*
X271606D01*
Y268866D01*
X289734D01*
Y286994D01*
D02*
G37*
G36*
X281997Y263010D02*
X281940D01*
Y254200D01*
X290750D01*
Y254257D01*
X290063Y256821D01*
X288736Y259119D01*
X286859Y260996D01*
X284561Y262323D01*
X281997Y263010D01*
D02*
G37*
G36*
X279400D02*
X279343D01*
X276779Y262323D01*
X274481Y260996D01*
X272604Y259119D01*
X271277Y256821D01*
X270590Y254257D01*
Y254200D01*
X279400D01*
Y263010D01*
D02*
G37*
G36*
X58023Y262302D02*
X57966D01*
Y253492D01*
X66776D01*
Y253549D01*
X66089Y256113D01*
X64762Y258411D01*
X62885Y260288D01*
X60587Y261615D01*
X58023Y262302D01*
D02*
G37*
G36*
X55426D02*
X55369D01*
X52805Y261615D01*
X50507Y260288D01*
X48630Y258411D01*
X47303Y256113D01*
X46616Y253549D01*
Y253492D01*
X55426D01*
Y262302D01*
D02*
G37*
G36*
X40760Y261286D02*
X22632D01*
Y243158D01*
X40760D01*
Y261286D01*
D02*
G37*
G36*
X290750Y251660D02*
X281940D01*
Y242850D01*
X281997D01*
X284561Y243537D01*
X286859Y244864D01*
X288736Y246741D01*
X290063Y249039D01*
X290750Y251603D01*
Y251660D01*
D02*
G37*
G36*
X279400D02*
X270590D01*
Y251603D01*
X271277Y249039D01*
X272604Y246741D01*
X274481Y244864D01*
X276779Y243537D01*
X279343Y242850D01*
X279400D01*
Y251660D01*
D02*
G37*
G36*
X66776Y250952D02*
X57966D01*
Y242142D01*
X58023D01*
X60587Y242829D01*
X62885Y244156D01*
X64762Y246033D01*
X66089Y248331D01*
X66776Y250895D01*
Y250952D01*
D02*
G37*
G36*
X55426D02*
X46616D01*
Y250895D01*
X47303Y248331D01*
X48630Y246033D01*
X50507Y244156D01*
X52805Y242829D01*
X55369Y242142D01*
X55426D01*
Y250952D01*
D02*
G37*
G36*
X540609Y202438D02*
X538891D01*
X537304Y201781D01*
X536089Y200566D01*
X535432Y198979D01*
Y198746D01*
X531952Y195266D01*
X518230D01*
X518066Y195431D01*
X516479Y196088D01*
X514761D01*
X513174Y195431D01*
X511959Y194216D01*
X511302Y192629D01*
Y190911D01*
X511959Y189324D01*
X513174Y188109D01*
X514761Y187452D01*
X516479D01*
X518066Y188109D01*
X518230Y188274D01*
X533400D01*
X534738Y188540D01*
X535872Y189298D01*
X540376Y193802D01*
X540609D01*
X542196Y194459D01*
X543411Y195674D01*
X544068Y197261D01*
Y198979D01*
X543411Y200566D01*
X542196Y201781D01*
X540609Y202438D01*
D02*
G37*
G36*
X276524Y194818D02*
X231476D01*
Y168402D01*
X276524D01*
Y173940D01*
X283503D01*
X284574Y172869D01*
X286161Y172212D01*
X287879D01*
X289466Y172869D01*
X290681Y174084D01*
X291338Y175671D01*
Y177389D01*
X290681Y178976D01*
X289466Y180191D01*
X287879Y180848D01*
X286161D01*
X284574Y180191D01*
X283503Y179120D01*
X276524D01*
Y194818D01*
D02*
G37*
G36*
X82446Y188699D02*
X80728D01*
X79141Y188042D01*
X77926Y186827D01*
X77269Y185240D01*
Y183522D01*
X77926Y181935D01*
X79141Y180721D01*
X79327Y180643D01*
X84592Y175378D01*
X84782Y174426D01*
X85680Y173081D01*
X91531Y167230D01*
X91175Y166370D01*
X92391D01*
X95224Y163537D01*
X96568Y162639D01*
X98154Y162324D01*
X101355D01*
X102011Y162052D01*
X103729D01*
X105316Y162709D01*
X106531Y163924D01*
X107188Y165511D01*
Y166057D01*
Y167229D01*
X106531Y168816D01*
X105316Y170031D01*
X103729Y170688D01*
X102011D01*
X101825Y170611D01*
X99871D01*
X92628Y177854D01*
X92438Y178806D01*
X91540Y180151D01*
X85519Y186171D01*
X85247Y186827D01*
X84033Y188042D01*
X82446Y188699D01*
D02*
G37*
G36*
X515588Y178788D02*
X496340D01*
Y159540D01*
X515588D01*
Y178788D01*
D02*
G37*
G36*
X546197Y161036D02*
X544479D01*
X542892Y160379D01*
X541677Y159164D01*
X541020Y157577D01*
Y155859D01*
X541677Y154272D01*
X542892Y153057D01*
X544479Y152400D01*
X546197D01*
X547784Y153057D01*
X548606Y153879D01*
X556362D01*
X556409Y153764D01*
X557624Y152549D01*
X559211Y151892D01*
X560929D01*
X562516Y152549D01*
X563731Y153764D01*
X564388Y155351D01*
Y157069D01*
X563731Y158656D01*
X562516Y159871D01*
X560929Y160528D01*
X559211D01*
X557624Y159871D01*
X556409Y158656D01*
X556362Y158541D01*
X549257D01*
X548999Y159164D01*
X547784Y160379D01*
X546197Y161036D01*
D02*
G37*
G36*
X574451Y150250D02*
X574320D01*
Y140880D01*
X583690D01*
Y141011D01*
X582965Y143717D01*
X581564Y146143D01*
X579583Y148124D01*
X577157Y149525D01*
X574451Y150250D01*
D02*
G37*
G36*
X571780D02*
X571649D01*
X568943Y149525D01*
X566517Y148124D01*
X564536Y146143D01*
X563135Y143717D01*
X562410Y141011D01*
Y140880D01*
X571780D01*
Y150250D01*
D02*
G37*
G36*
X507231Y153388D02*
X504697D01*
X502249Y152732D01*
X500055Y151465D01*
X498263Y149673D01*
X496996Y147479D01*
X496340Y145031D01*
Y142497D01*
X496996Y140049D01*
X498263Y137855D01*
X500055Y136063D01*
X502249Y134796D01*
X504697Y134140D01*
X507231D01*
X509679Y134796D01*
X511873Y136063D01*
X513665Y137855D01*
X514932Y140049D01*
X515588Y142497D01*
Y145031D01*
X514932Y147479D01*
X513665Y149673D01*
X511873Y151465D01*
X509679Y152732D01*
X507231Y153388D01*
D02*
G37*
G36*
X583690Y138340D02*
X574320D01*
Y128970D01*
X574451D01*
X577157Y129695D01*
X579583Y131096D01*
X581564Y133077D01*
X582965Y135503D01*
X583690Y138209D01*
Y138340D01*
D02*
G37*
G36*
X571780D02*
X562410D01*
Y138209D01*
X563135Y135503D01*
X564536Y133077D01*
X566517Y131096D01*
X568943Y129695D01*
X571649Y128970D01*
X571780D01*
Y138340D01*
D02*
G37*
G36*
X548229Y127508D02*
X546511D01*
X544924Y126851D01*
X543709Y125636D01*
X543662Y125521D01*
X534568D01*
X534521Y125636D01*
X533306Y126851D01*
X531719Y127508D01*
X530001D01*
X528414Y126851D01*
X527199Y125636D01*
X526542Y124049D01*
Y122331D01*
X527199Y120744D01*
X528414Y119529D01*
X530001Y118872D01*
X531719D01*
X533306Y119529D01*
X534521Y120744D01*
X534568Y120859D01*
X543662D01*
X543709Y120744D01*
X544924Y119529D01*
X546511Y118872D01*
X548229D01*
X549816Y119529D01*
X551031Y120744D01*
X551688Y122331D01*
Y124049D01*
X551031Y125636D01*
X549816Y126851D01*
X548229Y127508D01*
D02*
G37*
G36*
X200407Y141704D02*
X197873D01*
X195425Y141048D01*
X193231Y139781D01*
X191439Y137989D01*
X190172Y135795D01*
X189516Y133347D01*
Y130813D01*
X190172Y128365D01*
X191439Y126171D01*
X193231Y124379D01*
X195425Y123112D01*
X197873Y122456D01*
X200407D01*
X202855Y123112D01*
X205049Y124379D01*
X206841Y126171D01*
X208108Y128365D01*
X208764Y130813D01*
Y133347D01*
X208108Y135795D01*
X206841Y137989D01*
X205049Y139781D01*
X202855Y141048D01*
X200407Y141704D01*
D02*
G37*
G36*
X427641Y141416D02*
X425923D01*
X424336Y140758D01*
X423121Y139544D01*
X422464Y137957D01*
Y136239D01*
X423121Y134652D01*
X424336Y133437D01*
X425923Y132780D01*
X427641D01*
X429228Y133437D01*
X430443Y134652D01*
X430490Y134767D01*
X434707D01*
X442770Y126704D01*
X442722Y126589D01*
Y124871D01*
X443379Y123284D01*
X444594Y122069D01*
X446181Y121412D01*
X447899D01*
X449486Y122069D01*
X450701Y123284D01*
X451358Y124871D01*
Y126589D01*
X450701Y128176D01*
X449486Y129391D01*
X447899Y130048D01*
X446181D01*
X446066Y130000D01*
X437320Y138746D01*
X436564Y139251D01*
X435672Y139429D01*
X430490D01*
X430443Y139544D01*
X429228Y140758D01*
X427641Y141416D01*
D02*
G37*
G36*
X137003Y131826D02*
X135285D01*
X133698Y131169D01*
X132483Y129954D01*
X131826Y128367D01*
Y126649D01*
X132483Y125062D01*
X133698Y123847D01*
X134829Y123379D01*
Y116282D01*
X133761Y115214D01*
X133104Y113627D01*
Y111909D01*
X133761Y110322D01*
X134976Y109107D01*
X136563Y108450D01*
X138281D01*
X139868Y109107D01*
X141083Y110322D01*
X141740Y111909D01*
Y113627D01*
X141083Y115214D01*
X139868Y116429D01*
X139491Y116585D01*
Y124748D01*
X139805Y125062D01*
X140462Y126649D01*
Y128367D01*
X139805Y129954D01*
X138590Y131169D01*
X137003Y131826D01*
D02*
G37*
G36*
X269158Y112086D02*
X255270D01*
Y99060D01*
X277612D01*
Y103632D01*
X277324Y105820D01*
X276480Y107859D01*
X275136Y109610D01*
X273385Y110954D01*
X271346Y111798D01*
X269158Y112086D01*
D02*
G37*
G36*
X252730D02*
X238842D01*
X236654Y111798D01*
X234615Y110954D01*
X232864Y109610D01*
X231520Y107859D01*
X230676Y105820D01*
X230388Y103632D01*
Y99060D01*
X252730D01*
Y112086D01*
D02*
G37*
G36*
X208764Y116304D02*
X189516D01*
Y97056D01*
X208764D01*
Y116304D01*
D02*
G37*
G36*
X84114Y93386D02*
X82396D01*
X80809Y92729D01*
X79595Y91514D01*
X78937Y89927D01*
Y88209D01*
X79130Y87744D01*
X78073Y86687D01*
X78006D01*
X77114Y86509D01*
X76358Y86004D01*
X75160Y84806D01*
X75045Y84854D01*
X73327D01*
X71740Y84197D01*
X70525Y82982D01*
X69868Y81395D01*
Y79677D01*
X70525Y78090D01*
X71740Y76875D01*
X73327Y76218D01*
X75045D01*
X76632Y76875D01*
X77847Y78090D01*
X78504Y79677D01*
Y81395D01*
X79507Y82118D01*
X79930Y82203D01*
X80687Y82708D01*
X82729Y84750D01*
X84114D01*
X85701Y85408D01*
X86916Y86622D01*
X87573Y88209D01*
Y89927D01*
X86916Y91514D01*
X85701Y92729D01*
X84114Y93386D01*
D02*
G37*
G36*
X277612Y96520D02*
X255270D01*
Y83494D01*
X269158D01*
X271346Y83782D01*
X273385Y84626D01*
X275136Y85970D01*
X276480Y87721D01*
X277324Y89760D01*
X277612Y91948D01*
Y96520D01*
D02*
G37*
G36*
X252730D02*
X230388D01*
Y91948D01*
X230676Y89760D01*
X231520Y87721D01*
X232864Y85970D01*
X234615Y84626D01*
X236654Y83782D01*
X238842Y83494D01*
X252730D01*
Y96520D01*
D02*
G37*
G36*
X560929Y84328D02*
X559211D01*
X557624Y83671D01*
X556409Y82456D01*
X556362Y82341D01*
X539648D01*
X539601Y82456D01*
X538386Y83671D01*
X536799Y84328D01*
X535081D01*
X533494Y83671D01*
X532279Y82456D01*
X531622Y80869D01*
Y79151D01*
X532279Y77564D01*
X533494Y76349D01*
X535081Y75692D01*
X536799D01*
X538386Y76349D01*
X539601Y77564D01*
X539648Y77679D01*
X556362D01*
X556409Y77564D01*
X557624Y76349D01*
X559211Y75692D01*
X560929D01*
X562516Y76349D01*
X563731Y77564D01*
X564388Y79151D01*
Y80869D01*
X563731Y82456D01*
X562516Y83671D01*
X560929Y84328D01*
D02*
G37*
G36*
X92299Y85598D02*
X90581D01*
X88994Y84941D01*
X87779Y83726D01*
X87122Y82139D01*
Y80421D01*
X87170Y80306D01*
X83455Y76591D01*
X83205Y76694D01*
X81487D01*
X79900Y76037D01*
X78685Y74822D01*
X78028Y73235D01*
Y71517D01*
X78685Y69930D01*
X79900Y68716D01*
X81487Y68058D01*
X83205D01*
X84792Y68716D01*
X86006Y69930D01*
X86664Y71517D01*
Y73208D01*
X90466Y77010D01*
X90581Y76962D01*
X92299D01*
X93886Y77619D01*
X95101Y78834D01*
X95758Y80421D01*
Y82139D01*
X95101Y83726D01*
X93886Y84941D01*
X92299Y85598D01*
D02*
G37*
G36*
X257270Y80490D02*
X247900D01*
Y71120D01*
X257270D01*
Y80490D01*
D02*
G37*
G36*
X245360D02*
X235990D01*
Y71120D01*
X245360D01*
Y80490D01*
D02*
G37*
G36*
X575467Y74050D02*
X575336D01*
Y64680D01*
X584706D01*
Y64811D01*
X583981Y67517D01*
X582580Y69943D01*
X580599Y71924D01*
X578173Y73325D01*
X575467Y74050D01*
D02*
G37*
G36*
X572796D02*
X572665D01*
X569959Y73325D01*
X567533Y71924D01*
X565552Y69943D01*
X564151Y67517D01*
X563426Y64811D01*
Y64680D01*
X572796D01*
Y74050D01*
D02*
G37*
G36*
X216917Y79474D02*
X214383D01*
X211935Y78818D01*
X209741Y77551D01*
X207949Y75759D01*
X206682Y73565D01*
X206026Y71117D01*
Y68583D01*
X206682Y66135D01*
X207949Y63941D01*
X209741Y62149D01*
X211935Y60882D01*
X214383Y60226D01*
X216917D01*
X219365Y60882D01*
X221559Y62149D01*
X223351Y63941D01*
X224618Y66135D01*
X225274Y68583D01*
Y71117D01*
X224618Y73565D01*
X223351Y75759D01*
X221559Y77551D01*
X219365Y78818D01*
X216917Y79474D01*
D02*
G37*
G36*
X257270Y68580D02*
X247900D01*
Y59210D01*
X257270D01*
Y68580D01*
D02*
G37*
G36*
X245360D02*
X235990D01*
Y59210D01*
X245360D01*
Y68580D01*
D02*
G37*
G36*
X584706Y62140D02*
X575336D01*
Y52770D01*
X575467D01*
X578173Y53495D01*
X580599Y54896D01*
X582580Y56877D01*
X583981Y59303D01*
X584706Y62009D01*
Y62140D01*
D02*
G37*
G36*
X572796D02*
X563426D01*
Y62009D01*
X564151Y59303D01*
X565552Y56877D01*
X567533Y54896D01*
X569959Y53495D01*
X572665Y52770D01*
X572796D01*
Y62140D01*
D02*
G37*
G36*
X548229Y65541D02*
X546511D01*
X544924Y64884D01*
X543709Y63669D01*
X543052Y62082D01*
Y60364D01*
X543362Y59617D01*
X532302Y48558D01*
X532060Y48697D01*
X529930Y49268D01*
X527725D01*
X525596Y48697D01*
X523686Y47595D01*
X522127Y46036D01*
X521025Y44126D01*
X520454Y41996D01*
Y39792D01*
X521025Y37662D01*
X522127Y35752D01*
X523686Y34193D01*
X525596Y33091D01*
X527725Y32520D01*
X529930D01*
X532060Y33091D01*
X533970Y34193D01*
X535529Y35752D01*
X536631Y37662D01*
X537202Y39792D01*
Y41996D01*
X536631Y44126D01*
X535838Y45501D01*
X547242Y56905D01*
X548229D01*
X549816Y57563D01*
X551031Y58777D01*
X551688Y60364D01*
Y62082D01*
X551031Y63669D01*
X549816Y64884D01*
X548229Y65541D01*
D02*
G37*
G36*
X248031Y55090D02*
X247900D01*
Y45720D01*
X257270D01*
Y45851D01*
X256545Y48557D01*
X255144Y50983D01*
X253163Y52964D01*
X250737Y54365D01*
X248031Y55090D01*
D02*
G37*
G36*
X245360D02*
X245229D01*
X242523Y54365D01*
X240097Y52964D01*
X238116Y50983D01*
X236715Y48557D01*
X235990Y45851D01*
Y45720D01*
X245360D01*
Y55090D01*
D02*
G37*
G36*
X438554Y45670D02*
X436837D01*
X435250Y45013D01*
X434035Y43798D01*
X433378Y42211D01*
Y41430D01*
X433140Y41193D01*
X421538D01*
X421491Y41308D01*
X420276Y42523D01*
X418689Y43180D01*
X416971D01*
X415384Y42523D01*
X414169Y41308D01*
X413512Y39721D01*
Y38003D01*
X414072Y36650D01*
X414167Y36401D01*
X413925Y34864D01*
X413309Y34248D01*
X412652Y32661D01*
Y30943D01*
X413309Y29356D01*
X414524Y28142D01*
X416111Y27484D01*
X417829D01*
X418179Y27629D01*
X419599Y26990D01*
X420010Y25998D01*
X420708Y25301D01*
Y14602D01*
X419781Y13676D01*
X419124Y12089D01*
Y10371D01*
X419781Y8784D01*
X420996Y7569D01*
X422583Y6912D01*
X424301D01*
X425888Y7569D01*
X427103Y8784D01*
X427760Y10371D01*
Y12089D01*
X427103Y13676D01*
X426405Y14373D01*
Y25072D01*
X427331Y25998D01*
X427989Y27585D01*
Y29303D01*
X427533Y30404D01*
X428207Y31674D01*
X433614D01*
X433661Y31559D01*
X434876Y30344D01*
X436463Y29687D01*
X438181D01*
X439768Y30344D01*
X440983Y31559D01*
X441640Y33146D01*
Y34864D01*
X440983Y36451D01*
X440075Y37358D01*
X440141Y37692D01*
X441356Y38906D01*
X442014Y40493D01*
Y42211D01*
X441356Y43798D01*
X440141Y45013D01*
X438554Y45670D01*
D02*
G37*
G36*
X316740Y61810D02*
X315022D01*
X313435Y61152D01*
X312220Y59938D01*
X311563Y58351D01*
Y56633D01*
X312220Y55046D01*
X312773Y54493D01*
Y48609D01*
X313010Y47420D01*
X313684Y46411D01*
X314366Y45729D01*
Y44150D01*
X315024Y42563D01*
X316238Y41348D01*
X317825Y40691D01*
X319543D01*
X321130Y41348D01*
X322345Y42563D01*
X323002Y44150D01*
Y45868D01*
X322345Y47455D01*
X321130Y48670D01*
X319569Y49317D01*
X318989Y49896D01*
Y54493D01*
X319542Y55046D01*
X320199Y56633D01*
Y58351D01*
X319542Y59938D01*
X318327Y61152D01*
X316740Y61810D01*
D02*
G37*
G36*
X192599Y80488D02*
X190881D01*
X189294Y79831D01*
X188079Y78616D01*
X187422Y77029D01*
Y75311D01*
X187631Y74807D01*
X187582Y74758D01*
X187077Y74002D01*
X186899Y73110D01*
Y43078D01*
X186784Y43031D01*
X185569Y41816D01*
X184912Y40229D01*
Y38511D01*
X185569Y36924D01*
X186784Y35709D01*
X188371Y35052D01*
X190089D01*
X191676Y35709D01*
X192891Y36924D01*
X193548Y38511D01*
Y40229D01*
X192891Y41816D01*
X191676Y43031D01*
X191561Y43078D01*
Y71852D01*
X192599D01*
X194186Y72509D01*
X195401Y73724D01*
X196058Y75311D01*
Y77029D01*
X195401Y78616D01*
X194186Y79831D01*
X192599Y80488D01*
D02*
G37*
G36*
X225274Y54074D02*
X206026D01*
Y34826D01*
X225274D01*
Y54074D01*
D02*
G37*
G36*
X257270Y43180D02*
X247900D01*
Y33810D01*
X248031D01*
X250737Y34535D01*
X253163Y35936D01*
X255144Y37917D01*
X256545Y40343D01*
X257270Y43049D01*
Y43180D01*
D02*
G37*
G36*
X245360D02*
X235990D01*
Y43049D01*
X236715Y40343D01*
X238116Y37917D01*
X240097Y35936D01*
X242523Y34535D01*
X245229Y33810D01*
X245360D01*
Y43180D01*
D02*
G37*
G36*
X504530Y49268D02*
X502326D01*
X500196Y48697D01*
X498286Y47595D01*
X496727Y46036D01*
X495625Y44126D01*
X495054Y41996D01*
Y39792D01*
X495625Y37662D01*
X496727Y35752D01*
X498286Y34193D01*
X500196Y33091D01*
X502326Y32520D01*
X504530D01*
X506660Y33091D01*
X508570Y34193D01*
X510129Y35752D01*
X511231Y37662D01*
X511802Y39792D01*
Y41996D01*
X511231Y44126D01*
X510129Y46036D01*
X508570Y47595D01*
X506660Y48697D01*
X504530Y49268D01*
D02*
G37*
G36*
X486402D02*
X469654D01*
Y32520D01*
X486402D01*
Y49268D01*
D02*
G37*
%LPD*%
D11*
X82536Y72376D02*
X91440Y81280D01*
X416970Y31802D02*
X417747Y32580D01*
X417830Y38862D02*
X434106D01*
X417747Y32580D02*
X420451D01*
X421876Y34005D01*
X437322D01*
X434106Y38862D02*
X436596Y41352D01*
X437696D01*
X79038Y84356D02*
X83255Y88573D01*
Y89068D01*
X82346Y72376D02*
X82536D01*
X74186Y80536D02*
X78006Y84356D01*
X137160Y113030D02*
X137422Y112768D01*
X137160Y113030D02*
Y125942D01*
X136144Y126958D02*
X137160Y125942D01*
X136144Y126958D02*
Y127508D01*
X426782Y137098D02*
X435672D01*
X447040Y125730D01*
X535940Y80010D02*
X560070D01*
X530860Y123190D02*
X547370D01*
X528828Y41788D02*
X547370Y60330D01*
Y61223D01*
X528828Y40894D02*
Y41788D01*
X189230Y73110D02*
X191740Y75620D01*
Y76170D01*
X78006Y84356D02*
X79038D01*
X189230Y39370D02*
Y73110D01*
X546354Y156210D02*
X560070D01*
X545846Y156718D02*
X546354Y156210D01*
D17*
X423442Y11230D02*
X423556Y11344D01*
Y28330D02*
X423671Y28444D01*
X423556Y11344D02*
Y28330D01*
D148*
X273050Y177464D02*
Y186088D01*
X273984Y176530D02*
X287020D01*
X273050Y177464D02*
X273984Y176530D01*
D149*
X515620Y191770D02*
X533400D01*
X539750Y198120D01*
D151*
X88610Y176011D02*
Y177220D01*
Y176011D02*
X98154Y166467D01*
X81587Y184244D02*
Y184381D01*
Y184244D02*
X88610Y177220D01*
X98154Y166467D02*
X102773D01*
D153*
X315881Y48609D02*
X318198Y46292D01*
Y45495D02*
X318684Y45009D01*
X318198Y45495D02*
Y46292D01*
X315881Y48609D02*
Y57492D01*
X102773Y166467D02*
X102870Y166370D01*
D154*
X34290Y394970D02*
D03*
X42930Y312420D02*
D03*
X199140Y106680D02*
D03*
X505964Y169164D02*
D03*
X246630Y69850D02*
D03*
X215650Y44450D02*
D03*
D155*
X34290Y369570D02*
D03*
X42930Y337820D02*
D03*
X199140Y132080D02*
D03*
X505964Y143764D02*
D03*
X246630Y44450D02*
D03*
X215650Y69850D02*
D03*
X574066Y63410D02*
D03*
X573050Y139610D02*
D03*
D156*
X197010Y414350D02*
D03*
X267010D02*
D03*
D157*
X207010Y387350D02*
D03*
X257010D02*
D03*
D158*
X31696Y252222D02*
D03*
D159*
X56696D02*
D03*
X280670Y252930D02*
D03*
D160*
Y277930D02*
D03*
D161*
X478028Y40894D02*
D03*
D162*
X503428D02*
D03*
X528828D02*
D03*
D163*
X91440Y81280D02*
D03*
X45720Y196850D02*
D03*
X195961Y52451D02*
D03*
X181991Y66421D02*
D03*
X417830Y38862D02*
D03*
X416970Y31802D02*
D03*
X423671Y28444D02*
D03*
X423442Y11230D02*
D03*
X539750Y198120D02*
D03*
X437322Y34005D02*
D03*
X437696Y41352D02*
D03*
X83999Y167461D02*
D03*
X74186Y80536D02*
D03*
X83255Y89068D02*
D03*
X82346Y72376D02*
D03*
X81587Y184381D02*
D03*
X389128Y150368D02*
D03*
X279400Y325120D02*
D03*
Y299720D02*
D03*
Y312420D02*
D03*
X358826Y262890D02*
D03*
Y271780D02*
D03*
X359269Y237490D02*
D03*
X345553D02*
D03*
Y245110D02*
D03*
X359165Y228600D02*
D03*
X345449Y212057D02*
D03*
X345449Y205733D02*
D03*
X359269Y244902D02*
D03*
X9445Y381149D02*
D03*
X264160Y76200D02*
D03*
X318684Y45009D02*
D03*
X315881Y57492D02*
D03*
X324384Y73976D02*
D03*
X289496Y108204D02*
D03*
X301198Y41248D02*
D03*
X307848Y73976D02*
D03*
X515620Y191770D02*
D03*
X359165Y213360D02*
D03*
X345449Y220980D02*
D03*
X359165D02*
D03*
Y207010D02*
D03*
X378189Y250157D02*
D03*
X289424Y318770D02*
D03*
X345948Y280670D02*
D03*
X358826Y298450D02*
D03*
X428989Y250157D02*
D03*
X289424Y306070D02*
D03*
X581389Y326443D02*
D03*
X371839Y288257D02*
D03*
X308339Y237457D02*
D03*
X401320Y224790D02*
D03*
X279400Y222250D02*
D03*
X345948Y191770D02*
D03*
X327660Y224790D02*
D03*
X384539Y237457D02*
D03*
X486139Y313657D02*
D03*
X302209Y326443D02*
D03*
X358826Y281153D02*
D03*
X308339Y262857D02*
D03*
Y288257D02*
D03*
X403589Y275557D02*
D03*
X345948Y198120D02*
D03*
X562339Y313657D02*
D03*
X327389Y275557D02*
D03*
X517889Y326443D02*
D03*
X454660Y300990D02*
D03*
X275590Y427990D02*
D03*
X289424Y424892D02*
D03*
X543560Y300990D02*
D03*
X473439Y313657D02*
D03*
X416289Y300957D02*
D03*
X378189Y275557D02*
D03*
X302209Y334902D02*
D03*
X311404Y326443D02*
D03*
X397239Y262857D02*
D03*
X302209Y377200D02*
D03*
Y402579D02*
D03*
X321039Y237457D02*
D03*
X397239Y313657D02*
D03*
X275590Y337108D02*
D03*
X403589Y250157D02*
D03*
X289424Y334010D02*
D03*
X441689Y326443D02*
D03*
X361442Y326357D02*
D03*
X371839Y313657D02*
D03*
X289424Y412192D02*
D03*
Y240030D02*
D03*
X365489Y224757D02*
D03*
X467360Y300990D02*
D03*
X492489Y326443D02*
D03*
X524239Y313657D02*
D03*
X340089Y224757D02*
D03*
X428989Y275557D02*
D03*
X302209Y427957D02*
D03*
X358826Y199390D02*
D03*
X439420Y224790D02*
D03*
X435339Y313657D02*
D03*
X543289Y326443D02*
D03*
X289424Y227330D02*
D03*
X333739Y288257D02*
D03*
X388620Y224790D02*
D03*
X302209Y368740D02*
D03*
X505460Y300990D02*
D03*
X333739Y313657D02*
D03*
X422639D02*
D03*
X435339Y237457D02*
D03*
X441689Y275557D02*
D03*
X409939Y237457D02*
D03*
X530860Y300990D02*
D03*
X275590Y362508D02*
D03*
Y349808D02*
D03*
X435339Y288257D02*
D03*
X365489Y300957D02*
D03*
X441689Y250157D02*
D03*
X358850Y313684D02*
D03*
X302209Y360281D02*
D03*
X289424Y293370D02*
D03*
X345948Y313657D02*
D03*
X422639Y262857D02*
D03*
X492760Y300990D02*
D03*
X340089Y300957D02*
D03*
X428989D02*
D03*
X448039Y237457D02*
D03*
X358826Y255270D02*
D03*
X536939Y313657D02*
D03*
X511539D02*
D03*
X384539Y288257D02*
D03*
X568960Y300990D02*
D03*
X390889Y326443D02*
D03*
X454389D02*
D03*
X289424Y399492D02*
D03*
X302209Y351821D02*
D03*
X345948Y271780D02*
D03*
X343662Y326443D02*
D03*
X302209Y411038D02*
D03*
X326390Y326443D02*
D03*
X414020Y224790D02*
D03*
X314689Y300957D02*
D03*
X428989Y326443D02*
D03*
X302209Y419498D02*
D03*
X480060Y300990D02*
D03*
X275590Y402590D02*
D03*
X403589Y300957D02*
D03*
X460739Y313657D02*
D03*
X575039D02*
D03*
X593090Y326443D02*
D03*
X289424Y372110D02*
D03*
X555989Y326443D02*
D03*
X435339Y262857D02*
D03*
X333739Y237457D02*
D03*
X365489Y275557D02*
D03*
X422639Y288257D02*
D03*
X289424Y386792D02*
D03*
X556260Y300990D02*
D03*
X289424Y265430D02*
D03*
X409939Y313657D02*
D03*
X302260Y224790D02*
D03*
X384539Y262857D02*
D03*
X340089Y250157D02*
D03*
X378189Y224757D02*
D03*
X467089Y326443D02*
D03*
X390889Y250157D02*
D03*
X409939Y262857D02*
D03*
X314689Y275557D02*
D03*
X279400Y234950D02*
D03*
X441689Y300957D02*
D03*
X327389D02*
D03*
X422639Y237457D02*
D03*
X581660Y300990D02*
D03*
X416289Y326443D02*
D03*
X448039Y262857D02*
D03*
X426720Y224790D02*
D03*
X479789Y326443D02*
D03*
X371839Y262857D02*
D03*
X384539Y313657D02*
D03*
X409939Y288257D02*
D03*
X321039Y262857D02*
D03*
X587739Y313657D02*
D03*
X358826Y288665D02*
D03*
X378189Y326443D02*
D03*
X335280D02*
D03*
X568689D02*
D03*
X378189Y300957D02*
D03*
X289424Y346710D02*
D03*
X505189Y326443D02*
D03*
X390889Y300957D02*
D03*
X340089Y275557D02*
D03*
X518160Y300990D02*
D03*
X321039Y313657D02*
D03*
X397239Y237457D02*
D03*
X345948Y262857D02*
D03*
X403589Y326443D02*
D03*
X530589D02*
D03*
X593090Y300990D02*
D03*
X345948Y297180D02*
D03*
X318008Y326443D02*
D03*
X448039Y313657D02*
D03*
X302209Y343362D02*
D03*
Y385659D02*
D03*
X358826Y306187D02*
D03*
X301989Y250157D02*
D03*
X345948Y306070D02*
D03*
X358826Y192185D02*
D03*
X302209Y300957D02*
D03*
X289424Y359410D02*
D03*
X345948Y255270D02*
D03*
X321039Y288257D02*
D03*
X301989Y275557D02*
D03*
X333739Y262857D02*
D03*
X370066Y326443D02*
D03*
X275590Y375208D02*
D03*
X302209Y394119D02*
D03*
X416289Y250157D02*
D03*
X397239Y288257D02*
D03*
X308339Y313657D02*
D03*
X345948Y288257D02*
D03*
X390889Y275557D02*
D03*
X275590Y389890D02*
D03*
X327389Y250157D02*
D03*
X365489D02*
D03*
X448039Y288257D02*
D03*
X498839Y313657D02*
D03*
X416289Y275557D02*
D03*
X549639Y313657D02*
D03*
X314960Y224790D02*
D03*
X314689Y250157D02*
D03*
X371839Y237457D02*
D03*
X348774Y139441D02*
D03*
X336074D02*
D03*
X348774Y152304D02*
D03*
X336074D02*
D03*
X361474Y114266D02*
D03*
X348774D02*
D03*
X336074D02*
D03*
X323374D02*
D03*
X361474Y139666D02*
D03*
Y126966D02*
D03*
X348774D02*
D03*
X336074D02*
D03*
X323374D02*
D03*
Y139666D02*
D03*
Y152366D02*
D03*
X361474D02*
D03*
X158710Y358114D02*
D03*
Y344906D02*
D03*
X152106Y351510D02*
D03*
X165314D02*
D03*
X158710D02*
D03*
X214630Y220980D02*
D03*
X218440Y374650D02*
D03*
X229870Y220980D02*
D03*
X232848Y272218D02*
D03*
X10160Y419100D02*
D03*
X215900Y363220D02*
D03*
X51409Y295132D02*
D03*
X144780Y309880D02*
D03*
X147320Y293370D02*
D03*
X342708Y186690D02*
D03*
X311150Y191770D02*
D03*
X308610Y205542D02*
D03*
X137422Y112768D02*
D03*
X447040Y125730D02*
D03*
X426782Y137098D02*
D03*
X511810Y223520D02*
D03*
X553720Y217170D02*
D03*
X449580Y168666D02*
D03*
X462280Y202184D02*
D03*
X390652Y189230D02*
D03*
X535940Y80010D02*
D03*
X530860Y123190D02*
D03*
X547370Y61223D02*
D03*
X348730Y67350D02*
D03*
X349250Y78740D02*
D03*
X191740Y76170D02*
D03*
X95468Y178852D02*
D03*
X87630Y374650D02*
D03*
X7620Y34290D02*
D03*
X24130Y69850D02*
D03*
X10160D02*
D03*
X558800Y123190D02*
D03*
X450850Y38100D02*
D03*
X375920Y69850D02*
D03*
Y82550D02*
D03*
X287020Y176530D02*
D03*
X396240Y199390D02*
D03*
X87630Y353060D02*
D03*
X106842Y425149D02*
D03*
X102154Y409008D02*
D03*
X168910Y408940D02*
D03*
X149860Y276860D02*
D03*
X95250Y288290D02*
D03*
X136144Y127508D02*
D03*
X102870Y166370D02*
D03*
X547370Y123190D02*
D03*
X545338Y156718D02*
D03*
X560070Y80010D02*
D03*
X579372Y87249D02*
D03*
X469900Y156210D02*
D03*
X449580Y161290D02*
D03*
Y147320D02*
D03*
X189230Y39370D02*
D03*
X140393Y144910D02*
D03*
X576580Y261620D02*
D03*
Y269240D02*
D03*
X500126Y103886D02*
D03*
X415798Y182880D02*
D03*
X25146Y196596D02*
D03*
X9906Y17018D02*
D03*
X519938Y69850D02*
D03*
X577342Y162560D02*
D03*
X560070Y156210D02*
D03*
D164*
X254000Y97790D02*
D03*
D165*
Y181610D02*
D03*
M02*
