G04*
G04 #@! TF.GenerationSoftware,Altium Limited,Altium Designer,22.9.1 (49)*
G04*
G04 Layer_Color=255*
%FSLAX44Y44*%
%MOMM*%
G71*
G04*
G04 #@! TF.SameCoordinates,777D21A2-CDB7-466F-AFFE-F37339BB67B1*
G04*
G04*
G04 #@! TF.FilePolarity,Positive*
G04*
G01*
G75*
G04:AMPARAMS|DCode=26|XSize=0.6mm|YSize=0.5mm|CornerRadius=0.125mm|HoleSize=0mm|Usage=FLASHONLY|Rotation=270.000|XOffset=0mm|YOffset=0mm|HoleType=Round|Shape=RoundedRectangle|*
%AMROUNDEDRECTD26*
21,1,0.6000,0.2500,0,0,270.0*
21,1,0.3500,0.5000,0,0,270.0*
1,1,0.2500,-0.1250,-0.1750*
1,1,0.2500,-0.1250,0.1750*
1,1,0.2500,0.1250,0.1750*
1,1,0.2500,0.1250,-0.1750*
%
%ADD26ROUNDEDRECTD26*%
G04:AMPARAMS|DCode=27|XSize=0.4mm|YSize=0.35mm|CornerRadius=0.0875mm|HoleSize=0mm|Usage=FLASHONLY|Rotation=270.000|XOffset=0mm|YOffset=0mm|HoleType=Round|Shape=RoundedRectangle|*
%AMROUNDEDRECTD27*
21,1,0.4000,0.1750,0,0,270.0*
21,1,0.2250,0.3500,0,0,270.0*
1,1,0.1750,-0.0875,-0.1125*
1,1,0.1750,-0.0875,0.1125*
1,1,0.1750,0.0875,0.1125*
1,1,0.1750,0.0875,-0.1125*
%
%ADD27ROUNDEDRECTD27*%
G04:AMPARAMS|DCode=28|XSize=0.3mm|YSize=0.3mm|CornerRadius=0.075mm|HoleSize=0mm|Usage=FLASHONLY|Rotation=180.000|XOffset=0mm|YOffset=0mm|HoleType=Round|Shape=RoundedRectangle|*
%AMROUNDEDRECTD28*
21,1,0.3000,0.1500,0,0,180.0*
21,1,0.1500,0.3000,0,0,180.0*
1,1,0.1500,-0.0750,0.0750*
1,1,0.1500,0.0750,0.0750*
1,1,0.1500,0.0750,-0.0750*
1,1,0.1500,-0.0750,-0.0750*
%
%ADD28ROUNDEDRECTD28*%
G04:AMPARAMS|DCode=29|XSize=0.35mm|YSize=0.4mm|CornerRadius=0.0875mm|HoleSize=0mm|Usage=FLASHONLY|Rotation=90.000|XOffset=0mm|YOffset=0mm|HoleType=Round|Shape=RoundedRectangle|*
%AMROUNDEDRECTD29*
21,1,0.3500,0.2250,0,0,90.0*
21,1,0.1750,0.4000,0,0,90.0*
1,1,0.1750,0.1125,0.0875*
1,1,0.1750,0.1125,-0.0875*
1,1,0.1750,-0.1125,-0.0875*
1,1,0.1750,-0.1125,0.0875*
%
%ADD29ROUNDEDRECTD29*%
G04:AMPARAMS|DCode=30|XSize=0.4mm|YSize=0.35mm|CornerRadius=0.0875mm|HoleSize=0mm|Usage=FLASHONLY|Rotation=180.000|XOffset=0mm|YOffset=0mm|HoleType=Round|Shape=RoundedRectangle|*
%AMROUNDEDRECTD30*
21,1,0.4000,0.1750,0,0,180.0*
21,1,0.2250,0.3500,0,0,180.0*
1,1,0.1750,-0.1125,0.0875*
1,1,0.1750,0.1125,0.0875*
1,1,0.1750,0.1125,-0.0875*
1,1,0.1750,-0.1125,-0.0875*
%
%ADD30ROUNDEDRECTD30*%
G04:AMPARAMS|DCode=31|XSize=1.45mm|YSize=0.95mm|CornerRadius=0.2375mm|HoleSize=0mm|Usage=FLASHONLY|Rotation=0.000|XOffset=0mm|YOffset=0mm|HoleType=Round|Shape=RoundedRectangle|*
%AMROUNDEDRECTD31*
21,1,1.4500,0.4750,0,0,0.0*
21,1,0.9750,0.9500,0,0,0.0*
1,1,0.4750,0.4875,-0.2375*
1,1,0.4750,-0.4875,-0.2375*
1,1,0.4750,-0.4875,0.2375*
1,1,0.4750,0.4875,0.2375*
%
%ADD31ROUNDEDRECTD31*%
G04:AMPARAMS|DCode=32|XSize=0.8mm|YSize=0.8mm|CornerRadius=0.2mm|HoleSize=0mm|Usage=FLASHONLY|Rotation=0.000|XOffset=0mm|YOffset=0mm|HoleType=Round|Shape=RoundedRectangle|*
%AMROUNDEDRECTD32*
21,1,0.8000,0.4000,0,0,0.0*
21,1,0.4000,0.8000,0,0,0.0*
1,1,0.4000,0.2000,-0.2000*
1,1,0.4000,-0.2000,-0.2000*
1,1,0.4000,-0.2000,0.2000*
1,1,0.4000,0.2000,0.2000*
%
%ADD32ROUNDEDRECTD32*%
%ADD33R,2.2000X0.8500*%
G04:AMPARAMS|DCode=34|XSize=0.8mm|YSize=0.8mm|CornerRadius=0.2mm|HoleSize=0mm|Usage=FLASHONLY|Rotation=90.000|XOffset=0mm|YOffset=0mm|HoleType=Round|Shape=RoundedRectangle|*
%AMROUNDEDRECTD34*
21,1,0.8000,0.4000,0,0,90.0*
21,1,0.4000,0.8000,0,0,90.0*
1,1,0.4000,0.2000,0.2000*
1,1,0.4000,0.2000,-0.2000*
1,1,0.4000,-0.2000,-0.2000*
1,1,0.4000,-0.2000,0.2000*
%
%ADD34ROUNDEDRECTD34*%
G04:AMPARAMS|DCode=35|XSize=1.1176mm|YSize=1.8034mm|CornerRadius=0.2794mm|HoleSize=0mm|Usage=FLASHONLY|Rotation=90.000|XOffset=0mm|YOffset=0mm|HoleType=Round|Shape=RoundedRectangle|*
%AMROUNDEDRECTD35*
21,1,1.1176,1.2446,0,0,90.0*
21,1,0.5588,1.8034,0,0,90.0*
1,1,0.5588,0.6223,0.2794*
1,1,0.5588,0.6223,-0.2794*
1,1,0.5588,-0.6223,-0.2794*
1,1,0.5588,-0.6223,0.2794*
%
%ADD35ROUNDEDRECTD35*%
G04:AMPARAMS|DCode=36|XSize=1.1176mm|YSize=1.803mm|CornerRadius=0.2794mm|HoleSize=0mm|Usage=FLASHONLY|Rotation=90.000|XOffset=0mm|YOffset=0mm|HoleType=Round|Shape=RoundedRectangle|*
%AMROUNDEDRECTD36*
21,1,1.1176,1.2442,0,0,90.0*
21,1,0.5588,1.8030,0,0,90.0*
1,1,0.5588,0.6221,0.2794*
1,1,0.5588,0.6221,-0.2794*
1,1,0.5588,-0.6221,-0.2794*
1,1,0.5588,-0.6221,0.2794*
%
%ADD36ROUNDEDRECTD36*%
G04:AMPARAMS|DCode=37|XSize=1.1176mm|YSize=1.8034mm|CornerRadius=0.2794mm|HoleSize=0mm|Usage=FLASHONLY|Rotation=180.000|XOffset=0mm|YOffset=0mm|HoleType=Round|Shape=RoundedRectangle|*
%AMROUNDEDRECTD37*
21,1,1.1176,1.2446,0,0,180.0*
21,1,0.5588,1.8034,0,0,180.0*
1,1,0.5588,-0.2794,0.6223*
1,1,0.5588,0.2794,0.6223*
1,1,0.5588,0.2794,-0.6223*
1,1,0.5588,-0.2794,-0.6223*
%
%ADD37ROUNDEDRECTD37*%
G04:AMPARAMS|DCode=38|XSize=1.1176mm|YSize=1.803mm|CornerRadius=0.2794mm|HoleSize=0mm|Usage=FLASHONLY|Rotation=180.000|XOffset=0mm|YOffset=0mm|HoleType=Round|Shape=RoundedRectangle|*
%AMROUNDEDRECTD38*
21,1,1.1176,1.2442,0,0,180.0*
21,1,0.5588,1.8030,0,0,180.0*
1,1,0.5588,-0.2794,0.6221*
1,1,0.5588,0.2794,0.6221*
1,1,0.5588,0.2794,-0.6221*
1,1,0.5588,-0.2794,-0.6221*
%
%ADD38ROUNDEDRECTD38*%
G04:AMPARAMS|DCode=39|XSize=2.7mm|YSize=1.6mm|CornerRadius=0.4mm|HoleSize=0mm|Usage=FLASHONLY|Rotation=270.000|XOffset=0mm|YOffset=0mm|HoleType=Round|Shape=RoundedRectangle|*
%AMROUNDEDRECTD39*
21,1,2.7000,0.8000,0,0,270.0*
21,1,1.9000,1.6000,0,0,270.0*
1,1,0.8000,-0.4000,-0.9500*
1,1,0.8000,-0.4000,0.9500*
1,1,0.8000,0.4000,0.9500*
1,1,0.8000,0.4000,-0.9500*
%
%ADD39ROUNDEDRECTD39*%
G04:AMPARAMS|DCode=40|XSize=0.95mm|YSize=0.9mm|CornerRadius=0.225mm|HoleSize=0mm|Usage=FLASHONLY|Rotation=0.000|XOffset=0mm|YOffset=0mm|HoleType=Round|Shape=RoundedRectangle|*
%AMROUNDEDRECTD40*
21,1,0.9500,0.4500,0,0,0.0*
21,1,0.5000,0.9000,0,0,0.0*
1,1,0.4500,0.2500,-0.2250*
1,1,0.4500,-0.2500,-0.2250*
1,1,0.4500,-0.2500,0.2250*
1,1,0.4500,0.2500,0.2250*
%
%ADD40ROUNDEDRECTD40*%
G04:AMPARAMS|DCode=41|XSize=0.5mm|YSize=0.4mm|CornerRadius=0.1mm|HoleSize=0mm|Usage=FLASHONLY|Rotation=180.000|XOffset=0mm|YOffset=0mm|HoleType=Round|Shape=RoundedRectangle|*
%AMROUNDEDRECTD41*
21,1,0.5000,0.2000,0,0,180.0*
21,1,0.3000,0.4000,0,0,180.0*
1,1,0.2000,-0.1500,0.1000*
1,1,0.2000,0.1500,0.1000*
1,1,0.2000,0.1500,-0.1000*
1,1,0.2000,-0.1500,-0.1000*
%
%ADD41ROUNDEDRECTD41*%
G04:AMPARAMS|DCode=42|XSize=0.45mm|YSize=0.5mm|CornerRadius=0.1125mm|HoleSize=0mm|Usage=FLASHONLY|Rotation=270.000|XOffset=0mm|YOffset=0mm|HoleType=Round|Shape=RoundedRectangle|*
%AMROUNDEDRECTD42*
21,1,0.4500,0.2750,0,0,270.0*
21,1,0.2250,0.5000,0,0,270.0*
1,1,0.2250,-0.1375,-0.1125*
1,1,0.2250,-0.1375,0.1125*
1,1,0.2250,0.1375,0.1125*
1,1,0.2250,0.1375,-0.1125*
%
%ADD42ROUNDEDRECTD42*%
G04:AMPARAMS|DCode=43|XSize=0.45mm|YSize=0.5mm|CornerRadius=0.1125mm|HoleSize=0mm|Usage=FLASHONLY|Rotation=0.000|XOffset=0mm|YOffset=0mm|HoleType=Round|Shape=RoundedRectangle|*
%AMROUNDEDRECTD43*
21,1,0.4500,0.2750,0,0,0.0*
21,1,0.2250,0.5000,0,0,0.0*
1,1,0.2250,0.1125,-0.1375*
1,1,0.2250,-0.1125,-0.1375*
1,1,0.2250,-0.1125,0.1375*
1,1,0.2250,0.1125,0.1375*
%
%ADD43ROUNDEDRECTD43*%
G04:AMPARAMS|DCode=44|XSize=1.5mm|YSize=1.55mm|CornerRadius=0.375mm|HoleSize=0mm|Usage=FLASHONLY|Rotation=180.000|XOffset=0mm|YOffset=0mm|HoleType=Round|Shape=RoundedRectangle|*
%AMROUNDEDRECTD44*
21,1,1.5000,0.8000,0,0,180.0*
21,1,0.7500,1.5500,0,0,180.0*
1,1,0.7500,-0.3750,0.4000*
1,1,0.7500,0.3750,0.4000*
1,1,0.7500,0.3750,-0.4000*
1,1,0.7500,-0.3750,-0.4000*
%
%ADD44ROUNDEDRECTD44*%
G04:AMPARAMS|DCode=45|XSize=0.4mm|YSize=1.35mm|CornerRadius=0.1mm|HoleSize=0mm|Usage=FLASHONLY|Rotation=180.000|XOffset=0mm|YOffset=0mm|HoleType=Round|Shape=RoundedRectangle|*
%AMROUNDEDRECTD45*
21,1,0.4000,1.1500,0,0,180.0*
21,1,0.2000,1.3500,0,0,180.0*
1,1,0.2000,-0.1000,0.5750*
1,1,0.2000,0.1000,0.5750*
1,1,0.2000,0.1000,-0.5750*
1,1,0.2000,-0.1000,-0.5750*
%
%ADD45ROUNDEDRECTD45*%
%ADD46R,2.4000X0.7600*%
G04:AMPARAMS|DCode=47|XSize=0.76mm|YSize=2.4mm|CornerRadius=0.19mm|HoleSize=0mm|Usage=FLASHONLY|Rotation=270.000|XOffset=0mm|YOffset=0mm|HoleType=Round|Shape=RoundedRectangle|*
%AMROUNDEDRECTD47*
21,1,0.7600,2.0200,0,0,270.0*
21,1,0.3800,2.4000,0,0,270.0*
1,1,0.3800,-1.0100,-0.1900*
1,1,0.3800,-1.0100,0.1900*
1,1,0.3800,1.0100,0.1900*
1,1,0.3800,1.0100,-0.1900*
%
%ADD47ROUNDEDRECTD47*%
G04:AMPARAMS|DCode=48|XSize=0.7mm|YSize=0.74mm|CornerRadius=0.175mm|HoleSize=0mm|Usage=FLASHONLY|Rotation=90.000|XOffset=0mm|YOffset=0mm|HoleType=Round|Shape=RoundedRectangle|*
%AMROUNDEDRECTD48*
21,1,0.7000,0.3900,0,0,90.0*
21,1,0.3500,0.7400,0,0,90.0*
1,1,0.3500,0.1950,0.1750*
1,1,0.3500,0.1950,-0.1750*
1,1,0.3500,-0.1950,-0.1750*
1,1,0.3500,-0.1950,0.1750*
%
%ADD48ROUNDEDRECTD48*%
G04:AMPARAMS|DCode=49|XSize=3.2mm|YSize=1mm|CornerRadius=0.25mm|HoleSize=0mm|Usage=FLASHONLY|Rotation=270.000|XOffset=0mm|YOffset=0mm|HoleType=Round|Shape=RoundedRectangle|*
%AMROUNDEDRECTD49*
21,1,3.2000,0.5000,0,0,270.0*
21,1,2.7000,1.0000,0,0,270.0*
1,1,0.5000,-0.2500,-1.3500*
1,1,0.5000,-0.2500,1.3500*
1,1,0.5000,0.2500,1.3500*
1,1,0.5000,0.2500,-1.3500*
%
%ADD49ROUNDEDRECTD49*%
G04:AMPARAMS|DCode=50|XSize=0.7mm|YSize=0.74mm|CornerRadius=0.175mm|HoleSize=0mm|Usage=FLASHONLY|Rotation=0.000|XOffset=0mm|YOffset=0mm|HoleType=Round|Shape=RoundedRectangle|*
%AMROUNDEDRECTD50*
21,1,0.7000,0.3900,0,0,0.0*
21,1,0.3500,0.7400,0,0,0.0*
1,1,0.3500,0.1750,-0.1950*
1,1,0.3500,-0.1750,-0.1950*
1,1,0.3500,-0.1750,0.1950*
1,1,0.3500,0.1750,0.1950*
%
%ADD50ROUNDEDRECTD50*%
G04:AMPARAMS|DCode=51|XSize=0.9mm|YSize=0.65mm|CornerRadius=0.1625mm|HoleSize=0mm|Usage=FLASHONLY|Rotation=180.000|XOffset=0mm|YOffset=0mm|HoleType=Round|Shape=RoundedRectangle|*
%AMROUNDEDRECTD51*
21,1,0.9000,0.3250,0,0,180.0*
21,1,0.5750,0.6500,0,0,180.0*
1,1,0.3250,-0.2875,0.1625*
1,1,0.3250,0.2875,0.1625*
1,1,0.3250,0.2875,-0.1625*
1,1,0.3250,-0.2875,-0.1625*
%
%ADD51ROUNDEDRECTD51*%
G04:AMPARAMS|DCode=52|XSize=0.9mm|YSize=0.65mm|CornerRadius=0.1625mm|HoleSize=0mm|Usage=FLASHONLY|Rotation=270.000|XOffset=0mm|YOffset=0mm|HoleType=Round|Shape=RoundedRectangle|*
%AMROUNDEDRECTD52*
21,1,0.9000,0.3250,0,0,270.0*
21,1,0.5750,0.6500,0,0,270.0*
1,1,0.3250,-0.1625,-0.2875*
1,1,0.3250,-0.1625,0.2875*
1,1,0.3250,0.1625,0.2875*
1,1,0.3250,0.1625,-0.2875*
%
%ADD52ROUNDEDRECTD52*%
%ADD53R,2.1000X1.4000*%
G04:AMPARAMS|DCode=54|XSize=2.1mm|YSize=1.4mm|CornerRadius=0.35mm|HoleSize=0mm|Usage=FLASHONLY|Rotation=0.000|XOffset=0mm|YOffset=0mm|HoleType=Round|Shape=RoundedRectangle|*
%AMROUNDEDRECTD54*
21,1,2.1000,0.7000,0,0,0.0*
21,1,1.4000,1.4000,0,0,0.0*
1,1,0.7000,0.7000,-0.3500*
1,1,0.7000,-0.7000,-0.3500*
1,1,0.7000,-0.7000,0.3500*
1,1,0.7000,0.7000,0.3500*
%
%ADD54ROUNDEDRECTD54*%
%ADD55R,1.4000X2.1000*%
G04:AMPARAMS|DCode=56|XSize=2.1mm|YSize=1.4mm|CornerRadius=0.35mm|HoleSize=0mm|Usage=FLASHONLY|Rotation=270.000|XOffset=0mm|YOffset=0mm|HoleType=Round|Shape=RoundedRectangle|*
%AMROUNDEDRECTD56*
21,1,2.1000,0.7000,0,0,270.0*
21,1,1.4000,1.4000,0,0,270.0*
1,1,0.7000,-0.3500,-0.7000*
1,1,0.7000,-0.3500,0.7000*
1,1,0.7000,0.3500,0.7000*
1,1,0.7000,0.3500,-0.7000*
%
%ADD56ROUNDEDRECTD56*%
%ADD57C,1.5240*%
G04:AMPARAMS|DCode=58|XSize=0.22mm|YSize=0.86mm|CornerRadius=0.055mm|HoleSize=0mm|Usage=FLASHONLY|Rotation=180.000|XOffset=0mm|YOffset=0mm|HoleType=Round|Shape=RoundedRectangle|*
%AMROUNDEDRECTD58*
21,1,0.2200,0.7500,0,0,180.0*
21,1,0.1100,0.8600,0,0,180.0*
1,1,0.1100,-0.0550,0.3750*
1,1,0.1100,0.0550,0.3750*
1,1,0.1100,0.0550,-0.3750*
1,1,0.1100,-0.0550,-0.3750*
%
%ADD58ROUNDEDRECTD58*%
G04:AMPARAMS|DCode=59|XSize=0.22mm|YSize=0.86mm|CornerRadius=0.055mm|HoleSize=0mm|Usage=FLASHONLY|Rotation=270.000|XOffset=0mm|YOffset=0mm|HoleType=Round|Shape=RoundedRectangle|*
%AMROUNDEDRECTD59*
21,1,0.2200,0.7500,0,0,270.0*
21,1,0.1100,0.8600,0,0,270.0*
1,1,0.1100,-0.3750,-0.0550*
1,1,0.1100,-0.3750,0.0550*
1,1,0.1100,0.3750,0.0550*
1,1,0.1100,0.3750,-0.0550*
%
%ADD59ROUNDEDRECTD59*%
%ADD60R,0.8600X0.2200*%
G04:AMPARAMS|DCode=61|XSize=0.24mm|YSize=0.6mm|CornerRadius=0.06mm|HoleSize=0mm|Usage=FLASHONLY|Rotation=180.000|XOffset=0mm|YOffset=0mm|HoleType=Round|Shape=RoundedRectangle|*
%AMROUNDEDRECTD61*
21,1,0.2400,0.4800,0,0,180.0*
21,1,0.1200,0.6000,0,0,180.0*
1,1,0.1200,-0.0600,0.2400*
1,1,0.1200,0.0600,0.2400*
1,1,0.1200,0.0600,-0.2400*
1,1,0.1200,-0.0600,-0.2400*
%
%ADD61ROUNDEDRECTD61*%
G04:AMPARAMS|DCode=62|XSize=0.24mm|YSize=0.6mm|CornerRadius=0.06mm|HoleSize=0mm|Usage=FLASHONLY|Rotation=270.000|XOffset=0mm|YOffset=0mm|HoleType=Round|Shape=RoundedRectangle|*
%AMROUNDEDRECTD62*
21,1,0.2400,0.4800,0,0,270.0*
21,1,0.1200,0.6000,0,0,270.0*
1,1,0.1200,-0.2400,-0.0600*
1,1,0.1200,-0.2400,0.0600*
1,1,0.1200,0.2400,0.0600*
1,1,0.1200,0.2400,-0.0600*
%
%ADD62ROUNDEDRECTD62*%
%ADD63R,0.6000X0.2400*%
G04:AMPARAMS|DCode=64|XSize=0.8mm|YSize=0.9mm|CornerRadius=0.2mm|HoleSize=0mm|Usage=FLASHONLY|Rotation=90.000|XOffset=0mm|YOffset=0mm|HoleType=Round|Shape=RoundedRectangle|*
%AMROUNDEDRECTD64*
21,1,0.8000,0.5000,0,0,90.0*
21,1,0.4000,0.9000,0,0,90.0*
1,1,0.4000,0.2500,0.2000*
1,1,0.4000,0.2500,-0.2000*
1,1,0.4000,-0.2500,-0.2000*
1,1,0.4000,-0.2500,0.2000*
%
%ADD64ROUNDEDRECTD64*%
G04:AMPARAMS|DCode=65|XSize=0.55mm|YSize=1.145mm|CornerRadius=0.1375mm|HoleSize=0mm|Usage=FLASHONLY|Rotation=180.000|XOffset=0mm|YOffset=0mm|HoleType=Round|Shape=RoundedRectangle|*
%AMROUNDEDRECTD65*
21,1,0.5500,0.8700,0,0,180.0*
21,1,0.2750,1.1450,0,0,180.0*
1,1,0.2750,-0.1375,0.4350*
1,1,0.2750,0.1375,0.4350*
1,1,0.2750,0.1375,-0.4350*
1,1,0.2750,-0.1375,-0.4350*
%
%ADD65ROUNDEDRECTD65*%
G04:AMPARAMS|DCode=66|XSize=0.55mm|YSize=1.145mm|CornerRadius=0.1375mm|HoleSize=0mm|Usage=FLASHONLY|Rotation=270.000|XOffset=0mm|YOffset=0mm|HoleType=Round|Shape=RoundedRectangle|*
%AMROUNDEDRECTD66*
21,1,0.5500,0.8700,0,0,270.0*
21,1,0.2750,1.1450,0,0,270.0*
1,1,0.2750,-0.4350,-0.1375*
1,1,0.2750,-0.4350,0.1375*
1,1,0.2750,0.4350,0.1375*
1,1,0.2750,0.4350,-0.1375*
%
%ADD66ROUNDEDRECTD66*%
%ADD67R,1.1450X0.5500*%
G04:AMPARAMS|DCode=68|XSize=0.3mm|YSize=0.8mm|CornerRadius=0.075mm|HoleSize=0mm|Usage=FLASHONLY|Rotation=0.000|XOffset=0mm|YOffset=0mm|HoleType=Round|Shape=RoundedRectangle|*
%AMROUNDEDRECTD68*
21,1,0.3000,0.6500,0,0,0.0*
21,1,0.1500,0.8000,0,0,0.0*
1,1,0.1500,0.0750,-0.3250*
1,1,0.1500,-0.0750,-0.3250*
1,1,0.1500,-0.0750,0.3250*
1,1,0.1500,0.0750,0.3250*
%
%ADD68ROUNDEDRECTD68*%
G04:AMPARAMS|DCode=69|XSize=0.3mm|YSize=0.8mm|CornerRadius=0.075mm|HoleSize=0mm|Usage=FLASHONLY|Rotation=90.000|XOffset=0mm|YOffset=0mm|HoleType=Round|Shape=RoundedRectangle|*
%AMROUNDEDRECTD69*
21,1,0.3000,0.6500,0,0,90.0*
21,1,0.1500,0.8000,0,0,90.0*
1,1,0.1500,0.3250,0.0750*
1,1,0.1500,0.3250,-0.0750*
1,1,0.1500,-0.3250,-0.0750*
1,1,0.1500,-0.3250,0.0750*
%
%ADD69ROUNDEDRECTD69*%
%ADD70R,0.8000X0.3000*%
%ADD73R,0.4500X0.3000*%
G04:AMPARAMS|DCode=74|XSize=0.3mm|YSize=0.45mm|CornerRadius=0.075mm|HoleSize=0mm|Usage=FLASHONLY|Rotation=270.000|XOffset=0mm|YOffset=0mm|HoleType=Round|Shape=RoundedRectangle|*
%AMROUNDEDRECTD74*
21,1,0.3000,0.3000,0,0,270.0*
21,1,0.1500,0.4500,0,0,270.0*
1,1,0.1500,-0.1500,-0.0750*
1,1,0.1500,-0.1500,0.0750*
1,1,0.1500,0.1500,0.0750*
1,1,0.1500,0.1500,-0.0750*
%
%ADD74ROUNDEDRECTD74*%
G04:AMPARAMS|DCode=75|XSize=1.1mm|YSize=1.9mm|CornerRadius=0.275mm|HoleSize=0mm|Usage=FLASHONLY|Rotation=0.000|XOffset=0mm|YOffset=0mm|HoleType=Round|Shape=RoundedRectangle|*
%AMROUNDEDRECTD75*
21,1,1.1000,1.3500,0,0,0.0*
21,1,0.5500,1.9000,0,0,0.0*
1,1,0.5500,0.2750,-0.6750*
1,1,0.5500,-0.2750,-0.6750*
1,1,0.5500,-0.2750,0.6750*
1,1,0.5500,0.2750,0.6750*
%
%ADD75ROUNDEDRECTD75*%
%ADD76R,1.1000X1.4000*%
G04:AMPARAMS|DCode=77|XSize=1.4mm|YSize=1.1mm|CornerRadius=0.275mm|HoleSize=0mm|Usage=FLASHONLY|Rotation=270.000|XOffset=0mm|YOffset=0mm|HoleType=Round|Shape=RoundedRectangle|*
%AMROUNDEDRECTD77*
21,1,1.4000,0.5500,0,0,270.0*
21,1,0.8500,1.1000,0,0,270.0*
1,1,0.5500,-0.2750,-0.4250*
1,1,0.5500,-0.2750,0.4250*
1,1,0.5500,0.2750,0.4250*
1,1,0.5500,0.2750,-0.4250*
%
%ADD77ROUNDEDRECTD77*%
%ADD142R,4.4500X4.4500*%
%ADD143R,2.0500X2.0500*%
G04:AMPARAMS|DCode=144|XSize=0.6mm|YSize=0.522mm|CornerRadius=0.1305mm|HoleSize=0mm|Usage=FLASHONLY|Rotation=90.000|XOffset=0mm|YOffset=0mm|HoleType=Round|Shape=RoundedRectangle|*
%AMROUNDEDRECTD144*
21,1,0.6000,0.2610,0,0,90.0*
21,1,0.3390,0.5220,0,0,90.0*
1,1,0.2610,0.1305,0.1695*
1,1,0.2610,0.1305,-0.1695*
1,1,0.2610,-0.1305,-0.1695*
1,1,0.2610,-0.1305,0.1695*
%
%ADD144ROUNDEDRECTD144*%
%ADD145R,0.5220X0.6000*%
%ADD146R,19.8628X0.9906*%
%ADD147R,1.0160X8.5852*%
%ADD154R,1.6200X1.6200*%
%ADD155C,1.6200*%
%ADD156O,0.8128X1.5500*%
%ADD157O,1.3000X0.8128*%
%ADD158R,1.5080X1.5080*%
%ADD159C,1.5080*%
%ADD160R,1.5080X1.5080*%
%ADD161R,1.3700X1.3700*%
%ADD162C,1.3700*%
D26*
X401240Y212090D02*
D03*
X391240D02*
D03*
X312500Y213360D02*
D03*
X322500D02*
D03*
D27*
X345924Y182069D02*
D03*
X352424D02*
D03*
D28*
Y199828D02*
D03*
Y205828D02*
D03*
Y251138D02*
D03*
Y257138D02*
D03*
D29*
Y229880D02*
D03*
X344734Y229881D02*
D03*
D30*
X352424Y284682D02*
D03*
Y278182D02*
D03*
D31*
X21590Y310290D02*
D03*
Y329790D02*
D03*
D32*
X9348Y373454D02*
D03*
Y357454D02*
D03*
X576834Y253872D02*
D03*
Y237872D02*
D03*
X324358Y82294D02*
D03*
Y66294D02*
D03*
X307848Y66294D02*
D03*
Y82294D02*
D03*
X271780Y68200D02*
D03*
Y84200D02*
D03*
X185116Y386156D02*
D03*
Y402156D02*
D03*
X477774Y134494D02*
D03*
Y150494D02*
D03*
X72340Y303356D02*
D03*
Y319856D02*
D03*
X183642Y190876D02*
D03*
Y174376D02*
D03*
X153670Y191130D02*
D03*
Y174630D02*
D03*
D33*
X290048Y66609D02*
D03*
Y87109D02*
D03*
D34*
X308482Y40894D02*
D03*
X292482D02*
D03*
X297814Y108204D02*
D03*
X281814D02*
D03*
X366650Y82550D02*
D03*
X382650D02*
D03*
X382650Y69850D02*
D03*
X366650D02*
D03*
X370714Y198374D02*
D03*
X386714D02*
D03*
X365634Y183134D02*
D03*
X381634D02*
D03*
X330580Y199390D02*
D03*
X314580D02*
D03*
X334390Y186690D02*
D03*
X318390D02*
D03*
X145620Y302356D02*
D03*
X161620D02*
D03*
X145620Y317596D02*
D03*
X161620D02*
D03*
X208284Y338972D02*
D03*
X192284D02*
D03*
X339346Y71628D02*
D03*
X355346D02*
D03*
X520064Y79456D02*
D03*
X504064D02*
D03*
X553720Y87376D02*
D03*
X569720D02*
D03*
X552990Y162890D02*
D03*
X568990D02*
D03*
X61340Y205740D02*
D03*
X45340D02*
D03*
X32892Y34290D02*
D03*
X16892D02*
D03*
X339346Y85090D02*
D03*
X355346D02*
D03*
X71446Y424996D02*
D03*
X54946D02*
D03*
D35*
X232410Y313944D02*
D03*
D36*
Y282956D02*
D03*
D37*
X70308Y353262D02*
D03*
D38*
X101296D02*
D03*
D39*
X163810Y277570D02*
D03*
X135810D02*
D03*
D40*
X214630Y263910D02*
D03*
Y232410D02*
D03*
D41*
X10160Y412130D02*
D03*
Y398130D02*
D03*
D42*
X224370Y363220D02*
D03*
X235370D02*
D03*
D43*
X229870Y228180D02*
D03*
Y239180D02*
D03*
X44450Y295060D02*
D03*
Y284060D02*
D03*
X29210Y65620D02*
D03*
Y76620D02*
D03*
X15240Y65620D02*
D03*
Y76620D02*
D03*
D44*
X222010Y414350D02*
D03*
X242010D02*
D03*
D45*
X219010Y387350D02*
D03*
X225510D02*
D03*
X232010D02*
D03*
X238510D02*
D03*
X245010D02*
D03*
D46*
X118930Y144780D02*
D03*
D47*
X157930D02*
D03*
X118930Y132080D02*
D03*
X157930D02*
D03*
X118930Y119380D02*
D03*
X157930D02*
D03*
X118930Y106680D02*
D03*
X157930D02*
D03*
X118930Y93980D02*
D03*
X157930D02*
D03*
D48*
X340730Y46990D02*
D03*
X355230D02*
D03*
X532500Y176530D02*
D03*
X547000D02*
D03*
D49*
X210340Y301954D02*
D03*
X188340D02*
D03*
X120678Y317194D02*
D03*
X98678D02*
D03*
D50*
X552450Y112660D02*
D03*
Y98160D02*
D03*
D51*
X576834Y275906D02*
D03*
Y290406D02*
D03*
X248920Y367930D02*
D03*
Y353430D02*
D03*
X466344Y110836D02*
D03*
Y96336D02*
D03*
X451477Y110711D02*
D03*
Y96211D02*
D03*
X152096Y386504D02*
D03*
Y401004D02*
D03*
X135332Y386504D02*
D03*
Y401004D02*
D03*
X118822Y386504D02*
D03*
Y401004D02*
D03*
X81026Y374766D02*
D03*
Y389266D02*
D03*
X168606Y400898D02*
D03*
Y386398D02*
D03*
X102312Y401004D02*
D03*
Y386504D02*
D03*
X477774Y181494D02*
D03*
Y166994D02*
D03*
X450850Y31612D02*
D03*
Y46112D02*
D03*
X526542Y213498D02*
D03*
Y198998D02*
D03*
X561340Y221880D02*
D03*
Y207380D02*
D03*
X544830Y207634D02*
D03*
Y222134D02*
D03*
X577578Y207850D02*
D03*
Y222350D02*
D03*
X121666Y188860D02*
D03*
Y174360D02*
D03*
X289052Y169302D02*
D03*
Y154802D02*
D03*
X138176Y188860D02*
D03*
Y174360D02*
D03*
X198628Y173852D02*
D03*
Y188352D02*
D03*
X168656Y174106D02*
D03*
Y188606D02*
D03*
D52*
X353960Y59690D02*
D03*
X339460D02*
D03*
X71744Y288036D02*
D03*
X86244D02*
D03*
X82180Y405130D02*
D03*
X67680D02*
D03*
X85156Y424996D02*
D03*
X99656D02*
D03*
X457084Y197104D02*
D03*
X442584D02*
D03*
X490104Y79456D02*
D03*
X475604D02*
D03*
X562980Y102870D02*
D03*
X577480D02*
D03*
X559170Y176530D02*
D03*
X573670D02*
D03*
X10276Y206502D02*
D03*
X24776D02*
D03*
X33920Y16764D02*
D03*
X19420D02*
D03*
D53*
X463770Y285640D02*
D03*
X56354Y64406D02*
D03*
D54*
X554770Y285640D02*
D03*
X463770Y240140D02*
D03*
X554770D02*
D03*
X147354Y64406D02*
D03*
X56354Y18906D02*
D03*
X147354D02*
D03*
D55*
X58564Y182914D02*
D03*
D56*
Y91914D02*
D03*
X13064Y182914D02*
D03*
Y91914D02*
D03*
D57*
X191770Y264160D02*
D03*
X473202Y197358D02*
D03*
D58*
X364424Y162666D02*
D03*
X360424D02*
D03*
X356424D02*
D03*
X352424D02*
D03*
X348424D02*
D03*
X344424D02*
D03*
X340424D02*
D03*
X336424D02*
D03*
X332424D02*
D03*
X364424Y103966D02*
D03*
X360424D02*
D03*
X356424D02*
D03*
X352424D02*
D03*
X348424D02*
D03*
X344424D02*
D03*
X340424D02*
D03*
X336424D02*
D03*
X332424D02*
D03*
X328424D02*
D03*
Y162666D02*
D03*
X324424D02*
D03*
X320424D02*
D03*
X324424Y103966D02*
D03*
X320424D02*
D03*
D59*
X371774Y155316D02*
D03*
Y151316D02*
D03*
Y147316D02*
D03*
Y143316D02*
D03*
Y139316D02*
D03*
Y135316D02*
D03*
Y131316D02*
D03*
Y127316D02*
D03*
Y123316D02*
D03*
Y119316D02*
D03*
Y115316D02*
D03*
X313074Y155316D02*
D03*
Y151316D02*
D03*
Y147316D02*
D03*
Y143316D02*
D03*
Y139316D02*
D03*
Y135316D02*
D03*
Y131316D02*
D03*
Y127316D02*
D03*
Y123316D02*
D03*
Y119316D02*
D03*
Y115316D02*
D03*
Y111316D02*
D03*
D60*
X371774D02*
D03*
D61*
X168710Y335010D02*
D03*
X163710D02*
D03*
X158710D02*
D03*
X153710D02*
D03*
X148710D02*
D03*
Y368010D02*
D03*
X153710D02*
D03*
X158710D02*
D03*
X163710D02*
D03*
X168710D02*
D03*
D62*
X142210Y341510D02*
D03*
Y346510D02*
D03*
Y351510D02*
D03*
Y356510D02*
D03*
Y361510D02*
D03*
X175210D02*
D03*
Y356510D02*
D03*
Y351510D02*
D03*
Y346510D02*
D03*
D63*
Y341510D02*
D03*
D64*
X248920Y340360D02*
D03*
Y319360D02*
D03*
X268920Y329860D02*
D03*
D65*
X448564Y136759D02*
D03*
Y178709D02*
D03*
D66*
X437589Y137734D02*
D03*
Y145734D02*
D03*
Y153734D02*
D03*
Y161734D02*
D03*
Y169734D02*
D03*
Y177734D02*
D03*
X459539D02*
D03*
Y169734D02*
D03*
Y161734D02*
D03*
Y153734D02*
D03*
Y145734D02*
D03*
D67*
Y137734D02*
D03*
D68*
X499364Y113086D02*
D03*
Y94086D02*
D03*
D69*
X508864Y111086D02*
D03*
Y106086D02*
D03*
Y101086D02*
D03*
Y96086D02*
D03*
X489864D02*
D03*
Y101086D02*
D03*
Y106086D02*
D03*
D70*
Y111086D02*
D03*
D73*
X506368Y213186D02*
D03*
D74*
Y218186D02*
D03*
Y223186D02*
D03*
X492868D02*
D03*
Y218186D02*
D03*
Y213186D02*
D03*
D75*
X416360Y101600D02*
D03*
X391360D02*
D03*
D76*
X399034Y168656D02*
D03*
D77*
Y146656D02*
D03*
X415034D02*
D03*
Y168656D02*
D03*
D142*
X342424Y133316D02*
D03*
D143*
X158710Y351510D02*
D03*
D144*
X561546Y54400D02*
D03*
X553326Y63400D02*
D03*
Y72400D02*
D03*
X561546D02*
D03*
X560530Y130600D02*
D03*
X552310Y139600D02*
D03*
Y148600D02*
D03*
X560530D02*
D03*
D145*
X553326Y54400D02*
D03*
X552310Y130600D02*
D03*
D146*
X408812Y417246D02*
D03*
D147*
X352424Y372034D02*
D03*
X314578D02*
D03*
D154*
X34290Y394970D02*
D03*
X42930Y312420D02*
D03*
X199140Y106680D02*
D03*
X505964Y169164D02*
D03*
X246630Y69850D02*
D03*
X215650Y44450D02*
D03*
D155*
X34290Y369570D02*
D03*
X42930Y337820D02*
D03*
X199140Y132080D02*
D03*
X505964Y143764D02*
D03*
X246630Y44450D02*
D03*
X215650Y69850D02*
D03*
X574066Y63410D02*
D03*
X573050Y139610D02*
D03*
D156*
X197010Y414350D02*
D03*
X267010D02*
D03*
D157*
X207010Y387350D02*
D03*
X257010D02*
D03*
D158*
X31696Y252222D02*
D03*
D159*
X56696D02*
D03*
X280670Y252930D02*
D03*
D160*
Y277930D02*
D03*
D161*
X478028Y40894D02*
D03*
D162*
X503428D02*
D03*
X528828D02*
D03*
M02*
